<?xml version="1.0" standalone="no"?>
<!DOCTYPE svg PUBLIC "-//W3C//DTD SVG 1.1//EN" "http://www.w3.org/Graphics/SVG/1.1/DTD/svg11.dtd" >
<svg xmlns="http://www.w3.org/2000/svg">
<metadata>
Created by FontPrep 20130207 at Fri Apr  4 10:07:48 2014
 By Torsten Bergler
(c) 2013 Klim Type Foundry. All Rights Reserved.
</metadata>
<defs>
<font id="87ef38439143e21c0555b142c25e044d" horiz-adv-x='1024' >
  <font-face 
    font-family="DomaineDisplayCondensed-Regular"
    font-weight="400"
    font-stretch="condensed"
    units-per-em="2048"
    panose-1="2 10 5 8 8 5 5 6 2 3"
    ascent="1597"
    descent="-451"
    x-height="995"
    cap-height="1434"
    bbox="-219.015 -483.014 1829 1890"
    underline-thickness="77"
    underline-position="-115"
    unicode-range="U+0020-FB04"
  />
<missing-glyph 
 />
    <glyph glyph-name="ff" unicode="ff" horiz-adv-x="944" 
d="M391 0h-358v4q61 31 78 66q16 35 16 135v735h-125v12l125 45v127q0 178 97 276q96 98 236 99q140 0 206 -72q82 113 237 113q93 0 155 -42t62 -116t-36 -112q-36 -39 -100 -39t-97 53q29 12 43 20t30 36t17 67q0 100 -82 100q-137 0 -137 -288v-226h174l-10 -53h-164
v-750q0 -71 7 -88q7 -18 9 -26t11 -16t11 -13q4 -7 33 -21l22 -11q19 -9 23 -11v-4h-378v4q61 31 77 64t17 125v747h-293v-737q1 -98 17 -133t77 -66v-4zM297 993h293v199q-68 0 -101 53q90 27 91 115q0 106 -117 106q-166 0 -166 -258v-215z" />
    <glyph glyph-name="fi" unicode="fi" horiz-adv-x="882" 
d="M297 1194v-199h461v-792q0 -98 17 -133t79 -66v-4h-358v4q61 31 77 65t17 134v631q0 59 -26 84t-79 24h-188v-739q0 -98 16 -133t78 -66v-4h-358v4q61 31 78 66q16 35 16 135v735h-125v12l125 45v101q0 214 100 328t260 114q121 0 196 -49t75 -137q0 -53 -35 -90t-99 -37
t-98 51q82 14 82 108q0 57 -31 90q-32 32 -90 31q-94 0 -142 -89t-48 -224z" />
    <glyph glyph-name="fl" unicode="fl" horiz-adv-x="882" 
d="M758 1546v-1343q0 -98 17 -133t79 -66v-4h-358v4q61 31 77 65t17 134v1171q0 47 -36 90t-103 43q-154 0 -154 -233v-281h217l-10 -53h-207v-737q0 -98 16 -133t78 -66v-4h-358v4q61 31 78 66q16 35 16 135v735h-125v12l125 45v197q0 166 84 256t216 90t200 -88
q63 25 127 94h4z" />
    <glyph glyph-name="ffi" unicode="ffi" horiz-adv-x="1345" 
d="M391 0h-358v4q61 31 78 66q16 35 16 135v735h-125v12l125 45v127q0 178 97 276t246 99q149 0 208 -88q98 129 272 129q121 0 196 -49t75 -137q0 -53 -35 -90q-34 -37 -98 -37t-99 51q80 14 80 108q0 121 -119 121q-94 0 -143 -89t-49 -224v-199h463v-792q0 -98 17 -133
t77 -66v-4h-357v4q61 31 78 65q16 34 17 134v631q0 59 -26 84t-81 24h-188v-739q0 -98 17 -133t79 -66v-4h-358v4q61 31 78 66t16 135v737h-293v-739q1 -98 17 -133t77 -66v-4zM297 995h293v103q0 51 6 94h-4q-70 0 -103 53q90 27 91 115q0 106 -117 106q-166 0 -166 -258
v-213z" />
    <glyph glyph-name="ffl" unicode="ffl" horiz-adv-x="1345" 
d="M391 0h-358v4q61 31 78 66q16 35 16 135v735h-125v12l125 45v127q0 178 97 276q96 98 232 99q136 0 203 -65q84 106 240 106q123 0 191 -88q63 25 127 94h4v-1343q0 -98 17 -133t77 -66v-4h-357v4q61 31 78 65q16 34 17 134v1171q0 47 -36 90t-104 43q-156 0 -155 -233
v-281h219l-10 -53h-209v-737q0 -98 17 -133t79 -66v-4h-358v4q61 31 77 66t17 135v735h-293v-737q1 -98 17 -133t77 -66v-4zM297 993h293v199q-68 0 -101 53q90 27 91 115q0 106 -117 106q-166 0 -166 -258v-215z" />
    <glyph glyph-name="f_b" unicode="fb" horiz-adv-x="1368" 
d="M1141 500q-1 204 -49 328t-132 124t-143 -90t-59 -252v-213q0 -166 58 -259t141 -93t134 126q50 126 50 329zM758 1546v-772q43 242 250 242q131 0 224 -139t93 -375t-96 -378q-96 -144 -234 -144q-93 0 -159 59t-91 178q-20 -150 -178 -237q23 133 23 456v938
q0 47 -36 90t-103 43q-154 0 -154 -233v-281h217l-10 -53h-207v-737q0 -98 16 -133t78 -66v-4h-358v4q61 31 78 66q16 35 16 135v735h-125v12l125 45v197q0 166 84 256t216 90t200 -88q63 25 127 94h4z" />
    <glyph glyph-name="f_f_b" unicode="ffb" horiz-adv-x="1830" 
d="M1423 952q-84 0 -143 -90t-59 -252v-213q0 -166 58 -259t141 -93t133 126q51 126 51 329q0 204 -48 328t-133 124zM297 993h293v199q-68 0 -101 53q90 27 91 115q0 106 -117 106q-166 0 -166 -258v-215zM1458 -20q-92 0 -159 59t-91 178q-12 -80 -65 -143t-113 -94
q23 133 23 456v938q0 47 -36 90t-104 43q-156 0 -155 -233v-281h219l-10 -53h-209v-737q0 -98 17 -133t79 -66v-4h-358v4q61 31 77 66t17 135v735h-293v-737q0 -98 16 -133t78 -66v-4h-358v4q61 31 78 66q16 35 16 135v735h-125v12l125 45v127q0 178 97 276q96 98 232 99
q136 0 203 -65q84 106 240 106q123 0 191 -88q63 25 127 94h4v-772q43 242 249 242q130 0 224 -139t94 -375t-96 -379q-97 -143 -234 -143z" />
    <glyph glyph-name="f_f_h" unicode="ffh" horiz-adv-x="1806" 
d="M391 0h-358v4q61 31 78 66q16 35 16 135v735h-125v12l125 45v127q0 178 97 276q96 98 232 99q136 0 203 -65q84 106 240 106q123 0 191 -88q63 25 127 94h4v-751q29 104 94 162q65 59 159 59t154 -64t62 -190v-559q0 -98 17 -133t77 -66v-4h-357v4q61 31 78 65
q16 34 17 134v540q0 168 -127 168q-74 -1 -124 -69t-50 -215v-424q0 -98 17 -133t77 -66v-4h-357v4q61 31 78 65q16 34 17 134v1171q0 47 -36 90t-104 43q-156 0 -155 -233v-281h219l-10 -53h-209v-737q0 -98 17 -133t79 -66v-4h-358v4q61 31 77 66t17 135v735h-293v-737
q1 -98 17 -133t77 -66v-4zM297 993h293v199q-68 0 -101 53q90 27 91 115q0 106 -117 106q-166 0 -166 -258v-215z" />
    <glyph glyph-name="f_f_j" unicode="ffj" horiz-adv-x="1333" 
d="M956 -481q-116 0 -183 45t-66 135q0 59 39 100q40 41 105 41t93 -53q-94 -27 -94 -119q0 -51 26 -83q26 -31 66 -31q76 1 94 85q17 71 17 179v1016q0 59 -26 84t-81 24h-188v-739q0 -98 17 -133t79 -66v-4h-358v4q61 31 78 66t16 135v737h-293v-739q0 -98 16 -133t78 -66
v-4h-358v4q61 31 78 66q16 35 16 135v735h-125v12l125 45v127q0 178 97 276t246 99q149 0 208 -88q98 129 272 129q121 0 196 -49t75 -137q0 -53 -35 -90q-34 -37 -98 -37t-99 51q80 14 80 108q0 121 -119 121q-94 0 -143 -89t-49 -224v-199h463v-1130q0 -174 -74 -260
q-75 -86 -191 -86zM297 995h293v103q0 51 6 94h-4q-70 0 -103 53q90 27 91 115q0 106 -117 106q-166 0 -166 -258v-213z" />
    <glyph glyph-name="f_f_k" unicode="ffk" horiz-adv-x="1798" 
d="M391 0h-358v4q61 31 78 66q16 35 16 135v735h-125v12l125 45v127q0 178 97 276q96 98 232 99q136 0 203 -65q84 106 240 106q123 0 191 -88q63 25 127 94h4v-973h61q76 0 125 74l119 187q18 27 18 61q0 66 -61 96v4h313v-4q-135 -47 -217 -172l-158 -237l219 -398
q72 -131 189 -180v-4h-291q-6 47 -59 147l-181 338q-25 43 -57 43h-20v-325q0 -98 17 -133t77 -66v-4h-357v4q61 31 78 65q16 34 17 134v1171q0 47 -36 90t-104 43q-156 0 -155 -233v-281h219l-10 -53h-209v-737q0 -98 17 -133t79 -66v-4h-358v4q61 31 77 66t17 135v735
h-293v-737q1 -98 17 -133t77 -66v-4zM297 993h293v199q-68 0 -101 53q90 27 91 115q0 106 -117 106q-166 0 -166 -258v-215z" />
    <glyph glyph-name="f_h" unicode="fh" horiz-adv-x="1343" 
d="M758 1546v-751q29 104 94 162q66 59 160 59t154 -64t61 -190v-559q0 -98 17 -133t77 -66v-4h-356v4q61 31 77 65t17 134v540q0 168 -127 168q-74 -1 -124 -69t-50 -215v-424q0 -98 17 -133t77 -66v-4h-356v4q61 31 77 65t17 134v1171q0 47 -36 90t-103 43
q-154 0 -154 -233v-281h217l-10 -53h-207v-737q0 -98 16 -133t78 -66v-4h-358v4q61 31 78 66q16 35 16 135v735h-125v12l125 45v197q0 166 84 256t216 90t200 -88q63 25 127 94h4z" />
    <glyph glyph-name="f_j" unicode="fj" horiz-adv-x="870" 
d="M494 -481q-116 0 -184 45q-67 45 -66 135q0 59 40 100t104 41t93 -53q-94 -27 -94 -119q0 -51 26 -83q25 -31 65 -31q76 1 95 85q17 71 17 179v1016q0 59 -26 84t-79 24h-188v-739q0 -98 16 -133t78 -66v-4h-358v4q61 31 78 66q16 35 16 135v735h-125v12l125 45v101
q0 214 100 328t260 114q121 0 196 -49t75 -137q0 -53 -35 -90t-99 -37t-98 51q82 14 82 108q0 57 -31 90q-32 32 -90 31q-94 0 -142 -89t-48 -224v-199h461v-1130q0 -174 -74 -260t-190 -86z" />
    <glyph glyph-name="f_k" unicode="fk" horiz-adv-x="1335" 
d="M758 1546v-973h61q76 0 125 74l119 187q18 27 18 61q0 66 -61 96v4h313v-4q-135 -47 -217 -172l-158 -237l220 -398q72 -131 188 -180v-4h-291q-6 47 -59 147l-180 338q-25 43 -58 43h-20v-325q0 -98 17 -133t77 -66v-4h-356v4q61 31 77 65t17 134v1171q0 47 -36 90
t-103 43q-154 0 -154 -233v-281h217l-10 -53h-207v-737q0 -98 16 -133t78 -66v-4h-358v4q61 31 78 66q16 35 16 135v735h-125v12l125 45v197q0 166 84 256t216 90t200 -88q63 25 127 94h4z" />
    <glyph glyph-name="f_idieresis" unicode="f&#xef;" horiz-adv-x="882" 
d="M297 1294v-299h461v-792q0 -98 17 -133t79 -66v-4h-358v4q61 31 77 65t17 134v631q0 59 -26 84t-79 24h-188v-739q0 -98 16 -133t78 -66v-4h-358v4q61 31 78 66q16 35 16 135v735h-125v12l125 45v168q0 167 82 271t209 104q94 0 155 -54t61 -130t-32 -121t-94 -45t-92 61
q38 4 70 40t32 93t-26 91q-27 33 -74 32q-121 0 -121 -213zM901 1296q1 -42 -31 -74t-75 -32t-73 32t-30 74t30 73q30 32 73 32t75 -32t31 -73z" />
    <glyph glyph-name="f_f_idieresis" unicode="ff&#xef;" horiz-adv-x="1343" 
d="M1362 1294q0 -42 -32 -74t-75 -32t-73 32t-29 74q0 42 30 73q31 32 73 32t74 -32t32 -73zM297 993h291v199q-68 4 -99 53q90 27 91 115q0 106 -117 106q-166 0 -166 -258v-215zM1315 -2h-359v4q61 31 78 65q16 34 17 134v630q0 59 -26 84t-79 25h-188v-750q0 -71 7 -88
q7 -18 9 -26t11 -16t11 -13q4 -7 33 -21l22 -11q19 -9 23 -11v-4h-378v4q61 31 77 64t17 125v747h-293v-737q0 -98 16 -133t78 -66v-4h-358v4q61 31 78 66q16 35 16 135v735h-125v12l125 45v127q0 178 97 276q96 98 236 99q140 0 204 -72q84 111 215 111q94 0 155 -54
q62 -54 62 -130t-33 -122q-33 -44 -95 -44t-91 61q39 4 71 40t31 93q0 56 -27 90t-73 33q-121 0 -121 -213v-299h461v-792q-1 -98 17 -133t79 -66v-4z" />
    <glyph glyph-name=".notdef" 
 />
    <glyph glyph-name=".null" horiz-adv-x="0" 
 />
    <glyph glyph-name="nonmarkingreturn" horiz-adv-x="681" 
 />
    <glyph glyph-name="space" unicode=" " horiz-adv-x="266" 
 />
    <glyph glyph-name="exclam" unicode="!" horiz-adv-x="432" 
d="M342 113q0 -53 -37 -90t-90 -37t-89 37t-36 90t36 90t89 37t90 -37t37 -90zM94 1434h244l-117 -1022h-10z" />
    <glyph glyph-name="quotedbl" unicode="&#x22;" horiz-adv-x="587" 
d="M168 1454q68 0 106 -68q-28 -68 -54 -192t-38 -215l-12 -90h-4q-43 346 -105 497q39 68 107 68zM421 1454q71 0 105 -68q-49 -123 -92 -407l-12 -90h-2q-45 346 -105 497q35 68 106 68z" />
    <glyph glyph-name="numbersign" unicode="#" horiz-adv-x="991" 
d="M526 0l66 457h-266l-66 -457h-37l66 457h-250l6 41h250l61 438h-278l6 39h278l66 459h37l-66 -459h267l65 459h41l-65 -459h245l-6 -39h-246l-61 -438h276l-8 -41h-274l-66 -457h-41zM598 498l61 438h-266l-61 -438h266z" />
    <glyph glyph-name="dollar" unicode="$" horiz-adv-x="917" 
d="M434 -20h-24v-213h-31v215q-160 12 -258 91t-98 189q0 72 46 117t104 45t97 -49q-42 4 -68 -28q-26 -31 -26 -107t54 -141t149 -79v658q-160 74 -240 160t-80 233t89 249t231 128v211h31v-207q16 2 47 2t43 -2v207h30v-209q136 -14 222 -82t86 -166q0 -68 -39 -102
t-101 -35q-62 0 -84 39q31 -2 58 32q26 34 26 98t-44 114q-44 49 -124 63v-606l27 -12q82 -39 128 -67t97 -74q97 -87 97 -255q-1 -168 -99 -274t-250 -135v-221h-30v217q-46 -4 -66 -4zM737 328q0 113 -48 172t-159 108v-581q207 53 207 301zM434 16q25 0 66 4v603l-90 41
v-648h24zM205 1140q0 -98 43 -157t131 -104v526q-80 -27 -127 -97t-47 -168zM466 1417q-22 0 -56 -4v-549l90 -43v594q-12 2 -34 2z" />
    <glyph glyph-name="percent" unicode="%" horiz-adv-x="995" 
d="M717 25q55 -1 83 73t27 189q1 115 -27 189t-83 73q-55 0 -83 -75q-28 -76 -28 -188t28 -186t83 -75zM718 -10q-99 0 -168 88t-69 209t69 209t168 88t168 -88q68 -88 68 -209t-68 -209t-168 -88zM276 895q55 0 83 74q28 75 28 189t-28 188t-83 74q-54 0 -82 -76
q-28 -74 -28 -187t28 -187t82 -75zM598 1284q-49 0 -115 19q31 -63 31 -165t-69 -190t-168 -88t-167 88t-69 209q0 121 69 209q68 88 156 88t175 -66t147 -65q60 0 107 24q46 24 68 43t87 83l24 -19l-704 -1454h-72l688 1372q-100 -88 -188 -88z" />
    <glyph glyph-name="ampersand" unicode="&#x26;" horiz-adv-x="993" 
d="M27 328q0 260 270 405l-45 78q-98 164 -98 308q0 143 85 239t215 96t205 -88q76 -88 76 -218t-81 -216t-197 -133l282 -508q61 131 64 299q2 78 -25 121t-98 75v5h289v-5q-59 -25 -79 -67q-19 -43 -26 -129q-16 -193 -98 -344l41 -74q66 -115 170 -168v-4h-254l-59 102
q-124 -122 -276 -122t-257 95q-104 95 -104 253zM440 59q108 0 199 86l-330 568q-113 -125 -112 -328q0 -147 67 -237q68 -90 176 -89zM448 1415q-70 -1 -110 -65t-39 -164q0 -100 55 -204q19 -35 58 -103l34 -62q145 113 146 344q0 104 -37 179t-107 75z" />
    <glyph glyph-name="quotesingle" unicode="'" horiz-adv-x="335" 
d="M168 1454q68 0 106 -68q-28 -68 -54 -192t-38 -215l-12 -90h-4q-43 346 -105 497q39 68 107 68z" />
    <glyph glyph-name="parenleft" unicode="(" horiz-adv-x="540" 
d="M84 641q0 297 114 525t296 368h28q-123 -136 -186 -370q-64 -234 -64 -523t64 -523t186 -370h-28q-182 140 -296 368t-114 525z" />
    <glyph glyph-name="parenright" unicode=")" horiz-adv-x="540" 
d="M457 641q0 -297 -114 -525t-296 -368h-29q122 136 186 370t64 523t-63 523t-187 370h29q182 -140 296 -368t114 -525z" />
    <glyph glyph-name="asterisk" unicode="*" horiz-adv-x="778" 
d="M301 1534h176q-25 -23 -47 -108t-27 -169q82 33 153 80t85 78l55 -168q-34 16 -118 11t-166 -25q52 -66 120 -120t103 -62l-143 -103q8 33 -24 113t-79 153q-47 -74 -79 -154t-23 -112l-144 103q35 8 103 62t123 120q-84 20 -169 25t-118 -11l55 168q12 -31 84 -77
t154 -81q-4 84 -27 169q-22 85 -47 108z" />
    <glyph glyph-name="plus" unicode="+" horiz-adv-x="817" 
d="M729 633h-295v-293h-53v293h-293v53h293v293h53v-293h295v-53z" />
    <glyph glyph-name="comma" unicode="," horiz-adv-x="395" 
d="M165 8q-52 0 -82 30t-30 78t34 82q33 34 95 34t102 -51q40 -50 40 -128q0 -123 -79 -197t-214 -75v24q117 16 173 89t42 161q-29 -47 -81 -47z" />
    <glyph glyph-name="hyphen" unicode="-" horiz-adv-x="415" 
d="M61 539v55h295v-55h-295z" />
    <glyph glyph-name="period" unicode="." horiz-adv-x="395" 
d="M324 113q0 -53 -37 -90t-90 -37t-89 37t-36 90t36 90t89 37t90 -37t37 -90z" />
    <glyph glyph-name="slash" unicode="/" horiz-adv-x="700" 
d="M0 -252l602 1786h57l-600 -1786h-59z" />
    <glyph glyph-name="zero" unicode="0" horiz-adv-x="995" 
d="M731 717q0 352 -54 522t-178 170q-125 0 -181 -171t-56 -521t56 -521t180 -171t179 170q54 170 54 522zM932 717q0 -319 -117 -529t-317 -208q-200 0 -317 208q-118 208 -118 528t118 529t318 209q201 0 317 -209t116 -528z" />
    <glyph glyph-name="one" unicode="1" horiz-adv-x="575" 
d="M559 0h-524v8q121 47 149 71t29 93v1081q0 68 -31 93t-166 79v9h367v-1262q0 -70 29 -94t147 -70v-8z" />
    <glyph glyph-name="two" unicode="2" horiz-adv-x="817" 
d="M375 1419q-82 1 -137 -71q-56 -72 -56 -174t47 -158q47 -55 115 -55t96 16h4q-46 -115 -164 -115t-183 70t-64 180q0 146 97 244t259 98q163 0 271 -101t108 -283t-127 -370t-475 -548h258q160 0 223 32t127 168h8l-34 -352h-768v4q344 366 472 606t128 455
q0 354 -205 354z" />
    <glyph glyph-name="three" unicode="3" horiz-adv-x="819" 
d="M266 352q-42 0 -68 -39q-28 -39 -28 -115t49 -128t147 -52t166 100t68 278q0 180 -86 274t-233 94v16q266 14 266 342q0 293 -180 293q-74 0 -121 -53t-47 -135q0 -127 112 -127q37 0 56 8h4q-37 -102 -148 -102q-67 0 -113 50t-46 144t86 174q88 80 238 80t244 -92
q93 -92 93 -236t-85 -232q-85 -87 -226 -112q147 -12 258 -120q110 -108 110 -283q0 -176 -120 -288t-302 -111q-145 0 -245 74t-101 204q0 88 52 139t127 52q106 0 137 -107h-4q-18 10 -60 10z" />
    <glyph glyph-name="four" unicode="4" horiz-adv-x="925" 
d="M506 242v149h-498v4l584 1059h86v-1008h31q81 0 113 29t67 127h4v-369h-4q-35 100 -66 129t-114 29h-31v-149q0 -106 22 -158q23 -51 95 -80v-4h-406v4q73 28 95 80t22 158zM506 446v764l-410 -764h410z" />
    <glyph glyph-name="five" unicode="5" horiz-adv-x="847" 
d="M362 16q139 0 204 124t65 310q1 186 -63 287q-64 100 -177 101q-75 0 -143 -50t-111 -110h-2l58 766q177 -37 301 -37t174 16t92 82h6q0 -276 -250 -276q-127 0 -285 45l-38 -481q39 51 109 84t151 32q162 0 259 -125q97 -126 97 -324t-121 -339t-317 -141
q-139 0 -244 76q-104 77 -104 218q0 86 53 144t125 57q104 0 139 -106h-4q-20 10 -61 10t-70 -39t-29 -123q0 -85 53 -143t133 -58z" />
    <glyph glyph-name="six" unicode="6" horiz-adv-x="952" 
d="M709 441q1 173 -55 283t-159 110t-163 -116t-62 -280q0 -164 58 -290t166 -126q106 0 160 124q54 122 55 295zM566 1454q142 0 222 -75t80 -193q0 -74 -45 -124t-104 -50q-129 0 -162 100h4q25 -14 66 -14t73 36t31 112q0 76 -41 122q-41 47 -117 47q-106 0 -186 -103
q-154 -198 -154 -591q0 -58 3 -94q76 260 301 260q141 0 247 -114t106 -322q0 -207 -107 -339q-108 -132 -266 -132t-262 105q-189 195 -191 597q0 186 62 362q62 178 180 294t260 116z" />
    <glyph glyph-name="seven" unicode="7" horiz-adv-x="827" 
d="M223 1434h592v-4l-147 -275q-136 -258 -184 -516t-52 -629l-186 -18q29 334 124 607t261 577l61 106h-362q-116 0 -180 -38t-113 -148h-4l43 358q47 -20 147 -20z" />
    <glyph glyph-name="eight" unicode="8" horiz-adv-x="866" 
d="M684 300q0 118 -54 194q-54 74 -177 143l-97 55q-164 -98 -163 -336q1 -152 69 -244t179 -92t177 81t66 199zM433 1417q-91 1 -141 -79t-50 -190t44 -178t138 -124l65 -39q135 104 136 315q-1 127 -51 211t-141 84zM834 365q0 -168 -106 -277q-106 -108 -286 -108
t-295 100t-114 274q0 132 83 224t214 124q-102 52 -170 154t-68 223q0 171 96 273t244 102t250 -92q100 -92 100 -240q0 -243 -270 -329q322 -154 322 -428z" />
    <glyph glyph-name="nine" unicode="9" horiz-adv-x="952" 
d="M889 752q-1 -186 -63 -363t-180 -293t-260 -116t-222 74t-80 194q0 74 45 124t105 50t102 -26q43 -26 59 -74h-4q-25 14 -65 14t-73 -36q-32 -36 -32 -112t41 -122t117 -48q106 0 186 104q154 199 154 591q0 16 -1 49t-1 45q-76 -260 -301 -260q-141 0 -248 113
q-106 114 -106 322t107 340q108 132 282 132q143 0 246 -105t147 -258t45 -339zM460 1411q-106 0 -162 -123q-54 -123 -54 -296q0 -172 55 -282t159 -110t164 116t60 280t-58 289q-58 126 -164 126z" />
    <glyph glyph-name="colon" unicode=":" horiz-adv-x="395" 
d="M324 113q0 -53 -37 -90t-90 -37t-89 37t-36 90t36 90t89 37t90 -37t37 -90zM324 764q0 -53 -37 -90t-90 -37t-89 37t-36 90t36 90t89 37t90 -37t37 -90z" />
    <glyph glyph-name="semicolon" unicode=";" horiz-adv-x="395" 
d="M165 8q-52 0 -82 30t-30 78t34 82q33 34 95 34t102 -51q40 -50 40 -128q0 -123 -79 -197t-214 -75v24q117 16 173 89t42 161q-29 -47 -81 -47zM324 764q0 -53 -37 -90t-90 -37t-89 37t-36 90t36 90t89 37t90 -37t37 -90z" />
    <glyph glyph-name="less" unicode="&#x3c;" horiz-adv-x="555" 
d="M33 637v37l467 270v-61l-400 -228l400 -227v-61z" />
    <glyph glyph-name="equal" unicode="=" horiz-adv-x="827" 
d="M92 526v54h643v-54h-643zM92 743v54h643v-54h-643z" />
    <glyph glyph-name="greater" unicode="&#x3e;" horiz-adv-x="555" 
d="M522 674v-37l-467 -270v61l400 227l-400 228v61z" />
    <glyph glyph-name="question" unicode="?" horiz-adv-x="825" 
d="M375 240q53 0 90 -37t37 -90t-37 -90t-90 -37t-89 37t-36 90t36 90t89 37zM627 1113q1 136 -61 217t-164 81t-156 -62q-53 -61 -53 -149q1 -88 35 -134t83 -46t76 27h2q-41 -131 -156 -132q-80 1 -136 61t-56 157q0 137 99 229t264 92q166 0 272 -112t106 -286t-110 -305
q-110 -130 -275 -186v-159h-41v354q127 33 199 125t72 228z" />
    <glyph glyph-name="at" unicode="@" horiz-adv-x="1339" 
d="M803 463l24 153q47 274 -86 275q-98 0 -167 -152t-68 -342q0 -236 127 -235q123 0 170 301zM1204 668q0 301 -139 478t-364 177t-383 -238t-156 -594q0 -356 156 -561t401 -204q145 0 251 45t210 155l8 -10q-180 -252 -480 -252t-484 221q-185 221 -185 602t195 634
q196 253 475 253q247 0 419 -190t172 -496t-95 -450q-95 -145 -216 -146q-82 0 -133 50t-59 149q-70 -199 -207 -199q-94 0 -158 83q-63 83 -63 222q0 219 101 380t245 161q71 0 113 -48t55 -120q18 46 60 96t73 70l-107 -602q-35 -186 86 -187q85 -1 147 137t62 384z" />
    <glyph glyph-name="A" unicode="A" horiz-adv-x="1056" 
d="M315 0h-315v4q61 31 99 94t75 181l358 1175h7l372 -1225q35 -111 60 -151t86 -74v-4h-383v4q86 35 86 109q0 35 -25 123l-76 249h-366l-62 -200q-18 -59 -18 -111q0 -127 102 -170v-4zM475 1087l-168 -550h336z" />
    <glyph glyph-name="B" unicode="B" horiz-adv-x="968" 
d="M319 45h80q160 0 248 84t88 248t-89 248t-247 84h-80v-664zM319 754h50q143 0 223 80t80 234t-80 237q-80 84 -223 84h-50v-635zM432 0h-401v4q71 29 95 80t24 158v950q0 106 -24 158t-95 80v4h364q205 0 329 -92t124 -275q0 -141 -96 -227t-244 -101q156 -6 283 -102
t127 -260q-1 -377 -486 -377z" />
    <glyph glyph-name="C" unicode="C" horiz-adv-x="897" 
d="M539 1407q-143 0 -214 -186q-71 -185 -71 -491t82 -477t215 -171q205 0 289 332l12 -4q-25 -199 -119 -315t-235 -115q-197 0 -320 202t-123 526q0 322 134 534t331 212q48 0 110 -31t91 -31t55 19q26 18 39 43l19 -489h-7q-37 184 -116 313q-80 129 -172 129z" />
    <glyph glyph-name="D" unicode="D" horiz-adv-x="1038" 
d="M319 49h48q197 0 313 164q116 163 115 499q0 336 -123 504t-330 168h-23v-1335zM31 0v4q71 29 95 80t24 158v950q0 106 -24 158t-95 80v4h313q279 0 460 -184t181 -517q0 -180 -51 -323q-93 -262 -329 -364q-105 -46 -222 -46h-352z" />
    <glyph glyph-name="E" unicode="E" horiz-adv-x="911" 
d="M31 1434h649q70 0 96 14l49 -346h-4q-80 154 -173 220t-259 67h-70v-637h31q125 0 180 43t109 184h4v-465h-4q-51 133 -103 165t-186 32h-31v-666h82q170 0 273 75q102 75 178 249h4l-45 -369h-780v4q71 29 95 80t24 158v950q0 106 -24 158t-95 80v4z" />
    <glyph glyph-name="F" unicode="F" horiz-adv-x="841" 
d="M319 696v-463q0 -104 26 -149t124 -80v-4h-438v4q71 29 95 80t24 158v950q0 106 -24 158t-95 80v4h639q70 0 94 14l49 -377h-4q-78 170 -172 244t-258 74h-60v-652h31q125 0 180 43t109 185h4v-463h-4q-51 133 -102 164t-187 30h-31z" />
    <glyph glyph-name="G" unicode="G" horiz-adv-x="987" 
d="M535 1407q-133 0 -209 -196t-76 -506t68 -483t204 -173q86 0 146 78q59 78 59 213v92q0 102 -22 153q-23 50 -91 85v4h347v-4q-45 -29 -59 -80t-13 -158v-452h-4l-144 221q-18 -97 -92 -159t-176 -62q-182 0 -301 204t-119 522t137 533t328 215q51 0 121 -31t98 -30
q68 0 101 61l18 -489h-6q-41 184 -127 313t-188 129z" />
    <glyph glyph-name="H" unicode="H" horiz-adv-x="1101" 
d="M150 242v950q0 106 -24 158t-95 80v4h407v-4q-72 -29 -96 -80t-23 -158v-438h463v438q0 106 -23 158q-24 51 -95 80v4h407v-4q-71 -29 -95 -80t-24 -158v-950q0 -106 24 -158t95 -80v-4h-407v4q72 29 96 80t22 158v460h-463v-460q0 -106 24 -158t95 -80v-4h-407v4
q71 28 95 80t24 158z" />
    <glyph glyph-name="I" unicode="I" horiz-adv-x="468" 
d="M319 242q0 -106 24 -158t95 -80v-4h-407v4q71 29 95 80t24 158v950q0 106 -24 158t-95 80v4h407v-4q-72 -29 -96 -80t-23 -158v-950z" />
    <glyph glyph-name="J" unicode="J" horiz-adv-x="841" 
d="M545 348v844q0 106 -24 158t-95 80v4h408v-4q-72 -29 -96 -80t-23 -158v-809q-1 -191 -101 -297t-256 -106t-248 74q-93 74 -94 196q0 86 52 135t137 49q84 0 123 -63q-56 -5 -100 -51t-44 -122t42 -128q42 -51 124 -52q195 0 195 330z" />
    <glyph glyph-name="K" unicode="K" horiz-adv-x="1046" 
d="M438 0h-407v4q71 29 95 80t24 158v950q0 106 -24 158t-95 80v4h407v-4q-72 -29 -96 -80t-23 -158v-549l377 590q31 45 31 86q0 72 -88 111v4h391v-4q-178 -45 -276 -203l-256 -398l362 -600q58 -98 104 -150t103 -75v-4h-393v4q55 29 55 77t-37 112l-293 489l-80 -123
v-317q0 -106 24 -158t95 -80v-4z" />
    <glyph glyph-name="L" unicode="L" horiz-adv-x="878" 
d="M31 1434h407v-4q-72 -29 -96 -80t-23 -158v-1145h109q166 0 249 76t177 291h4l-45 -414h-782v4q71 29 95 80t24 158v950q0 106 -24 158t-95 80v4z" />
    <glyph glyph-name="M" unicode="M" horiz-adv-x="1259" 
d="M207 266q0 -201 155 -262v-4h-368v4q80 33 118 94t38 174v920q0 106 -24 158t-95 80v4h323l293 -1069l275 1069h309v-4q-73 -29 -97 -80t-24 -158v-944q0 -100 33 -156t108 -88v-4h-444v4q77 31 109 87t32 157v1071l-352 -1342h-8l-381 1342v-1053z" />
    <glyph glyph-name="N" unicode="N" horiz-adv-x="1028" 
d="M885 1161v-1179h-8l-670 1318v-1034q0 -201 155 -262v-4h-368v4q80 33 118 94t38 174v920q0 106 -24 158t-95 80v4h305l493 -979v712q0 201 -155 263v4h368v-4q-80 -32 -118 -94t-39 -175z" />
    <glyph glyph-name="O" unicode="O" horiz-adv-x="1042" 
d="M782 717q0 313 -63 501t-199 189q-136 0 -197 -187q-63 -186 -63 -502t62 -504t198 -187q135 0 199 188q63 189 63 502zM987 717q0 -317 -137 -527t-330 -210t-329 210t-136 526q0 318 136 528t329 210t330 -210t137 -527z" />
    <glyph glyph-name="P" unicode="P" horiz-adv-x="960" 
d="M319 645h82q168 0 252 99q84 98 84 270t-84 271t-252 99h-82v-739zM438 596h-119v-363q0 -104 26 -149t124 -80v-4h-438v4q71 29 95 80t24 158v950q0 106 -24 158t-95 80v4h407q214 0 352 -109t138 -311t-137 -311q-138 -107 -353 -107z" />
    <glyph glyph-name="Q" unicode="Q" horiz-adv-x="1042" 
d="M513 25q85 0 134 59q-33 72 -51 108t-54 69q-36 34 -83 34t-81 -50t-7 -130q57 -90 142 -90zM260 689q0 -341 78 -517q-8 80 37 135t118 55t119 -44t99 -128q71 174 71 506q-1 709 -262 709q-260 0 -260 -716zM874 -160q-63 0 -109 47t-87 133q-74 -43 -158 -43
q-193 0 -329 210q-136 209 -136 527t136 528t329 210t330 -210t137 -527q0 -201 -58 -363t-157 -260q63 -86 137 -86q94 0 101 96h8q30 -110 -10 -186t-134 -76z" />
    <glyph glyph-name="R" unicode="R" horiz-adv-x="999" 
d="M31 1434h383q221 0 360 -90t139 -276q0 -185 -129 -277t-305 -99q283 -25 334 -264l35 -172q22 -111 66 -164t139 -88v-4h-289q-61 72 -90 221l-33 178q-25 133 -83 204t-185 71h-54v-432q0 -106 24 -158t95 -80v-4h-407v4q71 29 95 80t24 158v950q0 106 -24 158t-95 80
v4zM319 1384v-661h62q342 0 342 336q0 326 -342 325h-62z" />
    <glyph glyph-name="S" unicode="S" horiz-adv-x="845" 
d="M215 1152q-1 -110 63 -184t208 -168q144 -96 194 -147q119 -121 119 -291t-113 -276t-264 -106q-74 0 -156 30t-104 31q-49 0 -92 -61l-25 495h4q61 -207 163 -328t204 -121q104 0 167 71q62 71 62 201t-90 221q-47 48 -84 76t-102 71q-189 125 -247 212q-59 87 -61 201
q0 167 108 271t259 104q66 0 134 -26t87 -25q49 0 80 51l23 -453h-4q-27 82 -40 122t-44 106q-84 178 -233 178q-95 0 -155 -73q-60 -72 -61 -182z" />
    <glyph glyph-name="T" unicode="T" horiz-adv-x="1067" 
d="M154 1434h759q70 0 97 14l26 -424h-4q-45 113 -73 171q-72 150 -173 181q-57 18 -143 19h-25v-1170q0 -100 27 -146t103 -75v-4h-426v4q74 29 100 75t27 146v1170h-23q-86 -1 -143 -19t-103 -70t-72 -110q-28 -58 -73 -172h-4l28 424q27 -14 95 -14z" />
    <glyph glyph-name="U" unicode="U" horiz-adv-x="1009" 
d="M885 1161v-753q0 -184 -95 -306t-282 -122t-285 114t-98 320v778q0 106 -24 158t-95 80v4h408v-4q-72 -29 -96 -80t-23 -158v-764q0 -362 262 -362q129 0 201 95t71 253v753q0 201 -155 263v4h368v-4q-80 -32 -118 -94t-39 -175z" />
    <glyph glyph-name="V" unicode="V" horiz-adv-x="1056" 
d="M739 1434h318v-4q-109 -53 -174 -275l-344 -1175h-7l-387 1224q-39 115 -62 155q-24 40 -83 71v4h383v-4q-86 -35 -86 -107q0 -41 27 -125l266 -854l233 805q18 59 19 111q0 127 -103 170v4z" />
    <glyph glyph-name="W" unicode="W" horiz-adv-x="1413" 
d="M0 1434h379v-4q-84 -33 -84 -107q0 -37 24 -125l218 -795l149 603l-47 198q-25 106 -50 150q-26 43 -87 76v4h370v-4q-80 -33 -79 -109q0 -20 20 -123l170 -807l197 758q16 61 16 113q0 125 -98 168v4h315v-4q-63 -31 -103 -97t-71 -178l-307 -1175h-6l-215 917
l-226 -917h-6l-342 1224q-31 113 -54 153q-24 40 -83 73v4z" />
    <glyph glyph-name="X" unicode="X" horiz-adv-x="1046" 
d="M315 0h-315v4q150 68 233 234l226 469l-244 497q-88 178 -172 226v4h354v-4q-45 -32 -45 -86t35 -119l176 -361l152 324q37 84 37 142t-62 100v4h307v-4q-141 -61 -223 -234l-184 -385l284 -582q50 -98 88 -149t85 -76v-4h-355v4q45 35 45 83t-35 122l-217 444l-192 -407
q-37 -80 -37 -138t59 -104v-4z" />
    <glyph glyph-name="Y" unicode="Y" 
d="M735 1434h289v-4q-53 -33 -84 -75t-66 -118l-284 -641v-371q0 -100 26 -146t101 -75v-4h-420v4q75 29 101 75t26 146v371l-285 641q-27 57 -39 82q-30 62 -100 111v4h365v-4q-70 -40 -70 -90t29 -115l239 -561l236 528q29 63 28 111q0 86 -92 127v4z" />
    <glyph glyph-name="Z" unicode="Z" horiz-adv-x="944" 
d="M29 0v4l647 1387h-211q-156 0 -239 -81t-163 -253h-4l43 391q27 -14 95 -14h684v-4l-641 -1387h219q164 0 247 77t179 294h4l-47 -414h-813z" />
    <glyph glyph-name="bracketleft" unicode="[" horiz-adv-x="534" 
d="M143 -252v1786h361v-8l-199 -64v-1640l199 -66v-8h-361z" />
    <glyph glyph-name="backslash" unicode="\" horiz-adv-x="700" 
d="M100 1534l600 -1786h-57l-602 1786h59z" />
    <glyph glyph-name="bracketright" unicode="]" horiz-adv-x="534" 
d="M391 1534v-1786h-360v8l198 66v1640l-198 64v8h360z" />
    <glyph glyph-name="asciicircum" unicode="^" horiz-adv-x="706" 
d="M350 1454h8l267 -610h-66l-205 469l-204 -469h-68z" />
    <glyph glyph-name="underscore" unicode="_" horiz-adv-x="501" 
d="M61 -197v56h381v-56h-381z" />
    <glyph glyph-name="grave" unicode="`" 
d="M537 1477q0 -246 65 -363h-6q-195 162 -227 363h168z" />
    <glyph glyph-name="a" unicode="a" horiz-adv-x="788" 
d="M217 276q1 -174 131 -174q62 0 103 54t43 163l2 209l-62 -20q-104 -35 -160 -89q-56 -53 -57 -143zM653 -16q-65 0 -107 46t-46 126l-2 43q-12 -97 -74 -155t-154 -58q-90 0 -153 61t-63 151t29 145q68 122 335 202l78 24v242q0 76 -38 121t-100 45t-95 -38
q-34 -38 -34 -97q0 -123 97 -123q14 0 26 6q-8 -41 -41 -63t-83 -23q-50 0 -91 39q-39 39 -39 110q0 100 83 164t213 64t203 -68t73 -215l-4 -557q0 -106 82 -106q37 -1 57 24v-6q-43 -104 -152 -104z" />
    <glyph glyph-name="b" unicode="b" horiz-adv-x="892" 
d="M482 45q84 0 134 126t50 329q0 204 -48 328t-133 124q-84 0 -143 -90t-59 -252v-213q0 -166 58 -259t141 -93zM520 -20q-92 0 -159 59t-91 178q-10 -79 -67 -147t-111 -90q23 133 23 456v875q0 98 -23 143t-84 76v4h275v-760q43 242 249 242q130 0 224 -139t94 -375
t-96 -379q-97 -143 -234 -143z" />
    <glyph glyph-name="c" unicode="c" horiz-adv-x="710" 
d="M428 977q-88 0 -148 -120t-61 -325q0 -457 221 -456q176 0 219 246l15 -3q-14 -163 -89 -251t-210 -88t-235 138q-99 138 -99 366t116 380t265 152q112 0 180 -56t68 -137t-40 -119t-100 -38q-96 0 -114 75h28q39 0 65 33t26 84q-1 119 -107 119z" />
    <glyph glyph-name="d" unicode="d" horiz-adv-x="901" 
d="M610 1311q0 98 -22 142q-23 44 -84 77v4h274v-1311q0 -104 18 -146t76 -73v-4h-262v221q-20 -119 -86 -180t-164 -61q-131 0 -224 138t-93 374t95 380q95 143 227 144q202 0 245 -244v539zM407 43q83 0 143 91t60 253v209q0 166 -58 257t-141 91t-133 -124t-50 -326
t48 -327q48 -124 131 -124z" />
    <glyph glyph-name="e" unicode="e" horiz-adv-x="739" 
d="M528 586q0 190 -25 290q-26 99 -104 99q-78 1 -125 -111t-53 -278h307zM41 490q-1 230 103 378t254 148t225 -128q76 -128 75 -349h-479q1 -213 59 -340t179 -127q160 0 223 247l14 -2q-45 -338 -297 -337q-150 0 -253 140t-103 370z" />
    <glyph glyph-name="f" unicode="f" horiz-adv-x="481" 
d="M127 193v749h-125v12l125 45v166q0 179 88 277t225 98q92 0 154 -42t63 -116t-35 -112q-36 -39 -101 -39t-97 53q92 18 92 120t-84 103q-137 0 -137 -288v-224h174l-10 -53h-164v-752q0 -71 7 -88q7 -18 9 -26q1 -8 11 -16t12 -13q2 -4 16 -12t16 -9q2 0 22 -10
q19 -10 24 -12v-4h-379v4q61 31 78 64q16 33 16 125z" />
    <glyph glyph-name="g" unicode="g" horiz-adv-x="835" 
d="M369 6q-93 0 -147 -54t-54 -160t70 -170t186 -64t194 70t78 180q0 108 -57 153t-186 45h-84zM831 -106q0 -166 -128 -270q-127 -104 -293 -105q-166 1 -282 67t-116 197q0 90 67 148t175 77q-78 8 -134 56t-56 127q0 78 52 130t120 74q-147 88 -148 287q0 142 86 238
t236 96q106 0 182 -51q12 84 55 136t101 52t86 -31q29 -31 28 -75q0 -74 -90 -117l-2 4q6 18 6 35q0 65 -66 65t-92 -88q113 -94 113 -250t-86 -252t-235 -96q-80 0 -150 33q-88 -41 -88 -113q0 -98 127 -98h233q143 0 221 -72t78 -204zM410 981q-68 0 -104 -85t-36 -214
t36 -214t104 -85t104 86t35 213q1 127 -35 213t-104 86z" />
    <glyph glyph-name="h" unicode="h" horiz-adv-x="872" 
d="M12 1534h275v-739q29 104 94 162q66 59 160 59t154 -64t61 -190v-559q0 -98 17 -133t77 -66v-4h-356v4q61 31 77 65t17 134v540q0 168 -127 168q-74 -1 -124 -69t-50 -215v-424q0 -98 17 -133t77 -66v-4h-356v4q61 31 77 65t17 134v1108q0 98 -23 143t-84 76v4z" />
    <glyph glyph-name="i" unicode="i" horiz-adv-x="419" 
d="M295 995v-792q0 -98 17 -133t79 -66v-4h-358v4q61 31 78 65q16 34 16 134v569q0 100 -23 144t-84 75v4h275zM92 1317q0 47 35 82t83 35t83 -35t35 -82t-35 -82t-83 -35t-83 35t-35 82z" />
    <glyph glyph-name="j" unicode="j" horiz-adv-x="407" 
d="M30 -481q-116 0 -183 45t-66 135q0 59 40 100q41 41 105 41t92 -53q-94 -27 -94 -119q0 -51 26 -83q26 -31 66 -31t62 22q49 46 49 242v954q0 100 -23 144t-84 75v4h275v-1130q0 -174 -74 -260q-75 -86 -191 -86zM92 1317q0 47 35 82t83 35t83 -35t35 -82t-35 -82
t-83 -35t-83 35t-35 82z" />
    <glyph glyph-name="k" unicode="k" horiz-adv-x="864" 
d="M287 573h61q76 0 125 74l119 187q18 27 18 61q0 66 -61 96v4h313v-4q-135 -47 -217 -172l-158 -237l220 -398q72 -131 188 -180v-4h-291q-6 47 -59 147l-180 338q-25 43 -58 43h-20v-325q0 -98 17 -133t77 -66v-4h-356v4q61 31 77 65t17 134v1108q0 98 -23 143t-84 76v4
h275v-961z" />
    <glyph glyph-name="l" unicode="l" horiz-adv-x="411" 
d="M287 1534v-1331q0 -98 17 -133t77 -66v-4h-356v4q61 31 77 65t17 134v1108q0 98 -23 143t-84 76v4h275z" />
    <glyph glyph-name="m" unicode="m" horiz-adv-x="1308" 
d="M1192 762v-559q0 -100 16 -134t78 -65v-4h-356v4q59 31 77 66q17 35 17 133v540q0 80 -25 124t-93 44q-68 -1 -116 -69q-46 -68 -47 -215v-424q1 -100 17 -134t78 -65v-4h-357v4q61 31 78 65q16 34 16 134v540q0 80 -23 124q-24 44 -92 44q-68 1 -117 -69
q-48 -70 -48 -215v-424q0 -98 17 -133t79 -66v-4h-358v4q61 31 78 65q16 34 16 134v569q0 100 -23 144t-84 75v4h275v-200q29 104 91 162q62 59 149 59t143 -55q55 -56 63 -162q29 104 93 160q64 57 155 57t147 -64t56 -190z" />
    <glyph glyph-name="n" unicode="n" horiz-adv-x="882" 
d="M20 995h275v-200q29 104 94 162q66 59 161 59q94 0 154 -65t60 -189v-559q0 -98 17 -133t79 -66v-4h-358v4q61 31 78 65q16 34 16 134v540q0 168 -127 168q-74 -1 -124 -69t-50 -215v-424q0 -98 17 -133t79 -66v-4h-358v4q61 31 78 65q16 34 16 134v569q0 100 -23 144
t-84 75v4z" />
    <glyph glyph-name="o" unicode="o" horiz-adv-x="800" 
d="M401 20q89 0 133 134t44 346q0 213 -43 344t-133 131t-135 -132q-44 -132 -44 -344q0 -211 44 -345t134 -134zM400 -20q-157 0 -258 147t-101 371t101 371t258 147t258 -146q102 -146 102 -371q0 -223 -102 -371t-258 -148z" />
    <glyph glyph-name="p" unicode="p" horiz-adv-x="899" 
d="M289 -260q1 -98 23 -134t94 -63v-4h-379v4q61 29 77 63t17 134v1032q0 100 -23 144t-84 75v4h275v-221q43 242 250 242q131 0 225 -139t94 -375t-95 -378q-95 -144 -226 -144q-205 -1 -248 245v-485zM674 500q0 204 -48 328t-134 124q-85 0 -144 -90t-59 -252v-209
q0 -166 58 -258t142 -92t135 123q50 123 50 326z" />
    <glyph glyph-name="q" unicode="q" horiz-adv-x="884" 
d="M610 387v213q0 166 -58 258t-141 92t-133 -127t-50 -329t47 -327q47 -124 131 -124t144 91t60 253zM778 557v-819q0 -98 16 -132t78 -63v-4h-376v4q72 27 94 63t20 134v481q-20 -119 -86 -180t-164 -61q-131 0 -224 138t-93 374t96 379q96 144 234 145q93 0 159 -60
t91 -178q20 147 174 236h4q-23 -131 -23 -457z" />
    <glyph glyph-name="r" unicode="r" horiz-adv-x="692" 
d="M455 891q-63 0 -111 -93t-49 -233v-372q1 -92 23 -123t94 -66v-4h-379v4q61 31 78 65q16 34 16 134v569q0 100 -23 144t-84 75v4h275v-256q29 117 85 196t130 79t119 -43t45 -109t-34 -108q-34 -44 -86 -44t-67 23q19 5 37 25t19 51q0 82 -88 82z" />
    <glyph glyph-name="s" unicode="s" horiz-adv-x="690" 
d="M338 975q-68 0 -106 -42q-36 -42 -36 -112t38 -118t143 -99q256 -123 256 -325q0 -141 -85 -221t-200 -78q-58 0 -118 24t-78 25q-47 0 -76 -49l-19 389h6q45 -158 125 -253q80 -96 155 -96t114 48t39 131q0 82 -42 127q-42 46 -160 108t-173 128t-55 182q0 118 77 195
q78 77 183 77q53 0 109 -25t83 -25t70 50v-336h-6q-40 135 -108 215t-136 80z" />
    <glyph glyph-name="t" unicode="t" horiz-adv-x="555" 
d="M305 -20q-199 0 -199 274v688h-104v12q215 59 256 392h16v-351h222l-11 -53h-211v-680q0 -98 23 -140t72 -42q117 0 135 242h18q-4 -170 -55 -256t-162 -86z" />
    <glyph glyph-name="u" unicode="u" horiz-adv-x="872" 
d="M575 369v403q0 100 -22 144q-23 44 -84 75v4h274v-772q1 -102 19 -145t76 -74v-4h-263v199q-61 -219 -243 -219q-96 0 -156 65q-59 66 -59 191v536q0 100 -23 144t-84 75v4h275v-743q0 -168 123 -168q72 0 120 69t47 216z" />
    <glyph glyph-name="v" unicode="v" horiz-adv-x="788" 
d="M641 864q0 92 -92 127v4h260v-4q-45 -33 -68 -73t-61 -154l-272 -784h-5l-299 794q-43 115 -61 149t-63 68v4h348v-4q-76 -31 -76 -100q0 -43 27 -117l174 -508l168 494q20 55 20 104z" />
    <glyph glyph-name="w" unicode="w" horiz-adv-x="1064" 
d="M-20 995h335v-4q-70 -31 -69 -102q0 -43 22 -115l138 -467l112 391l-20 76q-35 106 -57 142t-68 75v4h334v-4q-70 -31 -70 -106q0 -45 18 -111l119 -452l125 438q16 59 16 100q0 96 -88 131v4h258v-4q-47 -35 -71 -76t-58 -151l-229 -784h-4l-176 618l-185 -618h-4
l-254 794q-35 106 -56 142q-22 36 -68 75v4z" />
    <glyph glyph-name="x" unicode="x" horiz-adv-x="796" 
d="M236 0h-228v4q59 41 100 92q40 51 93 150l129 246l-125 258q-45 98 -82 149t-96 92v4h305v-4q-23 -23 -23 -57t58 -160l75 -160l70 156q43 102 43 146t-33 75v4h228v-4q-62 -45 -106 -97t-87 -146l-88 -189l149 -313q49 -104 85 -154t94 -88v-4h-303v4q20 20 20 56
t-55 161l-105 217l-108 -215q-45 -86 -45 -136t35 -83v-4z" />
    <glyph glyph-name="y" unicode="y" horiz-adv-x="788" 
d="M-20 995h346v-4q-74 -31 -74 -100q0 -39 24 -117l179 -573l166 559q18 57 18 106q0 90 -90 125v4h260v-4q-47 -35 -72 -76t-57 -151l-299 -987q-39 -123 -89 -192t-145 -68q-63 0 -109 41t-46 106q0 64 42 104t87 40t65 -21q-49 -23 -49 -86q-1 -33 19 -52t55 -19t63 37
q28 38 58 132l49 160l-277 815q-35 109 -56 144q-22 35 -68 73v4z" />
    <glyph glyph-name="z" unicode="z" horiz-adv-x="745" 
d="M379 956q-100 0 -167 -62t-146 -228h-5l29 342q61 -12 123 -13h479v-4l-465 -950h121q111 0 189 74t149 247h4l-37 -362h-622v4l465 952h-117z" />
    <glyph glyph-name="braceleft" unicode="{" horiz-adv-x="600" 
d="M489 1534q47 0 80 -8v-8q-100 0 -158 -77t-59 -216q0 -41 14 -143t13 -164q0 -60 -27 -118t-85 -103t-134 -56q75 -9 151 -69q42 -32 68 -90t27 -118q0 -60 -13 -162q-13 -103 -14 -145q0 -139 58 -216t159 -77v-8q-33 -8 -80 -8q-133 0 -216 87t-83 220q0 55 12 149
t13 134q-1 154 -55 224t-140 73v12q86 4 141 74q54 70 54 223l-25 283q0 133 83 220t216 87z" />
    <glyph glyph-name="bar" unicode="|" horiz-adv-x="380" 
d="M164 -252v1786h53v-1786h-53z" />
    <glyph glyph-name="braceright" unicode="}" horiz-adv-x="600" 
d="M111 -252q-47 0 -80 8v8q100 0 158 77t59 216q0 41 -14 145t-13 162q0 60 27 118q43 92 148 139q38 16 71 20q-72 9 -151 69q-42 32 -68 90q-27 58 -27 118t13 163q13 102 14 144q0 139 -58 216t-159 77v8q33 8 80 8q133 0 216 -87t83 -220q0 -55 -12 -149t-13 -134
q1 -154 55 -224t140 -73v-12q-86 -4 -140 -74t-55 -223l25 -283q0 -133 -83 -220t-216 -87z" />
    <glyph glyph-name="asciitilde" unicode="~" horiz-adv-x="755" 
d="M524 639q104 0 162 117h8q-57 -242 -194 -242q-47 0 -134 52t-135 52q-106 1 -161 -114h-9q55 242 195 241q47 0 134 -53t134 -53z" />
    <glyph glyph-name="uni00A0" unicode="&#xa0;" horiz-adv-x="266" 
 />
    <glyph glyph-name="exclamdown" unicode="&#xa1;" horiz-adv-x="432" 
d="M338 -305h-244l117 1022h10zM215 1143q53 0 90 -37t37 -90t-37 -90t-90 -37t-89 37t-36 90t36 90t89 37z" />
    <glyph glyph-name="cent" unicode="&#xa2;" horiz-adv-x="720" 
d="M41 473q0 219 111 373t258 168l10 207h35l-11 -205q110 -2 174 -56t64 -126t-35 -107t-79 -35q-90 0 -107 70q7 -2 33 -2t48 30t22 78t-30 79q-30 30 -79 30h-13l-43 -893q23 -6 45 -6q76 0 136 61q59 61 82 185l14 -2q-14 -162 -87 -250t-196 -92l-10 -213h-35l10 213
q-137 10 -227 142t-90 351zM217 526q0 -358 148 -430l43 875q-86 -25 -138 -141t-53 -304z" />
    <glyph glyph-name="sterling" unicode="&#xa3;" horiz-adv-x="962" 
d="M129 23q100 0 137 153q-55 25 -104 25t-81 -27t-32 -74q0 -77 80 -77zM8 102q0 56 44 94q77 66 222 19q27 212 -16 485h-139v37h135q-31 184 -31 283q-1 194 105 314t297 120q135 0 209 -61t74 -151t-47 -135q-46 -44 -107 -44q-98 0 -138 67q63 -4 102 35q38 39 38 113
t-36 110t-95 35q-105 0 -157 -101t-52 -267v-318h295v-37h-295v-125q0 -236 -58 -391q306 -119 425 -23q52 42 53 122q0 45 -27 77q57 -16 91 -65t34 -113q0 -98 -66 -154t-170 -57q-103 0 -174 38q-72 38 -125 78t-63 46q-74 -152 -197 -151q-57 0 -94 32t-37 88z" />
    <glyph glyph-name="yen" unicode="&#xa5;" horiz-adv-x="1028" 
d="M721 0h-424v4q75 31 101 76t26 145v312h-272v36h272v23l-47 106h-225v37h208l-221 496q-27 59 -39 83q-33 65 -100 112v4h373v-4q-70 -40 -70 -90t27 -115l237 -566l240 533q29 63 29 111q0 88 -95 127v4h287v-4q-53 -35 -84 -77t-65 -118l-222 -496h209v-37h-225
l-47 -106v-23h272v-36h-272v-312q0 -100 26 -145t101 -76v-4z" />
    <glyph glyph-name="section" unicode="&#xa7;" horiz-adv-x="880" 
d="M737 -123q0 -141 -96 -241t-227 -101q-131 0 -213 58t-82 159q0 68 38 106t98 38t97 -41q-40 -14 -64 -43t-24 -96q0 -68 41 -108t117 -40t126 68t50 170q0 104 -35 166t-112 137l-263 251q-70 68 -98 128q-29 60 -29 143q0 154 140 280q-57 100 -58 201q1 142 97 242
t227 100t213 -58t82 -159q0 -67 -38 -105t-98 -38t-98 41q41 14 65 43q23 30 23 96t-41 106t-117 41t-125 -67q-50 -68 -50 -171q1 -103 35 -165t112 -137l262 -252q70 -68 99 -128t28 -143q0 -154 -139 -280q57 -100 57 -201zM715 272q0 108 -97 199l-303 295
q-66 66 -104 127q-45 -69 -45 -177t96 -198l303 -295q66 -66 105 -127q45 68 45 176z" />
    <glyph glyph-name="dieresis" unicode="&#xa8;" 
d="M637 1190q-43 0 -73 32t-30 74t30 73q30 32 73 32t75 -32t32 -73q0 -42 -32 -74t-75 -32zM386 1190q-44 0 -75 32t-31 74t31 73q31 32 75 32t74 -32t30 -74q0 -41 -30 -73t-74 -32z" />
    <glyph glyph-name="copyright" unicode="&#xa9;" horiz-adv-x="1234" 
d="M666 1130q-78 0 -120 -110t-42 -289q0 -178 50 -279t132 -102q123 0 174 182l6 -2q-14 -122 -78 -192t-157 -70q-131 0 -213 121t-82 318t92 325t225 127q33 0 74 -18q41 -19 67 -19t50 37l10 -301h-4q-31 120 -79 196t-105 76zM1143 717q0 299 -152 497t-374 199
q-223 0 -373 -199q-150 -200 -150 -498t151 -497t373 -199t373 199q152 199 152 498zM1182 717q0 -317 -164 -527t-400 -210t-400 210t-165 526q0 318 165 528q164 210 400 210t400 -210t164 -527z" />
    <glyph glyph-name="ordfeminine" unicode="&#xaa;" horiz-adv-x="606" 
d="M84 641v41h448v-41h-448zM549 866q21 0 29 8v-4q-31 -70 -107 -69q-94 0 -104 100l-2 25q-11 -55 -57 -91t-105 -36t-102 40q-42 39 -42 117q-1 78 61 123t171 76l69 19v139q0 53 -24 82q-25 29 -64 28q-72 1 -72 -75t54 -76q6 0 14 4q-12 -60 -86 -62q-42 0 -68 26
t-26 80t55 94t136 40q219 0 219 -192l-2 -326q0 -70 53 -70zM360 1145l-47 -12q-115 -43 -114 -156q0 -45 19 -73t54 -28t62 34q27 32 26 94v141z" />
    <glyph glyph-name="guillemotleft" unicode="&#xab;" horiz-adv-x="684" 
d="M289 498v4q233 156 350 364h14q-70 -227 -170 -366q100 -139 170 -367h-14q-117 209 -350 365zM31 498v4q233 156 350 364h14q-70 -227 -170 -366q100 -139 170 -367h-14q-117 209 -350 365z" />
    <glyph glyph-name="registered" unicode="&#xae;" horiz-adv-x="841" 
d="M233 1284h191q166 0 166 -123q0 -57 -42 -85t-104 -27q100 -6 119 -86l10 -54q9 -35 21 -48t47 -25v-9h-131q-18 20 -29 72l-14 72q-14 72 -84 71h-21v-133q0 -33 8 -47t29 -26v-9h-166v9q39 20 39 73v293q0 53 -39 74v8zM362 1262v-199h33q99 0 99 99t-99 100h-33z
M422 1423q-138 0 -234 -104t-96 -265q0 -162 95 -266t235 -104t234 104t94 266q0 161 -94 265t-234 104zM782 1053q0 -172 -104 -286t-256 -114t-257 114t-105 287q0 172 104 286q106 114 258 114t256 -114t104 -287z" />
    <glyph glyph-name="macron" unicode="&#xaf;" 
d="M727 1186h-432v71h432v-71z" />
    <glyph glyph-name="degree" unicode="&#xb0;" horiz-adv-x="446" 
d="M354 1270q0 55 -37 93t-93 38t-93 -38t-37 -93t37 -93t93 -38t93 38t37 93zM406 1270q0 -76 -54 -129t-129 -53q-76 0 -129 52q-53 54 -53 130t53 129t129 53q75 0 129 -53t54 -129z" />
    <glyph glyph-name="plusminus" unicode="&#xb1;" horiz-adv-x="817" 
d="M88 344v51h641v-51h-641zM729 723h-295v-223h-53v223h-293v51h293v221h53v-221h295v-51z" />
    <glyph glyph-name="twosuperior" unicode="&#xb2;" horiz-adv-x="542" 
d="M344 1294q0 49 -24 83t-73 34q-48 0 -75 -28q-27 -29 -27 -67q1 -38 19 -61t46 -23t40 11h2q-20 -63 -90 -63q-47 0 -77 30t-30 90q-1 58 53 100t145 42t155 -42t63 -126q0 -84 -67 -154t-236 -180h135q78 2 110 14t62 62h8l-24 -176h-424v2q186 176 248 267
q61 91 61 185z" />
    <glyph glyph-name="threesuperior" unicode="&#xb3;" horiz-adv-x="536" 
d="M41 960q-1 106 107 105q52 0 67 -45h-2q-8 4 -20 4q-43 0 -43 -68q0 -42 26 -68t72 -26q47 0 77 42t29 100q0 145 -139 145v18q65 2 91 37q26 34 26 90q0 118 -82 119q-37 1 -59 -23t-21 -55q0 -61 45 -61q10 0 18 4h5q-20 -43 -68 -43q-96 0 -96 91q0 46 50 81t135 35
t141 -38t57 -104q0 -119 -160 -137q82 -4 134 -47q52 -42 52 -118q-1 -76 -67 -121t-161 -45t-155 36q-59 38 -59 92z" />
    <glyph glyph-name="acute" unicode="&#xb4;" 
d="M444 1477h168q-33 -201 -227 -363h-6q65 117 65 363z" />
    <glyph glyph-name="paragraph" unicode="&#xb6;" horiz-adv-x="825" 
d="M692 1217v-1364q0 -141 -71 -238q-72 -96 -188 -96q-117 0 -189 54t-72 155q0 61 41 99t90 38q80 0 105 -76h-2q-20 16 -50 16q-30 1 -47 -27q-18 -28 -18 -84t39 -96q38 -40 120 -40t140 85q57 85 57 214v1529h-80v-1122h-47v338q-178 0 -322 111t-144 305t144 306
q144 110 322 110h295v-4q-75 -43 -99 -80t-24 -133z" />
    <glyph glyph-name="periodcentered" unicode="&#xb7;" horiz-adv-x="391" 
d="M322 547q0 -53 -37 -90t-90 -37t-90 37q-36 37 -35 90q0 53 35 90t89 37t91 -37t37 -90z" />
    <glyph glyph-name="cedilla" unicode="&#xb8;" 
d="M426 -403q90 1 90 119t-115 124l74 180h37l-63 -153q76 -2 131 -42t55 -116t-48 -121t-118 -45q-113 0 -154 111l11 6q39 -63 100 -63z" />
    <glyph glyph-name="onesuperior" unicode="&#xb9;" horiz-adv-x="395" 
d="M137 1346q0 37 -21 51q-22 14 -89 24v13h237v-506q0 -37 20 -51t87 -25v-12h-340v12q66 10 86 24t20 52v418z" />
    <glyph glyph-name="ordmasculine" unicode="&#xba;" horiz-adv-x="622" 
d="M68 641v41h483v-41h-483zM312 829q52 0 84 80t32 215t-32 215t-84 80t-83 -80t-31 -215t32 -215q30 -80 82 -80zM311 795q-117 0 -193 93t-77 236q0 142 77 236q78 94 194 94t193 -93t77 -237t-77 -236q-77 -93 -194 -93z" />
    <glyph glyph-name="guillemotright" unicode="&#xbb;" horiz-adv-x="684" 
d="M653 502v-4q-233 -156 -350 -365h-14q70 227 170 367q-100 139 -170 366h14q117 -208 350 -364zM395 502v-4q-233 -156 -350 -365h-14q70 227 170 367q-100 139 -170 366h14q117 -208 350 -364z" />
    <glyph glyph-name="onequarter" unicode="&#xbc;" horiz-adv-x="747" 
d="M375 104v52h-275v2l306 442h96v-412h49q37 0 49 10t31 48h6v-148h-6q-19 37 -31 47t-49 11h-49v-52q0 -41 9 -60t38 -36v-8h-221v8q29 16 38 36t9 60zM375 188v314l-215 -314h215zM41 733h666v-33h-666v33zM324 1346q0 37 -22 51t-87 24v13h238v-506q0 -37 20 -51t86 -25
v-12h-340v12q66 10 85 24t20 52v418z" />
    <glyph glyph-name="onehalf" unicode="&#xbd;" horiz-adv-x="747" 
d="M471 455q-1 49 -25 83t-72 33q-48 1 -75 -27t-27 -67t18 -61t47 -23q28 0 40 10h2q-20 -63 -90 -63q-47 0 -77 31t-30 89t54 100t144 42t154 -42t64 -126t-67 -154t-236 -180h135q78 2 110 14t62 62h8l-24 -176h-424v2q186 176 248 267q61 91 61 186zM41 733h666v-33
h-666v33zM324 1346q0 37 -22 51t-87 24v13h238v-506q0 -37 20 -51t86 -25v-12h-340v12q66 10 85 24t20 52v418z" />
    <glyph glyph-name="threequarters" unicode="&#xbe;" horiz-adv-x="747" 
d="M375 104v52h-275v2l306 442h96v-412h49q37 0 49 10t31 48h6v-148h-6q-19 37 -31 47t-49 11h-49v-52q0 -41 9 -60t38 -36v-8h-221v8q29 16 38 36t9 60zM375 188v314l-215 -314h215zM41 733h666v-33h-666v33zM168 960q0 106 108 105q52 0 66 -45h-4q-6 4 -19 4
q-45 0 -45 -68q0 -42 27 -68t74 -26t77 42t29 100q0 145 -139 145v18q66 2 92 37q26 34 25 90q0 118 -82 119q-37 1 -59 -23t-21 -55q0 -61 45 -61q10 0 18 4h5q-21 -43 -69 -43q-98 0 -96 91q0 46 51 81q50 35 135 35t141 -38t57 -104q0 -119 -160 -137q82 -4 134 -47
q52 -42 52 -118t-66 -121t-162 -45q-95 0 -155 36q-59 38 -59 92z" />
    <glyph glyph-name="questiondown" unicode="&#xbf;" horiz-adv-x="825" 
d="M424 -283q102 1 156 63t53 150q0 88 -35 132q-35 46 -84 46t-76 -26h-2q41 131 156 131q80 0 136 -60t56 -157q0 -137 -99 -229q-99 -93 -264 -93t-271 112t-106 286t109 306q110 130 275 185v160h41v-354q-127 -33 -199 -125t-72 -228t62 -218q62 -81 164 -81zM451 889
q-53 0 -91 37q-37 37 -36 90q0 53 36 90t90 37t90 -37t36 -90t-36 -90t-89 -37z" />
    <glyph glyph-name="Agrave" unicode="&#xc0;" horiz-adv-x="1056" 
d="M315 0h-315v4q61 31 99 94t75 181l358 1175h7l372 -1225q35 -111 60 -151t86 -74v-4h-383v4q86 35 86 109q0 35 -25 123l-76 249h-366l-62 -200q-18 -59 -18 -111q0 -127 102 -170v-4zM475 1087l-168 -550h336zM573 1784q12 -156 89 -281h-7q-233 100 -284 281h202z" />
    <glyph glyph-name="Aacute" unicode="&#xc1;" horiz-adv-x="1056" 
d="M315 0h-315v4q61 31 99 94t75 181l358 1175h7l372 -1225q35 -111 60 -151t86 -74v-4h-383v4q86 35 86 109q0 35 -25 123l-76 249h-366l-62 -200q-18 -59 -18 -111q0 -127 102 -170v-4zM475 1087l-168 -550h336zM487 1784h203q-51 -180 -284 -281h-7q76 125 88 281z" />
    <glyph glyph-name="Acircumflex" unicode="&#xc2;" horiz-adv-x="1056" 
d="M315 0h-315v4q61 31 99 94t75 181l358 1175h7l372 -1225q35 -111 60 -151t86 -74v-4h-383v4q86 35 86 109q0 35 -25 123l-76 249h-366l-62 -200q-18 -59 -18 -111q0 -127 102 -170v-4zM475 1087l-168 -550h336zM762 1493q-164 20 -232 100q-74 -80 -235 -100h-14
q182 137 243 315h11q61 -180 241 -315h-14z" />
    <glyph glyph-name="Atilde" unicode="&#xc3;" horiz-adv-x="1056" 
d="M315 0h-315v4q61 31 99 94t75 181l358 1175h7l372 -1225q35 -111 60 -151t86 -74v-4h-383v4q86 35 86 109q0 35 -25 123l-76 249h-366l-62 -200q-18 -59 -18 -111q0 -127 102 -170v-4zM475 1087l-168 -550h336zM635 1520q-37 0 -121 70t-125 71q-41 0 -70 -38t-55 -114
h-16q47 276 174 277q37 0 121 -70t125 -70q42 0 70 38q28 36 57 110h14q-47 -274 -174 -274z" />
    <glyph glyph-name="Adieresis" unicode="&#xc4;" horiz-adv-x="1056" 
d="M315 0h-315v4q61 31 99 94t75 181l358 1175h7l372 -1225q35 -111 60 -151t86 -74v-4h-383v4q86 35 86 109q0 35 -25 123l-76 249h-366l-62 -200q-18 -59 -18 -111q0 -127 102 -170v-4zM475 1087l-168 -550h336zM760 1624q0 -42 -32 -74t-75 -32t-73 32t-29 73q0 42 30 74
q31 32 73 32t74 -32t32 -73zM506 1623q0 -41 -30 -73t-74 -32t-74 32t-31 73q0 42 31 74q30 32 74 32t74 -32t30 -74z" />
    <glyph glyph-name="Aring" unicode="&#xc5;" horiz-adv-x="1056" 
d="M315 0h-315v4q61 31 99 94t75 181l358 1175h7l372 -1225q35 -111 60 -151t86 -74v-4h-383v4q86 35 86 109q0 35 -25 123l-76 249h-366l-62 -200q-18 -59 -18 -111q0 -127 102 -170v-4zM475 1087l-168 -550h336zM528 1520q49 0 84 34t35 84q0 49 -35 84t-84 35t-84 -35
q-34 -35 -34 -84t34 -84q35 -34 84 -34zM528 1798q66 0 115 -48t49 -112t-49 -111q-49 -48 -115 -48t-114 48t-49 111q1 64 49 112t114 48z" />
    <glyph glyph-name="AE" unicode="&#xc6;" horiz-adv-x="1464" 
d="M326 0h-326v4q106 53 209 275l446 983q12 29 13 49q0 61 -111 119v4h676q70 0 96 14l49 -346h-4q-80 154 -173 220t-259 67h-70v-637h31q125 0 180 43t109 184h4v-465h-4q-51 133 -103 165t-186 32h-31v-666h82q170 0 273 75q102 75 178 249h4l-45 -369h-780v4
q72 29 96 80t22 158v243h-337l-89 -200q-43 -88 -43 -150q1 -90 93 -131v-4zM702 537v708l-313 -708h313z" />
    <glyph glyph-name="Ccedilla" unicode="&#xc7;" horiz-adv-x="897" 
d="M463 -457q-113 0 -154 111l10 6q39 -63 101 -63q90 1 90 119t-115 124l58 142q-178 24 -288 224t-110 512t134 524t331 212q48 0 110 -31t91 -31t55 19q26 18 39 43l19 -489h-7q-37 184 -116 313q-80 129 -172 129q-143 0 -214 -186q-71 -185 -71 -491t82 -477t215 -171
q205 0 289 332l12 -4q-25 -199 -119 -315t-235 -115h-9l-47 -113q76 -2 131 -42t55 -116t-47 -121q-48 -45 -118 -45z" />
    <glyph glyph-name="Egrave" unicode="&#xc8;" horiz-adv-x="911" 
d="M31 1434h649q70 0 96 14l49 -346h-4q-80 154 -173 220t-259 67h-70v-637h31q125 0 180 43t109 184h4v-465h-4q-51 133 -103 165t-186 32h-31v-666h82q170 0 273 75q102 75 178 249h4l-45 -369h-780v4q71 29 95 80t24 158v950q0 106 -24 158t-95 80v4zM520 1784
q12 -156 88 -281h-6q-233 100 -285 281h203z" />
    <glyph glyph-name="Eacute" unicode="&#xc9;" horiz-adv-x="911" 
d="M31 1434h649q70 0 96 14l49 -346h-4q-80 154 -173 220t-259 67h-70v-637h31q125 0 180 43t109 184h4v-465h-4q-51 133 -103 165t-186 32h-31v-666h82q170 0 273 75q102 75 178 249h4l-45 -369h-780v4q71 29 95 80t24 158v950q0 106 -24 158t-95 80v4zM434 1784h203
q-51 -180 -285 -281h-6q76 125 88 281z" />
    <glyph glyph-name="Ecircumflex" unicode="&#xca;" horiz-adv-x="911" 
d="M31 1434h649q70 0 96 14l49 -346h-4q-80 154 -173 220t-259 67h-70v-637h31q125 0 180 43t109 184h4v-465h-4q-51 133 -103 165t-186 32h-31v-666h82q170 0 273 75q102 75 178 249h4l-45 -369h-780v4q71 29 95 80t24 158v950q0 106 -24 158t-95 80v4zM709 1493
q-164 20 -232 100q-74 -80 -235 -100h-15q182 137 244 315h10q61 -180 242 -315h-14z" />
    <glyph glyph-name="Edieresis" unicode="&#xcb;" horiz-adv-x="911" 
d="M31 1434h649q70 0 96 14l49 -346h-4q-80 154 -173 220t-259 67h-70v-637h31q125 0 180 43t109 184h4v-465h-4q-51 133 -103 165t-186 32h-31v-666h82q170 0 273 75q102 75 178 249h4l-45 -369h-780v4q71 29 95 80t24 158v950q0 106 -24 158t-95 80v4zM707 1624
q0 -42 -32 -74t-75 -32t-73 32q-29 32 -29 73q0 42 29 74q30 32 73 32t75 -32t32 -73zM453 1623q0 -41 -30 -73t-74 -32t-75 32q-30 32 -30 73q0 42 30 74q31 32 75 32t74 -32t30 -74z" />
    <glyph glyph-name="Igrave" unicode="&#xcc;" horiz-adv-x="468" 
d="M319 242q0 -106 24 -158t95 -80v-4h-407v4q71 29 95 80t24 158v950q0 106 -24 158t-95 80v4h407v-4q-72 -29 -96 -80t-23 -158v-950zM279 1784q12 -156 88 -281h-7q-233 100 -284 281h203z" />
    <glyph glyph-name="Iacute" unicode="&#xcd;" horiz-adv-x="468" 
d="M319 242q0 -106 24 -158t95 -80v-4h-407v4q71 29 95 80t24 158v950q0 106 -24 158t-95 80v4h407v-4q-72 -29 -96 -80t-23 -158v-950zM193 1784h202q-51 -180 -284 -281h-7q77 125 89 281z" />
    <glyph glyph-name="Icircumflex" unicode="&#xce;" horiz-adv-x="468" 
d="M319 242q0 -106 24 -158t95 -80v-4h-407v4q71 29 95 80t24 158v950q0 106 -24 158t-95 80v4h407v-4q-72 -29 -96 -80t-23 -158v-950zM467 1493q-164 20 -231 100q-74 -80 -236 -100h-14q182 137 243 315h11q61 -180 241 -315h-14z" />
    <glyph glyph-name="Idieresis" unicode="&#xcf;" horiz-adv-x="468" 
d="M319 242q0 -106 24 -158t95 -80v-4h-407v4q71 29 95 80t24 158v950q0 106 -24 158t-95 80v4h407v-4q-72 -29 -96 -80t-23 -158v-950zM465 1624q0 -42 -32 -74t-75 -32q-42 0 -72 32t-30 73q0 42 30 74t72 32t75 -32q32 -32 32 -73zM211 1623q0 -41 -30 -73t-74 -32
q-45 0 -75 32t-30 73q0 42 31 74t75 32t73 -32q30 -32 30 -74z" />
    <glyph glyph-name="Eth" unicode="&#xd0;" horiz-adv-x="1048" 
d="M330 49h47q197 0 313 164q116 163 115 499q0 336 -123 504t-330 168h-22v-628h178v-49h-178v-658zM393 0h-352v4q71 29 95 80t24 158v465h-97v49h97v436q0 106 -24 158t-95 80v4h313q279 0 460 -184t181 -517q0 -180 -51 -323q-93 -262 -329 -364q-105 -46 -222 -46z" />
    <glyph glyph-name="Ntilde" unicode="&#xd1;" horiz-adv-x="1028" 
d="M885 1161v-1179h-8l-670 1318v-1034q0 -201 155 -262v-4h-368v4q80 33 118 94t38 174v920q0 106 -24 158t-95 80v4h305l493 -979v712q0 201 -155 263v4h368v-4q-80 -32 -118 -94t-39 -175zM655 1520q-37 0 -121 70t-124 71q-41 0 -70 -38t-55 -114h-17q47 276 174 277
q37 0 121 -70t125 -70t70 38q29 36 57 110h14q-47 -274 -174 -274z" />
    <glyph glyph-name="Ograve" unicode="&#xd2;" horiz-adv-x="1042" 
d="M782 717q0 313 -63 501t-199 189q-136 0 -197 -187q-63 -186 -63 -502t62 -504t198 -187q135 0 199 188q63 189 63 502zM987 717q0 -317 -137 -527t-330 -210t-329 210t-136 526q0 318 136 528t329 210t330 -210t137 -527zM565 1784q12 -156 88 -281h-6
q-233 100 -285 281h203z" />
    <glyph glyph-name="Oacute" unicode="&#xd3;" horiz-adv-x="1042" 
d="M782 717q0 313 -63 501t-199 189q-136 0 -197 -187q-63 -186 -63 -502t62 -504t198 -187q135 0 199 188q63 189 63 502zM987 717q0 -317 -137 -527t-330 -210t-329 210t-136 526q0 318 136 528t329 210t330 -210t137 -527zM479 1784h203q-51 -180 -285 -281h-6
q76 125 88 281z" />
    <glyph glyph-name="Ocircumflex" unicode="&#xd4;" horiz-adv-x="1042" 
d="M782 717q0 313 -63 501t-199 189q-136 0 -197 -187q-63 -186 -63 -502t62 -504t198 -187q135 0 199 188q63 189 63 502zM987 717q0 -317 -137 -527t-330 -210t-329 210t-136 526q0 318 136 528t329 210t330 -210t137 -527zM754 1493q-164 20 -232 100q-74 -80 -235 -100
h-15q182 137 244 315h10q61 -180 242 -315h-14z" />
    <glyph glyph-name="Otilde" unicode="&#xd5;" horiz-adv-x="1042" 
d="M782 717q0 313 -63 501t-199 189q-136 0 -197 -187q-63 -186 -63 -502t62 -504t198 -187q135 0 199 188q63 189 63 502zM987 717q0 -317 -137 -527t-330 -210t-329 210t-136 526q0 318 136 528t329 210t330 -210t137 -527zM627 1520q-37 0 -121 70t-125 71q-41 0 -70 -38
t-55 -114h-16q47 276 174 277q37 0 121 -70q85 -70 125 -70t69 38q29 36 57 110h15q-47 -274 -174 -274z" />
    <glyph glyph-name="Odieresis" unicode="&#xd6;" horiz-adv-x="1042" 
d="M782 717q0 313 -63 501t-199 189q-136 0 -197 -187q-63 -186 -63 -502t62 -504t198 -187q135 0 199 188q63 189 63 502zM987 717q0 -317 -137 -527t-330 -210t-329 210t-136 526q0 318 136 528t329 210t330 -210t137 -527zM752 1624q0 -42 -32 -74t-75 -32t-73 32t-30 73
q0 42 30 74t73 32t75 -32t32 -73zM498 1623q0 -41 -30 -73t-74 -32t-75 32t-31 73q0 42 31 74t75 32t74 -32t30 -74z" />
    <glyph glyph-name="multiply" unicode="&#xd7;" horiz-adv-x="651" 
d="M289 655l-217 219l37 37l217 -219l217 219l37 -37l-218 -219l218 -219l-37 -35l-217 220l-217 -220l-37 35z" />
    <glyph glyph-name="Oslash" unicode="&#xd8;" horiz-adv-x="1042" 
d="M520 -20q-170 0 -299 167l-108 -188l-39 27l119 202q-137 214 -137 530t135 526q137 210 319 210t315 -174l105 180l39 -26l-115 -197q133 -213 133 -525t-137 -522t-330 -210zM520 27q135 0 199 188q63 187 63 447t-26 407l-455 -784q67 -258 219 -258zM520 1407
q-136 1 -198 -187t-62 -451t27 -415l456 785q-68 268 -223 268z" />
    <glyph glyph-name="Ugrave" unicode="&#xd9;" horiz-adv-x="1009" 
d="M885 1161v-753q0 -184 -95 -306t-282 -122t-285 114t-98 320v778q0 106 -24 158t-95 80v4h408v-4q-72 -29 -96 -80t-23 -158v-764q0 -362 262 -362q129 0 201 95t71 253v753q0 201 -155 263v4h368v-4q-80 -32 -118 -94t-39 -175zM569 1784q12 -156 88 -281h-6
q-233 100 -284 281h202z" />
    <glyph glyph-name="Uacute" unicode="&#xda;" horiz-adv-x="1009" 
d="M885 1161v-753q0 -184 -95 -306t-282 -122t-285 114t-98 320v778q0 106 -24 158t-95 80v4h408v-4q-72 -29 -96 -80t-23 -158v-764q0 -362 262 -362q129 0 201 95t71 253v753q0 201 -155 263v4h368v-4q-80 -32 -118 -94t-39 -175zM483 1784h203q-51 -180 -285 -281h-6
q76 125 88 281z" />
    <glyph glyph-name="Ucircumflex" unicode="&#xdb;" horiz-adv-x="1009" 
d="M885 1161v-753q0 -184 -95 -306t-282 -122t-285 114t-98 320v778q0 106 -24 158t-95 80v4h408v-4q-72 -29 -96 -80t-23 -158v-764q0 -362 262 -362q129 0 201 95t71 253v753q0 201 -155 263v4h368v-4q-80 -32 -118 -94t-39 -175zM758 1493q-164 20 -232 100
q-74 -80 -235 -100h-15q182 137 244 315h10q61 -180 242 -315h-14z" />
    <glyph glyph-name="Udieresis" unicode="&#xdc;" horiz-adv-x="1009" 
d="M885 1161v-753q0 -184 -95 -306t-282 -122t-285 114t-98 320v778q0 106 -24 158t-95 80v4h408v-4q-72 -29 -96 -80t-23 -158v-764q0 -362 262 -362q129 0 201 95t71 253v753q0 201 -155 263v4h368v-4q-80 -32 -118 -94t-39 -175zM756 1624q0 -42 -32 -74t-75 -32t-73 32
t-29 73q0 42 30 74q31 32 73 32t74 -32t32 -73zM502 1623q0 -41 -30 -73t-74 -32t-74 32t-31 73q0 42 31 74q30 32 74 32t74 -32t30 -74z" />
    <glyph glyph-name="Yacute" unicode="&#xdd;" 
d="M735 1434h289v-4q-53 -33 -84 -75t-66 -118l-284 -641v-371q0 -100 26 -146t101 -75v-4h-420v4q75 29 101 75t26 146v371l-285 641q-27 57 -39 82q-30 62 -100 111v4h365v-4q-70 -40 -70 -90t29 -115l239 -561l236 528q29 63 28 111q0 86 -92 127v4zM514 1784h203
q-51 -180 -285 -281h-6q76 125 88 281z" />
    <glyph glyph-name="Thorn" unicode="&#xde;" horiz-adv-x="960" 
d="M319 369h82q168 0 252 99t84 270q0 170 -84 270t-252 100h-82v-739zM319 1192v-35h119q217 0 354 -108q136 -109 136 -312t-137 -311t-353 -107h-119v-86q0 -104 26 -149t124 -80v-4h-438v4q71 29 95 80t24 158v950q0 106 -24 158t-95 80v4h407v-4q-72 -28 -96 -80
t-23 -158z" />
    <glyph glyph-name="germandbls" unicode="&#xdf;" horiz-adv-x="929" 
d="M393 369q123 -349 255 -349q66 0 104 50t36 110q-1 107 -71 175q-27 26 -90 77t-73 62q-12 10 -32 27t-27 27t-23 25q-15 15 -20 27q-4 12 -14 30t-16 52q-6 32 -6 74t24 92t50 84q28 34 103 114t75 240q0 100 -46 160t-124 61q-203 0 -203 -354v-1153h-262v4
q61 31 78 64q16 33 16 125v749h-125v12l125 45v72q0 129 36 225q61 162 211 221q60 24 124 23q123 0 212 -64t89 -182q0 -51 -23 -99t-43 -72q-20 -23 -67 -67t-79 -77q-67 -69 -69 -148q0 -31 7 -53t44 -60q37 -37 141 -121q103 -85 149 -151t46 -182t-75 -200t-187 -84
q-49 0 -98 26t-75 27q-26 0 -64 -53l-17 389h4z" />
    <glyph glyph-name="agrave" unicode="&#xe0;" horiz-adv-x="788" 
d="M217 276q1 -174 131 -174q62 0 103 54t43 163l2 209l-62 -20q-104 -35 -160 -89q-56 -53 -57 -143zM653 -16q-65 0 -107 46t-46 126l-2 43q-12 -97 -74 -155t-154 -58q-90 0 -153 61t-63 151t29 145q68 122 335 202l78 24v242q0 76 -38 121t-100 45t-95 -38
q-34 -38 -34 -97q0 -123 97 -123q14 0 26 6q-8 -41 -41 -63t-83 -23q-50 0 -91 39q-39 39 -39 110q0 100 83 164t213 64t203 -68t73 -215l-4 -557q0 -106 82 -106q37 -1 57 24v-6q-43 -104 -152 -104zM434 1477q0 -246 66 -363h-6q-195 162 -228 363h168z" />
    <glyph glyph-name="aacute" unicode="&#xe1;" horiz-adv-x="788" 
d="M217 276q1 -174 131 -174q62 0 103 54t43 163l2 209l-62 -20q-104 -35 -160 -89q-56 -53 -57 -143zM653 -16q-65 0 -107 46t-46 126l-2 43q-12 -97 -74 -155t-154 -58q-90 0 -153 61t-63 151t29 145q68 122 335 202l78 24v242q0 76 -38 121t-100 45t-95 -38
q-34 -38 -34 -97q0 -123 97 -123q14 0 26 6q-8 -41 -41 -63t-83 -23q-50 0 -91 39q-39 39 -39 110q0 100 83 164t213 64t203 -68t73 -215l-4 -557q0 -106 82 -106q37 -1 57 24v-6q-43 -104 -152 -104zM352 1477h168q-33 -201 -227 -363h-6q65 117 65 363z" />
    <glyph glyph-name="acircumflex" unicode="&#xe2;" horiz-adv-x="788" 
d="M217 276q1 -174 131 -174q62 0 103 54t43 163l2 209l-62 -20q-104 -35 -160 -89q-56 -53 -57 -143zM653 -16q-65 0 -107 46t-46 126l-2 43q-12 -97 -74 -155t-154 -58q-90 0 -153 61t-63 151t29 145q68 122 335 202l78 24v242q0 76 -38 121t-100 45t-95 -38
q-34 -38 -34 -97q0 -123 97 -123q14 0 26 6q-8 -41 -41 -63t-83 -23q-50 0 -91 39q-39 39 -39 110q0 100 83 164t213 64t203 -68t73 -215l-4 -557q0 -106 82 -106q37 -1 57 24v-6q-43 -104 -152 -104zM612 1112q-145 72 -211 172q-31 -45 -92 -94t-121 -78h-12
q160 182 221 412h9q63 -231 219 -412h-13z" />
    <glyph glyph-name="atilde" unicode="&#xe3;" horiz-adv-x="788" 
d="M217 276q1 -174 131 -174q62 0 103 54t43 163l2 209l-62 -20q-104 -35 -160 -89q-56 -53 -57 -143zM653 -16q-65 0 -107 46t-46 126l-2 43q-12 -97 -74 -155t-154 -58q-90 0 -153 61t-63 151t29 145q68 122 335 202l78 24v242q0 76 -38 121t-100 45t-95 -38
q-34 -38 -34 -97q0 -123 97 -123q14 0 26 6q-8 -41 -41 -63t-83 -23q-50 0 -91 39q-39 39 -39 110q0 100 83 164t213 64t203 -68t73 -215l-4 -557q0 -106 82 -106q37 -1 57 24v-6q-43 -104 -152 -104zM290 1307q-36 0 -63 -37t-51 -111h-14q45 272 160 273q46 0 118 -70
t109 -70t63 37t52 111h14q-45 -272 -160 -273q-45 0 -118 70q-74 70 -110 70z" />
    <glyph glyph-name="adieresis" unicode="&#xe4;" horiz-adv-x="788" 
d="M217 276q1 -174 131 -174q62 0 103 54t43 163l2 209l-62 -20q-104 -35 -160 -89q-56 -53 -57 -143zM653 -16q-65 0 -107 46t-46 126l-2 43q-12 -97 -74 -155t-154 -58q-90 0 -153 61t-63 151t29 145q68 122 335 202l78 24v242q0 76 -38 121t-100 45t-95 -38
q-34 -38 -34 -97q0 -123 97 -123q14 0 26 6q-8 -41 -41 -63t-83 -23q-50 0 -91 39q-39 39 -39 110q0 100 83 164t213 64t203 -68t73 -215l-4 -557q0 -106 82 -106q37 -1 57 24v-6q-43 -104 -152 -104zM631 1296q0 -42 -32 -74t-75 -32q-42 0 -72 32t-30 74t30 73
q30 32 72 32t75 -32q32 -32 32 -73zM377 1295q0 -41 -30 -73t-74 -32q-45 0 -75 32t-30 74t31 73q31 32 75 32t73 -32q30 -32 30 -74z" />
    <glyph glyph-name="aring" unicode="&#xe5;" horiz-adv-x="788" 
d="M217 276q1 -174 131 -174q62 0 103 54t43 163l2 209l-62 -20q-104 -35 -160 -89q-56 -53 -57 -143zM653 -16q-65 0 -107 46t-46 126l-2 43q-12 -97 -74 -155t-154 -58q-90 0 -153 61t-63 151t29 145q68 122 335 202l78 24v242q0 76 -38 121t-100 45t-95 -38
q-34 -38 -34 -97q0 -123 97 -123q14 0 26 6q-8 -41 -41 -63t-83 -23q-50 0 -91 39q-39 39 -39 110q0 100 83 164t213 64t203 -68t73 -215l-4 -557q0 -106 82 -106q37 -1 57 24v-6q-43 -104 -152 -104zM399 1171q49 0 84 35t35 84t-35 84t-84 35t-84 -35t-35 -84t36 -84
q34 -35 83 -35zM399 1450q66 0 115 -48t49 -112t-49 -111q-49 -49 -115 -49q-67 0 -115 48t-48 112t48 112t115 48z" />
    <glyph glyph-name="ae" unicode="&#xe6;" horiz-adv-x="1171" 
d="M217 274q1 -172 131 -172q62 0 103 54t43 163l2 205l-62 -20q-104 -35 -160 -88q-56 -54 -57 -142zM961 582q0 190 -26 290t-103 100t-125 -112t-54 -278h308zM496 809q0 76 -37 122t-99 46t-97 -38q-34 -38 -34 -97q0 -123 97 -123q14 0 26 6q-8 -41 -41 -63t-83 -23
q-50 0 -91 39q-39 39 -39 110q0 100 83 164t198 64q166 0 219 -148q96 145 227 146q154 0 230 -129t75 -350h-479q1 -213 59 -338t179 -125q160 0 223 247l14 -2q-45 -338 -297 -337q-104 0 -192 66t-123 183q-8 -104 -81 -174q-73 -69 -163 -69t-153 61t-63 151t29 145
q68 122 335 202l78 24v240z" />
    <glyph glyph-name="ccedilla" unicode="&#xe7;" horiz-adv-x="710" 
d="M358 -457q-113 0 -153 111l10 6q39 -63 100 -63q91 1 91 119t-115 124l57 142q-131 18 -219 154t-88 356t116 372t265 152q112 0 180 -56t68 -137t-40 -119t-100 -38q-96 0 -114 75h28q39 0 65 33t26 84q0 119 -107 119q-88 0 -148 -120t-61 -325q0 -457 221 -456
q176 0 219 246l15 -3q-14 -163 -89 -251t-200 -88l-47 -113q76 -2 131 -42t55 -116t-48 -121t-118 -45z" />
    <glyph glyph-name="egrave" unicode="&#xe8;" horiz-adv-x="739" 
d="M528 586q0 190 -25 290q-26 99 -104 99q-78 1 -125 -111t-53 -278h307zM41 490q-1 230 103 378t254 148t225 -128q76 -128 75 -349h-479q1 -213 59 -340t179 -127q160 0 223 247l14 -2q-45 -338 -297 -337q-150 0 -253 140t-103 370zM440 1477q0 -246 66 -363h-6
q-195 162 -228 363h168z" />
    <glyph glyph-name="eacute" unicode="&#xe9;" horiz-adv-x="739" 
d="M528 586q0 190 -25 290q-26 99 -104 99q-78 1 -125 -111t-53 -278h307zM41 490q-1 230 103 378t254 148t225 -128q76 -128 75 -349h-479q1 -213 59 -340t179 -127q160 0 223 247l14 -2q-45 -338 -297 -337q-150 0 -253 140t-103 370zM358 1477h168q-33 -201 -227 -363h-6
q65 117 65 363z" />
    <glyph glyph-name="ecircumflex" unicode="&#xea;" horiz-adv-x="739" 
d="M528 586q0 190 -25 290q-26 99 -104 99q-78 1 -125 -111t-53 -278h307zM41 490q-1 230 103 378t254 148t225 -128q76 -128 75 -349h-479q1 -213 59 -340t179 -127q160 0 223 247l14 -2q-45 -338 -297 -337q-150 0 -253 140t-103 370zM618 1112q-145 72 -210 172
q-30 -45 -92 -94t-121 -78h-13q160 182 221 412h9q63 -231 219 -412h-13z" />
    <glyph glyph-name="edieresis" unicode="&#xeb;" horiz-adv-x="739" 
d="M528 586q0 190 -25 290q-26 99 -104 99q-78 1 -125 -111t-53 -278h307zM41 490q-1 230 103 378t254 148t225 -128q76 -128 75 -349h-479q1 -213 59 -340t179 -127q160 0 223 247l14 -2q-45 -338 -297 -337q-150 0 -253 140t-103 370zM637 1296q0 -42 -32 -74t-75 -32
q-42 0 -72 32t-30 74t30 73q30 32 72 32t75 -32q32 -32 32 -73zM280 1401q44 0 74 -32t29 -74q1 -41 -29 -73t-74 -32t-75 32t-31 74t31 73q31 32 75 32z" />
    <glyph glyph-name="igrave" unicode="&#xec;" horiz-adv-x="419" 
d="M295 995v-792q0 -98 17 -133t79 -66v-4h-358v4q61 31 78 65q16 34 16 134v569q0 100 -23 144t-84 75v4h275zM242 1477q0 -246 65 -363h-6q-195 162 -227 363h168z" />
    <glyph glyph-name="iacute" unicode="&#xed;" horiz-adv-x="419" 
d="M295 995v-792q0 -98 17 -133t79 -66v-4h-358v4q61 31 78 65q16 34 16 134v569q0 100 -23 144t-84 75v4h275zM160 1477h168q-33 -201 -228 -363h-6q66 117 66 363z" />
    <glyph glyph-name="icircumflex" unicode="&#xee;" horiz-adv-x="419" 
d="M295 995v-792q0 -98 17 -133t79 -66v-4h-358v4q61 31 78 65q16 34 16 134v569q0 100 -23 144t-84 75v4h275zM420 1112q-145 72 -211 172q-70 -102 -215 -172h-12q160 180 223 412h8q63 -231 219 -412h-12z" />
    <glyph glyph-name="idieresis" unicode="&#xef;" horiz-adv-x="419" 
d="M295 995v-792q0 -98 17 -133t79 -66v-4h-358v4q61 31 78 65q16 34 16 134v569q0 100 -23 144t-84 75v4h275zM332 1190q-43 0 -73 32t-30 74t30 73q30 32 73 32t75 -32q31 -32 31 -73q0 -42 -32 -74t-74 -32zM81 1190q-44 0 -75 32t-31 74t31 73q31 32 75 32t74 -32
q29 -32 29 -74q0 -41 -30 -73t-73 -32z" />
    <glyph glyph-name="eth" unicode="&#xf0;" horiz-adv-x="800" 
d="M401 20q89 0 133 132t44 346q0 213 -43 344t-133 131t-135 -132q-44 -132 -44 -343q0 -210 44 -344t134 -134zM401 -20q-158 0 -259 146t-101 370t101 371q101 146 259 147q94 0 152 -49q-10 172 -107 309l-217 -100l-18 40l207 97q-113 135 -309 223l6 20
q225 -72 368 -215l170 80l19 -41l-156 -71q244 -274 244 -772q0 -251 -100 -403t-259 -152z" />
    <glyph glyph-name="ntilde" unicode="&#xf1;" horiz-adv-x="882" 
d="M20 995h275v-200q29 104 94 162q66 59 161 59q94 0 154 -65t60 -189v-559q0 -98 17 -133t79 -66v-4h-358v4q61 31 78 65q16 34 16 134v540q0 168 -127 168q-74 -1 -124 -69t-50 -215v-424q0 -98 17 -133t79 -66v-4h-358v4q61 31 78 65q16 34 16 134v569q0 100 -23 144
t-84 75v4zM332 1307q-36 0 -64 -37q-27 -37 -51 -111h-14q45 272 159 273q45 0 118 -70t110 -70q38 0 64 37t51 111h14q-45 -272 -160 -273q-45 0 -118 70t-109 70z" />
    <glyph glyph-name="ograve" unicode="&#xf2;" horiz-adv-x="800" 
d="M401 20q89 0 133 134t44 346q0 213 -43 344t-133 131t-135 -132q-44 -132 -44 -344q0 -211 44 -345t134 -134zM400 -20q-157 0 -258 147t-101 371t101 371t258 147t258 -146q102 -146 102 -371q0 -223 -102 -371t-258 -148zM434 1477q0 -246 66 -363h-6
q-195 162 -228 363h168z" />
    <glyph glyph-name="oacute" unicode="&#xf3;" horiz-adv-x="800" 
d="M401 20q89 0 133 134t44 346q0 213 -43 344t-133 131t-135 -132q-44 -132 -44 -344q0 -211 44 -345t134 -134zM400 -20q-157 0 -258 147t-101 371t101 371t258 147t258 -146q102 -146 102 -371q0 -223 -102 -371t-258 -148zM352 1477h168q-33 -201 -227 -363h-6
q65 117 65 363z" />
    <glyph glyph-name="ocircumflex" unicode="&#xf4;" horiz-adv-x="800" 
d="M401 20q89 0 133 134t44 346q0 213 -43 344t-133 131t-135 -132q-44 -132 -44 -344q0 -211 44 -345t134 -134zM400 -20q-157 0 -258 147t-101 371t101 371t258 147t258 -146q102 -146 102 -371q0 -223 -102 -371t-258 -148zM612 1112q-145 72 -211 172q-31 -45 -92 -94
t-121 -78h-12q160 182 221 412h9q63 -231 219 -412h-13z" />
    <glyph glyph-name="otilde" unicode="&#xf5;" horiz-adv-x="800" 
d="M401 20q89 0 133 134t44 346q0 213 -43 344t-133 131t-135 -132q-44 -132 -44 -344q0 -211 44 -345t134 -134zM400 -20q-157 0 -258 147t-101 371t101 371t258 147t258 -146q102 -146 102 -371q0 -223 -102 -371t-258 -148zM270 1307q-38 0 -64 -37t-50 -111h-15
q45 272 160 273q45 0 118 -70t109 -70t64 37q27 37 51 111h14q-45 -272 -159 -273q-45 0 -118 70t-110 70z" />
    <glyph glyph-name="odieresis" unicode="&#xf6;" horiz-adv-x="800" 
d="M401 20q89 0 133 134t44 346q0 213 -43 344t-133 131t-135 -132q-44 -132 -44 -344q0 -211 44 -345t134 -134zM400 -20q-157 0 -258 147t-101 371t101 371t258 147t258 -146q102 -146 102 -371q0 -223 -102 -371t-258 -148zM631 1296q0 -42 -32 -74t-75 -32q-42 0 -72 32
t-30 74t30 73q30 32 72 32t75 -32q32 -32 32 -73zM377 1295q0 -41 -30 -73t-74 -32q-45 0 -75 32t-30 74t31 73q31 32 75 32t73 -32q30 -32 30 -74z" />
    <glyph glyph-name="divide" unicode="&#xf7;" horiz-adv-x="817" 
d="M342 384q0 28 18 47t48 19t48 -18q19 -20 19 -48t-20 -47t-47 -19q-26 0 -46 18q-20 20 -20 48zM88 633v53h641v-53h-641zM342 935q0 28 19 47t47 19t48 -19q19 -19 19 -46t-20 -47q-20 -21 -47 -21q-26 0 -46 20t-20 47z" />
    <glyph glyph-name="oslash" unicode="&#xf8;" horiz-adv-x="800" 
d="M401 -20q-125 0 -217 96l-71 -125l-39 22l80 140q-113 147 -113 379t101 377q101 146 259 147q125 0 213 -92l66 114l39 -22l-74 -129q115 -147 115 -379t-102 -380t-257 -148zM401 20q89 0 133 134t44 303q0 170 -17 280l-307 -538q47 -179 147 -179zM223 544
q0 -167 17 -278l307 537q-47 172 -146 172q-90 0 -134 -132t-44 -299z" />
    <glyph glyph-name="ugrave" unicode="&#xf9;" horiz-adv-x="872" 
d="M575 369v403q0 100 -22 144q-23 44 -84 75v4h274v-772q1 -102 19 -145t76 -74v-4h-263v199q-61 -219 -243 -219q-96 0 -156 65q-59 66 -59 191v536q0 100 -23 144t-84 75v4h275v-743q0 -168 123 -168q72 0 120 69t47 216zM469 1477q0 -246 66 -363h-7q-195 162 -227 363
h168z" />
    <glyph glyph-name="uacute" unicode="&#xfa;" horiz-adv-x="872" 
d="M575 369v403q0 100 -22 144q-23 44 -84 75v4h274v-772q1 -102 19 -145t76 -74v-4h-263v199q-61 -219 -243 -219q-96 0 -156 65q-59 66 -59 191v536q0 100 -23 144t-84 75v4h275v-743q0 -168 123 -168q72 0 120 69t47 216zM387 1477h168q-33 -201 -227 -363h-6
q65 117 65 363z" />
    <glyph glyph-name="ucircumflex" unicode="&#xfb;" horiz-adv-x="872" 
d="M575 369v403q0 100 -22 144q-23 44 -84 75v4h274v-772q1 -102 19 -145t76 -74v-4h-263v199q-61 -219 -243 -219q-96 0 -156 65q-59 66 -59 191v536q0 100 -23 144t-84 75v4h275v-743q0 -168 123 -168q72 0 120 69t47 216zM647 1112q-145 72 -211 172q-31 -45 -92 -94
t-121 -78h-12q160 182 221 412h8q63 -231 219 -412h-12z" />
    <glyph glyph-name="udieresis" unicode="&#xfc;" horiz-adv-x="872" 
d="M575 369v403q0 100 -22 144q-23 44 -84 75v4h274v-772q1 -102 19 -145t76 -74v-4h-263v199q-61 -219 -243 -219q-96 0 -156 65q-59 66 -59 191v536q0 100 -23 144t-84 75v4h275v-743q0 -168 123 -168q72 0 120 69t47 216zM666 1296q0 -42 -32 -74t-75 -32t-73 32t-30 74
t30 73q30 32 73 32t75 -32t32 -73zM412 1295q0 -41 -30 -73t-74 -32t-75 32t-31 74t31 73q31 32 75 32t74 -32t30 -74z" />
    <glyph glyph-name="yacute" unicode="&#xfd;" horiz-adv-x="788" 
d="M-20 995h346v-4q-74 -31 -74 -100q0 -39 24 -117l179 -573l166 559q18 57 18 106q0 90 -90 125v4h260v-4q-47 -35 -72 -76t-57 -151l-299 -987q-39 -123 -89 -192t-145 -68q-63 0 -109 41t-46 106q0 64 42 104t87 40t65 -21q-49 -23 -49 -86q-1 -33 19 -52t55 -19t63 37
q28 38 58 132l49 160l-277 815q-35 109 -56 144q-22 35 -68 73v4zM389 1477h168q-33 -201 -227 -363h-6q65 117 65 363z" />
    <glyph glyph-name="thorn" unicode="&#xfe;" horiz-adv-x="899" 
d="M14 1534h275v-760q43 242 250 242q131 0 225 -139t94 -375t-95 -378q-95 -144 -226 -144q-205 0 -248 245v-485q1 -98 23 -134t94 -63v-4h-379v4q61 29 77 63t17 134v1571q0 100 -23 144t-84 75v4zM674 500q0 204 -48 328t-134 124q-85 0 -144 -90t-59 -252v-209
q0 -166 58 -258t142 -92t135 123q50 123 50 326z" />
    <glyph glyph-name="ydieresis" unicode="&#xff;" horiz-adv-x="788" 
d="M-20 995h346v-4q-74 -31 -74 -100q0 -39 24 -117l179 -573l166 559q18 57 18 106q0 90 -90 125v4h260v-4q-47 -35 -72 -76t-57 -151l-299 -987q-39 -123 -89 -192t-145 -68q-63 0 -109 41t-46 106q0 64 42 104t87 40t65 -21q-49 -23 -49 -86q-1 -33 19 -52t55 -19t63 37
q28 38 58 132l49 160l-277 815q-35 109 -56 144q-22 35 -68 73v4zM668 1296q0 -42 -32 -74t-75 -32t-73 32t-30 74t30 73q30 32 73 32t75 -32t32 -73zM414 1295q0 -41 -30 -73t-74 -32t-74 32t-31 74q0 42 31 73q30 32 74 32t74 -32t30 -74z" />
    <glyph glyph-name="Amacron" unicode="&#x100;" horiz-adv-x="1056" 
d="M315 0h-315v4q61 31 99 94t75 181l358 1175h7l372 -1225q35 -111 60 -151t86 -74v-4h-383v4q86 35 86 109q0 35 -25 123l-76 249h-366l-62 -200q-18 -59 -18 -111q0 -127 102 -170v-4zM475 1087l-168 -550h336zM745 1544h-432v72h432v-72z" />
    <glyph glyph-name="amacron" unicode="&#x101;" horiz-adv-x="788" 
d="M217 276q1 -174 131 -174q62 0 103 54t43 163l2 209l-62 -20q-104 -35 -160 -89q-56 -53 -57 -143zM653 -16q-65 0 -107 46t-46 126l-2 43q-12 -97 -74 -155t-154 -58q-90 0 -153 61t-63 151t29 145q68 122 335 202l78 24v242q0 76 -38 121t-100 45t-95 -38
q-34 -38 -34 -97q0 -123 97 -123q14 0 26 6q-8 -41 -41 -63t-83 -23q-50 0 -91 39q-39 39 -39 110q0 100 83 164t213 64t203 -68t73 -215l-4 -557q0 -106 82 -106q37 -1 57 24v-6q-43 -104 -152 -104zM616 1186h-432v71h432v-71z" />
    <glyph glyph-name="Abreve" unicode="&#x102;" horiz-adv-x="1056" 
d="M315 0h-315v4q61 31 99 94t75 181l358 1175h7l372 -1225q35 -111 60 -151t86 -74v-4h-383v4q86 35 86 109q0 35 -25 123l-76 249h-366l-62 -200q-18 -59 -18 -111q0 -127 102 -170v-4zM475 1087l-168 -550h336zM530 1622q86 0 142 40q55 40 65 110h13q-14 -144 -68 -206
t-152 -62t-152 62t-69 206h13q10 -70 66 -110t142 -40z" />
    <glyph glyph-name="abreve" unicode="&#x103;" horiz-adv-x="788" 
d="M217 276q1 -174 131 -174q62 0 103 54t43 163l2 209l-62 -20q-104 -35 -160 -89q-56 -53 -57 -143zM653 -16q-65 0 -107 46t-46 126l-2 43q-12 -97 -74 -155t-154 -58q-90 0 -153 61t-63 151t29 145q68 122 335 202l78 24v242q0 76 -38 121t-100 45t-95 -38
q-34 -38 -34 -97q0 -123 97 -123q14 0 26 6q-8 -41 -41 -63t-83 -23q-50 0 -91 39q-39 39 -39 110q0 100 83 164t213 64t203 -68t73 -215l-4 -557q0 -106 82 -106q37 -1 57 24v-6q-43 -104 -152 -104zM590 1460q0 -158 -52 -245t-138 -87t-139 87q-52 87 -52 245h14
q9 -104 59 -154t118 -50t117 50q50 50 58 154h15z" />
    <glyph glyph-name="Aogonek" unicode="&#x104;" horiz-adv-x="1056" 
d="M475 1087l-168 -550h336zM436 -335q0 116 94 212q67 67 187 156q43 31 43 73t-25 130l-76 249h-366l-62 -200q-18 -59 -18 -111q0 -127 102 -170v-4h-315v4q61 31 99 94t75 181l358 1175h7l372 -1225q35 -111 60 -151t86 -74v-4h-355q-156 -139 -155 -276q0 -115 94 -115
q68 0 117 110l4 -4q-43 -197 -174 -196q-66 0 -109 42t-43 104z" />
    <glyph glyph-name="aogonek" unicode="&#x105;" horiz-adv-x="788" 
d="M217 276q1 -174 131 -174q62 0 103 54t43 163l2 209l-62 -20q-104 -35 -160 -89q-56 -53 -57 -143zM748 70q37 0 57 24v-6q-18 -38 -131 -144q-35 -34 -64 -94t-28 -126q0 -115 94 -115q68 0 117 110l4 -4q-43 -196 -174 -196q-66 0 -109 42t-43 113q0 141 215 312
q-10 -2 -33 -2q-65 0 -107 46t-46 126l-2 43q-12 -97 -74 -155t-154 -58q-90 0 -153 61t-63 151t29 145q68 122 335 202l78 24v242q0 76 -38 121t-100 45t-95 -38q-34 -38 -34 -97q0 -123 97 -123q14 0 26 6q-8 -41 -41 -63t-83 -23q-50 0 -91 39q-39 39 -39 110
q0 100 83 164t213 64t203 -68t73 -215l-4 -557q0 -106 82 -106z" />
    <glyph glyph-name="Cacute" unicode="&#x106;" horiz-adv-x="897" 
d="M539 1407q-143 0 -214 -186q-71 -185 -71 -491t82 -477t215 -171q205 0 289 332l12 -4q-25 -199 -119 -315t-235 -115q-197 0 -320 202t-123 526q0 322 134 534t331 212q48 0 110 -31t91 -31t55 19q26 18 39 43l19 -489h-7q-37 184 -116 313q-80 129 -172 129zM487 1784
h203q-51 -180 -284 -281h-7q76 125 88 281z" />
    <glyph glyph-name="cacute" unicode="&#x107;" horiz-adv-x="710" 
d="M428 977q-88 0 -148 -120t-61 -325q0 -457 221 -456q176 0 219 246l15 -3q-14 -163 -89 -251t-210 -88t-235 138q-99 138 -99 366t116 380t265 152q112 0 180 -56t68 -137t-40 -119t-100 -38q-96 0 -114 75h28q39 0 65 33t26 84q-1 119 -107 119zM377 1477h168
q-33 -201 -228 -363h-6q66 117 66 363z" />
    <glyph glyph-name="Ccircumflex" unicode="&#x108;" horiz-adv-x="897" 
d="M539 1407q-143 0 -214 -186q-71 -185 -71 -491t82 -477t215 -171q205 0 289 332l12 -4q-25 -199 -119 -315t-235 -115q-197 0 -320 202t-123 526q0 322 134 534t331 212q48 0 110 -31t91 -31t55 19q26 18 39 43l19 -489h-7q-37 184 -116 313q-80 129 -172 129zM762 1493
q-164 20 -232 100q-74 -80 -235 -100h-14q182 137 243 315h11q61 -180 241 -315h-14z" />
    <glyph glyph-name="ccircumflex" unicode="&#x109;" horiz-adv-x="710" 
d="M428 977q-88 0 -148 -120t-61 -325q0 -457 221 -456q176 0 219 246l15 -3q-14 -163 -89 -251t-210 -88t-235 138q-99 138 -99 366t116 380t265 152q112 0 180 -56t68 -137t-40 -119t-100 -38q-96 0 -114 75h28q39 0 65 33t26 84q-1 119 -107 119zM637 1112
q-145 72 -211 172q-31 -45 -92 -94t-121 -78h-12q160 182 221 412h8q63 -231 219 -412h-12z" />
    <glyph glyph-name="Cdotaccent" unicode="&#x10a;" horiz-adv-x="897" 
d="M539 1407q-143 0 -214 -186q-71 -185 -71 -491t82 -477t215 -171q205 0 289 332l12 -4q-25 -199 -119 -315t-235 -115q-197 0 -320 202t-123 526q0 322 134 534t331 212q48 0 110 -31t91 -31t55 19q26 18 39 43l19 -489h-7q-37 184 -116 313q-80 129 -172 129zM412 1647
q0 47 34 82q35 35 83 35t83 -36q35 -34 35 -81t-35 -82t-83 -35t-83 35q-34 35 -34 82z" />
    <glyph glyph-name="cdotaccent" unicode="&#x10b;" horiz-adv-x="710" 
d="M428 977q-88 0 -148 -120t-61 -325q0 -457 221 -456q176 0 219 246l15 -3q-14 -163 -89 -251t-210 -88t-235 138q-99 138 -99 366t116 380t265 152q112 0 180 -56t68 -137t-40 -119t-100 -38q-96 0 -114 75h28q39 0 65 33t26 84q-1 119 -107 119zM307 1317q0 47 35 82
t83 35t83 -35t35 -82t-35 -82t-83 -35t-83 35t-35 82z" />
    <glyph glyph-name="Ccaron" unicode="&#x10c;" horiz-adv-x="897" 
d="M539 1407q-143 0 -214 -186q-71 -185 -71 -491t82 -477t215 -171q205 0 289 332l12 -4q-25 -199 -119 -315t-235 -115q-197 0 -320 202t-123 526q0 322 134 534t331 212q48 0 110 -31t91 -31t55 19q26 18 39 43l19 -489h-7q-37 184 -116 313q-80 129 -172 129zM295 1808
q162 -20 235 -100q68 80 232 100h14q-180 -135 -241 -315h-11q-61 178 -243 315h14z" />
    <glyph glyph-name="ccaron" unicode="&#x10d;" horiz-adv-x="710" 
d="M428 977q-88 0 -148 -120t-61 -325q0 -457 221 -456q176 0 219 246l15 -3q-14 -163 -89 -251t-210 -88t-235 138q-99 138 -99 366t116 380t265 152q112 0 180 -56t68 -137t-40 -119t-100 -38q-96 0 -114 75h28q39 0 65 33t26 84q-1 119 -107 119zM213 1524
q59 -29 121 -78t92 -94q66 100 211 172h12q-156 -180 -219 -412h-8q-61 229 -221 412h12z" />
    <glyph glyph-name="Dcaron" unicode="&#x10e;" horiz-adv-x="1038" 
d="M319 49h48q197 0 313 164q116 163 115 499q0 336 -123 504t-330 168h-23v-1335zM31 0v4q71 29 95 80t24 158v950q0 106 -24 158t-95 80v4h313q279 0 460 -184t181 -517q0 -180 -51 -323q-93 -262 -329 -364q-105 -46 -222 -46h-352zM240 1808q162 -20 235 -100
q68 80 232 100h14q-180 -135 -242 -315h-10q-61 178 -244 315h15z" />
    <glyph glyph-name="dcaron" unicode="&#x10f;" horiz-adv-x="901" 
d="M610 1311q0 98 -22 142q-23 44 -84 77v4h274v-1311q0 -104 18 -146t76 -73v-4h-262v221q-20 -119 -86 -180t-164 -61q-131 0 -224 138t-93 374t95 380q95 143 227 144q202 0 245 -244v539zM407 43q83 0 143 91t60 253v209q0 166 -58 257t-141 91t-133 -124t-50 -326
t48 -327q48 -124 131 -124zM1049 1534q-19 -92 -81 -217t-122 -201h-6q51 190 37 418h172z" />
    <glyph glyph-name="Dcroat" unicode="&#x110;" horiz-adv-x="1048" 
d="M330 49h47q197 0 313 164q116 163 115 499q0 336 -123 504t-330 168h-22v-628h178v-49h-178v-658zM393 0h-352v4q71 29 95 80t24 158v465h-97v49h97v436q0 106 -24 158t-95 80v4h313q279 0 460 -184t181 -517q0 -180 -51 -323q-93 -262 -329 -364q-105 -46 -222 -46z" />
    <glyph glyph-name="dcroat" unicode="&#x111;" horiz-adv-x="901" 
d="M360 -20q-131 0 -224 138t-93 374t95 380q95 143 227 144q203 0 245 -244v406h-215v49h215v84q0 98 -22 142q-23 44 -84 77v4h274v-307h82v-49h-82v-955q0 -104 18 -146t76 -73v-4h-262v221q-20 -119 -86 -180t-164 -61zM407 43q83 0 143 91t60 253v209q0 166 -58 257
t-141 91t-133 -124t-50 -326t48 -327q48 -124 131 -124z" />
    <glyph glyph-name="Emacron" unicode="&#x112;" horiz-adv-x="911" 
d="M31 1434h649q70 0 96 14l49 -346h-4q-80 154 -173 220t-259 67h-70v-637h31q125 0 180 43t109 184h4v-465h-4q-51 133 -103 165t-186 32h-31v-666h82q170 0 273 75q102 75 178 249h4l-45 -369h-780v4q71 29 95 80t24 158v950q0 106 -24 158t-95 80v4zM692 1544h-432v72
h432v-72z" />
    <glyph glyph-name="emacron" unicode="&#x113;" horiz-adv-x="739" 
d="M528 586q0 190 -25 290q-26 99 -104 99q-78 1 -125 -111t-53 -278h307zM41 490q-1 230 103 378t254 148t225 -128q76 -128 75 -349h-479q1 -213 59 -340t179 -127q160 0 223 247l14 -2q-45 -338 -297 -337q-150 0 -253 140t-103 370zM623 1186h-433v71h433v-71z" />
    <glyph glyph-name="Ebreve" unicode="&#x114;" horiz-adv-x="911" 
d="M31 1434h649q70 0 96 14l49 -346h-4q-80 154 -173 220t-259 67h-70v-637h31q125 0 180 43t109 184h4v-465h-4q-51 133 -103 165t-186 32h-31v-666h82q170 0 273 75q102 75 178 249h4l-45 -369h-780v4q71 29 95 80t24 158v950q0 106 -24 158t-95 80v4zM477 1622
q86 0 141 40t66 110h12q-14 -144 -67 -206t-151 -62t-153 62q-54 62 -69 206h12q10 -70 66 -110t143 -40z" />
    <glyph glyph-name="ebreve" unicode="&#x115;" horiz-adv-x="739" 
d="M528 586q0 190 -25 290q-26 99 -104 99q-78 1 -125 -111t-53 -278h307zM41 490q-1 230 103 378t254 148t225 -128q76 -128 75 -349h-479q1 -213 59 -340t179 -127q160 0 223 247l14 -2q-45 -338 -297 -337q-150 0 -253 140t-103 370zM596 1460q0 -158 -52 -245t-138 -87
t-139 87q-52 87 -52 245h14q9 -104 59 -154t118 -50t118 50t58 154h14z" />
    <glyph glyph-name="Edotaccent" unicode="&#x116;" horiz-adv-x="911" 
d="M31 1434h649q70 0 96 14l49 -346h-4q-80 154 -173 220t-259 67h-70v-637h31q125 0 180 43t109 184h4v-465h-4q-51 133 -103 165t-186 32h-31v-666h82q170 0 273 75q102 75 178 249h4l-45 -369h-780v4q71 29 95 80t24 158v950q0 106 -24 158t-95 80v4zM358 1647
q0 47 35 82t83 35t83 -36q35 -34 35 -81t-35 -82t-83 -35t-83 35t-35 82z" />
    <glyph glyph-name="edotaccent" unicode="&#x117;" horiz-adv-x="739" 
d="M528 586q0 190 -25 290q-26 99 -104 99q-78 1 -125 -111t-53 -278h307zM41 490q-1 230 103 378t254 148t225 -128q76 -128 75 -349h-479q1 -213 59 -340t179 -127q160 0 223 247l14 -2q-45 -338 -297 -337q-150 0 -253 140t-103 370zM289 1317q0 47 35 82t83 35
q49 0 83 -35t34 -82t-35 -82t-83 -35t-82 35q-35 35 -35 82z" />
    <glyph glyph-name="Eogonek" unicode="&#x118;" horiz-adv-x="911" 
d="M383 -326q0 150 229 326h-581v4q71 29 95 80t24 158v950q0 106 -24 158t-95 80v4h649q70 0 96 14l49 -346h-4q-80 154 -173 220t-259 67h-70v-637h31q125 0 180 43t109 184h4v-465h-4q-51 133 -103 165t-186 32h-31v-666h82q170 0 273 75q102 75 178 249h4l-45 -369h-166
q-151 -141 -151 -266t94 -125q68 0 117 110l4 -4q-43 -197 -174 -196q-66 0 -109 42t-43 113z" />
    <glyph glyph-name="eogonek" unicode="&#x119;" horiz-adv-x="739" 
d="M528 586q0 190 -25 290q-26 99 -104 99q-78 1 -125 -111t-53 -278h307zM414 -481q-66 0 -109 42t-43 113q0 147 215 316q-41 -10 -80 -10q-150 0 -253 140t-103 370t103 378t253 148t226 -128t75 -349h-479q1 -213 59 -340t179 -127q160 0 223 247l14 -2
q-25 -203 -153 -303q-168 -131 -168 -290q0 -115 94 -115q68 0 117 110l4 -4q-43 -196 -174 -196z" />
    <glyph glyph-name="Ecaron" unicode="&#x11a;" horiz-adv-x="911" 
d="M31 1434h649q70 0 96 14l49 -346h-4q-80 154 -173 220t-259 67h-70v-637h31q125 0 180 43t109 184h4v-465h-4q-51 133 -103 165t-186 32h-31v-666h82q170 0 273 75q102 75 178 249h4l-45 -369h-780v4q71 29 95 80t24 158v950q0 106 -24 158t-95 80v4zM242 1808
q162 -20 235 -100q68 80 232 100h14q-180 -135 -242 -315h-10q-61 178 -244 315h15z" />
    <glyph glyph-name="ecaron" unicode="&#x11b;" horiz-adv-x="739" 
d="M528 586q0 190 -25 290q-26 99 -104 99q-78 1 -125 -111t-53 -278h307zM41 490q-1 230 103 378t254 148t225 -128q76 -128 75 -349h-479q1 -213 59 -340t179 -127q160 0 223 247l14 -2q-45 -338 -297 -337q-150 0 -253 140t-103 370zM195 1524q59 -29 120 -78t93 -94
q66 100 210 172h13q-156 -180 -219 -412h-9q-61 229 -221 412h13z" />
    <glyph glyph-name="Gcircumflex" unicode="&#x11c;" horiz-adv-x="987" 
d="M535 1407q-133 0 -209 -196t-76 -506t68 -483t204 -173q86 0 146 78q59 78 59 213v92q0 102 -22 153q-23 50 -91 85v4h347v-4q-45 -29 -59 -80t-13 -158v-452h-4l-144 221q-18 -97 -92 -159t-176 -62q-182 0 -301 204t-119 522t137 533t328 215q51 0 121 -31t98 -30
q68 0 101 61l18 -489h-6q-41 184 -127 313t-188 129zM768 1493q-164 20 -231 100q-74 -80 -236 -100h-14q182 137 243 315h11q61 -180 241 -315h-14z" />
    <glyph glyph-name="gcircumflex" unicode="&#x11d;" horiz-adv-x="835" 
d="M369 6q-93 0 -147 -54t-54 -160t70 -170t186 -64t194 70t78 180q0 108 -57 153t-186 45h-84zM831 -106q0 -166 -128 -270q-127 -104 -293 -105q-166 1 -282 67t-116 197q0 90 67 148t175 77q-78 8 -134 56t-56 127q0 78 52 130t120 74q-147 88 -148 287q0 142 86 238
t236 96q106 0 182 -51q12 84 55 136t101 52t86 -31q29 -31 28 -75q0 -74 -90 -117l-2 4q6 18 6 35q0 65 -66 65t-92 -88q113 -94 113 -250t-86 -252t-235 -96q-80 0 -150 33q-88 -41 -88 -113q0 -98 127 -98h233q143 0 221 -72t78 -204zM410 981q-68 0 -104 -85t-36 -214
t36 -214t104 -85t104 86t35 213q1 127 -35 213t-104 86zM621 1112q-145 72 -211 172q-30 -45 -92 -94t-121 -78h-13q160 182 222 412h8q63 -231 219 -412h-12z" />
    <glyph glyph-name="Gbreve" unicode="&#x11e;" horiz-adv-x="987" 
d="M535 1407q-133 0 -209 -196t-76 -506t68 -483t204 -173q86 0 146 78q59 78 59 213v92q0 102 -22 153q-23 50 -91 85v4h347v-4q-45 -29 -59 -80t-13 -158v-452h-4l-144 221q-18 -97 -92 -159t-176 -62q-182 0 -301 204t-119 522t137 533t328 215q51 0 121 -31t98 -30
q68 0 101 61l18 -489h-6q-41 184 -127 313t-188 129zM536 1622q86 0 142 40q55 40 65 110h13q-14 -144 -68 -206t-151 -62q-99 0 -153 62t-69 206h13q10 -70 66 -110t142 -40z" />
    <glyph glyph-name="gbreve" unicode="&#x11f;" horiz-adv-x="835" 
d="M369 6q-93 0 -147 -54t-54 -160t70 -170t186 -64t194 70t78 180q0 108 -57 153t-186 45h-84zM831 -106q0 -166 -128 -270q-127 -104 -293 -105q-166 1 -282 67t-116 197q0 90 67 148t175 77q-78 8 -134 56t-56 127q0 78 52 130t120 74q-147 88 -148 287q0 142 86 238
t236 96q106 0 182 -51q12 84 55 136t101 52t86 -31q29 -31 28 -75q0 -74 -90 -117l-2 4q6 18 6 35q0 65 -66 65t-92 -88q113 -94 113 -250t-86 -252t-235 -96q-80 0 -150 33q-88 -41 -88 -113q0 -98 127 -98h233q143 0 221 -72t78 -204zM410 981q-68 0 -104 -85t-36 -214
t36 -214t104 -85t104 86t35 213q1 127 -35 213t-104 86zM598 1460q0 -158 -52 -245t-138 -87t-139 87q-52 87 -52 245h14q9 -104 59 -154t118 -50t118 50t58 154h14z" />
    <glyph glyph-name="Gdotaccent" unicode="&#x120;" horiz-adv-x="987" 
d="M535 1407q-133 0 -209 -196t-76 -506t68 -483t204 -173q86 0 146 78q59 78 59 213v92q0 102 -22 153q-23 50 -91 85v4h347v-4q-45 -29 -59 -80t-13 -158v-452h-4l-144 221q-18 -97 -92 -159t-176 -62q-182 0 -301 204t-119 522t137 533t328 215q51 0 121 -31t98 -30
q68 0 101 61l18 -489h-6q-41 184 -127 313t-188 129zM418 1647q0 47 35 82t83 35t82 -36q34 -34 35 -81q0 -47 -35 -82q-34 -35 -82 -35t-83 35t-35 82z" />
    <glyph glyph-name="gdotaccent" unicode="&#x121;" horiz-adv-x="835" 
d="M369 6q-93 0 -147 -54t-54 -160t70 -170t186 -64t194 70t78 180q0 108 -57 153t-186 45h-84zM831 -106q0 -166 -128 -270q-127 -104 -293 -105q-166 1 -282 67t-116 197q0 90 67 148t175 77q-78 8 -134 56t-56 127q0 78 52 130t120 74q-147 88 -148 287q0 142 86 238
t236 96q106 0 182 -51q12 84 55 136t101 52t86 -31q29 -31 28 -75q0 -74 -90 -117l-2 4q6 18 6 35q0 65 -66 65t-92 -88q113 -94 113 -250t-86 -252t-235 -96q-80 0 -150 33q-88 -41 -88 -113q0 -98 127 -98h233q143 0 221 -72t78 -204zM410 981q-68 0 -104 -85t-36 -214
t36 -214t104 -85t104 86t35 213q1 127 -35 213t-104 86zM291 1317q0 47 35 82t83 35t83 -35q34 -35 34 -82t-34 -82t-83 -35q-48 0 -83 35t-35 82z" />
    <glyph glyph-name="uni0122" unicode="&#x122;" horiz-adv-x="987" 
d="M653 -265q0 -73 -61 -129t-158 -61v27q137 10 152 141q-27 -27 -71 -27t-72 28q-27 28 -27 69t30 70q31 29 83 29t88 -38q36 -36 36 -109zM535 1407q-133 0 -209 -196t-76 -506t68 -483t204 -173q86 0 146 78q59 78 59 213v92q0 102 -22 153q-23 50 -91 85v4h347v-4
q-45 -29 -59 -80t-13 -158v-452h-4l-144 221q-18 -97 -92 -159t-176 -62q-182 0 -301 204t-119 522t137 533t328 215q51 0 121 -31t98 -30q68 0 101 61l18 -489h-6q-41 184 -127 313t-188 129z" />
    <glyph glyph-name="uni0123" unicode="&#x123;" horiz-adv-x="835" 
d="M369 6q-93 0 -147 -54t-54 -160t70 -170t186 -64t194 70t78 180q0 108 -57 153t-186 45h-84zM831 -106q0 -166 -128 -270q-127 -104 -293 -105q-166 1 -282 67t-116 197q0 90 67 148t175 77q-78 8 -134 56t-56 127q0 78 52 130t120 74q-147 88 -148 287q0 142 86 238
t236 96q106 0 182 -51q12 84 55 136t101 52t86 -31q29 -31 28 -75q0 -74 -90 -117l-2 4q6 18 6 35q0 65 -66 65t-92 -88q113 -94 113 -250t-86 -252t-235 -96q-80 0 -150 33q-88 -41 -88 -113q0 -98 127 -98h233q143 0 221 -72t78 -204zM410 981q-68 0 -104 -85t-36 -214
t36 -214t104 -85t104 86t35 213q1 127 -35 213t-104 86zM289 1310q0 73 61 129t158 60v-26q-137 -10 -152 -142q27 27 71 27t72 -28q27 -28 27 -68t-30 -70q-30 -29 -83 -29q-52 0 -88 37t-36 110z" />
    <glyph glyph-name="Hcircumflex" unicode="&#x124;" horiz-adv-x="1101" 
d="M150 242v950q0 106 -24 158t-95 80v4h407v-4q-72 -29 -96 -80t-23 -158v-438h463v438q0 106 -23 158q-24 51 -95 80v4h407v-4q-71 -29 -95 -80t-24 -158v-950q0 -106 24 -158t95 -80v-4h-407v4q72 29 96 80t22 158v460h-463v-460q0 -106 24 -158t95 -80v-4h-407v4
q71 28 95 80t24 158zM784 1493q-164 20 -231 100q-74 -80 -236 -100h-14q182 137 244 315h10q61 -180 242 -315h-15z" />
    <glyph glyph-name="hcircumflex" unicode="&#x125;" horiz-adv-x="872" 
d="M12 1534h275v-739q29 104 94 162q66 59 160 59t154 -64t61 -190v-559q0 -98 17 -133t77 -66v-4h-356v4q61 31 77 65t17 134v540q0 168 -127 168q-74 -1 -124 -69t-50 -215v-424q0 -98 17 -133t77 -66v-4h-356v4q61 31 77 65t17 134v1108q0 98 -23 143t-84 76v4zM664 1575
q-164 20 -232 100q-74 -80 -235 -100h-15q182 137 244 315h10q61 -180 242 -315h-14z" />
    <glyph glyph-name="Hbar" unicode="&#x126;" horiz-adv-x="1122" 
d="M449 0h-408v4q71 29 95 80t24 158v731h-97v49h97v170q0 106 -24 158t-95 80v4h408v-4q-72 -29 -96 -80t-23 -158v-170h463v170q0 106 -24 158t-95 80v4h407v-4q-71 -29 -95 -80t-23 -158v-170h96v-49h-96v-731q0 -106 23 -158q24 -51 95 -80v-4h-407v4q72 29 96 80
t23 158v420h-463v-420q0 -106 23 -158q24 -51 96 -80v-4zM793 713v260h-463v-260h463z" />
    <glyph glyph-name="hbar" unicode="&#x127;" horiz-adv-x="872" 
d="M381 0h-356v4q61 31 77 65t17 134v975h-82v49h82v84q0 98 -23 143t-84 76v4h275v-307h215v-49h-215v-383q29 104 94 162q66 59 160 59t154 -64t61 -190v-559q0 -98 17 -133t77 -66v-4h-356v4q61 31 77 65t17 134v540q0 168 -127 168q-74 -1 -124 -69t-50 -215v-424
q-1 -98 17 -133t77 -66v-4z" />
    <glyph glyph-name="Itilde" unicode="&#x128;" horiz-adv-x="468" 
d="M319 242q0 -106 24 -158t95 -80v-4h-407v4q71 29 95 80t24 158v950q0 106 -24 158t-95 80v4h407v-4q-72 -29 -96 -80t-23 -158v-950zM340 1520q-37 0 -121 70t-125 71q-42 0 -70 -38t-55 -114h-16q47 276 174 277q37 0 121 -70t125 -70t69 38q28 36 58 110h14
q-47 -274 -174 -274z" />
    <glyph glyph-name="itilde" unicode="&#x129;" horiz-adv-x="419" 
d="M295 995v-792q0 -98 17 -133t79 -66v-4h-358v4q61 31 78 65q16 34 16 134v569q0 100 -23 144t-84 75v4h275zM78 1307q-36 0 -64 -37q-27 -37 -51 -111h-14q45 272 160 273q45 0 117 -70t110 -70t64 37t51 111h14q-45 -272 -160 -273q-45 0 -118 70t-109 70z" />
    <glyph glyph-name="Imacron" unicode="&#x12a;" horiz-adv-x="468" 
d="M319 242q0 -106 24 -158t95 -80v-4h-407v4q71 29 95 80t24 158v950q0 106 -24 158t-95 80v4h407v-4q-72 -29 -96 -80t-23 -158v-950zM451 1544h-433v72h433v-72z" />
    <glyph glyph-name="imacron" unicode="&#x12b;" horiz-adv-x="419" 
d="M295 995v-792q0 -98 17 -133t79 -66v-4h-358v4q61 31 78 65q16 34 16 134v569q0 100 -23 144t-84 75v4h275zM383 1186h-371v71h371v-71z" />
    <glyph glyph-name="Ibreve" unicode="&#x12c;" horiz-adv-x="468" 
d="M319 242q0 -106 24 -158t95 -80v-4h-407v4q71 29 95 80t24 158v950q0 106 -24 158t-95 80v4h407v-4q-72 -29 -96 -80t-23 -158v-950zM236 1622q86 0 141 40t65 110h13q-13 -144 -67 -206t-152 -62t-152 62t-70 206h13q10 -70 66 -110q57 -40 143 -40z" />
    <glyph glyph-name="ibreve" unicode="&#x12d;" horiz-adv-x="419" 
d="M295 995v-792q0 -98 17 -133t79 -66v-4h-358v4q61 31 78 65q16 34 16 134v569q0 100 -23 144t-84 75v4h275zM397 1460q0 -158 -52 -245t-138 -87t-138 87t-53 245h15q8 -104 58 -154t118 -50t118 50t58 154h14z" />
    <glyph glyph-name="Iogonek" unicode="&#x12e;" horiz-adv-x="468" 
d="M59 -326q0 150 230 326h-258v4q71 29 95 80t24 158v950q0 106 -24 158t-95 80v4h407v-4q-72 -29 -96 -80t-23 -158v-950q0 -106 24 -158t95 -80v-4h-116q-152 -141 -152 -266t94 -125q68 0 117 110l4 -4q-43 -197 -174 -196q-66 0 -109 42t-43 113z" />
    <glyph glyph-name="iogonek" unicode="&#x12f;" horiz-adv-x="419" 
d="M33 -326q0 152 227 326h-227v4q61 31 78 65q16 34 16 134v569q0 100 -23 144t-84 75v4h275v-792q0 -98 17 -133t79 -66v-4h-98q-150 -139 -150 -276q0 -115 95 -115q68 0 116 110l4 -4q-43 -197 -174 -196q-66 0 -108 42t-43 113zM92 1317q0 47 35 82t83 35t83 -35
t35 -82t-35 -82t-83 -35t-83 35t-35 82z" />
    <glyph glyph-name="Idotaccent" unicode="&#x130;" horiz-adv-x="468" 
d="M319 242q0 -106 24 -158t95 -80v-4h-407v4q71 29 95 80t24 158v950q0 106 -24 158t-95 80v4h407v-4q-72 -29 -96 -80t-23 -158v-950zM117 1647q0 47 35 82q34 35 82 35t83 -36q35 -34 35 -81t-35 -82t-83 -35t-82 35t-35 82z" />
    <glyph glyph-name="dotlessi" unicode="&#x131;" horiz-adv-x="419" 
d="M295 995v-792q0 -98 17 -133t79 -66v-4h-358v4q61 31 78 65q16 34 16 134v569q0 100 -23 144t-84 75v4h275z" />
    <glyph glyph-name="Jcircumflex" unicode="&#x134;" horiz-adv-x="841" 
d="M545 348v844q0 106 -24 158t-95 80v4h408v-4q-72 -29 -96 -80t-23 -158v-809q-1 -191 -101 -297t-256 -106t-248 74q-93 74 -94 196q0 86 52 135t137 49q84 0 123 -63q-56 -5 -100 -51t-44 -122t42 -128q42 -51 124 -52q195 0 195 330zM864 1493q-164 20 -231 100
q-74 -80 -236 -100h-14q182 137 244 315h10q61 -180 242 -315h-15z" />
    <glyph glyph-name="jcircumflex" unicode="&#x135;" horiz-adv-x="407" 
d="M295 -135q0 -174 -74 -260q-75 -86 -191 -86t-183 45t-66 135q0 59 40 100q41 41 105 41t92 -53q-94 -27 -94 -119q0 -51 26 -83q26 -31 66 -31t62 22q49 46 49 242v954q0 100 -23 144t-84 75v4h275v-1130zM418 1112q-145 72 -211 172q-70 -102 -215 -172h-12
q160 180 223 412h8q63 -231 219 -412h-12z" />
    <glyph glyph-name="uni0136" unicode="&#x136;" horiz-adv-x="1046" 
d="M641 -265q0 -73 -61 -129t-158 -61v27q137 10 151 141q-27 -27 -71 -27t-71 28q-28 28 -28 69t31 70t83 29t88 -38q36 -36 36 -109zM438 0h-407v4q71 29 95 80t24 158v950q0 106 -24 158t-95 80v4h407v-4q-72 -29 -96 -80t-23 -158v-549l377 590q31 45 31 86
q0 72 -88 111v4h391v-4q-178 -45 -276 -203l-256 -398l362 -600q58 -98 104 -150t103 -75v-4h-393v4q55 29 55 77t-37 112l-293 489l-80 -123v-317q0 -106 24 -158t95 -80v-4z" />
    <glyph glyph-name="uni0137" unicode="&#x137;" horiz-adv-x="864" 
d="M547 -265q1 -73 -61 -129t-158 -61v27q137 10 151 141q-27 -27 -71 -27t-71 28q-28 28 -28 69t31 70t83 29t88 -38q36 -36 36 -109zM287 573h61q76 0 125 74l119 187q18 27 18 61q0 66 -61 96v4h313v-4q-135 -47 -217 -172l-158 -237l220 -398q72 -131 188 -180v-4h-291
q-6 47 -59 147l-180 338q-25 43 -58 43h-20v-325q0 -98 17 -133t77 -66v-4h-356v4q61 31 77 65t17 134v1108q0 98 -23 143t-84 76v4h275v-961z" />
    <glyph glyph-name="kgreenlandic" unicode="&#x138;" horiz-adv-x="872" 
d="M295 573h61q76 0 125 74l119 187q18 27 18 61q0 66 -61 96v4h313v-4q-135 -47 -217 -172l-157 -237l219 -398q72 -131 188 -180v-4h-291q-6 47 -59 147l-180 338q-25 43 -58 43h-20v-325q0 -98 17 -133t77 -66v-4h-356v4q61 31 78 65q16 34 16 134v569q0 98 -23 143
t-84 76v4h275v-422z" />
    <glyph glyph-name="Lacute" unicode="&#x139;" horiz-adv-x="878" 
d="M31 1434h407v-4q-72 -29 -96 -80t-23 -158v-1145h109q166 0 249 76t177 291h4l-45 -414h-782v4q71 29 95 80t24 158v950q0 106 -24 158t-95 80v4zM301 1784h203q-51 -180 -285 -281h-6q76 125 88 281z" />
    <glyph glyph-name="lacute" unicode="&#x13a;" horiz-adv-x="411" 
d="M287 1534v-1331q0 -98 17 -133t77 -66v-4h-356v4q61 31 77 65t17 134v1108q0 98 -23 143t-84 76v4h275zM176 1845h203q-51 -180 -285 -280h-6q76 124 88 280z" />
    <glyph glyph-name="uni013B" unicode="&#x13b;" horiz-adv-x="878" 
d="M563 -265q0 -73 -61 -129t-158 -61v27q137 10 152 141q-27 -27 -71 -27t-72 28q-27 28 -27 69t30 70q31 29 83 29t88 -38q36 -36 36 -109zM31 1434h407v-4q-72 -29 -96 -80t-23 -158v-1145h109q166 0 249 76t177 291h4l-45 -414h-782v4q71 29 95 80t24 158v950
q0 106 -24 158t-95 80v4z" />
    <glyph glyph-name="uni013C" unicode="&#x13c;" horiz-adv-x="411" 
d="M315 -265q0 -73 -61 -129t-158 -61v27q137 10 152 141q-27 -27 -71 -27t-72 28q-27 28 -27 69t31 70t83 29t87 -38q36 -36 36 -109zM287 1534v-1331q0 -98 17 -133t77 -66v-4h-356v4q61 31 77 65t17 134v1108q0 98 -23 143t-84 76v4h275z" />
    <glyph glyph-name="Lcaron" unicode="&#x13d;" horiz-adv-x="878" 
d="M31 1434h407v-4q-72 -29 -96 -80t-23 -158v-1145h109q166 0 249 76t177 291h4l-45 -414h-782v4q71 29 95 80t24 158v950q0 106 -24 158t-95 80v4zM733 1434q-19 -92 -81 -217t-122 -201h-6q51 190 37 418h172z" />
    <glyph glyph-name="lcaron" unicode="&#x13e;" horiz-adv-x="411" 
d="M287 1534v-1331q0 -98 17 -133t77 -66v-4h-356v4q61 31 77 65t17 134v1108q0 98 -23 143t-84 76v4h275zM557 1534q-19 -92 -81 -217t-122 -201h-6q51 190 37 418h172z" />
    <glyph glyph-name="Ldot" unicode="&#x13f;" horiz-adv-x="878" 
d="M571 717q0 47 35 82t83 35t83 -35t35 -82t-35 -82t-83 -35t-83 35t-35 82zM31 1434h407v-4q-72 -29 -96 -80t-23 -158v-1145h109q166 0 249 76t177 291h4l-45 -414h-782v4q71 29 95 80t24 158v950q0 106 -24 158t-95 80v4z" />
    <glyph glyph-name="ldot" unicode="&#x140;" horiz-adv-x="600" 
d="M377 766q0 47 35 82t83 35t83 -35q34 -35 34 -82t-34 -82t-83 -35q-48 0 -83 35t-35 82zM287 1534v-1331q0 -98 17 -133t77 -66v-4h-356v4q61 31 77 65t17 134v1108q0 98 -23 143t-84 76v4h275z" />
    <glyph glyph-name="Lslash" unicode="&#x141;" horiz-adv-x="878" 
d="M31 0v4q71 29 95 80t24 158v379l-95 -35v57l95 37v512q0 106 -24 158t-95 80v4h407v-4q-72 -29 -96 -80t-23 -158v-453l232 88v-57l-232 -88v-635h109q166 0 249 76t177 291h4l-45 -414h-782z" />
    <glyph glyph-name="lslash" unicode="&#x142;" horiz-adv-x="452" 
d="M403 0h-356v4q61 31 78 65q16 34 16 134v557l-131 -92v59l131 92v492q0 98 -22 143q-23 45 -84 76v4h274v-612l133 96v-60l-133 -96v-659q-1 -98 17 -133t77 -66v-4z" />
    <glyph glyph-name="Nacute" unicode="&#x143;" horiz-adv-x="1028" 
d="M885 1161v-1179h-8l-670 1318v-1034q0 -201 155 -262v-4h-368v4q80 33 118 94t38 174v920q0 106 -24 158t-95 80v4h305l493 -979v712q0 201 -155 263v4h368v-4q-80 -32 -118 -94t-39 -175zM508 1784h203q-51 -180 -285 -281h-6q76 125 88 281z" />
    <glyph glyph-name="nacute" unicode="&#x144;" horiz-adv-x="882" 
d="M20 995h275v-200q29 104 94 162q66 59 161 59q94 0 154 -65t60 -189v-559q0 -98 17 -133t79 -66v-4h-358v4q61 31 78 65q16 34 16 134v540q0 168 -127 168q-74 -1 -124 -69t-50 -215v-424q0 -98 17 -133t79 -66v-4h-358v4q61 31 78 65q16 34 16 134v569q0 100 -23 144
t-84 75v4zM414 1477h168q-33 -201 -228 -363h-6q66 117 66 363z" />
    <glyph glyph-name="uni0145" unicode="&#x145;" horiz-adv-x="1028" 
d="M668 -265q0 -73 -62 -129t-157 -61v27q137 10 151 141q-27 -27 -71 -27q-43 0 -71 28t-28 69t31 70t83 29t88 -38q36 -36 36 -109zM885 1161v-1179h-8l-670 1318v-1034q0 -201 155 -262v-4h-368v4q80 33 118 94t38 174v920q0 106 -24 158t-95 80v4h305l493 -979v712
q0 201 -155 263v4h368v-4q-80 -32 -118 -94t-39 -175z" />
    <glyph glyph-name="uni0146" unicode="&#x146;" horiz-adv-x="882" 
d="M580 -265q0 -73 -62 -129t-158 -61v27q137 10 152 141q-27 -27 -71 -27q-43 0 -71 28t-28 69t31 70t83 29t88 -38q36 -36 36 -109zM20 995h275v-200q29 104 94 162q66 59 161 59q94 0 154 -65t60 -189v-559q0 -98 17 -133t79 -66v-4h-358v4q61 31 78 65q16 34 16 134v540
q0 168 -127 168q-74 -1 -124 -69t-50 -215v-424q0 -98 17 -133t79 -66v-4h-358v4q61 31 78 65q16 34 16 134v569q0 100 -23 144t-84 75v4z" />
    <glyph glyph-name="Ncaron" unicode="&#x147;" horiz-adv-x="1028" 
d="M885 1161v-1179h-8l-670 1318v-1034q0 -201 155 -262v-4h-368v4q80 33 118 94t38 174v920q0 106 -24 158t-95 80v4h305l493 -979v712q0 201 -155 263v4h368v-4q-80 -32 -118 -94t-39 -175zM315 1808q162 -20 236 -100q68 80 231 100h15q-180 -135 -242 -315h-10
q-61 178 -244 315h14z" />
    <glyph glyph-name="ncaron" unicode="&#x148;" horiz-adv-x="882" 
d="M20 995h275v-200q29 104 94 162q66 59 161 59q94 0 154 -65t60 -189v-559q0 -98 17 -133t79 -66v-4h-358v4q61 31 78 65q16 34 16 134v540q0 168 -127 168q-74 -1 -124 -69t-50 -215v-424q0 -98 17 -133t79 -66v-4h-358v4q61 31 78 65q16 34 16 134v569q0 100 -23 144
t-84 75v4zM250 1524q58 -29 120 -78t93 -94q66 100 211 172h12q-156 -180 -219 -412h-8q-61 229 -221 412h12z" />
    <glyph glyph-name="Eng" unicode="&#x14a;" horiz-adv-x="1028" 
d="M829 -143v217l-622 1226v-1034q0 -201 155 -262v-4h-368v4q80 33 118 94t38 174v920q0 106 -24 158t-95 80v4h305l493 -979v712q0 201 -155 263v4h368v-4q-80 -32 -118 -94t-39 -175v-1292q0 -164 -65 -257q-66 -93 -182 -93t-180 54t-65 140q0 53 36 89t95 36t97 -33
q-80 -23 -80 -116q-1 -55 27 -90t77 -35q184 0 184 293z" />
    <glyph glyph-name="eng" unicode="&#x14b;" horiz-adv-x="876" 
d="M500 -481q-116 0 -184 45q-67 45 -66 135q0 59 40 100t104 41t93 -53q-94 -27 -94 -119q0 -51 26 -83q25 -31 65 -31t63 22q49 46 49 242v925q0 168 -127 168q-74 -1 -124 -69t-50 -215v-424q0 -98 17 -133t79 -66v-4h-358v4q61 31 78 65q16 34 16 134v569q0 100 -23 144
t-84 75v4h275v-200q29 104 94 162q66 59 161 59q94 0 154 -65t60 -189v-897q0 -174 -74 -260t-190 -86z" />
    <glyph glyph-name="Omacron" unicode="&#x14c;" horiz-adv-x="1042" 
d="M782 717q0 313 -63 501t-199 189q-136 0 -197 -187q-63 -186 -63 -502t62 -504t198 -187q135 0 199 188q63 189 63 502zM987 717q0 -317 -137 -527t-330 -210t-329 210t-136 526q0 318 136 528t329 210t330 -210t137 -527zM737 1544h-432v72h432v-72z" />
    <glyph glyph-name="omacron" unicode="&#x14d;" horiz-adv-x="800" 
d="M401 20q89 0 133 134t44 346q0 213 -43 344t-133 131t-135 -132q-44 -132 -44 -344q0 -211 44 -345t134 -134zM400 -20q-157 0 -258 147t-101 371t101 371t258 147t258 -146q102 -146 102 -371q0 -223 -102 -371t-258 -148zM616 1186h-432v71h432v-71z" />
    <glyph glyph-name="Obreve" unicode="&#x14e;" horiz-adv-x="1042" 
d="M782 717q0 313 -63 501t-199 189q-136 0 -197 -187q-63 -186 -63 -502t62 -504t198 -187q135 0 199 188q63 189 63 502zM987 717q0 -317 -137 -527t-330 -210t-329 210t-136 526q0 318 136 528t329 210t330 -210t137 -527zM522 1622q86 0 142 40q55 40 65 110h12
q-14 -144 -67 -206q-54 -62 -152 -62t-152 62t-69 206h12q11 -70 67 -110t142 -40z" />
    <glyph glyph-name="obreve" unicode="&#x14f;" horiz-adv-x="800" 
d="M401 20q89 0 133 134t44 346q0 213 -43 344t-133 131t-135 -132q-44 -132 -44 -344q0 -211 44 -345t134 -134zM400 -20q-157 0 -258 147t-101 371t101 371t258 147t258 -146q102 -146 102 -371q0 -223 -102 -371t-258 -148zM590 1460q0 -158 -52 -245t-138 -87t-139 87
q-52 87 -52 245h14q9 -104 59 -154t118 -50t117 50q50 50 58 154h15z" />
    <glyph glyph-name="Ohungarumlaut" unicode="&#x150;" horiz-adv-x="1042" 
d="M782 717q0 313 -63 501t-199 189q-136 0 -197 -187q-63 -186 -63 -502t62 -504t198 -187q135 0 199 188q63 189 63 502zM987 717q0 -317 -137 -527t-330 -210t-329 210t-136 526q0 318 136 528t329 210t330 -210t137 -527zM657 1784h166q-43 -152 -223 -281h-6
q63 154 63 281zM453 1784h165q-43 -152 -223 -281h-6q64 154 64 281z" />
    <glyph glyph-name="ohungarumlaut" unicode="&#x151;" horiz-adv-x="800" 
d="M401 20q89 0 133 134t44 346q0 213 -43 344t-133 131t-135 -132q-44 -132 -44 -344q0 -211 44 -345t134 -134zM400 -20q-157 0 -258 147t-101 371t101 371t258 147t258 -146q102 -146 102 -371q0 -223 -102 -371t-258 -148zM535 1477h151q-35 -215 -211 -363h-6
q66 117 66 363zM330 1477h151q-35 -215 -211 -363h-6q66 117 66 363z" />
    <glyph glyph-name="OE" unicode="&#x152;" horiz-adv-x="1482" 
d="M657 1434h594q70 0 97 14l49 -346h-4q-80 154 -173 220t-259 67h-70v-637h31q125 0 180 43t108 184h4v-465h-4q-51 133 -103 165t-185 32h-31v-666h82q170 0 272 75t178 249h4l-45 -369h-686q-280 2 -460 184t-181 516q0 180 51 324q92 258 329 364q105 46 222 46z
M721 49v1335h-47q-197 0 -313 -164q-115 -164 -115 -499q0 -336 123 -504t329 -168h23z" />
    <glyph glyph-name="oe" unicode="&#x153;" horiz-adv-x="1265" 
d="M1055 586q0 190 -26 290q-25 100 -103 99q-78 1 -125 -111t-53 -278h307zM578 500q0 213 -43 344t-133 131t-135 -132q-44 -132 -44 -344t44 -345q44 -134 134 -134q89 0 133 134t44 346zM404 -20q-160 0 -262 147q-101 147 -101 371t101 371t263 147t261 -176
q98 176 253 176t231 -128t75 -349h-480q1 -213 59 -340t179 -127q160 0 223 247l15 -2q-45 -338 -297 -337q-164 0 -262 172q-98 -172 -258 -172z" />
    <glyph glyph-name="Racute" unicode="&#x154;" horiz-adv-x="999" 
d="M31 1434h383q221 0 360 -90t139 -276q0 -185 -129 -277t-305 -99q283 -25 334 -264l35 -172q22 -111 66 -164t139 -88v-4h-289q-61 72 -90 221l-33 178q-25 133 -83 204t-185 71h-54v-432q0 -106 24 -158t95 -80v-4h-407v4q71 29 95 80t24 158v950q0 106 -24 158t-95 80
v4zM319 1384v-661h62q342 0 342 336q0 326 -342 325h-62zM455 1784h202q-51 -180 -284 -281h-6q76 125 88 281z" />
    <glyph glyph-name="racute" unicode="&#x155;" horiz-adv-x="692" 
d="M455 891q-63 0 -111 -93t-49 -233v-372q1 -92 23 -123t94 -66v-4h-379v4q61 31 78 65q16 34 16 134v569q0 100 -23 144t-84 75v4h275v-256q29 117 85 196t130 79t119 -43t45 -109t-34 -108q-34 -44 -86 -44t-67 23q19 5 37 25t19 51q0 82 -88 82zM326 1477h168
q-33 -201 -228 -363h-6q66 117 66 363z" />
    <glyph glyph-name="uni0156" unicode="&#x156;" horiz-adv-x="999" 
d="M614 -265q0 -73 -61 -129t-158 -61v27q137 10 152 141q-27 -27 -71 -27t-72 28t-28 69t32 70q30 29 82 29t88 -38q36 -36 36 -109zM31 1434h383q221 0 360 -90t139 -276q0 -185 -129 -277t-305 -99q283 -25 334 -264l35 -172q22 -111 66 -164t139 -88v-4h-289
q-61 72 -90 221l-33 178q-25 133 -83 204t-185 71h-54v-432q0 -106 24 -158t95 -80v-4h-407v4q71 29 95 80t24 158v950q0 106 -24 158t-95 80v4zM319 1384v-661h62q342 0 342 336q0 326 -342 325h-62z" />
    <glyph glyph-name="uni0157" unicode="&#x157;" horiz-adv-x="692" 
d="M336 -265q0 -73 -62 -129t-157 -61v27q137 10 151 141q-26 -27 -70 -27t-72 28t-28 69t31 70t83 29t88 -38q36 -36 36 -109zM455 891q-63 0 -111 -93t-49 -233v-372q1 -92 23 -123t94 -66v-4h-379v4q61 31 78 65q16 34 16 134v569q0 100 -23 144t-84 75v4h275v-256
q29 117 85 196t130 79t119 -43t45 -109t-34 -108q-34 -44 -86 -44t-67 23q19 5 37 25t19 51q0 82 -88 82z" />
    <glyph glyph-name="Rcaron" unicode="&#x158;" horiz-adv-x="999" 
d="M31 1434h383q221 0 360 -90t139 -276q0 -185 -129 -277t-305 -99q283 -25 334 -264l35 -172q22 -111 66 -164t139 -88v-4h-289q-61 72 -90 221l-33 178q-25 133 -83 204t-185 71h-54v-432q0 -106 24 -158t95 -80v-4h-407v4q71 29 95 80t24 158v950q0 106 -24 158t-95 80
v4zM319 1384v-661h62q342 0 342 336q0 326 -342 325h-62zM262 1808q162 -20 236 -100q68 80 231 100h14q-180 -135 -241 -315h-10q-61 178 -244 315h14z" />
    <glyph glyph-name="rcaron" unicode="&#x159;" horiz-adv-x="692" 
d="M455 891q-63 0 -111 -93t-49 -233v-372q1 -92 23 -123t94 -66v-4h-379v4q61 31 78 65q16 34 16 134v569q0 100 -23 144t-84 75v4h275v-256q29 117 85 196t130 79t119 -43t45 -109t-34 -108q-34 -44 -86 -44t-67 23q19 5 37 25t19 51q0 82 -88 82zM162 1524
q58 -29 120 -78t93 -94q66 100 211 172h12q-156 -180 -219 -412h-8q-61 229 -221 412h12z" />
    <glyph glyph-name="Sacute" unicode="&#x15a;" horiz-adv-x="845" 
d="M215 1152q-1 -110 63 -184t208 -168q144 -96 194 -147q119 -121 119 -291t-113 -276t-264 -106q-74 0 -156 30t-104 31q-49 0 -92 -61l-25 495h4q61 -207 163 -328t204 -121q104 0 167 71q62 71 62 201t-90 221q-47 48 -84 76t-102 71q-189 125 -247 212q-59 87 -61 201
q0 167 108 271t259 104q66 0 134 -26t87 -25q49 0 80 51l23 -453h-4q-27 82 -40 122t-44 106q-84 178 -233 178q-95 0 -155 -73q-60 -72 -61 -182zM408 1784h202q-51 -180 -284 -281h-7q77 125 89 281z" />
    <glyph glyph-name="sacute" unicode="&#x15b;" horiz-adv-x="690" 
d="M338 975q-68 0 -106 -42q-36 -42 -36 -112t38 -118t143 -99q256 -123 256 -325q0 -141 -85 -221t-200 -78q-58 0 -118 24t-78 25q-47 0 -76 -49l-19 389h6q45 -158 125 -253q80 -96 155 -96t114 48t39 131q0 82 -42 127q-42 46 -160 108t-173 128t-55 182q0 118 77 195
q78 77 183 77q53 0 109 -25t83 -25t70 50v-336h-6q-40 135 -108 215t-136 80zM297 1477h168q-33 -201 -227 -363h-7q66 117 66 363z" />
    <glyph glyph-name="Scircumflex" unicode="&#x15c;" horiz-adv-x="845" 
d="M215 1152q-1 -110 63 -184t208 -168q144 -96 194 -147q119 -121 119 -291t-113 -276t-264 -106q-74 0 -156 30t-104 31q-49 0 -92 -61l-25 495h4q61 -207 163 -328t204 -121q104 0 167 71q62 71 62 201t-90 221q-47 48 -84 76t-102 71q-189 125 -247 212q-59 87 -61 201
q0 167 108 271t259 104q66 0 134 -26t87 -25q49 0 80 51l23 -453h-4q-27 82 -40 122t-44 106q-84 178 -233 178q-95 0 -155 -73q-60 -72 -61 -182zM682 1493q-164 20 -231 100q-74 -80 -236 -100h-14q182 137 243 315h11q61 -180 241 -315h-14z" />
    <glyph glyph-name="scircumflex" unicode="&#x15d;" horiz-adv-x="690" 
d="M338 975q-68 0 -106 -42q-36 -42 -36 -112t38 -118t143 -99q256 -123 256 -325q0 -141 -85 -221t-200 -78q-58 0 -118 24t-78 25q-47 0 -76 -49l-19 389h6q45 -158 125 -253q80 -96 155 -96t114 48t39 131q0 82 -42 127q-42 46 -160 108t-173 128t-55 182q0 118 77 195
q78 77 183 77q53 0 109 -25t83 -25t70 50v-336h-6q-40 135 -108 215t-136 80zM557 1112q-145 72 -211 172q-31 -45 -92 -94t-121 -78h-12q160 182 221 412h8q63 -231 219 -412h-12z" />
    <glyph glyph-name="uni015E" unicode="&#x15e;" horiz-adv-x="845" 
d="M424 -457q-113 0 -154 111l11 6q39 -63 100 -63q90 1 90 119t-115 124l58 140q-70 2 -150 32t-102 29q-49 0 -92 -61l-25 495h4q61 -207 163 -328t204 -121q104 0 167 71q62 71 62 201t-90 221q-47 48 -84 76t-102 71q-189 125 -247 212q-59 87 -61 201q0 167 108 271
t259 104q66 0 134 -26t87 -25q49 0 80 51l23 -453h-4q-27 82 -40 122t-44 106q-84 178 -233 178q-95 0 -155 -73q-60 -72 -61 -182t63 -184t208 -168q144 -96 194 -147q119 -121 119 -287q-1 -166 -103 -270t-245 -114l-48 -115q75 -2 131 -42t56 -116t-48 -121t-118 -45z
" />
    <glyph glyph-name="uni015F" unicode="&#x15f;" horiz-adv-x="690" 
d="M319 -457q-113 0 -153 111l10 6q39 -63 100 -63q90 1 90 119t-114 124l57 142q-41 6 -89 26t-68 21q-47 0 -76 -49l-19 389h6q45 -158 125 -253q80 -96 155 -96t114 48t39 131q0 82 -42 127q-42 46 -160 108t-173 128t-55 182q0 118 77 195q78 77 183 77q53 0 109 -25
t83 -25t70 50v-336h-6q-41 135 -109 215t-136 80q-69 0 -105 -42t-36 -112t38 -118t143 -99q256 -123 256 -325q0 -141 -85 -221t-200 -78h-2l-47 -113q76 -2 131 -42t55 -116t-48 -121t-118 -45z" />
    <glyph glyph-name="Scaron" unicode="&#x160;" horiz-adv-x="845" 
d="M215 1152q-1 -110 63 -184t208 -168q144 -96 194 -147q119 -121 119 -291t-113 -276t-264 -106q-74 0 -156 30t-104 31q-49 0 -92 -61l-25 495h4q61 -207 163 -328t204 -121q104 0 167 71q62 71 62 201t-90 221q-47 48 -84 76t-102 71q-189 125 -247 212q-59 87 -61 201
q0 167 108 271t259 104q66 0 134 -26t87 -25q49 0 80 51l23 -453h-4q-27 82 -40 122t-44 106q-84 178 -233 178q-95 0 -155 -73q-60 -72 -61 -182zM215 1808q162 -20 236 -100q68 80 231 100h14q-180 -135 -241 -315h-11q-61 178 -243 315h14z" />
    <glyph glyph-name="scaron" unicode="&#x161;" horiz-adv-x="690" 
d="M338 975q-68 0 -106 -42q-36 -42 -36 -112t38 -118t143 -99q256 -123 256 -325q0 -141 -85 -221t-200 -78q-58 0 -118 24t-78 25q-47 0 -76 -49l-19 389h6q45 -158 125 -253q80 -96 155 -96t114 48t39 131q0 82 -42 127q-42 46 -160 108t-173 128t-55 182q0 118 77 195
q78 77 183 77q53 0 109 -25t83 -25t70 50v-336h-6q-40 135 -108 215t-136 80zM133 1524q59 -29 121 -78t92 -94q66 100 211 172h12q-156 -180 -219 -412h-8q-61 229 -221 412h12z" />
    <glyph glyph-name="uni0162" unicode="&#x162;" horiz-adv-x="1067" 
d="M514 -457q-113 0 -154 111l11 6q39 -63 100 -63q90 1 90 119t-115 124l66 160h-190v4q74 29 100 75t27 146v1170h-23q-86 -1 -143 -19t-103 -70t-72 -110q-28 -58 -73 -172h-4l28 424q27 -14 95 -14h759q70 0 97 14l26 -424h-4q-45 113 -73 171q-72 150 -173 181
q-57 18 -143 19h-25v-1170q0 -100 27 -146t103 -75v-4h-199l-55 -133q76 -2 131 -42t55 -116t-48 -121t-118 -45z" />
    <glyph glyph-name="uni0163" unicode="&#x163;" horiz-adv-x="555" 
d="M297 -457q-113 0 -154 111l11 6q39 -63 100 -63q90 1 90 119t-115 124l58 140q-180 12 -181 274v688h-104v12q215 59 256 392h16v-351h222l-11 -53h-211v-680q0 -98 23 -140t72 -42q117 0 135 242h18q-10 -328 -198 -342l-48 -113q76 -2 132 -42t55 -116q0 -76 -48 -121
t-118 -45z" />
    <glyph glyph-name="Tcaron" unicode="&#x164;" horiz-adv-x="1067" 
d="M154 1434h759q70 0 97 14l26 -424h-4q-45 113 -73 171q-72 150 -173 181q-57 18 -143 19h-25v-1170q0 -100 27 -146t103 -75v-4h-426v4q74 29 100 75t27 146v1170h-23q-86 -1 -143 -19t-103 -70t-72 -110q-28 -58 -73 -172h-4l28 424q27 -14 95 -14zM299 1808
q162 -20 236 -100q68 80 231 100h14q-180 -135 -241 -315h-11q-61 178 -243 315h14z" />
    <glyph glyph-name="tcaron" unicode="&#x165;" horiz-adv-x="555" 
d="M305 -20q-199 0 -199 274v688h-104v12q215 59 256 392h16v-351h222l-11 -53h-211v-680q0 -98 23 -140t72 -42q117 0 135 242h18q-4 -170 -55 -256t-162 -86zM571 1534q-19 -92 -81 -217t-121 -201h-7q51 190 37 418h172z" />
    <glyph glyph-name="Tbar" unicode="&#x166;" horiz-adv-x="1067" 
d="M748 0h-426v4q74 29 100 75t27 146v482h-156v49h156v639h-23q-86 -1 -143 -19t-103 -70t-72 -110q-28 -58 -73 -172h-4l28 424q27 -14 95 -14h759q70 0 97 14l26 -424h-4q-45 113 -73 171q-72 150 -173 181q-57 18 -143 19h-25v-639h156v-49h-156v-482q0 -100 27 -146
t103 -75v-4z" />
    <glyph glyph-name="tbar" unicode="&#x167;" horiz-adv-x="583" 
d="M326 -20q-199 0 -199 274v387h-96v47h96v254h-104v12q215 59 256 392h16v-351h221l-10 -53h-211v-254h213v-47h-213v-379q1 -98 23 -140t71 -42q117 0 135 242h19q-3 -170 -55 -256t-162 -86z" />
    <glyph glyph-name="Utilde" unicode="&#x168;" horiz-adv-x="1009" 
d="M885 1161v-753q0 -184 -95 -306t-282 -122t-285 114t-98 320v778q0 106 -24 158t-95 80v4h408v-4q-72 -29 -96 -80t-23 -158v-764q0 -362 262 -362q129 0 201 95t71 253v753q0 201 -155 263v4h368v-4q-80 -32 -118 -94t-39 -175zM631 1520q-37 0 -121 70t-125 71
q-41 0 -70 -38t-55 -114h-16q47 276 174 277q37 0 121 -70q85 -70 125 -70t69 38q29 36 58 110h14q-47 -274 -174 -274z" />
    <glyph glyph-name="utilde" unicode="&#x169;" horiz-adv-x="872" 
d="M575 369v403q0 100 -22 144q-23 44 -84 75v4h274v-772q1 -102 19 -145t76 -74v-4h-263v199q-61 -219 -243 -219q-96 0 -156 65q-59 66 -59 191v536q0 100 -23 144t-84 75v4h275v-743q0 -168 123 -168q72 0 120 69t47 216zM305 1307q-37 0 -63 -37t-52 -111h-14
q45 272 160 273q45 0 118 -70q74 -70 110 -70t63 37t51 111h14q-45 -272 -160 -273q-46 0 -118 70t-109 70z" />
    <glyph glyph-name="Umacron" unicode="&#x16a;" horiz-adv-x="1009" 
d="M885 1161v-753q0 -184 -95 -306t-282 -122t-285 114t-98 320v778q0 106 -24 158t-95 80v4h408v-4q-72 -29 -96 -80t-23 -158v-764q0 -362 262 -362q129 0 201 95t71 253v753q0 201 -155 263v4h368v-4q-80 -32 -118 -94t-39 -175zM741 1544h-432v72h432v-72z" />
    <glyph glyph-name="umacron" unicode="&#x16b;" horiz-adv-x="872" 
d="M575 369v403q0 100 -22 144q-23 44 -84 75v4h274v-772q1 -102 19 -145t76 -74v-4h-263v199q-61 -219 -243 -219q-96 0 -156 65q-59 66 -59 191v536q0 100 -23 144t-84 75v4h275v-743q0 -168 123 -168q72 0 120 69t47 216zM651 1186h-432v71h432v-71z" />
    <glyph glyph-name="Ubreve" unicode="&#x16c;" horiz-adv-x="1009" 
d="M885 1161v-753q0 -184 -95 -306t-282 -122t-285 114t-98 320v778q0 106 -24 158t-95 80v4h408v-4q-72 -29 -96 -80t-23 -158v-764q0 -362 262 -362q129 0 201 95t71 253v753q0 201 -155 263v4h368v-4q-80 -32 -118 -94t-39 -175zM526 1622q86 0 142 40q55 40 65 110h12
q-14 -144 -67 -206q-54 -62 -152 -62t-152 62t-69 206h12q11 -70 67 -110t142 -40z" />
    <glyph glyph-name="ubreve" unicode="&#x16d;" horiz-adv-x="872" 
d="M575 369v403q0 100 -22 144q-23 44 -84 75v4h274v-772q1 -102 19 -145t76 -74v-4h-263v199q-61 -219 -243 -219q-96 0 -156 65q-59 66 -59 191v536q0 100 -23 144t-84 75v4h275v-743q0 -168 123 -168q72 0 120 69t47 216zM625 1460q-1 -158 -53 -245t-138 -87t-138 87
t-52 245h14q8 -104 58 -154t118 -50t118 50t58 154h15z" />
    <glyph glyph-name="Uring" unicode="&#x16e;" horiz-adv-x="1009" 
d="M885 1161v-753q0 -184 -95 -306t-282 -122t-285 114t-98 320v778q0 106 -24 158t-95 80v4h408v-4q-72 -29 -96 -80t-23 -158v-764q0 -362 262 -362q129 0 201 95t71 253v753q0 201 -155 263v4h368v-4q-80 -32 -118 -94t-39 -175zM524 1520q49 0 84 34t35 84q0 49 -35 84
t-84 35t-84 -35q-34 -35 -34 -84t34 -84q35 -34 84 -34zM524 1798q66 0 115 -48t49 -112t-49 -111q-49 -48 -115 -48t-114 48t-50 111q0 64 49 112t115 48z" />
    <glyph glyph-name="uring" unicode="&#x16f;" horiz-adv-x="872" 
d="M575 369v403q0 100 -22 144q-23 44 -84 75v4h274v-772q1 -102 19 -145t76 -74v-4h-263v199q-61 -219 -243 -219q-96 0 -156 65q-59 66 -59 191v536q0 100 -23 144t-84 75v4h275v-743q0 -168 123 -168q72 0 120 69t47 216zM434 1171q49 0 84 35t35 84t-35 84t-84 35
t-84 -35t-35 -84t35 -84t84 -35zM434 1450q66 0 115 -48t49 -112t-49 -111q-49 -49 -115 -49t-115 48t-49 112t49 112t115 48z" />
    <glyph glyph-name="Uhungarumlaut" unicode="&#x170;" horiz-adv-x="1009" 
d="M885 1161v-753q0 -184 -95 -306t-282 -122t-285 114t-98 320v778q0 106 -24 158t-95 80v4h408v-4q-72 -29 -96 -80t-23 -158v-764q0 -362 262 -362q129 0 201 95t71 253v753q0 201 -155 263v4h368v-4q-80 -32 -118 -94t-39 -175zM662 1784h165q-43 -152 -223 -281h-6
q64 154 64 281zM457 1784h166q-43 -152 -224 -281h-6q64 154 64 281z" />
    <glyph glyph-name="uhungarumlaut" unicode="&#x171;" horiz-adv-x="872" 
d="M575 369v403q0 100 -22 144q-23 44 -84 75v4h274v-772q1 -102 19 -145t76 -74v-4h-263v199q-61 -219 -243 -219q-96 0 -156 65q-59 66 -59 191v536q0 100 -23 144t-84 75v4h275v-743q0 -168 123 -168q72 0 120 69t47 216zM569 1477h152q-35 -215 -211 -363h-6
q65 117 65 363zM365 1477h151q-35 -215 -211 -363h-6q66 117 66 363z" />
    <glyph glyph-name="Uogonek" unicode="&#x172;" horiz-adv-x="1009" 
d="M559 -481q-67 0 -109 42t-42 113q0 152 223 322q-55 -16 -115 -16q-195 0 -293 114t-98 320v778q0 106 -24 158t-95 80v4h408v-4q-72 -29 -96 -80t-23 -158v-764q0 -362 262 -362q129 0 201 95t71 253v753q0 201 -155 263v4h368v-4q-80 -32 -118 -94t-39 -175v-753
q1 -262 -183 -390t-184 -294q0 -115 94 -115q68 0 117 110l4 -4q-43 -196 -174 -196z" />
    <glyph glyph-name="uogonek" unicode="&#x173;" horiz-adv-x="872" 
d="M344 -326q0 154 231 328v197q-61 -219 -243 -219q-96 0 -156 65q-59 66 -59 191v536q0 100 -23 144t-84 75v4h275v-743q0 -168 123 -168q72 0 120 69t47 216v403q0 100 -22 144q-23 44 -84 75v4h274v-772q1 -102 19 -145t76 -74v-4h-232q-152 -141 -152 -266t95 -125
q68 0 117 110l4 -4q-43 -197 -174 -196q-66 0 -109 42t-43 113z" />
    <glyph glyph-name="Wcircumflex" unicode="&#x174;" horiz-adv-x="1413" 
d="M0 1434h379v-4q-84 -33 -84 -107q0 -37 24 -125l218 -795l149 603l-47 198q-25 106 -50 150q-26 43 -87 76v4h370v-4q-80 -33 -79 -109q0 -20 20 -123l170 -807l197 758q16 61 16 113q0 125 -98 168v4h315v-4q-63 -31 -103 -97t-71 -178l-307 -1175h-6l-215 917
l-226 -917h-6l-342 1224q-31 113 -54 153q-24 40 -83 73v4zM940 1493q-164 20 -231 100q-74 -80 -236 -100h-14q182 137 243 315h11q61 -180 241 -315h-14z" />
    <glyph glyph-name="wcircumflex" unicode="&#x175;" horiz-adv-x="1064" 
d="M-20 995h335v-4q-70 -31 -69 -102q0 -43 22 -115l138 -467l112 391l-20 76q-35 106 -57 142t-68 75v4h334v-4q-70 -31 -70 -106q0 -45 18 -111l119 -452l125 438q16 59 16 100q0 96 -88 131v4h258v-4q-47 -35 -71 -76t-58 -151l-229 -784h-4l-176 618l-185 -618h-4
l-254 794q-35 106 -56 142q-22 36 -68 75v4zM784 1112q-145 72 -211 172q-31 -45 -92 -94t-121 -78h-12q160 182 221 412h9q63 -231 219 -412h-13z" />
    <glyph glyph-name="Ycircumflex" unicode="&#x176;" 
d="M735 1434h289v-4q-53 -33 -84 -75t-66 -118l-284 -641v-371q0 -100 26 -146t101 -75v-4h-420v4q75 29 101 75t26 146v371l-285 641q-27 57 -39 82q-30 62 -100 111v4h365v-4q-70 -40 -70 -90t29 -115l239 -561l236 528q29 63 28 111q0 86 -92 127v4zM788 1493
q-164 20 -231 100q-74 -80 -235 -100h-15q182 137 244 315h10q61 -180 242 -315h-15z" />
    <glyph glyph-name="ycircumflex" unicode="&#x177;" horiz-adv-x="788" 
d="M-20 995h346v-4q-74 -31 -74 -100q0 -39 24 -117l179 -573l166 559q18 57 18 106q0 90 -90 125v4h260v-4q-47 -35 -72 -76t-57 -151l-299 -987q-39 -123 -89 -192t-145 -68q-63 0 -109 41t-46 106q0 64 42 104t87 40t65 -21q-49 -23 -49 -86q-1 -33 19 -52t55 -19t63 37
q28 38 58 132l49 160l-277 815q-35 109 -56 144q-22 35 -68 73v4zM649 1112q-145 72 -211 172q-31 -45 -92 -94t-121 -78h-12q160 182 221 412h8q63 -231 220 -412h-13z" />
    <glyph glyph-name="Ydieresis" unicode="&#x178;" 
d="M735 1434h289v-4q-53 -33 -84 -75t-66 -118l-284 -641v-371q0 -100 26 -146t101 -75v-4h-420v4q75 29 101 75t26 146v371l-285 641q-27 57 -39 82q-30 62 -100 111v4h365v-4q-70 -40 -70 -90t29 -115l239 -561l236 528q29 63 28 111q0 86 -92 127v4zM680 1518
q-43 0 -73 32q-29 32 -29 73q0 42 29 74q30 32 73 32t75 -32q31 -32 31 -73t-31 -74q-32 -32 -75 -32zM429 1518q-44 0 -75 32q-30 32 -30 73q0 42 30 74q31 32 75 32t74 -32q29 -32 29 -74t-29 -74q-30 -31 -74 -31z" />
    <glyph glyph-name="Zacute" unicode="&#x179;" horiz-adv-x="944" 
d="M29 0v4l647 1387h-211q-156 0 -239 -81t-163 -253h-4l43 391q27 -14 95 -14h684v-4l-641 -1387h219q164 0 247 77t179 294h4l-47 -414h-813zM463 1784h203q-51 -180 -285 -281h-6q76 125 88 281z" />
    <glyph glyph-name="zacute" unicode="&#x17a;" horiz-adv-x="745" 
d="M379 956q-100 0 -167 -62t-146 -228h-5l29 342q61 -12 123 -13h479v-4l-465 -950h121q111 0 189 74t149 247h4l-37 -362h-622v4l465 952h-117zM338 1477h168q-33 -201 -227 -363h-7q66 117 66 363z" />
    <glyph glyph-name="Zdotaccent" unicode="&#x17b;" horiz-adv-x="944" 
d="M29 0v4l647 1387h-211q-156 0 -239 -81t-163 -253h-4l43 391q27 -14 95 -14h684v-4l-641 -1387h219q164 0 247 77t179 294h4l-47 -414h-813zM387 1647q0 47 35 82t83 35t83 -36q35 -34 35 -81t-35 -82t-83 -35t-83 35t-35 82z" />
    <glyph glyph-name="zdotaccent" unicode="&#x17c;" horiz-adv-x="745" 
d="M379 956q-100 0 -167 -62t-146 -228h-5l29 342q61 -12 123 -13h479v-4l-465 -950h121q111 0 189 74t149 247h4l-37 -362h-622v4l465 952h-117zM268 1317q0 47 35 82t83 35t83 -35t35 -82t-35 -82t-83 -35t-83 35t-35 82z" />
    <glyph glyph-name="Zcaron" unicode="&#x17d;" horiz-adv-x="944" 
d="M29 0v4l647 1387h-211q-156 0 -239 -81t-163 -253h-4l43 391q27 -14 95 -14h684v-4l-641 -1387h219q164 0 247 77t179 294h4l-47 -414h-813zM270 1808q162 -20 236 -100q68 80 231 100h15q-180 -135 -242 -315h-10q-61 178 -244 315h14z" />
    <glyph glyph-name="zcaron" unicode="&#x17e;" horiz-adv-x="745" 
d="M379 956q-100 0 -167 -62t-146 -228h-5l29 342q61 -12 123 -13h479v-4l-465 -950h121q111 0 189 74t149 247h4l-37 -362h-622v4l465 952h-117zM174 1524q58 -29 120 -78t93 -94q66 100 211 172h12q-156 -180 -219 -412h-8q-61 229 -221 412h12z" />
    <glyph glyph-name="uni0192" unicode="&#x192;" horiz-adv-x="845" 
d="M82 -387q-108 0 -171 43q-63 42 -63 110t32 101t91 33t101 -37q-39 2 -62 -28t-22 -87q0 -102 78 -102q106 0 133 258l86 798h-170l6 37h168l39 353q18 172 96 267t188 95t174 -45q63 -45 64 -129q0 -53 -32 -86t-91 -33t-100 37q39 -2 61 28t23 87q0 109 -84 108
q-106 0 -133 -256l-48 -426h205l-6 -37h-203l-77 -727q-19 -172 -97 -267t-186 -95z" />
    <glyph glyph-name="AEacute" unicode="&#x1fc;" horiz-adv-x="1464" 
d="M326 0h-326v4q106 53 209 275l446 983q12 29 13 49q0 61 -111 119v4h676q70 0 96 14l49 -346h-4q-80 154 -173 220t-259 67h-70v-637h31q125 0 180 43t109 184h4v-465h-4q-51 133 -103 165t-186 32h-31v-666h82q170 0 273 75q102 75 178 249h4l-45 -369h-780v4
q72 29 96 80t22 158v243h-337l-89 -200q-43 -88 -43 -150q1 -90 93 -131v-4zM702 537v708l-313 -708h313zM940 1784h203q-51 -180 -285 -281h-6q76 125 88 281z" />
    <glyph glyph-name="aeacute" unicode="&#x1fd;" horiz-adv-x="1171" 
d="M217 274q1 -172 131 -172q62 0 103 54t43 163l2 205l-62 -20q-104 -35 -160 -88q-56 -54 -57 -142zM961 582q0 190 -26 290t-103 100t-125 -112t-54 -278h308zM496 809q0 76 -37 122t-99 46t-97 -38q-34 -38 -34 -97q0 -123 97 -123q14 0 26 6q-8 -41 -41 -63t-83 -23
q-50 0 -91 39q-39 39 -39 110q0 100 83 164t198 64q166 0 219 -148q96 145 227 146q154 0 230 -129t75 -350h-479q1 -213 59 -338t179 -125q160 0 223 247l14 -2q-45 -338 -297 -337q-104 0 -192 66t-123 183q-8 -104 -81 -174q-73 -69 -163 -69t-153 61t-63 151t29 145
q68 122 335 202l78 24v240zM598 1477h168q-33 -201 -227 -363h-7q66 117 66 363z" />
    <glyph glyph-name="Oslashacute" unicode="&#x1fe;" horiz-adv-x="1042" 
d="M520 -20q-170 0 -299 167l-108 -188l-39 27l119 202q-137 214 -137 530t135 526q137 210 319 210t315 -174l105 180l39 -26l-115 -197q133 -213 133 -525t-137 -522t-330 -210zM520 27q135 0 199 188q63 187 63 447t-26 407l-455 -784q67 -258 219 -258zM520 1407
q-136 1 -198 -187t-62 -451t27 -415l456 785q-68 268 -223 268zM479 1784h203q-51 -180 -285 -281h-6q76 125 88 281z" />
    <glyph glyph-name="oslashacute" unicode="&#x1ff;" horiz-adv-x="800" 
d="M401 -20q-125 0 -217 96l-71 -125l-39 22l80 140q-113 147 -113 379t101 377q101 146 259 147q125 0 213 -92l66 114l39 -22l-74 -129q115 -147 115 -379t-102 -380t-257 -148zM401 20q89 0 133 134t44 303q0 170 -17 280l-307 -538q47 -179 147 -179zM223 544
q0 -167 17 -278l307 537q-47 172 -146 172q-90 0 -134 -132t-44 -299zM352 1477h168q-33 -201 -227 -363h-6q65 117 65 363z" />
    <glyph glyph-name="uni0218" unicode="&#x218;" horiz-adv-x="845" 
d="M567 -265q0 -73 -61 -129t-158 -61v27q137 10 152 141q-27 -27 -71 -27t-72 28q-27 28 -27 69t30 70q31 29 83 29t88 -38q36 -36 36 -109zM215 1152q-1 -110 63 -184t208 -168q144 -96 194 -147q119 -121 119 -291t-113 -276t-264 -106q-74 0 -156 30t-104 31
q-49 0 -92 -61l-25 495h4q61 -207 163 -328t204 -121q104 0 167 71q62 71 62 201t-90 221q-47 48 -84 76t-102 71q-189 125 -247 212q-59 87 -61 201q0 167 108 271t259 104q66 0 134 -26t87 -25q49 0 80 51l23 -453h-4q-27 82 -40 122t-44 106q-84 178 -233 178
q-95 0 -155 -73q-60 -72 -61 -182z" />
    <glyph glyph-name="uni0219" unicode="&#x219;" horiz-adv-x="690" 
d="M463 -265q1 -73 -61 -129t-158 -61v27q137 10 151 141q-27 -27 -71 -27t-71 28q-28 28 -28 69t31 70t83 29t88 -38q36 -36 36 -109zM338 975q-68 0 -106 -42q-36 -42 -36 -112t38 -118t143 -99q256 -123 256 -325q0 -141 -85 -221t-200 -78q-58 0 -118 24t-78 25
q-47 0 -76 -49l-19 389h6q45 -158 125 -253q80 -96 155 -96t114 48t39 131q0 82 -42 127q-42 46 -160 108t-173 128t-55 182q0 118 77 195q78 77 183 77q53 0 109 -25t83 -25t70 50v-336h-6q-40 135 -108 215t-136 80z" />
    <glyph glyph-name="uni021A" unicode="&#x21a;" horiz-adv-x="1067" 
d="M651 -265q0 -73 -61 -129t-158 -61v27q137 10 152 141q-27 -27 -71 -27t-72 28q-27 28 -27 69t30 70q31 29 83 29t88 -38q36 -36 36 -109zM154 1434h759q70 0 97 14l26 -424h-4q-45 113 -73 171q-72 150 -173 181q-57 18 -143 19h-25v-1170q0 -100 27 -146t103 -75v-4
h-426v4q74 29 100 75t27 146v1170h-23q-86 -1 -143 -19t-103 -70t-72 -110q-28 -58 -73 -172h-4l28 424q27 -14 95 -14z" />
    <glyph glyph-name="uni021B" unicode="&#x21b;" horiz-adv-x="555" 
d="M422 -265q0 -73 -62 -129t-157 -61v27q137 10 151 141q-26 -27 -70 -27t-72 28t-28 69t31 70t83 29t88 -38q36 -36 36 -109zM305 -20q-199 0 -199 274v688h-104v12q215 59 256 392h16v-351h222l-11 -53h-211v-680q0 -98 23 -140t72 -42q117 0 135 242h18
q-4 -170 -55 -256t-162 -86z" />
    <glyph glyph-name="uni0237" unicode="&#x237;" horiz-adv-x="407" 
d="M295 -135q0 -174 -74 -260q-75 -86 -191 -86t-183 45t-66 135q0 59 40 100q41 41 105 41t92 -53q-94 -27 -94 -119q0 -51 26 -83q26 -31 66 -31t62 22q49 46 49 242v954q0 100 -23 144t-84 75v4h275v-1130z" />
    <glyph glyph-name="uni02BB" unicode="&#x2bb;" 
d="M395 1310q-1 73 61 129t158 60v-26q-137 -10 -151 -142q27 27 71 27t72 -28t27 -68q0 -40 -31 -70q-31 -29 -83 -29t-88 37t-36 110z" />
    <glyph glyph-name="circumflex" unicode="&#x2c6;" 
d="M725 1112q-145 72 -211 172q-31 -45 -92 -94t-121 -78h-12q160 182 221 412h8q63 -231 219 -412h-12z" />
    <glyph glyph-name="caron" unicode="&#x2c7;" 
d="M301 1524q59 -29 121 -78t92 -94q66 100 211 172h12q-156 -180 -219 -412h-8q-61 229 -221 412h12z" />
    <glyph glyph-name="breve" unicode="&#x2d8;" 
d="M702 1460q0 -158 -52 -245t-138 -87t-138 87t-52 245h14q8 -104 58 -154t118 -50t118 50t58 154h14z" />
    <glyph glyph-name="dotaccent" unicode="&#x2d9;" 
d="M393 1317q0 47 35 82t83 35t83 -35t35 -82t-35 -82t-83 -35t-83 35t-35 82z" />
    <glyph glyph-name="ring" unicode="&#x2da;" 
d="M512 1171q49 0 84 35t35 84t-35 84t-84 35t-84 -35t-35 -84t35 -84t84 -35zM512 1450q66 0 115 -48t49 -112t-49 -111q-49 -49 -115 -49t-115 48t-49 112t49 112t115 48z" />
    <glyph glyph-name="ogonek" unicode="&#x2db;" 
d="M350 -312q0 86 77 172t208 181l6 -14q-180 -154 -180 -303q0 -115 94 -115q68 0 117 110l4 -4q-43 -197 -174 -196q-66 -1 -109 41t-43 128z" />
    <glyph glyph-name="tilde" unicode="&#x2dc;" 
d="M383 1307q-37 0 -64 -37t-51 -111h-14q45 272 160 273q46 0 118 -70t109 -70t64 37t51 111h14q-45 -272 -160 -273q-46 0 -118 70t-109 70z" />
    <glyph glyph-name="hungarumlaut" unicode="&#x2dd;" 
d="M571 1477h152q-35 -215 -211 -363h-6q65 117 65 363zM367 1477h151q-35 -215 -211 -363h-6q66 117 66 363z" />
    <glyph glyph-name="Wgrave" unicode="&#x1e80;" horiz-adv-x="1413" 
d="M0 1434h379v-4q-84 -33 -84 -107q0 -37 24 -125l218 -795l149 603l-47 198q-25 106 -50 150q-26 43 -87 76v4h370v-4q-80 -33 -79 -109q0 -20 20 -123l170 -807l197 758q16 61 16 113q0 125 -98 168v4h315v-4q-63 -31 -103 -97t-71 -178l-307 -1175h-6l-215 917
l-226 -917h-6l-342 1224q-31 113 -54 153q-24 40 -83 73v4zM752 1784q12 -156 88 -281h-6q-233 100 -285 281h203z" />
    <glyph glyph-name="wgrave" unicode="&#x1e81;" horiz-adv-x="1064" 
d="M-20 995h335v-4q-70 -31 -69 -102q0 -43 22 -115l138 -467l112 391l-20 76q-35 106 -57 142t-68 75v4h334v-4q-70 -31 -70 -106q0 -45 18 -111l119 -452l125 438q16 59 16 100q0 96 -88 131v4h258v-4q-47 -35 -71 -76t-58 -151l-229 -784h-4l-176 618l-185 -618h-4
l-254 794q-35 106 -56 142q-22 36 -68 75v4zM606 1477q0 -246 66 -363h-6q-195 162 -228 363h168z" />
    <glyph glyph-name="Wacute" unicode="&#x1e82;" horiz-adv-x="1413" 
d="M0 1434h379v-4q-84 -33 -84 -107q0 -37 24 -125l218 -795l149 603l-47 198q-25 106 -50 150q-26 43 -87 76v4h370v-4q-80 -33 -79 -109q0 -20 20 -123l170 -807l197 758q16 61 16 113q0 125 -98 168v4h315v-4q-63 -31 -103 -97t-71 -178l-307 -1175h-6l-215 917
l-226 -917h-6l-342 1224q-31 113 -54 153q-24 40 -83 73v4zM666 1784h202q-51 -180 -284 -281h-6q76 125 88 281z" />
    <glyph glyph-name="wacute" unicode="&#x1e83;" horiz-adv-x="1064" 
d="M-20 995h335v-4q-70 -31 -69 -102q0 -43 22 -115l138 -467l112 391l-20 76q-35 106 -57 142t-68 75v4h334v-4q-70 -31 -70 -106q0 -45 18 -111l119 -452l125 438q16 59 16 100q0 96 -88 131v4h258v-4q-47 -35 -71 -76t-58 -151l-229 -784h-4l-176 618l-185 -618h-4
l-254 794q-35 106 -56 142q-22 36 -68 75v4zM524 1477h168q-33 -201 -227 -363h-6q65 117 65 363z" />
    <glyph glyph-name="Wdieresis" unicode="&#x1e84;" horiz-adv-x="1413" 
d="M0 1434h379v-4q-84 -33 -84 -107q0 -37 24 -125l218 -795l149 603l-47 198q-25 106 -50 150q-26 43 -87 76v4h370v-4q-80 -33 -79 -109q0 -20 20 -123l170 -807l197 758q16 61 16 113q0 125 -98 168v4h315v-4q-63 -31 -103 -97t-71 -178l-307 -1175h-6l-215 917
l-226 -917h-6l-342 1224q-31 113 -54 153q-24 40 -83 73v4zM938 1624q0 -42 -32 -74t-74 -32q-43 0 -73 32t-30 73q0 42 30 74t73 32q42 0 74 -32t32 -73zM581 1729q43 0 73 -32t30 -74q0 -41 -30 -73t-73 -32q-44 0 -75 32t-31 73q0 42 31 74t75 32z" />
    <glyph glyph-name="wdieresis" unicode="&#x1e85;" horiz-adv-x="1064" 
d="M-20 995h335v-4q-70 -31 -69 -102q0 -43 22 -115l138 -467l112 391l-20 76q-35 106 -57 142t-68 75v4h334v-4q-70 -31 -70 -106q0 -45 18 -111l119 -452l125 438q16 59 16 100q0 96 -88 131v4h258v-4q-47 -35 -71 -76t-58 -151l-229 -784h-4l-176 618l-185 -618h-4
l-254 794q-35 106 -56 142q-22 36 -68 75v4zM803 1296q0 -42 -32 -74t-75 -32q-42 0 -72 32t-30 74t30 73q30 32 72 32t75 -32q32 -32 32 -73zM549 1295q0 -41 -30 -73t-74 -32q-45 0 -75 32t-30 74t31 73q31 32 75 32t73 -32q30 -32 30 -74z" />
    <glyph glyph-name="Ygrave" unicode="&#x1ef2;" 
d="M735 1434h289v-4q-53 -33 -84 -75t-66 -118l-284 -641v-371q0 -100 26 -146t101 -75v-4h-420v4q75 29 101 75t26 146v371l-285 641q-27 57 -39 82q-30 62 -100 111v4h365v-4q-70 -40 -70 -90t29 -115l239 -561l236 528q29 63 28 111q0 86 -92 127v4zM600 1784
q12 -156 88 -281h-6q-233 100 -285 281h203z" />
    <glyph glyph-name="ygrave" unicode="&#x1ef3;" horiz-adv-x="788" 
d="M-20 995h346v-4q-74 -31 -74 -100q0 -39 24 -117l179 -573l166 559q18 57 18 106q0 90 -90 125v4h260v-4q-47 -35 -72 -76t-57 -151l-299 -987q-39 -123 -89 -192t-145 -68q-63 0 -109 41t-46 106q0 64 42 104t87 40t65 -21q-49 -23 -49 -86q-1 -33 19 -52t55 -19t63 37
q28 38 58 132l49 160l-277 815q-35 109 -56 144q-22 35 -68 73v4zM471 1477q0 -246 66 -363h-7q-195 162 -227 363h168z" />
    <glyph glyph-name="uni2009" unicode="&#x2009;" horiz-adv-x="81" 
 />
    <glyph glyph-name="endash" unicode="&#x2013;" horiz-adv-x="765" 
d="M61 537v53h646v-53h-646z" />
    <glyph glyph-name="emdash" unicode="&#x2014;" horiz-adv-x="1167" 
d="M61 537v53h1045v-53h-1045z" />
    <glyph glyph-name="quoteleft" unicode="&#x2018;" horiz-adv-x="354" 
d="M196 1255q54 1 84 -29t30 -77t-36 -81q-34 -34 -96 -34t-102 49t-39 125q0 121 81 197t206 78v-25q-117 -16 -170 -89t-39 -163q27 49 81 49z" />
    <glyph glyph-name="quoteright" unicode="&#x2019;" horiz-adv-x="323" 
d="M160 1239q-53 0 -84 30q-31 31 -31 77t35 80q34 34 96 34t102 -49t39 -125q-1 -120 -81 -196t-205 -78v24q117 16 170 89t39 163q-27 -49 -80 -49z" />
    <glyph glyph-name="quotesinglbase" unicode="&#x201a;" horiz-adv-x="354" 
d="M45 83q0 46 35 80q34 34 96 34q62 1 102 -49t39 -125q-1 -121 -81 -197t-205 -78v25q117 16 170 89t39 163q-27 -49 -80 -49t-84 30q-31 31 -31 77z" />
    <glyph glyph-name="quotedblleft" unicode="&#x201c;" horiz-adv-x="686" 
d="M196 1255q54 1 84 -29t30 -77t-36 -81q-34 -34 -96 -34t-102 49t-39 125q0 121 81 197t206 78v-25q-117 -16 -170 -89t-39 -163q27 49 81 49zM528 1255q54 1 84 -29t29 -77q0 -47 -35 -81q-34 -34 -96 -34t-102 49t-39 125q0 121 81 197t205 78v-25q-117 -16 -170 -89
t-39 -163q28 49 82 49z" />
    <glyph glyph-name="quotedblright" unicode="&#x201d;" horiz-adv-x="686" 
d="M160 1241q-53 0 -84 31q-31 30 -31 76t35 80q34 34 96 34t102 -49t39 -125q-1 -120 -81 -196t-205 -78v24q117 16 170 89t39 163q-27 -49 -80 -49zM491 1241q-53 0 -83 31q-30 30 -31 76q0 46 35 80q34 34 96 34t102 -49t39 -125q0 -120 -81 -196t-206 -78v24
q117 16 170 89t39 163q-27 -49 -80 -49z" />
    <glyph glyph-name="quotedblbase" unicode="&#x201e;" horiz-adv-x="686" 
d="M45 83q0 46 35 80q34 34 96 34q62 1 102 -49t39 -125q-1 -121 -81 -197t-205 -78v25q117 16 170 89t39 163q-27 -49 -80 -49t-84 30q-31 31 -31 77zM377 83q0 46 35 80q34 34 96 34q62 1 102 -49t39 -125q0 -121 -81 -197t-206 -78v25q117 16 170 89t39 163
q-27 -49 -80 -49t-83 30q-30 31 -31 77z" />
    <glyph glyph-name="dagger" unicode="&#x2020;" horiz-adv-x="643" 
d="M602 1174q0 -30 -20 -46q-20 -18 -50 -18q-63 0 -83 92q-42 0 -50 -63l-73 -672h-9l-73 672q-8 63 -49 63q-20 -92 -84 -92q-29 0 -50 17q-20 17 -20 47t16 54t39 29q2 -41 35 -40l64 16q29 -1 65 -21t53 -51q-10 186 -80 322q41 55 89 55t88 -55q-70 -135 -80 -322
q16 31 53 51t66 21l63 -16q33 0 35 40q23 -5 39 -29t16 -54z" />
    <glyph glyph-name="daggerdbl" unicode="&#x2021;" horiz-adv-x="708" 
d="M41 644q0 32 19 52t51 21q72 0 96 -94q35 2 83 101t54 222h18q6 -123 54 -222t84 -101q29 94 96 94q31 -1 51 -21q21 -20 21 -53t-20 -57t-48 -29q-4 43 -45 43l-82 -14q-68 0 -104 61q8 -141 82 -244q-33 -63 -98 -63t-95 63q74 104 80 244q-37 -61 -102 -61l-82 14
q-41 0 -48 -43q-29 6 -47 30q-18 25 -18 57zM596 1217q-68 0 -96 94q-36 -1 -84 -101t-54 -223h-18q-6 123 -54 222t-83 102q-25 -94 -96 -94q-31 0 -51 20q-19 20 -19 53t18 57t47 29q6 -43 48 -43l82 15q66 0 102 -62q-6 139 -80 244q31 63 95 63t98 -63
q-74 -102 -82 -244q37 61 104 62l82 -15q41 0 45 43q29 -6 48 -30q20 -24 20 -56q0 -33 -20 -53t-52 -20z" />
    <glyph glyph-name="bullet" unicode="&#x2022;" horiz-adv-x="581" 
d="M61 552q0 95 68 162q68 66 162 66t162 -68q67 -68 67 -161q0 -94 -68 -162q-68 -67 -161 -67q-94 0 -162 68t-68 162z" />
    <glyph glyph-name="ellipsis" unicode="&#x2026;" horiz-adv-x="1196" 
d="M1073 113q0 -53 -37 -90t-90 -37t-89 37t-36 90t36 90t89 37t90 -37t37 -90zM698 113q0 -53 -36 -90t-90 -37t-90 37t-36 90t36 90t89 37t90 -37t37 -90zM324 113q0 -53 -37 -90t-90 -37t-89 37t-36 90t36 90t89 37t90 -37t37 -90z" />
    <glyph glyph-name="perthousand" unicode="&#x2030;" horiz-adv-x="1527" 
d="M717 25q55 -1 83 73t27 189q1 115 -27 189t-83 73q-55 0 -83 -75q-28 -76 -28 -188t28 -186t83 -75zM1249 25q55 -1 83 73t28 189t-28 189t-83 73q-55 0 -83 -75q-28 -76 -28 -188t28 -187q28 -74 83 -74zM718 -10q-99 0 -168 88t-69 209t69 209t168 88t168 -88
q68 -88 68 -209t-68 -209t-168 -88zM1487 287q0 -121 -69 -209t-168 -88t-168 88t-68 209q0 121 68 209q69 88 168 88t168 -88t69 -209zM276 895q55 0 83 74q28 75 28 189t-28 188t-83 74q-54 0 -82 -76q-28 -74 -28 -187t28 -187t82 -75zM598 1284q-49 0 -115 19
q31 -63 31 -165t-69 -190t-168 -88t-167 88t-69 209q0 121 69 209q68 88 156 88t175 -66t147 -65q60 0 107 24q46 24 68 43t87 83l24 -19l-704 -1454h-72l688 1372q-100 -88 -188 -88z" />
    <glyph glyph-name="guilsinglleft" unicode="&#x2039;" horiz-adv-x="425" 
d="M31 498v4q233 156 350 364h14q-70 -227 -170 -366q100 -139 170 -367h-14q-117 209 -350 365z" />
    <glyph glyph-name="guilsinglright" unicode="&#x203a;" horiz-adv-x="425" 
d="M395 502v-4q-233 -156 -350 -365h-14q70 227 170 367q-100 139 -170 366h14q117 -208 350 -364z" />
    <glyph glyph-name="fraction" unicode="&#x2044;" horiz-adv-x="700" 
d="M0 -252l602 1786h57l-600 -1786h-59z" />
    <glyph glyph-name="Euro" unicode="&#x20ac;" horiz-adv-x="1003" 
d="M29 623v36h100q-2 19 -2 61t2 64h-100v37h102q27 269 170 451t346 182q139 0 226 -64t88 -178q1 -72 -47 -116t-108 -45q-60 1 -99 23t-50 61q18 -9 55 -9t68 39t31 102t-40 105t-107 41q-148 0 -234 -162t-100 -430h329l-14 -37h-317v-61q0 -43 2 -64h264l-14 -36h-250
q16 -253 99 -395t218 -142q215 0 301 328l13 -4q-25 -199 -124 -315t-249 -115q-188 0 -314 174q-125 174 -145 469h-100z" />
    <glyph glyph-name="uni2117" unicode="&#x2117;" horiz-adv-x="1234" 
d="M557 680h45q88 0 132 58t44 156t-44 158q-44 58 -132 58h-45v-430zM557 649v-198q0 -61 15 -93t67 -51v-4h-289v4q37 16 49 49t13 99v534q0 67 -12 99t-50 51v2h287q129 0 210 -65q81 -66 81 -182t-81 -180t-210 -65h-80zM1143 717q0 299 -152 497t-374 199
q-223 0 -373 -199q-150 -200 -150 -498t151 -497t373 -199t373 199q152 199 152 498zM1182 717q0 -317 -164 -527t-400 -210t-400 210t-165 526q0 318 165 528q164 210 400 210t400 -210t164 -527z" />
    <glyph glyph-name="trademark" unicode="&#x2122;" horiz-adv-x="1263" 
d="M1176 1434v-4q-35 -20 -44 -36t-10 -61v-424q0 -43 10 -58t44 -36v-4h-226v4q25 16 39 31t15 63v445l-177 -553h-4l-174 553v-445q0 -43 9 -58t44 -36v-4h-147v4q25 16 39 31t14 63v424q0 43 -10 59t-43 38v4h188l119 -414l131 414h183zM100 1434h342q35 0 54 6l28 -187
h-4q-58 87 -88 117t-84 31h-16v-490q0 -43 12 -59t49 -37v-4h-241v4q37 19 49 37t12 59v490h-20q-58 0 -91 -38t-52 -69t-27 -41h-5l29 187q20 -6 53 -6z" />
    <glyph glyph-name="uni2153" unicode="&#x2153;" horiz-adv-x="747" 
d="M274 395q-94 -1 -94 91q0 46 50 81t135 35t141 -38t57 -103q0 -119 -160 -137q83 -4 135 -48t52 -118q0 -76 -68 -121t-162 -45t-154 37t-60 91t27 80q28 26 80 26t69 -46h-5q-6 4 -18 4q-45 0 -45 -67q0 -43 26 -69t73 -25q46 0 77 42t31 99q0 145 -139 145v19
q118 4 116 137q0 45 -21 77q-22 32 -61 32q-38 0 -60 -24t-22 -54q0 -61 45 -62q10 0 19 4h4q-20 -43 -68 -43zM41 733h666v-33h-666v33zM303 1346q0 37 -21 51q-22 14 -89 24v13h239v-506q0 -37 20 -51t85 -25v-12h-340v12q66 10 86 24t20 52v418z" />
    <glyph glyph-name="uni2154" unicode="&#x2154;" horiz-adv-x="747" 
d="M274 395q-94 -1 -94 91q0 46 50 81t135 35t141 -38t57 -103q0 -119 -160 -137q83 -4 135 -48t52 -118q0 -76 -68 -121t-162 -45t-154 37t-60 91t27 80q28 26 80 26t69 -46h-5q-6 4 -18 4q-45 0 -45 -67q0 -43 26 -69t73 -25q46 0 77 42t31 99q0 145 -139 145v19
q118 4 116 137q0 45 -21 77q-22 32 -61 32q-38 0 -60 -24t-22 -54q0 -61 45 -62q10 0 19 4h4q-20 -43 -68 -43zM41 733h666v-33h-666v33zM353 1411q-49 0 -75 -29q-26 -28 -26 -66t18 -61t46 -23t40 11h2q-20 -63 -92 -63q-45 0 -75 30q-29 30 -29 90q0 58 52 100t144 42
t154 -42t63 -126q-1 -84 -67 -153t-234 -181h136q78 2 108 14t62 62h8l-25 -176h-422v2q186 176 248 267q61 91 62 185q0 49 -25 83t-73 34z" />
    <glyph glyph-name="uni215B" unicode="&#x215b;" horiz-adv-x="747" 
d="M246 147q0 -55 38 -89t97 -34t93 26q34 24 34 66t-25 66t-82 49l-92 39q-63 -37 -63 -123zM283 485q0 -66 84 -100l67 -29q57 39 58 117q0 43 -30 71t-79 28t-75 -24q-25 -24 -25 -63zM301 274q-117 46 -117 172q0 66 56 111t140 45q85 0 140 -35t55 -90t-40 -86t-93 -39
q166 -59 166 -184q0 -82 -61 -129t-161 -47t-165 39q-63 39 -63 100t40 96t103 47zM41 733h666v-33h-666v33zM324 1346q0 37 -22 51t-87 24v13h238v-506q0 -37 20 -51t86 -25v-12h-340v12q66 10 85 24t20 52v418z" />
    <glyph glyph-name="uni215C" unicode="&#x215c;" horiz-adv-x="747" 
d="M246 147q0 -55 38 -89t97 -34t93 26q34 24 34 66t-25 66t-82 49l-92 39q-63 -37 -63 -123zM283 485q0 -66 84 -100l67 -29q57 39 58 117q0 43 -30 71t-79 28t-75 -24q-25 -24 -25 -63zM301 274q-117 46 -117 172q0 66 56 111t140 45q85 0 140 -35t55 -90t-40 -86t-93 -39
q166 -59 166 -184q0 -82 -61 -129t-161 -47t-165 39q-63 39 -63 100t40 96t103 47zM41 733h666v-33h-666v33zM168 960q0 106 108 105q52 0 66 -45h-4q-6 4 -19 4q-45 0 -45 -68q0 -42 27 -68t74 -26t77 42t29 100q0 145 -139 145v18q66 2 92 37q26 34 25 90q0 118 -82 119
q-37 1 -59 -23t-21 -55q0 -61 45 -61q10 0 18 4h5q-21 -43 -69 -43q-98 0 -96 91q0 46 51 81q50 35 135 35t141 -38t57 -104q0 -119 -160 -137q82 -4 134 -47q52 -42 52 -118t-66 -121t-162 -45q-95 0 -155 36q-59 38 -59 92z" />
    <glyph glyph-name="uni215D" unicode="&#x215d;" horiz-adv-x="747" 
d="M246 147q0 -55 38 -89t97 -34t93 26q34 24 34 66t-25 66t-82 49l-92 39q-63 -37 -63 -123zM283 485q0 -66 84 -100l67 -29q57 39 58 117q0 43 -30 71t-79 28t-75 -24q-25 -24 -25 -63zM301 274q-117 46 -117 172q0 66 56 111t140 45q85 0 140 -35t55 -90t-40 -86t-93 -39
q166 -59 166 -184q0 -82 -61 -129t-161 -47t-165 39q-63 39 -63 100t40 96t103 47zM41 733h666v-33h-666v33zM168 960q0 104 104 105q50 0 68 -43h-4q-8 4 -17 4q-45 0 -45 -72q0 -40 25 -66t75 -26t79 48t29 117t-33 112t-96 43t-113 -56h-2l34 314q100 -14 190 -14t124 36
h2q0 -150 -144 -149q-84 0 -155 26l-19 -163q48 53 138 53q90 -1 145 -53t55 -142t-70 -146t-161 -56q-92 0 -151 36q-58 36 -58 92z" />
    <glyph glyph-name="uni215E" unicode="&#x215e;" horiz-adv-x="747" 
d="M246 147q0 -55 38 -89t97 -34t93 26q34 24 34 66t-25 66t-82 49l-92 39q-63 -37 -63 -123zM283 485q0 -66 84 -100l67 -29q57 39 58 117q0 43 -30 71t-79 28t-75 -24q-25 -24 -25 -63zM301 274q-117 46 -117 172q0 66 56 111t140 45q85 0 140 -35t55 -90t-40 -86t-93 -39
q166 -59 166 -184q0 -82 -61 -129t-161 -47t-165 39q-63 39 -63 100t40 96t103 47zM41 733h666v-33h-666v33zM631 1434v-2l-103 -160q-111 -168 -86 -424l-137 -14q12 127 60 229q47 102 133 215l30 41h-215q-43 0 -65 -16t-43 -66h-10l16 197h420z" />
    <glyph glyph-name="minus" unicode="&#x2212;" horiz-adv-x="817" 
d="M88 633v53h641v-53h-641z" />
    <glyph glyph-name="approxequal" unicode="&#x2248;" horiz-adv-x="827" 
d="M264 645q58 0 150 -46t143 -46q86 0 178 94v-65q-84 -86 -178 -86q-55 0 -147 46t-146 46q-78 0 -172 -94v65q86 86 172 86zM264 821q58 0 150 -46t143 -46q86 0 178 94v-63q-86 -88 -178 -88q-55 0 -147 46t-157 46t-161 -92v65q86 84 172 84z" />
    <glyph glyph-name="notequal" unicode="&#x2260;" horiz-adv-x="827" 
d="M735 528h-395l-129 -159h-64l129 159h-184v52h225l134 163h-359v52h400l124 155h64l-125 -155h180v-52h-221l-133 -163h354v-52z" />
    <glyph glyph-name="lessequal" unicode="&#x2264;" horiz-adv-x="555" 
d="M29 356v52h469v-52h-469zM29 688v39l469 205v-58l-385 -167l385 -166v-58z" />
    <glyph glyph-name="greaterequal" unicode="&#x2265;" horiz-adv-x="555" 
d="M526 408v-52h-467v52h467zM526 727v-39l-467 -205v58l385 166l-385 167v58z" />
    <glyph glyph-name="uni00200326" 
d="M631 -265q1 -73 -61 -129t-158 -61v27q137 10 151 141q-27 -27 -71 -27t-72 28t-27 69q0 41 31 70t83 29t88 -38q36 -36 36 -109z" />
    <glyph glyph-name="uni00200323" 
d="M393 -240q0 47 35 82t83 35t83 -35t35 -82t-35 -82q-35 -34 -83 -34t-83 34t-35 82z" />
    <glyph glyph-name="i.dot" horiz-adv-x="419" 
d="M295 995v-792q0 -98 17 -133t79 -66v-4h-358v4q61 31 78 65q16 34 16 134v569q0 100 -23 144t-84 75v4h275zM90 1317q0 47 35 82t83 35t83 -35t35 -82t-35 -82t-83 -35t-83 35t-35 82z" />
    <glyph glyph-name="hyphen.cap" horiz-adv-x="415" 
d="M61 692v58h295v-58h-295z" />
    <glyph glyph-name="endash.cap" horiz-adv-x="765" 
d="M61 692v51h646v-51h-646z" />
    <glyph glyph-name="emdash.cap" horiz-adv-x="1167" 
d="M61 692v51h1045v-51h-1045z" />
    <glyph glyph-name="parenleft.cap" horiz-adv-x="540" 
d="M84 682q0 297 114 524t296 369h28q-123 -135 -186 -369q-64 -234 -64 -524q0 -289 64 -523t186 -370h-28q-182 139 -296 367t-114 526z" />
    <glyph glyph-name="parenright.cap" horiz-adv-x="540" 
d="M457 682q0 -297 -114 -525t-296 -368h-29q122 135 186 369t64 524q0 289 -63 523t-187 370h29q182 -139 296 -367t114 -526z" />
    <glyph glyph-name="bracketleft.cap" horiz-adv-x="534" 
d="M143 -211v1786h361v-10l-199 -62v-1642l199 -64v-8h-361z" />
    <glyph glyph-name="bracketright.cap" horiz-adv-x="534" 
d="M391 1575v-1786h-360v8l198 66v1640l-198 64v8h360z" />
    <glyph glyph-name="braceleft.cap" horiz-adv-x="600" 
d="M489 1575q47 0 80 -8v-11q-100 0 -158 -76t-59 -214q0 -40 14 -144t13 -164q0 -60 -27 -117q-43 -92 -148 -139q-38 -16 -71 -20q84 -14 165 -84t81 -207q0 -45 -13 -150t-14 -145q0 -139 58 -215t159 -76v-10q-25 -6 -80 -6q-133 0 -216 86t-83 219q0 56 12 150t13 135
q0 287 -195 295v14q86 4 141 74q54 70 54 223l-25 283q0 133 83 220t216 87z" />
    <glyph glyph-name="braceright.cap" horiz-adv-x="600" 
d="M111 -211q-47 0 -80 8v8q100 0 158 77t59 216q0 42 -14 144t-13 162q0 60 27 119q43 92 148 139q38 16 71 20q-75 9 -151 69q-42 32 -68 90q-27 59 -27 119t13 162t14 144q0 139 -58 216t-159 77v8q33 8 80 8q133 0 216 -87t83 -220q0 -54 -12 -148t-13 -135
q1 -153 55 -223t140 -74v-12q-86 -4 -140 -74t-55 -223l25 -283q0 -133 -83 -220t-216 -87z" />
    <glyph glyph-name="guilsinglleft.cap" horiz-adv-x="425" 
d="M31 702v5q233 156 350 364h14q-70 -227 -170 -366q100 -139 170 -367h-14q-117 208 -350 364z" />
    <glyph glyph-name="guilsinglright.cap" horiz-adv-x="425" 
d="M395 707v-5q-233 -156 -350 -364h-14q70 227 170 367q-100 139 -170 366h14q117 -208 350 -364z" />
    <glyph glyph-name="guillemotleft.cap" horiz-adv-x="684" 
d="M289 702v5q233 156 350 364h14q-70 -227 -170 -366q100 -139 170 -367h-14q-117 208 -350 364zM31 702v5q233 156 350 364h14q-70 -227 -170 -366q100 -139 170 -367h-14q-117 208 -350 364z" />
    <glyph glyph-name="guillemotright.cap" horiz-adv-x="684" 
d="M653 707v-5q-233 -156 -350 -364h-14q70 227 170 367q-100 139 -170 366h14q117 -208 350 -364zM395 707v-5q-233 -156 -350 -364h-14q70 227 170 367q-100 139 -170 366h14q117 -208 350 -364z" />
    <glyph glyph-name="slash.cap" horiz-adv-x="700" 
d="M0 -211l602 1786h57l-600 -1786h-59z" />
    <glyph glyph-name="backslash.cap" horiz-adv-x="700" 
d="M100 1575l600 -1786h-57l-602 1786h59z" />
    <glyph glyph-name="bar.cap" horiz-adv-x="380" 
d="M164 -211v1786h53v-1786h-53z" />
    <glyph glyph-name="at.cap" horiz-adv-x="1339" 
d="M741 1044q-98 0 -167 -152t-68 -341q0 -236 125 -236t172 301l24 154q47 274 -86 274zM995 301q84 0 147 137q62 137 62 383q0 301 -139 478t-364 177t-383 -237q-158 -238 -156 -594q0 -356 156 -561t401 -205q145 0 251 45t210 156l8 -10q-180 -252 -480 -252t-484 221
q-185 221 -185 602t195 634q196 253 475 253q247 0 419 -190t172 -496t-95 -451t-216 -145q-82 0 -133 50t-59 148q-70 -199 -207 -198q-94 0 -158 83q-63 83 -63 222q0 219 101 380t245 161q71 0 113 -48t55 -120q18 46 60 96t73 70l-107 -603q-35 -186 86 -186z" />
    <glyph glyph-name="exclamdown.cap" horiz-adv-x="432" 
d="M338 0h-244l117 1022h10zM215 1448q53 0 90 -37t37 -90t-37 -90t-90 -37t-89 37t-36 90t36 90t89 37z" />
    <glyph glyph-name="questiondown.cap" horiz-adv-x="825" 
d="M424 25q102 0 156 62q53 61 53 149t-35 134t-84 46t-76 -27h-2q41 131 156 131q80 0 136 -60t56 -157q0 -137 -99 -229t-264 -92t-271 112t-106 286q0 175 109 305q110 130 275 185v160h41v-354q-127 -33 -199 -125q-72 -93 -72 -229t62 -216t164 -81zM451 1196
q-53 0 -91 37q-37 37 -36 90q0 53 36 90t90 37t90 -37t36 -90t-36 -90t-89 -37z" />
    <glyph glyph-name="periodcentered.cap" horiz-adv-x="391" 
d="M322 700q0 -53 -37 -90t-90 -37t-90 37q-36 37 -35 90q0 53 35 91q35 37 89 37t91 -38q37 -37 37 -90z" />
    <glyph glyph-name="bullet.cap" horiz-adv-x="581" 
d="M61 706q0 94 68 162t162 68t162 -68q67 -68 67 -162t-68 -161q-68 -68 -161 -68q-94 0 -162 67t-68 162z" />
    <glyph glyph-name="zero.op" horiz-adv-x="966" 
d="M715 641q0 454 -115 569q-47 47 -117 47q-138 0 -187 -184q-44 -165 -44 -432q0 -454 115 -569q47 -47 117 -47t116 47q115 115 115 569zM903 641q1 -283 -113 -472t-307 -189t-307 189t-113 472q0 283 114 472q115 189 307 189t306 -188q114 -190 113 -473z" />
    <glyph glyph-name="one.op" horiz-adv-x="575" 
d="M559 0h-524v8q121 47 149 71t29 93v930q0 68 -31 92t-166 80v8h367v-1110q0 -70 29 -94t147 -70v-8z" />
    <glyph glyph-name="two.op" horiz-adv-x="802" 
d="M373 1266q-80 0 -127 -65t-47 -161t41 -147t114 -51q39 0 68 14h4q-39 -109 -160 -108q-96 0 -154 64t-58 184t91 212q92 92 241 92t249 -98t100 -250t-81 -275q-48 -75 -80 -120q-67 -94 -396 -412h230q154 0 214 33t121 168h9l-35 -346h-737v4q344 348 460 541
q117 193 117 418q0 303 -184 303z" />
    <glyph glyph-name="three.op" horiz-adv-x="798" 
d="M379 18q111 0 164 92t53 248t-74 239t-213 83v20q135 6 188 84q52 78 52 210q0 270 -170 270q-70 0 -111 -45t-41 -111t28 -100q28 -35 65 -35t55 8h2q-33 -94 -135 -94q-61 0 -104 43q-42 43 -42 132t83 165t219 76t226 -83q89 -83 89 -212t-77 -209t-206 -101
q144 -8 240 -102t96 -257t-110 -261t-267 -98t-259 70q-101 71 -101 206q0 84 53 136t129 52q96 0 129 -100h-6q-18 10 -56 10t-64 -36t-26 -112t54 -132t137 -56z" />
    <glyph glyph-name="four.op" horiz-adv-x="851" 
d="M455 262v98h-447v5l535 917h73v-866h29q76 0 106 28t64 129h4v-370h-4q-35 100 -64 129q-30 29 -106 28h-29v-98q0 -111 24 -171t93 -87v-4h-395v4q70 27 94 87t23 171zM455 416v618l-355 -618h355z" />
    <glyph glyph-name="five.op" horiz-adv-x="821" 
d="M365 20q119 0 180 111t61 276t-64 257q-65 92 -184 92t-219 -150h-2l60 694q177 -36 293 -36t166 16t92 82h2q0 -276 -244 -277q-133 0 -279 45l-32 -411q95 106 247 106q152 1 245 -109t93 -296t-125 -314t-293 -126q-137 0 -236 80t-99 210q0 88 50 142t116 53
q104 0 129 -98h-3q-18 12 -49 11q-32 -1 -62 -39q-30 -39 -30 -119t52 -140t135 -60z" />
    <glyph glyph-name="six.op" horiz-adv-x="933" 
d="M700 441q0 173 -57 283t-163 110t-168 -115q-60 -115 -60 -248t22 -225t77 -158q54 -66 132 -65q104 0 161 122q56 123 56 296zM578 1454q140 0 216 -63q77 -63 76 -177q0 -76 -46 -124t-106 -50q-131 -1 -163 101h4q25 -15 67 -15t73 35q32 35 32 105t-37 110t-102 39
q-111 1 -195 -107t-125 -264t-41 -323q0 -45 5 -94q34 125 102 193t196 67q128 0 232 -114q106 -114 106 -322q0 -207 -106 -339t-281 -132q-141 0 -240 100q-182 184 -182 571q-1 191 63 373t188 306t264 124z" />
    <glyph glyph-name="seven.op" horiz-adv-x="817" 
d="M795 1282v-4l-148 -274q-138 -258 -171 -548q-17 -159 -21 -270t-4 -327l-187 -19q20 346 104 622t242 562l62 106h-350q-115 0 -180 -38t-113 -148h-4l43 359q45 -20 147 -21h580z" />
    <glyph glyph-name="eight.op" horiz-adv-x="854" 
d="M195 334q0 -143 65 -229q66 -85 169 -85t172 78t69 182t-44 160q-44 54 -137 103l-163 84q-131 -90 -131 -293zM432 1264q-82 0 -138 -70t-56 -172t43 -154t122 -94l84 -43q123 96 123 270q0 125 -48 194t-130 69zM813 338q0 -150 -105 -254q-106 -104 -276 -104t-280 94
t-111 250q0 112 76 194t190 119q-88 49 -146 133q-59 84 -59 211t94 224t231 97q138 0 231 -85q94 -86 94 -217t-79 -191q-79 -61 -169 -88q309 -125 309 -383z" />
    <glyph glyph-name="nine.op" horiz-adv-x="933" 
d="M356 -172q-140 0 -216 63q-77 63 -77 177q1 76 47 125t106 49q129 0 163 -101h-4q-25 15 -67 15t-74 -35t-32 -105t38 -110q37 -40 102 -39q111 -1 195 107t125 264t40 323q0 45 -4 94q-34 -125 -102 -193t-196 -67q-128 0 -233 114t-105 322q0 207 106 339t281 133
q141 -1 240 -101q181 -184 181 -571q0 -191 -63 -373t-187 -306t-264 -124zM233 841q-1 -173 57 -283t164 -110t168 115q60 115 60 248q0 260 -99 383q-54 66 -132 66q-104 0 -161 -123t-57 -296z" />
    <glyph glyph-name="percent.op" horiz-adv-x="995" 
d="M717 25q55 -1 83 73t27 189q1 115 -27 189t-83 73q-55 0 -83 -75q-28 -76 -28 -188t28 -186t83 -75zM718 -10q-99 0 -168 88t-69 209t69 209t168 88t168 -88q68 -88 68 -209t-68 -209t-168 -88zM276 743q55 0 83 74t28 189q0 114 -28 188t-83 74q-54 0 -82 -75t-28 -187
t28 -188q28 -75 82 -75zM598 1133q-51 0 -119 26q35 -70 35 -172t-69 -190t-168 -88t-167 88t-69 209q0 120 69 208q68 88 156 88t175 -65q87 -66 147 -66t107 24q46 24 68 43t87 83l24 -18l-704 -1303h-72l688 1221q-100 -88 -188 -88z" />
    <glyph glyph-name="perthousand.op" horiz-adv-x="1527" 
d="M1249 25q55 -1 83 73t28 189t-28 189t-83 73q-55 0 -83 -75q-28 -76 -28 -188t28 -187q28 -74 83 -74zM717 25q55 -1 83 73t27 189q1 115 -27 189t-83 73q-55 0 -83 -75q-28 -76 -28 -188t28 -186t83 -75zM1250 -10q-99 0 -168 88t-68 209q0 121 68 209q69 88 168 88
t168 -88t69 -209t-69 -209t-168 -88zM718 -10q-99 0 -168 88t-69 209t69 209t168 88t168 -88q68 -88 68 -209t-68 -209t-168 -88zM276 743q55 0 83 74t28 189q0 114 -28 188t-83 74q-54 0 -82 -75t-28 -187t28 -188q28 -75 82 -75zM598 1133q-51 0 -119 26q35 -70 35 -172
t-69 -190t-168 -88t-167 88t-69 209q0 120 69 208q68 88 156 88t175 -65q87 -66 147 -66t107 24q46 24 68 43t87 83l24 -18l-704 -1303h-72l688 1221q-100 -88 -188 -88z" />
    <glyph glyph-name="dollar.op" horiz-adv-x="827" 
d="M750 1083q0 -143 -128 -143q-58 0 -79 37q31 -2 55 30t23 85q0 135 -127 163v-536l10 -6q141 -66 212 -142q70 -76 70 -219t-83 -238t-209 -124v-223h-31v219q-33 -6 -68 -6h-22v-213h-31v215q-139 14 -224 86t-85 172q0 66 41 106t94 39q53 0 92 -45q-38 4 -62 -25
t-24 -97t44 -125q44 -56 124 -70v581q-137 68 -207 146q-69 78 -69 210t76 223q77 91 200 113v191h31v-187q54 8 90 0v187h31v-189q116 -16 186 -77t70 -138zM659 293q0 96 -37 146q-38 50 -128 93v-501q165 49 165 262zM395 18q37 0 68 7v522l-90 43v-572h22zM197 1022
q-1 -86 35 -138t110 -89v456q-68 -23 -106 -83t-39 -146zM426 1264q-24 0 -53 -4v-482l90 -45v529q-13 2 -37 2z" />
    <glyph glyph-name="sterling.op" horiz-adv-x="929" 
d="M127 20q98 0 133 150q-53 25 -100 25t-79 -27t-32 -72q0 -76 78 -76zM137 -20q-57 0 -92 32t-35 87q0 56 43 91t101 35t114 -16q27 208 -18 453h-131v34h125q-27 137 -27 217q0 172 100 281t277 109q135 1 210 -63t75 -152t-44 -132q-43 -43 -97 -43q-54 -1 -91 19
t-49 47q133 -4 133 156q0 59 -35 95t-90 36q-203 0 -203 -336v-234h246v-34h-246v-148q0 -203 -49 -338q162 -61 260 -61q200 0 199 157q0 43 -27 76q55 -16 88 -63t33 -109q1 -96 -63 -150t-171 -55q-107 0 -191 50q-83 50 -150 104q-72 -145 -195 -145z" />
    <glyph glyph-name="yen.op" horiz-adv-x="964" 
d="M680 0h-404v4q70 29 95 68t24 129v254h-233v37h233v40l-41 89h-192v36h176l-209 447q-23 49 -35 73q-31 61 -94 101v4h346v-4q-63 -33 -63 -88q0 -35 24 -94l221 -508l222 477q27 59 26 98q0 78 -88 115v4h277v-4q-49 -29 -78 -67t-62 -107l-207 -447h177v-36h-193
l-41 -89v-40h234v-37h-234v-254q1 -90 25 -129t94 -68v-4z" />
    <glyph glyph-name="Euro.op" horiz-adv-x="921" 
d="M553 -20q-170 0 -281 156t-127 417h-100v37h98v51q0 49 2 74h-100v37h105q26 238 152 394t304 157q125 -1 204 -61t79 -163q0 -63 -43 -104q-42 -41 -96 -41t-90 20t-44 56q16 -8 50 -8t61 34q27 35 27 91q0 57 -36 95t-97 38q-131 0 -208 -138t-89 -370h346l-15 -37
h-333q-2 -23 -3 -68v-57h285l-14 -37h-268q14 -225 89 -351t195 -126q195 0 271 293l12 -4q-23 -177 -112 -281t-224 -104z" />
    <glyph glyph-name="uni0192.op" horiz-adv-x="845" 
d="M82 -387q-108 0 -171 43q-63 42 -63 110t32 101t91 33t101 -37q-39 2 -62 -28t-22 -87q0 -102 78 -102q106 0 133 258l73 678h-157l6 36h155l35 320q19 172 97 267t188 95t174 -45t64 -129q0 -53 -32 -86q-32 -32 -91 -32t-101 36q39 -2 62 28t22 87q0 109 -84 109
q-106 0 -133 -256l-43 -394h217l-6 -36h-215l-65 -607q-19 -172 -97 -267t-186 -95z" />
    </font>
</defs>
</svg>
