<?xml version="1.0" standalone="no"?><!DOCTYPE svg PUBLIC "-//W3C//DTD SVG 1.1//EN" "http://www.w3.org/Graphics/SVG/1.1/DTD/svg11.dtd" ><svg version="1.1" xmlns="http://www.w3.org/2000/svg"><defs><font horiz-adv-x="0" id="font"><font-face ascent="775" bbox="-107 -236 893 1005" cap-height="700" descent="-225" font-family="Copyright Klim Type Foundry" font-stretch="normal" font-style="normal" font-weight="400" units-per-em="1000" x-height="486" /><missing-glyph horiz-adv-x="500" /><glyph d="M232 531 150 262H314ZM154 2V0H0V2Q31 18 50 51Q69 84 85 136L260 710H263L445 112Q461 61 473 39.5Q485 18 516 2V0H329V2Q351 11 361 23.5Q371 36 371 55Q371 67 367.5 81.5Q364 96 359 115L322 237H143L113 139Q109 125 106.5 111Q104 97 104 85Q104 57 116 35Q128 13 154 2Z" glyph-name="A" horiz-adv-x="516" unicode="A" /><glyph d="M343 608 190 262H343ZM159 2V0H0V2Q31 18 56.5 55.5Q82 93 102 136L320 616Q323 623 324.5 629Q326 635 326 640Q326 657 312 671Q298 685 272 698V700H602Q615 700 628 701.5Q641 703 649 707L673 538H671Q634 609 589 643.5Q544 678 460 678H426V367H441Q501 367 528.5 388Q556 409 582 478H584V251H582Q556 320 528.5 333.5Q501 347 441 347H426V22H466Q550 22 599.5 59Q649 96 686 180H688L666 0H285V2Q322 17 332.5 43Q343 69 343 118V237H178L135 139Q125 117 119.5 99Q114 81 114 66Q114 44 125.5 28Q137 12 159 2Z" glyph-name="AE" horiz-adv-x="715" unicode="&#198;" /><glyph d="M343 608 190 262H343ZM159 2V0H0V2Q31 18 56.5 55.5Q82 93 102 136L320 616Q323 623 324.5 629Q326 635 326 640Q326 657 312 671Q298 685 272 698V700H602Q615 700 628 701.5Q641 703 649 707L673 538H671Q634 609 589 643.5Q544 678 460 678H426V367H441Q501 367 528.5 388Q556 409 582 478H584V251H582Q556 320 528.5 333.5Q501 347 441 347H426V22H466Q550 22 599.5 59Q649 96 686 180H688L666 0H285V2Q322 17 332.5 43Q343 69 343 118V237H178L135 139Q125 117 119.5 99Q114 81 114 66Q114 44 125.5 28Q137 12 159 2ZM459 871H558Q545 826 507.5 791Q470 756 419 734H416Q438 770 447 802Q456 834 459 871Z" glyph-name="AEacute" horiz-adv-x="715" unicode="&#508;" /><glyph d="M232 531 150 262H314ZM154 2V0H0V2Q31 18 50 51Q69 84 85 136L260 710H263L445 112Q461 61 473 39.5Q485 18 516 2V0H329V2Q351 11 361 23.5Q371 36 371 55Q371 67 367.5 81.5Q364 96 359 115L322 237H143L113 139Q109 125 106.5 111Q104 97 104 85Q104 57 116 35Q128 13 154 2ZM238 871H337Q324 826 286.5 791Q249 756 198 734H195Q217 770 226 802Q235 834 238 871Z" glyph-name="Aacute" horiz-adv-x="516" unicode="&#193;" /><glyph d="M232 531 150 262H314ZM154 2V0H0V2Q31 18 50 51Q69 84 85 136L260 710H263L445 112Q461 61 473 39.5Q485 18 516 2V0H329V2Q351 11 361 23.5Q371 36 371 55Q371 67 367.5 81.5Q364 96 359 115L322 237H143L113 139Q109 125 106.5 111Q104 97 104 85Q104 57 116 35Q128 13 154 2ZM366 865Q359 793 332 763.5Q305 734 259 734Q213 734 185.5 763.5Q158 793 151 865H157Q162 831 189.5 811.5Q217 792 259 792Q300 792 327.5 811.5Q355 831 360 865Z" glyph-name="Abreve" horiz-adv-x="516" unicode="&#258;" /><glyph d="M232 531 150 262H314ZM154 2V0H0V2Q31 18 50 51Q69 84 85 136L260 710H263L445 112Q461 61 473 39.5Q485 18 516 2V0H329V2Q351 11 361 23.5Q371 36 371 55Q371 67 367.5 81.5Q364 96 359 115L322 237H143L113 139Q109 125 106.5 111Q104 97 104 85Q104 57 116 35Q128 13 154 2ZM372 729Q341 733 308 746Q275 759 259 778Q241 759 208 746Q175 733 144 729H137Q180 762 209 797Q238 832 256 883H261Q279 832 307.5 797Q336 762 379 729Z" glyph-name="Acircumflex" horiz-adv-x="516" unicode="&#194;" /><glyph d="M232 531 150 262H314ZM154 2V0H0V2Q31 18 50 51Q69 84 85 136L260 710H263L445 112Q461 61 473 39.5Q485 18 516 2V0H329V2Q351 11 361 23.5Q371 36 371 55Q371 67 367.5 81.5Q364 96 359 115L322 237H143L113 139Q109 125 106.5 111Q104 97 104 85Q104 57 116 35Q128 13 154 2ZM320 741Q297 741 283 757Q269 773 269 793Q269 812 283 828Q297 844 320 844Q340 844 355.5 828Q371 812 371 793Q371 773 355.5 757Q340 741 320 741ZM196 741Q175 741 160 757Q145 773 145 793Q145 812 160 828Q175 844 196 844Q218 844 232.5 828Q247 812 247 793Q247 773 232.5 757Q218 741 196 741Z" glyph-name="Adieresis" horiz-adv-x="516" unicode="&#196;" /><glyph d="M232 531 150 262H314ZM154 2V0H0V2Q31 18 50 51Q69 84 85 136L260 710H263L445 112Q461 61 473 39.5Q485 18 516 2V0H329V2Q351 11 361 23.5Q371 36 371 55Q371 67 367.5 81.5Q364 96 359 115L322 237H143L113 139Q109 125 106.5 111Q104 97 104 85Q104 57 116 35Q128 13 154 2ZM280 871Q283 834 292 802Q301 770 323 734H320Q269 756 231.5 791Q194 826 181 871Z" glyph-name="Agrave" horiz-adv-x="516" unicode="&#192;" /><glyph d="M232 531 150 262H314ZM154 2V0H0V2Q31 18 50 51Q69 84 85 136L260 710H263L445 112Q461 61 473 39.5Q485 18 516 2V0H329V2Q351 11 361 23.5Q371 36 371 55Q371 67 367.5 81.5Q364 96 359 115L322 237H143L113 139Q109 125 106.5 111Q104 97 104 85Q104 57 116 35Q128 13 154 2ZM364 754H153V789H364Z" glyph-name="Amacron" horiz-adv-x="516" unicode="&#256;" /><glyph d="M372 -139Q364 -176 344 -205.5Q324 -235 287 -235Q256 -235 234.5 -214.5Q213 -194 213 -159Q213 -104 257.5 -61.5Q302 -19 350 16Q358 22 364.5 32.5Q371 43 371 55Q371 67 367.5 81.5Q364 96 359 115L322 237H143L113 139Q109 125 106.5 111Q104 97 104 85Q104 57 116 35Q128 13 154 2V0H0V2Q31 18 50 51Q69 84 85 136L260 710H263L445 112Q461 61 473 39.5Q485 18 516 2V0H343Q306 -33 286.5 -67.5Q267 -102 267 -135Q267 -164 279.5 -177.5Q292 -191 313 -191Q332 -191 345 -177.5Q358 -164 370 -137ZM232 531 150 262H314Z" glyph-name="Aogonek" horiz-adv-x="516" unicode="&#260;" /><glyph d="M232 531 150 262H314ZM154 2V0H0V2Q31 18 50 51Q69 84 85 136L260 710H263L445 112Q461 61 473 39.5Q485 18 516 2V0H329V2Q351 11 361 23.5Q371 36 371 55Q371 67 367.5 81.5Q364 96 359 115L322 237H143L113 139Q109 125 106.5 111Q104 97 104 85Q104 57 116 35Q128 13 154 2ZM258 878Q290 878 314 854.5Q338 831 338 800Q338 769 314 745.5Q290 722 258 722Q226 722 202 745.5Q178 769 178 800Q178 831 202 854.5Q226 878 258 878ZM258 742Q282 742 299 759Q316 776 316 800Q316 824 299 841Q282 858 258 858Q234 858 217 841Q200 824 200 800Q200 776 217 759Q234 742 258 742Z" glyph-name="Aring" horiz-adv-x="516" unicode="&#197;" /><glyph d="M241 1005H340Q327 960 289.5 925Q252 890 201 868H198Q220 904 229 936Q238 968 241 1005ZM261 863Q293 863 317 841.5Q341 820 341 791Q341 762 317 740.5Q293 719 261 719Q229 719 205 740.5Q181 762 181 791Q181 820 205 841.5Q229 863 261 863ZM261 739Q285 739 302 754Q319 769 319 791Q319 813 302 828.5Q285 844 261 844Q237 844 220 828.5Q203 813 203 791Q203 769 220 754Q237 739 261 739ZM232 531 150 262H314ZM154 2V0H0V2Q31 18 50 51Q69 84 85 136L260 710H263L445 112Q461 61 473 39.5Q485 18 516 2V0H329V2Q351 11 361 23.5Q371 36 371 55Q371 67 367.5 81.5Q364 96 359 115L322 237H143L113 139Q109 125 106.5 111Q104 97 104 85Q104 57 116 35Q128 13 154 2Z" glyph-name="Aringacute" horiz-adv-x="516" unicode="&#506;" /><glyph d="M232 531 150 262H314ZM154 2V0H0V2Q31 18 50 51Q69 84 85 136L260 710H263L445 112Q461 61 473 39.5Q485 18 516 2V0H329V2Q351 11 361 23.5Q371 36 371 55Q371 67 367.5 81.5Q364 96 359 115L322 237H143L113 139Q109 125 106.5 111Q104 97 104 85Q104 57 116 35Q128 13 154 2ZM395 876Q384 812 362.5 777Q341 742 310 742Q284 742 251.5 776.5Q219 811 193 811Q168 811 154 789.5Q140 768 129 737H121Q132 802 153.5 837Q175 872 206 872Q233 872 265 838Q297 804 323 804Q348 804 362 824.5Q376 845 388 876Z" glyph-name="Atilde" horiz-adv-x="516" unicode="&#195;" /><glyph d="M211 0H15V2Q52 17 62.5 43Q73 69 73 118V582Q73 631 62.5 657Q52 683 15 698V700H193Q288 700 351 657Q414 614 414 521Q414 449 365 408.5Q316 368 248 361Q315 358 381.5 314Q448 270 448 184Q448 84 382 42Q316 0 211 0ZM156 368H180Q249 368 288.5 407Q328 446 328 521Q328 596 288.5 637Q249 678 180 678H156ZM156 22H195Q270 22 314.5 62.5Q359 103 359 184Q359 265 314.5 305.5Q270 346 195 346H156Z" glyph-name="B" horiz-adv-x="473" unicode="B" /><glyph d="M398 710 407 471H404Q387 556 348 621.5Q309 687 263 687Q191 687 157.5 592Q124 497 124 352Q124 206 164.5 123Q205 40 269 40Q314 40 350.5 75Q387 110 410 202L416 200Q404 104 358 47Q312 -10 243 -10Q148 -10 87.5 89Q27 188 27 351Q27 503 93 606.5Q159 710 254 710Q286 710 307.5 695Q329 680 351 680Q367 680 380 689.5Q393 699 398 710Z" glyph-name="C" horiz-adv-x="438" unicode="C" /><glyph d="M398 710 407 471H404Q387 556 348 621.5Q309 687 263 687Q191 687 157.5 592Q124 497 124 352Q124 206 164.5 123Q205 40 269 40Q314 40 350.5 75Q387 110 410 202L416 200Q404 104 358 47Q312 -10 243 -10Q148 -10 87.5 89Q27 188 27 351Q27 503 93 606.5Q159 710 254 710Q286 710 307.5 695Q329 680 351 680Q367 680 380 689.5Q393 699 398 710ZM238 871H337Q324 826 286.5 791Q249 756 198 734H195Q217 770 226 802Q235 834 238 871Z" glyph-name="Cacute" horiz-adv-x="438" unicode="&#262;" /><glyph d="M398 710 407 471H404Q387 556 348 621.5Q309 687 263 687Q191 687 157.5 592Q124 497 124 352Q124 206 164.5 123Q205 40 269 40Q314 40 350.5 75Q387 110 410 202L416 200Q404 104 358 47Q312 -10 243 -10Q148 -10 87.5 89Q27 188 27 351Q27 503 93 606.5Q159 710 254 710Q286 710 307.5 695Q329 680 351 680Q367 680 380 689.5Q393 699 398 710ZM144 883Q175 879 208 866Q241 853 259 834Q275 853 308 866Q341 879 372 883H379Q336 850 307.5 815Q279 780 261 729H256Q238 780 209 815Q180 850 137 883Z" glyph-name="Ccaron" horiz-adv-x="438" unicode="&#268;" /><glyph d="M226 -223Q198 -223 178.5 -207Q159 -191 151 -169L156 -166Q167 -184 180 -190.5Q193 -197 205 -197Q225 -197 237 -182.5Q249 -168 249 -139Q249 -111 234.5 -95Q220 -79 193 -78L221 -9Q135 3 81 100Q27 197 27 351Q27 503 93 606.5Q159 710 254 710Q286 710 307.5 695Q329 680 351 680Q367 680 380 689.5Q393 699 398 710L407 471H404Q387 556 348 621.5Q309 687 263 687Q191 687 157.5 592Q124 497 124 352Q124 206 164.5 123Q205 40 269 40Q314 40 350.5 75Q387 110 410 202L416 200Q404 104 358 47Q312 -10 243 -10H239L216 -65Q250 -66 278.5 -84.5Q307 -103 307 -141Q307 -180 283 -201.5Q259 -223 226 -223Z" glyph-name="Ccedilla" horiz-adv-x="438" unicode="&#199;" /><glyph d="M398 710 407 471H404Q387 556 348 621.5Q309 687 263 687Q191 687 157.5 592Q124 497 124 352Q124 206 164.5 123Q205 40 269 40Q314 40 350.5 75Q387 110 410 202L416 200Q404 104 358 47Q312 -10 243 -10Q148 -10 87.5 89Q27 188 27 351Q27 503 93 606.5Q159 710 254 710Q286 710 307.5 695Q329 680 351 680Q367 680 380 689.5Q393 699 398 710ZM372 729Q341 733 308 746Q275 759 259 778Q241 759 208 746Q175 733 144 729H137Q180 762 209 797Q238 832 256 883H261Q279 832 307.5 797Q336 762 379 729Z" glyph-name="Ccircumflex" horiz-adv-x="438" unicode="&#264;" /><glyph d="M398 710 407 471H404Q387 556 348 621.5Q309 687 263 687Q191 687 157.5 592Q124 497 124 352Q124 206 164.5 123Q205 40 269 40Q314 40 350.5 75Q387 110 410 202L416 200Q404 104 358 47Q312 -10 243 -10Q148 -10 87.5 89Q27 188 27 351Q27 503 93 606.5Q159 710 254 710Q286 710 307.5 695Q329 680 351 680Q367 680 380 689.5Q393 699 398 710ZM201 804Q201 827 218 844Q235 861 258 861Q282 861 299 844Q316 827 316 804Q316 781 299 764Q282 747 258 747Q235 747 218 764Q201 781 201 804Z" glyph-name="Cdotaccent" horiz-adv-x="438" unicode="&#266;" /><glyph d="M15 0V2Q52 17 62.5 43Q73 69 73 118V582Q73 631 62.5 657Q52 683 15 698V700H168Q297 700 389 613.5Q481 527 481 358Q481 177 389 88.5Q297 0 187 0ZM156 24H179Q268 24 328 100Q388 176 388 358Q388 515 326.5 595.5Q265 676 167 676H156Z" glyph-name="D" horiz-adv-x="507" unicode="D" /><glyph d="M15 0V2Q52 17 62.5 43Q73 69 73 118V582Q73 631 62.5 657Q52 683 15 698V700H168Q297 700 389 613.5Q481 527 481 358Q481 177 389 88.5Q297 0 187 0ZM156 24H179Q268 24 328 100Q388 176 388 358Q388 515 326.5 595.5Q265 676 167 676H156ZM117 883Q148 879 181 866Q214 853 232 834Q248 853 281 866Q314 879 345 883H352Q309 850 280.5 815Q252 780 234 729H229Q211 780 182 815Q153 850 110 883Z" glyph-name="Dcaron" horiz-adv-x="507" unicode="&#270;" /><glyph d="M192 0H20V2Q57 17 67.5 43Q78 69 78 118V345H31V369H78V582Q78 631 67.5 657Q57 683 20 698V700H173Q302 700 394 613.5Q486 527 486 358Q486 177 394 88.5Q302 0 192 0ZM161 24H184Q273 24 333 100Q393 176 393 358Q393 515 331.5 595.5Q270 676 172 676H161V369H248V345H161Z" glyph-name="Dcroat" horiz-adv-x="512" unicode="&#272;" /><glyph d="M15 700H332Q345 700 358 701.5Q371 703 379 707L403 538H401Q364 609 319 643.5Q274 678 190 678H156V367H171Q231 367 258.5 388Q286 409 312 478H314V251H312Q286 320 258.5 333.5Q231 347 171 347H156V22H196Q280 22 329.5 59Q379 96 416 180H418L396 0H15V2Q52 17 62.5 43Q73 69 73 118V582Q73 631 62.5 657Q52 683 15 698Z" glyph-name="E" horiz-adv-x="445" unicode="E" /><glyph d="M15 700H332Q345 700 358 701.5Q371 703 379 707L403 538H401Q364 609 319 643.5Q274 678 190 678H156V367H171Q231 367 258.5 388Q286 409 312 478H314V251H312Q286 320 258.5 333.5Q231 347 171 347H156V22H196Q280 22 329.5 59Q379 96 416 180H418L396 0H15V2Q52 17 62.5 43Q73 69 73 118V582Q73 631 62.5 657Q52 683 15 698ZM212 871H311Q298 826 260.5 791Q223 756 172 734H169Q191 770 200 802Q209 834 212 871Z" glyph-name="Eacute" horiz-adv-x="445" unicode="&#201;" /><glyph d="M15 700H332Q345 700 358 701.5Q371 703 379 707L403 538H401Q364 609 319 643.5Q274 678 190 678H156V367H171Q231 367 258.5 388Q286 409 312 478H314V251H312Q286 320 258.5 333.5Q231 347 171 347H156V22H196Q280 22 329.5 59Q379 96 416 180H418L396 0H15V2Q52 17 62.5 43Q73 69 73 118V582Q73 631 62.5 657Q52 683 15 698ZM340 865Q333 793 306 763.5Q279 734 233 734Q187 734 159.5 763.5Q132 793 125 865H131Q136 831 163.5 811.5Q191 792 233 792Q274 792 301.5 811.5Q329 831 334 865Z" glyph-name="Ebreve" horiz-adv-x="445" unicode="&#276;" /><glyph d="M15 700H332Q345 700 358 701.5Q371 703 379 707L403 538H401Q364 609 319 643.5Q274 678 190 678H156V367H171Q231 367 258.5 388Q286 409 312 478H314V251H312Q286 320 258.5 333.5Q231 347 171 347H156V22H196Q280 22 329.5 59Q379 96 416 180H418L396 0H15V2Q52 17 62.5 43Q73 69 73 118V582Q73 631 62.5 657Q52 683 15 698ZM118 883Q149 879 182 866Q215 853 233 834Q249 853 282 866Q315 879 346 883H353Q310 850 281.5 815Q253 780 235 729H230Q212 780 183 815Q154 850 111 883Z" glyph-name="Ecaron" horiz-adv-x="445" unicode="&#282;" /><glyph d="M15 700H332Q345 700 358 701.5Q371 703 379 707L403 538H401Q364 609 319 643.5Q274 678 190 678H156V367H171Q231 367 258.5 388Q286 409 312 478H314V251H312Q286 320 258.5 333.5Q231 347 171 347H156V22H196Q280 22 329.5 59Q379 96 416 180H418L396 0H15V2Q52 17 62.5 43Q73 69 73 118V582Q73 631 62.5 657Q52 683 15 698ZM346 729Q315 733 282 746Q249 759 233 778Q215 759 182 746Q149 733 118 729H111Q154 762 183 797Q212 832 230 883H235Q253 832 281.5 797Q310 762 353 729Z" glyph-name="Ecircumflex" horiz-adv-x="444" unicode="&#202;" /><glyph d="M15 700H332Q345 700 358 701.5Q371 703 379 707L403 538H401Q364 609 319 643.5Q274 678 190 678H156V367H171Q231 367 258.5 388Q286 409 312 478H314V251H312Q286 320 258.5 333.5Q231 347 171 347H156V22H196Q280 22 329.5 59Q379 96 416 180H418L396 0H15V2Q52 17 62.5 43Q73 69 73 118V582Q73 631 62.5 657Q52 683 15 698ZM294 741Q271 741 257 757Q243 773 243 793Q243 812 257 828Q271 844 294 844Q314 844 329.5 828Q345 812 345 793Q345 773 329.5 757Q314 741 294 741ZM170 741Q149 741 134 757Q119 773 119 793Q119 812 134 828Q149 844 170 844Q192 844 206.5 828Q221 812 221 793Q221 773 206.5 757Q192 741 170 741Z" glyph-name="Edieresis" horiz-adv-x="445" unicode="&#203;" /><glyph d="M15 700H332Q345 700 358 701.5Q371 703 379 707L403 538H401Q364 609 319 643.5Q274 678 190 678H156V367H171Q231 367 258.5 388Q286 409 312 478H314V251H312Q286 320 258.5 333.5Q231 347 171 347H156V22H196Q280 22 329.5 59Q379 96 416 180H418L396 0H15V2Q52 17 62.5 43Q73 69 73 118V582Q73 631 62.5 657Q52 683 15 698ZM175 804Q175 827 192 844Q209 861 232 861Q256 861 273 844Q290 827 290 804Q290 781 273 764Q256 747 232 747Q209 747 192 764Q175 781 175 804Z" glyph-name="Edotaccent" horiz-adv-x="445" unicode="&#278;" /><glyph d="M15 700H332Q345 700 358 701.5Q371 703 379 707L403 538H401Q364 609 319 643.5Q274 678 190 678H156V367H171Q231 367 258.5 388Q286 409 312 478H314V251H312Q286 320 258.5 333.5Q231 347 171 347H156V22H196Q280 22 329.5 59Q379 96 416 180H418L396 0H15V2Q52 17 62.5 43Q73 69 73 118V582Q73 631 62.5 657Q52 683 15 698ZM254 871Q257 834 266 802Q275 770 297 734H294Q243 756 205.5 791Q168 826 155 871Z" glyph-name="Egrave" horiz-adv-x="445" unicode="&#200;" /><glyph d="M15 700H332Q345 700 358 701.5Q371 703 379 707L403 538H401Q364 609 319 643.5Q274 678 190 678H156V367H171Q231 367 258.5 388Q286 409 312 478H314V251H312Q286 320 258.5 333.5Q231 347 171 347H156V22H196Q280 22 329.5 59Q379 96 416 180H418L396 0H15V2Q52 17 62.5 43Q73 69 73 118V582Q73 631 62.5 657Q52 683 15 698ZM338 754H127V789H338Z" glyph-name="Emacron" horiz-adv-x="445" unicode="&#274;" /><glyph d="M405 -70V36L101 635V130Q101 75 121 45.5Q141 16 177 2V0H-3V2Q34 17 53.5 46.5Q73 76 73 133V582Q73 631 62.5 657Q52 683 15 698V700H164L405 222V570Q405 625 385 654.5Q365 684 329 698V700H509V698Q472 683 452 653.5Q432 624 432 567V-64Q432 -142 400.5 -188.5Q369 -235 309 -235Q255 -235 223.5 -208Q192 -181 192 -140Q192 -115 209 -97Q226 -79 256 -79Q269 -79 282 -83.5Q295 -88 303 -95Q287 -99 275.5 -112.5Q264 -126 264 -152Q264 -178 277.5 -195.5Q291 -213 315 -213Q357 -213 381 -177.5Q405 -142 405 -70Z" glyph-name="Eng" horiz-adv-x="502" unicode="&#330;" /><glyph d="M346 -139Q338 -176 318 -205.5Q298 -235 261 -235Q230 -235 208.5 -214.5Q187 -194 187 -159Q187 -111 222 -71.5Q257 -32 299 0H15V2Q52 17 62.5 43Q73 69 73 118V582Q73 631 62.5 657Q52 683 15 698V700H332Q345 700 358 701.5Q371 703 379 707L403 538H401Q364 609 319 643.5Q274 678 190 678H156V367H171Q231 367 258.5 388Q286 409 312 478H314V251H312Q286 320 258.5 333.5Q231 347 171 347H156V22H196Q280 22 329.5 59Q379 96 416 180H418L396 0H315Q280 -33 260.5 -67.5Q241 -102 241 -135Q241 -164 253.5 -177.5Q266 -191 287 -191Q306 -191 319 -177.5Q332 -164 344 -137Z" glyph-name="Eogonek" horiz-adv-x="445" unicode="&#280;" /><glyph d="M192 0H20V2Q57 17 67.5 43Q78 69 78 118V345H31V369H78V582Q78 631 67.5 657Q57 683 20 698V700H173Q302 700 394 613.5Q486 527 486 358Q486 177 394 88.5Q302 0 192 0ZM161 24H184Q273 24 333 100Q393 176 393 358Q393 515 331.5 595.5Q270 676 172 676H161V369H248V345H161Z" glyph-name="Eth" horiz-adv-x="512" unicode="&#208;" /><glyph d="M469 200Q457 104 408.5 47Q360 -10 287 -10Q195 -10 134 75.5Q73 161 63 304H14V322H63Q62 329 62 336Q62 343 62 350Q62 358 62 366.5Q62 375 63 383H14V401H64Q77 530 146.5 620Q216 710 316 710Q382 710 425.5 678.5Q469 647 469 592Q469 557 446 535Q423 513 389 513Q366 513 346 523.5Q326 534 321 554Q326 552 332 551Q338 550 341 550Q367 550 381.5 569.5Q396 589 396 616Q396 648 376.5 669Q357 690 324 690Q249 690 208.5 608Q168 526 161 401H322L315 383H160V353Q160 345 160 337Q160 329 161 322H290L283 304H161Q168 181 209 111.5Q250 42 316 42Q362 42 400.5 77Q439 112 463 202Z" glyph-name="Euro" horiz-adv-x="490" unicode="&#8364;" /><glyph d="M434 178Q424 93 380 41.5Q336 -10 270 -10Q187 -10 133 66Q79 142 71 270H22V288H70V313Q70 322 70 331Q70 340 71 349H22V367H73Q86 480 146.5 558Q207 636 296 636Q356 636 395 606.5Q434 577 434 527Q434 496 413 476Q392 456 362 456Q341 456 323 465.5Q305 475 301 493Q305 491 310.5 490Q316 489 319 489Q343 489 355.5 506.5Q368 524 368 549Q368 577 350.5 596Q333 615 303 615Q237 615 200.5 545.5Q164 476 158 367H327L320 349H157Q156 341 156 332.5Q156 324 156 316V288H295L288 270H157Q164 160 200.5 98.5Q237 37 296 37Q338 37 372.5 68Q407 99 428 180Z" glyph-name="Euro.op" horiz-adv-x="450" /><glyph d="M156 340V114Q156 67 167.5 43.5Q179 20 229 2V0H15V2Q52 17 62.5 43Q73 69 73 118V582Q73 631 62.5 657Q52 683 15 698V700H327Q340 700 353 701.5Q366 703 373 707L397 523H395Q359 602 313.5 640Q268 678 185 678H156V360H171Q231 360 258.5 381Q286 402 312 471H314V245H312Q286 314 258.5 327Q231 340 171 340Z" glyph-name="F" horiz-adv-x="411" unicode="F" /><glyph d="M261 687Q195 687 158.5 590Q122 493 122 340Q122 198 154.5 111Q187 24 255 24Q295 24 325 61Q355 98 355 166V211Q355 260 344 285Q333 310 300 327V329H469V327Q447 312 440.5 286Q434 260 434 211V-10H432L362 98Q353 51 317.5 20.5Q282 -10 231 -10Q142 -10 84 90Q26 190 26 341Q26 502 94 606Q162 710 253 710Q288 710 312.5 695Q337 680 360 680Q376 680 389.5 689.5Q403 699 409 710L418 471H415Q396 556 354 621.5Q312 687 261 687Z" glyph-name="G" horiz-adv-x="482" unicode="G" /><glyph d="M261 687Q195 687 158.5 590Q122 493 122 340Q122 198 154.5 111Q187 24 255 24Q295 24 325 61Q355 98 355 166V211Q355 260 344 285Q333 310 300 327V329H469V327Q447 312 440.5 286Q434 260 434 211V-10H432L362 98Q353 51 317.5 20.5Q282 -10 231 -10Q142 -10 84 90Q26 190 26 341Q26 502 94 606Q162 710 253 710Q288 710 312.5 695Q337 680 360 680Q376 680 389.5 689.5Q403 699 409 710L418 471H415Q396 556 354 621.5Q312 687 261 687ZM369 865Q362 793 335 763.5Q308 734 262 734Q216 734 188.5 763.5Q161 793 154 865H160Q165 831 192.5 811.5Q220 792 262 792Q303 792 330.5 811.5Q358 831 363 865Z" glyph-name="Gbreve" horiz-adv-x="482" unicode="&#286;" /><glyph d="M261 687Q195 687 158.5 590Q122 493 122 340Q122 198 154.5 111Q187 24 255 24Q295 24 325 61Q355 98 355 166V211Q355 260 344 285Q333 310 300 327V329H469V327Q447 312 440.5 286Q434 260 434 211V-10H432L362 98Q353 51 317.5 20.5Q282 -10 231 -10Q142 -10 84 90Q26 190 26 341Q26 502 94 606Q162 710 253 710Q288 710 312.5 695Q337 680 360 680Q376 680 389.5 689.5Q403 699 409 710L418 471H415Q396 556 354 621.5Q312 687 261 687ZM375 729Q344 733 311 746Q278 759 262 778Q244 759 211 746Q178 733 147 729H140Q183 762 212 797Q241 832 259 883H264Q282 832 310.5 797Q339 762 382 729Z" glyph-name="Gcircumflex" horiz-adv-x="482" unicode="&#284;" /><glyph d="M261 687Q195 687 158.5 590Q122 493 122 340Q122 198 154.5 111Q187 24 255 24Q295 24 325 61Q355 98 355 166V211Q355 260 344 285Q333 310 300 327V329H469V327Q447 312 440.5 286Q434 260 434 211V-10H432L362 98Q353 51 317.5 20.5Q282 -10 231 -10Q142 -10 84 90Q26 190 26 341Q26 502 94 606Q162 710 253 710Q288 710 312.5 695Q337 680 360 680Q376 680 389.5 689.5Q403 699 409 710L418 471H415Q396 556 354 621.5Q312 687 261 687ZM319 -126Q319 -164 289 -192Q259 -220 212 -222V-209Q250 -206 266.5 -186.5Q283 -167 286 -140Q279 -147 269.5 -150Q260 -153 250 -153Q230 -153 216.5 -139.5Q203 -126 203 -108Q203 -86 218 -72Q233 -58 256 -58Q284 -58 301.5 -75.5Q319 -93 319 -126Z" glyph-name="Gcommaaccent" horiz-adv-x="482" unicode="&#290;" /><glyph d="M261 687Q195 687 158.5 590Q122 493 122 340Q122 198 154.5 111Q187 24 255 24Q295 24 325 61Q355 98 355 166V211Q355 260 344 285Q333 310 300 327V329H469V327Q447 312 440.5 286Q434 260 434 211V-10H432L362 98Q353 51 317.5 20.5Q282 -10 231 -10Q142 -10 84 90Q26 190 26 341Q26 502 94 606Q162 710 253 710Q288 710 312.5 695Q337 680 360 680Q376 680 389.5 689.5Q403 699 409 710L418 471H415Q396 556 354 621.5Q312 687 261 687ZM204 804Q204 827 221 844Q238 861 261 861Q285 861 302 844Q319 827 319 804Q319 781 302 764Q285 747 261 747Q238 747 221 764Q204 781 204 804Z" glyph-name="Gdotaccent" horiz-adv-x="482" unicode="&#288;" /><glyph d="M73 118V582Q73 631 62.5 657Q52 683 15 698V700H214V698Q178 683 167 657Q156 631 156 582V368H382V582Q382 631 371.5 657Q361 683 324 698V700H523V698Q486 683 475.5 657Q465 631 465 582V118Q465 69 475.5 43Q486 17 523 2V0H324V2Q361 17 371.5 43Q382 69 382 118V343H156V118Q156 69 167 43Q178 17 214 2V0H15V2Q52 17 62.5 43Q73 69 73 118Z" glyph-name="H" horiz-adv-x="538" unicode="H" /><glyph d="M387 348V475H161V348ZM219 0H20V2Q57 17 67.5 43Q78 69 78 118V475H31V499H78V582Q78 631 67.5 657Q57 683 20 698V700H219V698Q183 683 172 657Q161 631 161 582V499H387V582Q387 631 376.5 657Q366 683 329 698V700H528V698Q491 683 480.5 657Q470 631 470 582V499H517V475H470V118Q470 69 480.5 43Q491 17 528 2V0H329V2Q366 17 376.5 43Q387 69 387 118V323H161V118Q161 69 172 43Q183 17 219 2Z" glyph-name="Hbar" horiz-adv-x="548" unicode="&#294;" /><glyph d="M73 118V582Q73 631 62.5 657Q52 683 15 698V700H214V698Q178 683 167 657Q156 631 156 582V368H382V582Q382 631 371.5 657Q361 683 324 698V700H523V698Q486 683 475.5 657Q465 631 465 582V118Q465 69 475.5 43Q486 17 523 2V0H324V2Q361 17 371.5 43Q382 69 382 118V343H156V118Q156 69 167 43Q178 17 214 2V0H15V2Q52 17 62.5 43Q73 69 73 118ZM383 729Q352 733 319 746Q286 759 270 778Q252 759 219 746Q186 733 155 729H148Q191 762 220 797Q249 832 267 883H272Q290 832 318.5 797Q347 762 390 729Z" glyph-name="Hcircumflex" horiz-adv-x="538" unicode="&#292;" /><glyph d="M156 118Q156 69 167 43Q178 17 214 2V0H15V2Q52 17 62.5 43Q73 69 73 118V582Q73 631 62.5 657Q52 683 15 698V700H214V698Q178 683 167 657Q156 631 156 582Z" glyph-name="I" horiz-adv-x="229" unicode="I" /><glyph d="M156 118Q156 69 167 43Q178 17 214 2V0H15V2Q52 17 62.5 43Q73 69 73 118V582Q73 631 62.5 657Q52 683 15 698V700H214V698Q178 683 167 657Q156 631 156 582ZM94 871H193Q180 826 142.5 791Q105 756 54 734H51Q73 770 82 802Q91 834 94 871Z" glyph-name="Iacute" horiz-adv-x="229" unicode="&#205;" /><glyph d="M156 118Q156 69 167 43Q178 17 214 2V0H15V2Q52 17 62.5 43Q73 69 73 118V582Q73 631 62.5 657Q52 683 15 698V700H214V698Q178 683 167 657Q156 631 156 582ZM222 865Q215 793 188 763.5Q161 734 115 734Q69 734 41.5 763.5Q14 793 7 865H13Q18 831 45.5 811.5Q73 792 115 792Q156 792 183.5 811.5Q211 831 216 865Z" glyph-name="Ibreve" horiz-adv-x="229" unicode="&#300;" /><glyph d="M156 118Q156 69 167 43Q178 17 214 2V0H15V2Q52 17 62.5 43Q73 69 73 118V582Q73 631 62.5 657Q52 683 15 698V700H214V698Q178 683 167 657Q156 631 156 582ZM228 729Q197 733 164 746Q131 759 115 778Q97 759 64 746Q31 733 0 729H-7Q36 762 65 797Q94 832 112 883H117Q135 832 163.5 797Q192 762 235 729Z" glyph-name="Icircumflex" horiz-adv-x="229" unicode="&#206;" /><glyph d="M156 118Q156 69 167 43Q178 17 214 2V0H15V2Q52 17 62.5 43Q73 69 73 118V582Q73 631 62.5 657Q52 683 15 698V700H214V698Q178 683 167 657Q156 631 156 582ZM176 741Q153 741 139 757Q125 773 125 793Q125 812 139 828Q153 844 176 844Q196 844 211.5 828Q227 812 227 793Q227 773 211.5 757Q196 741 176 741ZM52 741Q31 741 16 757Q1 773 1 793Q1 812 16 828Q31 844 52 844Q74 844 88.5 828Q103 812 103 793Q103 773 88.5 757Q74 741 52 741Z" glyph-name="Idieresis" horiz-adv-x="229" unicode="&#207;" /><glyph d="M156 118Q156 69 167 43Q178 17 214 2V0H15V2Q52 17 62.5 43Q73 69 73 118V582Q73 631 62.5 657Q52 683 15 698V700H214V698Q178 683 167 657Q156 631 156 582ZM57 804Q57 827 74 844Q91 861 114 861Q138 861 155 844Q172 827 172 804Q172 781 155 764Q138 747 114 747Q91 747 74 764Q57 781 57 804Z" glyph-name="Idotaccent" horiz-adv-x="229" unicode="&#304;" /><glyph d="M156 118Q156 69 167 43Q178 17 214 2V0H15V2Q52 17 62.5 43Q73 69 73 118V582Q73 631 62.5 657Q52 683 15 698V700H214V698Q178 683 167 657Q156 631 156 582ZM136 871Q139 834 148 802Q157 770 179 734H176Q125 756 87.5 791Q50 826 37 871Z" glyph-name="Igrave" horiz-adv-x="229" unicode="&#204;" /><glyph d="M156 118Q156 69 167 43Q178 17 214 2V0H15V2Q52 17 62.5 43Q73 69 73 118V582Q73 631 62.5 657Q52 683 15 698V700H214V698Q178 683 167 657Q156 631 156 582ZM220 754H9V789H220Z" glyph-name="Imacron" horiz-adv-x="229" unicode="&#298;" /><glyph d="M188 -139Q180 -176 160 -205.5Q140 -235 103 -235Q72 -235 50.5 -214.5Q29 -194 29 -159Q29 -111 64 -71.5Q99 -32 141 0H15V2Q52 17 62.5 43Q73 69 73 118V582Q73 631 62.5 657Q52 683 15 698V700H214V698Q178 683 167 657Q156 631 156 582V118Q156 69 167 43Q178 17 214 2V0H157Q122 -33 102.5 -67.5Q83 -102 83 -135Q83 -164 95.5 -177.5Q108 -191 129 -191Q148 -191 161 -177.5Q174 -164 186 -137Z" glyph-name="Iogonek" horiz-adv-x="229" unicode="&#302;" /><glyph d="M156 118Q156 69 167 43Q178 17 214 2V0H15V2Q52 17 62.5 43Q73 69 73 118V582Q73 631 62.5 657Q52 683 15 698V700H214V698Q178 683 167 657Q156 631 156 582ZM251 876Q240 812 218.5 777Q197 742 166 742Q140 742 107.5 776.5Q75 811 49 811Q24 811 10 789.5Q-4 768 -15 737H-23Q-12 802 9.5 837Q31 872 62 872Q89 872 121 838Q153 804 179 804Q204 804 218 824.5Q232 845 244 876Z" glyph-name="Itilde" horiz-adv-x="229" unicode="&#296;" /><glyph d="M266 170V582Q266 631 255.5 657Q245 683 208 698V700H407V698Q371 683 360 657Q349 631 349 582V187Q349 93 299 41.5Q249 -10 171 -10Q100 -10 54 26Q8 62 8 122Q8 165 34.5 188.5Q61 212 96 212Q112 212 131 204.5Q150 197 160 181Q135 178 112.5 157.5Q90 137 90 97Q90 61 109.5 35Q129 9 171 9Q223 9 244.5 54Q266 99 266 170Z" glyph-name="J" horiz-adv-x="411" unicode="J" /><glyph d="M266 170V582Q266 631 255.5 657Q245 683 208 698V700H407V698Q371 683 360 657Q349 631 349 582V187Q349 93 299 41.5Q249 -10 171 -10Q100 -10 54 26Q8 62 8 122Q8 165 34.5 188.5Q61 212 96 212Q112 212 131 204.5Q150 197 160 181Q135 178 112.5 157.5Q90 137 90 97Q90 61 109.5 35Q129 9 171 9Q223 9 244.5 54Q266 99 266 170ZM422 729Q391 733 358 746Q325 759 309 778Q291 759 258 746Q225 733 194 729H187Q230 762 259 797Q288 832 306 883H311Q329 832 357.5 797Q386 762 429 729Z" glyph-name="Jcircumflex" horiz-adv-x="411" unicode="&#308;" /><glyph d="M214 0H15V2Q52 17 62.5 43Q73 69 73 118V582Q73 631 62.5 657Q52 683 15 698V700H214V698Q178 683 167 657Q156 631 156 582V314L340 602Q347 613 351 623.5Q355 634 355 644Q355 661 343.5 675Q332 689 312 698V700H503V698Q451 685 420.5 659Q390 633 368 599L243 405L420 112Q446 69 468.5 41.5Q491 14 521 2V0H329V2Q343 9 349.5 19.5Q356 30 356 42Q356 54 351 67Q346 80 338 94L195 333L156 273V118Q156 69 167 43Q178 17 214 2Z" glyph-name="K" horiz-adv-x="511" unicode="K" /><glyph d="M214 0H15V2Q52 17 62.5 43Q73 69 73 118V582Q73 631 62.5 657Q52 683 15 698V700H214V698Q178 683 167 657Q156 631 156 582V314L340 602Q347 613 351 623.5Q355 634 355 644Q355 661 343.5 675Q332 689 312 698V700H503V698Q451 685 420.5 659Q390 633 368 599L243 405L420 112Q446 69 468.5 41.5Q491 14 521 2V0H329V2Q343 9 349.5 19.5Q356 30 356 42Q356 54 351 67Q346 80 338 94L195 333L156 273V118Q156 69 167 43Q178 17 214 2ZM313 -126Q313 -164 283 -192Q253 -220 206 -222V-209Q244 -206 260.5 -186.5Q277 -167 280 -140Q273 -147 263.5 -150Q254 -153 244 -153Q224 -153 210.5 -139.5Q197 -126 197 -108Q197 -86 212 -72Q227 -58 250 -58Q278 -58 295.5 -75.5Q313 -93 313 -126Z" glyph-name="Kcommaaccent" horiz-adv-x="511" unicode="&#310;" /><glyph d="M15 700H214V698Q178 683 167 657Q156 631 156 582V23H209Q293 23 333 62.5Q373 102 417 202H419L397 0H15V2Q52 17 62.5 43Q73 69 73 118V582Q73 631 62.5 657Q52 683 15 698Z" glyph-name="L" horiz-adv-x="429" unicode="L" /><glyph d="M15 700H214V698Q178 683 167 657Q156 631 156 582V23H209Q293 23 333 62.5Q373 102 417 202H419L397 0H15V2Q52 17 62.5 43Q73 69 73 118V582Q73 631 62.5 657Q52 683 15 698ZM147 871H246Q233 826 195.5 791Q158 756 107 734H104Q126 770 135 802Q144 834 147 871Z" glyph-name="Lacute" horiz-adv-x="429" unicode="&#313;" /><glyph d="M15 700H214V698Q178 683 167 657Q156 631 156 582V23H209Q293 23 333 62.5Q373 102 417 202H419L397 0H15V2Q52 17 62.5 43Q73 69 73 118V582Q73 631 62.5 657Q52 683 15 698ZM358 700Q348 652 316.5 591Q285 530 259 496H256Q267 537 272.5 590.5Q278 644 274 700Z" glyph-name="Lcaron" horiz-adv-x="429" unicode="&#317;" /><glyph d="M15 700H214V698Q178 683 167 657Q156 631 156 582V23H209Q293 23 333 62.5Q373 102 417 202H419L397 0H15V2Q52 17 62.5 43Q73 69 73 118V582Q73 631 62.5 657Q52 683 15 698ZM275 -126Q275 -164 245 -192Q215 -220 168 -222V-209Q206 -206 222.5 -186.5Q239 -167 242 -140Q235 -147 225.5 -150Q216 -153 206 -153Q186 -153 172.5 -139.5Q159 -126 159 -108Q159 -86 174 -72Q189 -58 212 -58Q240 -58 257.5 -75.5Q275 -93 275 -126Z" glyph-name="Lcommaaccent" horiz-adv-x="429" unicode="&#315;" /><glyph d="M15 700H214V698Q178 683 167 657Q156 631 156 582V23H209Q293 23 333 62.5Q373 102 417 202H419L397 0H15V2Q52 17 62.5 43Q73 69 73 118V582Q73 631 62.5 657Q52 683 15 698ZM279 350Q279 373 296 390Q313 407 336 407Q360 407 377 390Q394 373 394 350Q394 327 377 310Q360 293 336 293Q313 293 296 310Q279 327 279 350Z" glyph-name="Ldot" horiz-adv-x="429" unicode="&#319;" /><glyph d="M397 0H15V2Q52 17 62.5 43Q73 69 73 118V303L27 286V314L73 332V582Q73 631 62.5 657Q52 683 15 698V700H214V698Q178 683 167 657Q156 631 156 582V361L269 404V376L156 333V23H209Q293 23 333 62.5Q373 102 417 202H419Z" glyph-name="Lslash" horiz-adv-x="429" unicode="&#321;" /><glyph d="M101 130Q101 75 121 45.5Q141 16 177 2V0H-3V2Q34 17 53.5 46.5Q73 76 73 133V582Q73 631 62.5 657Q52 683 15 698V700H173L316 178L450 700H601V698Q564 683 553 657Q542 631 542 582V121Q542 72 558 44.5Q574 17 611 2V0H394V2Q431 17 447 44.5Q463 72 463 121V644L291 -11H287L101 644Z" glyph-name="M" horiz-adv-x="615" unicode="M" /><glyph d="M509 698Q472 683 452 653.5Q432 624 432 567V-9H428L101 635V130Q101 75 121 45.5Q141 16 177 2V0H-3V2Q34 17 53.5 46.5Q73 76 73 133V582Q73 631 62.5 657Q52 683 15 698V700H164L405 222V570Q405 625 385 654.5Q365 684 329 698V700H509Z" glyph-name="N" horiz-adv-x="502" unicode="N" /><glyph glyph-name="NULL" horiz-adv-x="0" /><glyph d="M509 698Q472 683 452 653.5Q432 624 432 567V-9H428L101 635V130Q101 75 121 45.5Q141 16 177 2V0H-3V2Q34 17 53.5 46.5Q73 76 73 133V582Q73 631 62.5 657Q52 683 15 698V700H164L405 222V570Q405 625 385 654.5Q365 684 329 698V700H509ZM248 871H347Q334 826 296.5 791Q259 756 208 734H205Q227 770 236 802Q245 834 248 871Z" glyph-name="Nacute" horiz-adv-x="502" unicode="&#323;" /><glyph d="M509 698Q472 683 452 653.5Q432 624 432 567V-9H428L101 635V130Q101 75 121 45.5Q141 16 177 2V0H-3V2Q34 17 53.5 46.5Q73 76 73 133V582Q73 631 62.5 657Q52 683 15 698V700H164L405 222V570Q405 625 385 654.5Q365 684 329 698V700H509ZM154 883Q185 879 218 866Q251 853 269 834Q285 853 318 866Q351 879 382 883H389Q346 850 317.5 815Q289 780 271 729H266Q248 780 219 815Q190 850 147 883Z" glyph-name="Ncaron" horiz-adv-x="502" unicode="&#327;" /><glyph d="M509 698Q472 683 452 653.5Q432 624 432 567V-9H428L101 635V130Q101 75 121 45.5Q141 16 177 2V0H-3V2Q34 17 53.5 46.5Q73 76 73 133V582Q73 631 62.5 657Q52 683 15 698V700H164L405 222V570Q405 625 385 654.5Q365 684 329 698V700H509ZM326 -126Q326 -164 296 -192Q266 -220 219 -222V-209Q257 -206 273.5 -186.5Q290 -167 293 -140Q286 -147 276.5 -150Q267 -153 257 -153Q237 -153 223.5 -139.5Q210 -126 210 -108Q210 -86 225 -72Q240 -58 263 -58Q291 -58 308.5 -75.5Q326 -93 326 -126Z" glyph-name="Ncommaaccent" horiz-adv-x="502" unicode="&#325;" /><glyph d="M509 698Q472 683 452 653.5Q432 624 432 567V-9H428L101 635V130Q101 75 121 45.5Q141 16 177 2V0H-3V2Q34 17 53.5 46.5Q73 76 73 133V582Q73 631 62.5 657Q52 683 15 698V700H164L405 222V570Q405 625 385 654.5Q365 684 329 698V700H509ZM405 876Q394 812 372.5 777Q351 742 320 742Q294 742 261.5 776.5Q229 811 203 811Q178 811 164 789.5Q150 768 139 737H131Q142 802 163.5 837Q185 872 216 872Q243 872 275 838Q307 804 333 804Q358 804 372 824.5Q386 845 398 876Z" glyph-name="Ntilde" horiz-adv-x="502" unicode="&#209;" /><glyph d="M482 350Q482 193 414 91.5Q346 -10 254 -10Q162 -10 94.5 91.5Q27 193 27 350Q27 507 94.5 608.5Q162 710 254 710Q346 710 414 608.5Q482 507 482 350ZM382 350Q382 492 352.5 589.5Q323 687 254 687Q185 687 156 589.5Q127 492 127 350Q127 208 156 110.5Q185 13 254 13Q323 13 352.5 110.5Q382 208 382 350Z" glyph-name="O" horiz-adv-x="509" unicode="O" /><glyph d="M352 24V676H329Q240 676 180 600Q120 524 120 342Q120 185 181.5 104.5Q243 24 341 24ZM697 180 675 0H340Q211 1 119 87Q27 173 27 342Q27 523 119 611.5Q211 700 321 700H611Q624 700 637 701.5Q650 703 658 707L682 538H680Q643 609 598 643.5Q553 678 469 678H435V367H450Q510 367 537.5 388Q565 409 591 478H593V251H591Q565 320 537.5 333.5Q510 347 450 347H435V22H475Q559 22 608.5 59Q658 96 695 180Z" glyph-name="OE" horiz-adv-x="724" unicode="&#338;" /><glyph d="M482 350Q482 193 414 91.5Q346 -10 254 -10Q162 -10 94.5 91.5Q27 193 27 350Q27 507 94.5 608.5Q162 710 254 710Q346 710 414 608.5Q482 507 482 350ZM382 350Q382 492 352.5 589.5Q323 687 254 687Q185 687 156 589.5Q127 492 127 350Q127 208 156 110.5Q185 13 254 13Q323 13 352.5 110.5Q382 208 382 350ZM234 871H333Q320 826 282.5 791Q245 756 194 734H191Q213 770 222 802Q231 834 234 871Z" glyph-name="Oacute" horiz-adv-x="509" unicode="&#211;" /><glyph d="M482 350Q482 193 414 91.5Q346 -10 254 -10Q162 -10 94.5 91.5Q27 193 27 350Q27 507 94.5 608.5Q162 710 254 710Q346 710 414 608.5Q482 507 482 350ZM382 350Q382 492 352.5 589.5Q323 687 254 687Q185 687 156 589.5Q127 492 127 350Q127 208 156 110.5Q185 13 254 13Q323 13 352.5 110.5Q382 208 382 350ZM362 865Q355 793 328 763.5Q301 734 255 734Q209 734 181.5 763.5Q154 793 147 865H153Q158 831 185.5 811.5Q213 792 255 792Q296 792 323.5 811.5Q351 831 356 865Z" glyph-name="Obreve" horiz-adv-x="509" unicode="&#334;" /><glyph d="M482 350Q482 193 414 91.5Q346 -10 254 -10Q162 -10 94.5 91.5Q27 193 27 350Q27 507 94.5 608.5Q162 710 254 710Q346 710 414 608.5Q482 507 482 350ZM382 350Q382 492 352.5 589.5Q323 687 254 687Q185 687 156 589.5Q127 492 127 350Q127 208 156 110.5Q185 13 254 13Q323 13 352.5 110.5Q382 208 382 350ZM368 729Q337 733 304 746Q271 759 255 778Q237 759 204 746Q171 733 140 729H133Q176 762 205 797Q234 832 252 883H257Q275 832 303.5 797Q332 762 375 729Z" glyph-name="Ocircumflex" horiz-adv-x="509" unicode="&#212;" /><glyph d="M482 350Q482 193 414 91.5Q346 -10 254 -10Q162 -10 94.5 91.5Q27 193 27 350Q27 507 94.5 608.5Q162 710 254 710Q346 710 414 608.5Q482 507 482 350ZM382 350Q382 492 352.5 589.5Q323 687 254 687Q185 687 156 589.5Q127 492 127 350Q127 208 156 110.5Q185 13 254 13Q323 13 352.5 110.5Q382 208 382 350ZM316 741Q293 741 279 757Q265 773 265 793Q265 812 279 828Q293 844 316 844Q336 844 351.5 828Q367 812 367 793Q367 773 351.5 757Q336 741 316 741ZM192 741Q171 741 156 757Q141 773 141 793Q141 812 156 828Q171 844 192 844Q214 844 228.5 828Q243 812 243 793Q243 773 228.5 757Q214 741 192 741Z" glyph-name="Odieresis" horiz-adv-x="509" unicode="&#214;" /><glyph d="M482 350Q482 193 414 91.5Q346 -10 254 -10Q162 -10 94.5 91.5Q27 193 27 350Q27 507 94.5 608.5Q162 710 254 710Q346 710 414 608.5Q482 507 482 350ZM382 350Q382 492 352.5 589.5Q323 687 254 687Q185 687 156 589.5Q127 492 127 350Q127 208 156 110.5Q185 13 254 13Q323 13 352.5 110.5Q382 208 382 350ZM276 871Q279 834 288 802Q297 770 319 734H316Q265 756 227.5 791Q190 826 177 871Z" glyph-name="Ograve" horiz-adv-x="509" unicode="&#210;" /><glyph d="M482 350Q482 193 414 91.5Q346 -10 254 -10Q162 -10 94.5 91.5Q27 193 27 350Q27 507 94.5 608.5Q162 710 254 710Q346 710 414 608.5Q482 507 482 350ZM382 350Q382 492 352.5 589.5Q323 687 254 687Q185 687 156 589.5Q127 492 127 350Q127 208 156 110.5Q185 13 254 13Q323 13 352.5 110.5Q382 208 382 350ZM321 871H402Q389 826 360.5 794Q332 762 293 734H290Q304 768 312.5 801Q321 834 321 871ZM221 871H302Q289 826 260.5 794Q232 762 193 734H190Q204 768 212.5 801Q221 834 221 871Z" glyph-name="Ohungarumlaut" horiz-adv-x="509" unicode="&#336;" /><glyph d="M482 350Q482 193 414 91.5Q346 -10 254 -10Q162 -10 94.5 91.5Q27 193 27 350Q27 507 94.5 608.5Q162 710 254 710Q346 710 414 608.5Q482 507 482 350ZM382 350Q382 492 352.5 589.5Q323 687 254 687Q185 687 156 589.5Q127 492 127 350Q127 208 156 110.5Q185 13 254 13Q323 13 352.5 110.5Q382 208 382 350ZM360 754H149V789H360Z" glyph-name="Omacron" horiz-adv-x="509" unicode="&#332;" /><glyph d="M127 350Q127 301 130 256Q133 211 140 173L363 556Q348 616 321.5 651.5Q295 687 254 687Q185 687 156 589.5Q127 492 127 350ZM254 13Q323 13 352.5 110.5Q382 208 382 350Q382 397 379 441Q376 485 369 522L147 139Q162 82 188 47.5Q214 13 254 13ZM254 -10Q213 -10 175.5 11.5Q138 33 108 72L55 -20L36 -7L94 92Q63 140 45 206Q27 272 27 350Q27 507 94.5 608.5Q162 710 254 710Q296 710 334 687.5Q372 665 403 625L454 713L473 700L417 604Q447 556 464.5 491Q482 426 482 350Q482 193 414 91.5Q346 -10 254 -10Z" glyph-name="Oslash" horiz-adv-x="509" unicode="&#216;" /><glyph d="M127 350Q127 301 130 256Q133 211 140 173L363 556Q348 616 321.5 651.5Q295 687 254 687Q185 687 156 589.5Q127 492 127 350ZM254 13Q323 13 352.5 110.5Q382 208 382 350Q382 397 379 441Q376 485 369 522L147 139Q162 82 188 47.5Q214 13 254 13ZM254 -10Q213 -10 175.5 11.5Q138 33 108 72L55 -20L36 -7L94 92Q63 140 45 206Q27 272 27 350Q27 507 94.5 608.5Q162 710 254 710Q296 710 334 687.5Q372 665 403 625L454 713L473 700L417 604Q447 556 464.5 491Q482 426 482 350Q482 193 414 91.5Q346 -10 254 -10ZM234 871H333Q320 826 282.5 791Q245 756 194 734H191Q213 770 222 802Q231 834 234 871Z" glyph-name="Oslashacute" horiz-adv-x="509" unicode="&#510;" /><glyph d="M482 350Q482 193 414 91.5Q346 -10 254 -10Q162 -10 94.5 91.5Q27 193 27 350Q27 507 94.5 608.5Q162 710 254 710Q346 710 414 608.5Q482 507 482 350ZM382 350Q382 492 352.5 589.5Q323 687 254 687Q185 687 156 589.5Q127 492 127 350Q127 208 156 110.5Q185 13 254 13Q323 13 352.5 110.5Q382 208 382 350ZM391 876Q380 812 358.5 777Q337 742 306 742Q280 742 247.5 776.5Q215 811 189 811Q164 811 150 789.5Q136 768 125 737H117Q128 802 149.5 837Q171 872 202 872Q229 872 261 838Q293 804 319 804Q344 804 358 824.5Q372 845 384 876Z" glyph-name="Otilde" horiz-adv-x="509" unicode="&#213;" /><glyph d="M214 291H156V114Q156 67 167.5 43.5Q179 20 229 2V0H15V2Q52 17 62.5 43Q73 69 73 118V582Q73 631 62.5 657Q52 683 15 698V700H214Q313 700 383 649Q453 598 453 495Q453 393 383 342Q313 291 214 291ZM156 315H196Q280 315 320 365Q360 415 360 495Q360 576 320 626Q280 676 196 676H156Z" glyph-name="P" horiz-adv-x="469" unicode="P" /><glyph d="M427 -78Q393 -78 370.5 -51.5Q348 -25 331 10Q313 0 293.5 -5.5Q274 -11 254 -11Q162 -11 94.5 90.5Q27 192 27 349Q27 506 94.5 607.5Q162 709 254 709Q346 709 414 607.5Q482 506 482 349Q482 250 453 170.5Q424 91 377 45Q390 27 406 15Q422 3 444 3Q463 3 477.5 14Q492 25 493 50H497Q510 -1 492 -39.5Q474 -78 427 -78ZM127 349Q127 268 136 199Q145 130 165 84Q161 123 183.5 150Q206 177 240 177Q280 177 304 151Q328 125 347 93Q366 139 374 205Q382 271 382 349Q382 491 352.5 588.5Q323 686 254 686Q185 686 156 588.5Q127 491 127 349ZM254 12Q273 12 288.5 19.5Q304 27 316 41Q298 81 278.5 112.5Q259 144 228 144Q203 144 185.5 120.5Q168 97 181 56Q194 35 212.5 23.5Q231 12 254 12Z" glyph-name="Q" horiz-adv-x="509" unicode="Q" /><glyph d="M156 676V353H186Q258 353 305.5 388.5Q353 424 353 517Q353 598 308.5 637Q264 676 186 676ZM15 700H202Q300 700 373 658.5Q446 617 446 516Q446 425 378 383Q310 341 234 338Q303 332 344 298Q385 264 397 209L414 125Q425 71 446.5 44.5Q468 18 514 2V0H373Q360 15 348 44Q336 73 329 108L313 195Q303 252 275.5 290.5Q248 329 182 329H156V118Q156 69 167 43Q178 17 214 2V0H15V2Q52 17 62.5 43Q73 69 73 118V582Q73 631 62.5 657Q52 683 15 698Z" glyph-name="R" horiz-adv-x="488" unicode="R" /><glyph d="M156 676V353H186Q258 353 305.5 388.5Q353 424 353 517Q353 598 308.5 637Q264 676 186 676ZM15 700H202Q300 700 373 658.5Q446 617 446 516Q446 425 378 383Q310 341 234 338Q303 332 344 298Q385 264 397 209L414 125Q425 71 446.5 44.5Q468 18 514 2V0H373Q360 15 348 44Q336 73 329 108L313 195Q303 252 275.5 290.5Q248 329 182 329H156V118Q156 69 167 43Q178 17 214 2V0H15V2Q52 17 62.5 43Q73 69 73 118V582Q73 631 62.5 657Q52 683 15 698ZM222 871H321Q308 826 270.5 791Q233 756 182 734H179Q201 770 210 802Q219 834 222 871Z" glyph-name="Racute" horiz-adv-x="488" unicode="&#340;" /><glyph d="M156 676V353H186Q258 353 305.5 388.5Q353 424 353 517Q353 598 308.5 637Q264 676 186 676ZM15 700H202Q300 700 373 658.5Q446 617 446 516Q446 425 378 383Q310 341 234 338Q303 332 344 298Q385 264 397 209L414 125Q425 71 446.5 44.5Q468 18 514 2V0H373Q360 15 348 44Q336 73 329 108L313 195Q303 252 275.5 290.5Q248 329 182 329H156V118Q156 69 167 43Q178 17 214 2V0H15V2Q52 17 62.5 43Q73 69 73 118V582Q73 631 62.5 657Q52 683 15 698ZM128 883Q159 879 192 866Q225 853 243 834Q259 853 292 866Q325 879 356 883H363Q320 850 291.5 815Q263 780 245 729H240Q222 780 193 815Q164 850 121 883Z" glyph-name="Rcaron" horiz-adv-x="488" unicode="&#344;" /><glyph d="M156 676V353H186Q258 353 305.5 388.5Q353 424 353 517Q353 598 308.5 637Q264 676 186 676ZM15 700H202Q300 700 373 658.5Q446 617 446 516Q446 425 378 383Q310 341 234 338Q303 332 344 298Q385 264 397 209L414 125Q425 71 446.5 44.5Q468 18 514 2V0H373Q360 15 348 44Q336 73 329 108L313 195Q303 252 275.5 290.5Q248 329 182 329H156V118Q156 69 167 43Q178 17 214 2V0H15V2Q52 17 62.5 43Q73 69 73 118V582Q73 631 62.5 657Q52 683 15 698ZM300 -126Q300 -164 270 -192Q240 -220 193 -222V-209Q231 -206 247.5 -186.5Q264 -167 267 -140Q260 -147 250.5 -150Q241 -153 231 -153Q211 -153 197.5 -139.5Q184 -126 184 -108Q184 -86 199 -72Q214 -58 237 -58Q265 -58 282.5 -75.5Q300 -93 300 -126Z" glyph-name="Rcommaaccent" horiz-adv-x="488" unicode="&#342;" /><glyph d="M210 687Q164 687 134.5 651Q105 615 105 562Q105 503 142 466Q179 429 227 398Q284 359 337 313Q390 267 390 181Q390 88 332.5 39Q275 -10 206 -10Q158 -10 129.5 5Q101 20 79 20Q64 20 54 12.5Q44 5 34 -10L22 232H24Q55 130 104.5 71.5Q154 13 205 13Q254 13 284.5 47.5Q315 82 315 142Q315 211 272 252Q229 293 178 327Q124 363 77 406.5Q30 450 30 527Q30 610 84 660Q138 710 209 710Q252 710 274.5 697.5Q297 685 317 685Q333 685 341 692Q349 699 356 710L367 489H365Q342 562 310.5 624.5Q279 687 210 687Z" glyph-name="S" horiz-adv-x="413" unicode="S" /><glyph d="M210 687Q164 687 134.5 651Q105 615 105 562Q105 503 142 466Q179 429 227 398Q284 359 337 313Q390 267 390 181Q390 88 332.5 39Q275 -10 206 -10Q158 -10 129.5 5Q101 20 79 20Q64 20 54 12.5Q44 5 34 -10L22 232H24Q55 130 104.5 71.5Q154 13 205 13Q254 13 284.5 47.5Q315 82 315 142Q315 211 272 252Q229 293 178 327Q124 363 77 406.5Q30 450 30 527Q30 610 84 660Q138 710 209 710Q252 710 274.5 697.5Q297 685 317 685Q333 685 341 692Q349 699 356 710L367 489H365Q342 562 310.5 624.5Q279 687 210 687ZM199 871H298Q285 826 247.5 791Q210 756 159 734H156Q178 770 187 802Q196 834 199 871Z" glyph-name="Sacute" horiz-adv-x="413" unicode="&#346;" /><glyph d="M210 687Q164 687 134.5 651Q105 615 105 562Q105 503 142 466Q179 429 227 398Q284 359 337 313Q390 267 390 181Q390 88 332.5 39Q275 -10 206 -10Q158 -10 129.5 5Q101 20 79 20Q64 20 54 12.5Q44 5 34 -10L22 232H24Q55 130 104.5 71.5Q154 13 205 13Q254 13 284.5 47.5Q315 82 315 142Q315 211 272 252Q229 293 178 327Q124 363 77 406.5Q30 450 30 527Q30 610 84 660Q138 710 209 710Q252 710 274.5 697.5Q297 685 317 685Q333 685 341 692Q349 699 356 710L367 489H365Q342 562 310.5 624.5Q279 687 210 687ZM105 883Q136 879 169 866Q202 853 220 834Q236 853 269 866Q302 879 333 883H340Q297 850 268.5 815Q240 780 222 729H217Q199 780 170 815Q141 850 98 883Z" glyph-name="Scaron" horiz-adv-x="413" unicode="&#352;" /><glyph d="M207 -223Q179 -223 159.5 -207Q140 -191 132 -169L137 -166Q148 -184 161 -190.5Q174 -197 186 -197Q206 -197 218 -182.5Q230 -168 230 -139Q230 -111 215.5 -95Q201 -79 174 -78L202 -10Q156 -9 128.5 5.5Q101 20 79 20Q64 20 54 12.5Q44 5 34 -10L22 232H24Q55 130 104.5 71.5Q154 13 205 13Q254 13 284.5 47.5Q315 82 315 142Q315 211 272 252Q229 293 178 327Q124 363 77 406.5Q30 450 30 527Q30 610 84 660Q138 710 209 710Q252 710 274.5 697.5Q297 685 317 685Q333 685 341 692Q349 699 356 710L367 489H365Q342 562 310.5 624.5Q279 687 210 687Q164 687 134.5 651Q105 615 105 562Q105 503 142 466Q179 429 227 398Q284 359 337 313Q390 267 390 181Q390 93 337.5 44Q285 -5 220 -9L197 -65Q231 -66 259.5 -84.5Q288 -103 288 -141Q288 -180 264 -201.5Q240 -223 207 -223Z" glyph-name="Scedilla" horiz-adv-x="413" unicode="&#350;" /><glyph d="M210 687Q164 687 134.5 651Q105 615 105 562Q105 503 142 466Q179 429 227 398Q284 359 337 313Q390 267 390 181Q390 88 332.5 39Q275 -10 206 -10Q158 -10 129.5 5Q101 20 79 20Q64 20 54 12.5Q44 5 34 -10L22 232H24Q55 130 104.5 71.5Q154 13 205 13Q254 13 284.5 47.5Q315 82 315 142Q315 211 272 252Q229 293 178 327Q124 363 77 406.5Q30 450 30 527Q30 610 84 660Q138 710 209 710Q252 710 274.5 697.5Q297 685 317 685Q333 685 341 692Q349 699 356 710L367 489H365Q342 562 310.5 624.5Q279 687 210 687ZM333 729Q302 733 269 746Q236 759 220 778Q202 759 169 746Q136 733 105 729H98Q141 762 170 797Q199 832 217 883H222Q240 832 268.5 797Q297 762 340 729Z" glyph-name="Scircumflex" horiz-adv-x="413" unicode="&#348;" /><glyph d="M210 687Q164 687 134.5 651Q105 615 105 562Q105 503 142 466Q179 429 227 398Q284 359 337 313Q390 267 390 181Q390 88 332.5 39Q275 -10 206 -10Q158 -10 129.5 5Q101 20 79 20Q64 20 54 12.5Q44 5 34 -10L22 232H24Q55 130 104.5 71.5Q154 13 205 13Q254 13 284.5 47.5Q315 82 315 142Q315 211 272 252Q229 293 178 327Q124 363 77 406.5Q30 450 30 527Q30 610 84 660Q138 710 209 710Q252 710 274.5 697.5Q297 685 317 685Q333 685 341 692Q349 699 356 710L367 489H365Q342 562 310.5 624.5Q279 687 210 687ZM277 -126Q277 -164 247 -192Q217 -220 170 -222V-209Q208 -206 224.5 -186.5Q241 -167 244 -140Q237 -147 227.5 -150Q218 -153 208 -153Q188 -153 174.5 -139.5Q161 -126 161 -108Q161 -86 176 -72Q191 -58 214 -58Q242 -58 259.5 -75.5Q277 -93 277 -126Z" glyph-name="Scommaaccent" horiz-adv-x="413" unicode="&#536;" /><glyph d="M75 700H446Q459 700 472 701.5Q485 703 493 707L506 500H504Q467 596 432.5 638.5Q398 681 314 681H302V110Q302 61 315 38.5Q328 16 365 2V0H157V2Q193 16 206 38.5Q219 61 219 110V681H208Q123 681 88.5 638.5Q54 596 17 500H15L29 707Q37 703 49.5 701.5Q62 700 75 700Z" glyph-name="T" horiz-adv-x="521" unicode="T" /><glyph d="M365 2V0H157V2Q193 16 206 38.5Q219 61 219 110V345H143V369H219V681H208Q123 681 88.5 638.5Q54 596 17 500H15L29 707Q37 703 49.5 701.5Q62 700 75 700H446Q459 700 472 701.5Q485 703 493 707L506 500H504Q467 596 432.5 638.5Q398 681 314 681H302V369H378V345H302V110Q302 61 315 38.5Q328 16 365 2Z" glyph-name="Tbar" horiz-adv-x="521" unicode="&#358;" /><glyph d="M75 700H446Q459 700 472 701.5Q485 703 493 707L506 500H504Q467 596 432.5 638.5Q398 681 314 681H302V110Q302 61 315 38.5Q328 16 365 2V0H157V2Q193 16 206 38.5Q219 61 219 110V681H208Q123 681 88.5 638.5Q54 596 17 500H15L29 707Q37 703 49.5 701.5Q62 700 75 700ZM146 883Q177 879 210 866Q243 853 261 834Q277 853 310 866Q343 879 374 883H381Q338 850 309.5 815Q281 780 263 729H258Q240 780 211 815Q182 850 139 883Z" glyph-name="Tcaron" horiz-adv-x="521" unicode="&#356;" /><glyph d="M251 -223Q223 -223 203.5 -207Q184 -191 176 -169L181 -166Q192 -184 205 -190.5Q218 -197 230 -197Q250 -197 262 -182.5Q274 -168 274 -139Q274 -111 259.5 -95Q245 -79 218 -78L250 0H157V2Q193 16 206 38.5Q219 61 219 110V681H208Q123 681 88.5 638.5Q54 596 17 500H15L29 707Q37 703 49.5 701.5Q62 700 75 700H446Q459 700 472 701.5Q485 703 493 707L506 500H504Q467 596 432.5 638.5Q398 681 314 681H302V110Q302 61 315 38.5Q328 16 365 2V0H268L241 -65Q275 -66 303.5 -84.5Q332 -103 332 -141Q332 -180 308 -201.5Q284 -223 251 -223Z" glyph-name="Tcommaaccent" horiz-adv-x="521" unicode="&#354;" /><glyph d="M156 582V565H214Q314 565 383.5 514Q453 463 453 360Q453 258 383 207Q313 156 214 156H156V114Q156 67 167.5 43.5Q179 20 229 2V0H15V2Q52 17 62.5 43Q73 69 73 118V582Q73 631 62.5 657Q52 683 15 698V700H214V698Q178 683 167 657Q156 631 156 582ZM156 180H196Q280 180 320 230Q360 280 360 360Q360 441 320 491Q280 541 196 541H156Z" glyph-name="Thorn" horiz-adv-x="469" unicode="&#222;" /><glyph d="M432 567V199Q432 115 387 52.5Q342 -10 252 -10Q155 -10 108 46.5Q61 103 61 202V582Q61 631 50.5 657Q40 683 3 698V700H202V698Q165 683 154.5 657Q144 631 144 582V209Q144 135 170.5 83.5Q197 32 272 32Q335 32 370 79.5Q405 127 405 202V570Q405 625 385 654.5Q365 684 329 698V700H509V698Q472 683 452 653.5Q432 624 432 567Z" glyph-name="U" horiz-adv-x="493" unicode="U" /><glyph d="M432 567V199Q432 115 387 52.5Q342 -10 252 -10Q155 -10 108 46.5Q61 103 61 202V582Q61 631 50.5 657Q40 683 3 698V700H202V698Q165 683 154.5 657Q144 631 144 582V209Q144 135 170.5 83.5Q197 32 272 32Q335 32 370 79.5Q405 127 405 202V570Q405 625 385 654.5Q365 684 329 698V700H509V698Q472 683 452 653.5Q432 624 432 567ZM236 871H335Q322 826 284.5 791Q247 756 196 734H193Q215 770 224 802Q233 834 236 871Z" glyph-name="Uacute" horiz-adv-x="493" unicode="&#218;" /><glyph d="M432 567V199Q432 115 387 52.5Q342 -10 252 -10Q155 -10 108 46.5Q61 103 61 202V582Q61 631 50.5 657Q40 683 3 698V700H202V698Q165 683 154.5 657Q144 631 144 582V209Q144 135 170.5 83.5Q197 32 272 32Q335 32 370 79.5Q405 127 405 202V570Q405 625 385 654.5Q365 684 329 698V700H509V698Q472 683 452 653.5Q432 624 432 567ZM364 865Q357 793 330 763.5Q303 734 257 734Q211 734 183.5 763.5Q156 793 149 865H155Q160 831 187.5 811.5Q215 792 257 792Q298 792 325.5 811.5Q353 831 358 865Z" glyph-name="Ubreve" horiz-adv-x="493" unicode="&#364;" /><glyph d="M432 567V199Q432 115 387 52.5Q342 -10 252 -10Q155 -10 108 46.5Q61 103 61 202V582Q61 631 50.5 657Q40 683 3 698V700H202V698Q165 683 154.5 657Q144 631 144 582V209Q144 135 170.5 83.5Q197 32 272 32Q335 32 370 79.5Q405 127 405 202V570Q405 625 385 654.5Q365 684 329 698V700H509V698Q472 683 452 653.5Q432 624 432 567ZM370 729Q339 733 306 746Q273 759 257 778Q239 759 206 746Q173 733 142 729H135Q178 762 207 797Q236 832 254 883H259Q277 832 305.5 797Q334 762 377 729Z" glyph-name="Ucircumflex" horiz-adv-x="493" unicode="&#219;" /><glyph d="M432 567V199Q432 115 387 52.5Q342 -10 252 -10Q155 -10 108 46.5Q61 103 61 202V582Q61 631 50.5 657Q40 683 3 698V700H202V698Q165 683 154.5 657Q144 631 144 582V209Q144 135 170.5 83.5Q197 32 272 32Q335 32 370 79.5Q405 127 405 202V570Q405 625 385 654.5Q365 684 329 698V700H509V698Q472 683 452 653.5Q432 624 432 567ZM318 741Q295 741 281 757Q267 773 267 793Q267 812 281 828Q295 844 318 844Q338 844 353.5 828Q369 812 369 793Q369 773 353.5 757Q338 741 318 741ZM194 741Q173 741 158 757Q143 773 143 793Q143 812 158 828Q173 844 194 844Q216 844 230.5 828Q245 812 245 793Q245 773 230.5 757Q216 741 194 741Z" glyph-name="Udieresis" horiz-adv-x="493" unicode="&#220;" /><glyph d="M432 567V199Q432 115 387 52.5Q342 -10 252 -10Q155 -10 108 46.5Q61 103 61 202V582Q61 631 50.5 657Q40 683 3 698V700H202V698Q165 683 154.5 657Q144 631 144 582V209Q144 135 170.5 83.5Q197 32 272 32Q335 32 370 79.5Q405 127 405 202V570Q405 625 385 654.5Q365 684 329 698V700H509V698Q472 683 452 653.5Q432 624 432 567ZM278 871Q281 834 290 802Q299 770 321 734H318Q267 756 229.5 791Q192 826 179 871Z" glyph-name="Ugrave" horiz-adv-x="493" unicode="&#217;" /><glyph d="M432 567V199Q432 115 387 52.5Q342 -10 252 -10Q155 -10 108 46.5Q61 103 61 202V582Q61 631 50.5 657Q40 683 3 698V700H202V698Q165 683 154.5 657Q144 631 144 582V209Q144 135 170.5 83.5Q197 32 272 32Q335 32 370 79.5Q405 127 405 202V570Q405 625 385 654.5Q365 684 329 698V700H509V698Q472 683 452 653.5Q432 624 432 567ZM323 871H404Q391 826 362.5 794Q334 762 295 734H292Q306 768 314.5 801Q323 834 323 871ZM223 871H304Q291 826 262.5 794Q234 762 195 734H192Q206 768 214.5 801Q223 834 223 871Z" glyph-name="Uhungarumlaut" horiz-adv-x="493" unicode="&#368;" /><glyph d="M432 567V199Q432 115 387 52.5Q342 -10 252 -10Q155 -10 108 46.5Q61 103 61 202V582Q61 631 50.5 657Q40 683 3 698V700H202V698Q165 683 154.5 657Q144 631 144 582V209Q144 135 170.5 83.5Q197 32 272 32Q335 32 370 79.5Q405 127 405 202V570Q405 625 385 654.5Q365 684 329 698V700H509V698Q472 683 452 653.5Q432 624 432 567ZM362 754H151V789H362Z" glyph-name="Umacron" horiz-adv-x="493" unicode="&#362;" /><glyph d="M273 -235Q242 -235 220.5 -214.5Q199 -194 199 -159Q199 -112 233 -72.5Q267 -33 308 -2Q295 -6 281 -8Q267 -10 252 -10Q155 -10 108 46.5Q61 103 61 202V582Q61 631 50.5 657Q40 683 3 698V700H202V698Q165 683 154.5 657Q144 631 144 582V209Q144 135 170.5 83.5Q197 32 272 32Q335 32 370 79.5Q405 127 405 202V570Q405 625 385 654.5Q365 684 329 698V700H509V698Q472 683 452 653.5Q432 624 432 567V199Q432 138 408.5 88.5Q385 39 341 8Q297 -23 275 -60.5Q253 -98 253 -135Q253 -164 265.5 -177.5Q278 -191 299 -191Q318 -191 331 -177.5Q344 -164 356 -137L358 -139Q350 -176 330 -205.5Q310 -235 273 -235Z" glyph-name="Uogonek" horiz-adv-x="493" unicode="&#370;" /><glyph d="M432 567V199Q432 115 387 52.5Q342 -10 252 -10Q155 -10 108 46.5Q61 103 61 202V582Q61 631 50.5 657Q40 683 3 698V700H202V698Q165 683 154.5 657Q144 631 144 582V209Q144 135 170.5 83.5Q197 32 272 32Q335 32 370 79.5Q405 127 405 202V570Q405 625 385 654.5Q365 684 329 698V700H509V698Q472 683 452 653.5Q432 624 432 567ZM256 878Q288 878 312 854.5Q336 831 336 800Q336 769 312 745.5Q288 722 256 722Q224 722 200 745.5Q176 769 176 800Q176 831 200 854.5Q224 878 256 878ZM256 742Q280 742 297 759Q314 776 314 800Q314 824 297 841Q280 858 256 858Q232 858 215 841Q198 824 198 800Q198 776 215 759Q232 742 256 742Z" glyph-name="Uring" horiz-adv-x="493" unicode="&#366;" /><glyph d="M432 567V199Q432 115 387 52.5Q342 -10 252 -10Q155 -10 108 46.5Q61 103 61 202V582Q61 631 50.5 657Q40 683 3 698V700H202V698Q165 683 154.5 657Q144 631 144 582V209Q144 135 170.5 83.5Q197 32 272 32Q335 32 370 79.5Q405 127 405 202V570Q405 625 385 654.5Q365 684 329 698V700H509V698Q472 683 452 653.5Q432 624 432 567ZM393 876Q382 812 360.5 777Q339 742 308 742Q282 742 249.5 776.5Q217 811 191 811Q166 811 152 789.5Q138 768 127 737H119Q130 802 151.5 837Q173 872 204 872Q231 872 263 838Q295 804 321 804Q346 804 360 824.5Q374 845 386 876Z" glyph-name="Utilde" horiz-adv-x="493" unicode="&#360;" /><glyph d="M402 561Q406 575 408.5 588.5Q411 602 411 615Q411 643 399 665Q387 687 361 698V700H516V698Q485 682 466 649Q447 616 431 564L263 -10H260L71 588Q54 638 42.5 660Q31 682 0 698V700H187V698Q165 689 155 677Q145 665 145 646Q145 634 148.5 619Q152 604 158 585L288 168Z" glyph-name="V" horiz-adv-x="516" unicode="V" /><glyph d="M452 -10 347 438 237 -10H234L67 588Q53 639 42 660.5Q31 682 0 698V700H185V698Q163 689 153.5 676.5Q144 664 144 646Q144 634 147.5 619Q151 604 156 585L262 197L335 491L312 588Q300 639 287.5 660.5Q275 682 245 698V700H426V698Q404 689 395.5 676.5Q387 664 387 645Q387 633 390 618.5Q393 604 397 585L480 191L576 561Q580 575 582 589Q584 603 584 616Q584 644 572.5 665.5Q561 687 536 698V700H690V698Q659 682 639 650Q619 618 605 564L455 -10Z" glyph-name="W" horiz-adv-x="690" unicode="W" /><glyph d="M452 -10 347 438 237 -10H234L67 588Q53 639 42 660.5Q31 682 0 698V700H185V698Q163 689 153.5 676.5Q144 664 144 646Q144 634 147.5 619Q151 604 156 585L262 197L335 491L312 588Q300 639 287.5 660.5Q275 682 245 698V700H426V698Q404 689 395.5 676.5Q387 664 387 645Q387 633 390 618.5Q393 604 397 585L480 191L576 561Q580 575 582 589Q584 603 584 616Q584 644 572.5 665.5Q561 687 536 698V700H690V698Q659 682 639 650Q619 618 605 564L455 -10ZM325 871H424Q411 826 373.5 791Q336 756 285 734H282Q304 770 313 802Q322 834 325 871Z" glyph-name="Wacute" horiz-adv-x="690" unicode="&#7810;" /><glyph d="M452 -10 347 438 237 -10H234L67 588Q53 639 42 660.5Q31 682 0 698V700H185V698Q163 689 153.5 676.5Q144 664 144 646Q144 634 147.5 619Q151 604 156 585L262 197L335 491L312 588Q300 639 287.5 660.5Q275 682 245 698V700H426V698Q404 689 395.5 676.5Q387 664 387 645Q387 633 390 618.5Q393 604 397 585L480 191L576 561Q580 575 582 589Q584 603 584 616Q584 644 572.5 665.5Q561 687 536 698V700H690V698Q659 682 639 650Q619 618 605 564L455 -10ZM459 729Q428 733 395 746Q362 759 346 778Q328 759 295 746Q262 733 231 729H224Q267 762 296 797Q325 832 343 883H348Q366 832 394.5 797Q423 762 466 729Z" glyph-name="Wcircumflex" horiz-adv-x="690" unicode="&#372;" /><glyph d="M452 -10 347 438 237 -10H234L67 588Q53 639 42 660.5Q31 682 0 698V700H185V698Q163 689 153.5 676.5Q144 664 144 646Q144 634 147.5 619Q151 604 156 585L262 197L335 491L312 588Q300 639 287.5 660.5Q275 682 245 698V700H426V698Q404 689 395.5 676.5Q387 664 387 645Q387 633 390 618.5Q393 604 397 585L480 191L576 561Q580 575 582 589Q584 603 584 616Q584 644 572.5 665.5Q561 687 536 698V700H690V698Q659 682 639 650Q619 618 605 564L455 -10ZM407 741Q384 741 370 757Q356 773 356 793Q356 812 370 828Q384 844 407 844Q427 844 442.5 828Q458 812 458 793Q458 773 442.5 757Q427 741 407 741ZM283 741Q262 741 247 757Q232 773 232 793Q232 812 247 828Q262 844 283 844Q305 844 319.5 828Q334 812 334 793Q334 773 319.5 757Q305 741 283 741Z" glyph-name="Wdieresis" horiz-adv-x="690" unicode="&#7812;" /><glyph d="M452 -10 347 438 237 -10H234L67 588Q53 639 42 660.5Q31 682 0 698V700H185V698Q163 689 153.5 676.5Q144 664 144 646Q144 634 147.5 619Q151 604 156 585L262 197L335 491L312 588Q300 639 287.5 660.5Q275 682 245 698V700H426V698Q404 689 395.5 676.5Q387 664 387 645Q387 633 390 618.5Q393 604 397 585L480 191L576 561Q580 575 582 589Q584 603 584 616Q584 644 572.5 665.5Q561 687 536 698V700H690V698Q659 682 639 650Q619 618 605 564L455 -10ZM367 871Q370 834 379 802Q388 770 410 734H407Q356 756 318.5 791Q281 826 268 871Z" glyph-name="Wgrave" horiz-adv-x="690" unicode="&#7808;" /><glyph d="M154 2V0H0V2Q35 18 63.5 45.5Q92 73 114 116L224 345L105 588Q86 628 66 656Q46 684 21 698V700H194V698Q182 689 177 678Q172 667 172 655Q172 642 177 627Q182 612 189 598L275 422L349 580Q357 599 362 615Q367 631 367 644Q367 660 360 673.5Q353 687 337 698V700H487V698Q451 682 425.5 656Q400 630 378 584L288 396L427 112Q448 71 467 43Q486 15 511 2V0H338V2Q350 11 355 22Q360 33 360 45Q360 58 355 73Q350 88 343 102L237 319L143 120Q135 102 130 86Q125 70 125 56Q125 40 132 26.5Q139 13 154 2Z" glyph-name="X" horiz-adv-x="511" unicode="X" /><glyph d="M275 324 390 582Q397 597 400.5 611Q404 625 404 636Q404 658 392.5 673Q381 688 359 698V700H500V698Q472 681 457 659Q442 637 427 604L288 291V110Q288 61 301 38.5Q314 16 350 2V0H145V2Q181 16 194 38.5Q207 61 207 110V291L68 604Q53 637 40.5 658Q28 679 0 698V700H178V698Q163 690 153.5 680Q144 670 144 651Q144 641 147.5 628Q151 615 158 598Z" glyph-name="Y" horiz-adv-x="500" unicode="Y" /><glyph d="M275 324 390 582Q397 597 400.5 611Q404 625 404 636Q404 658 392.5 673Q381 688 359 698V700H500V698Q472 681 457 659Q442 637 427 604L288 291V110Q288 61 301 38.5Q314 16 350 2V0H145V2Q181 16 194 38.5Q207 61 207 110V291L68 604Q53 637 40.5 658Q28 679 0 698V700H178V698Q163 690 153.5 680Q144 670 144 651Q144 641 147.5 628Q151 615 158 598ZM251 871H350Q337 826 299.5 791Q262 756 211 734H208Q230 770 239 802Q248 834 251 871Z" glyph-name="Yacute" horiz-adv-x="500" unicode="&#221;" /><glyph d="M275 324 390 582Q397 597 400.5 611Q404 625 404 636Q404 658 392.5 673Q381 688 359 698V700H500V698Q472 681 457 659Q442 637 427 604L288 291V110Q288 61 301 38.5Q314 16 350 2V0H145V2Q181 16 194 38.5Q207 61 207 110V291L68 604Q53 637 40.5 658Q28 679 0 698V700H178V698Q163 690 153.5 680Q144 670 144 651Q144 641 147.5 628Q151 615 158 598ZM385 729Q354 733 321 746Q288 759 272 778Q254 759 221 746Q188 733 157 729H150Q193 762 222 797Q251 832 269 883H274Q292 832 320.5 797Q349 762 392 729Z" glyph-name="Ycircumflex" horiz-adv-x="500" unicode="&#374;" /><glyph d="M275 324 390 582Q397 597 400.5 611Q404 625 404 636Q404 658 392.5 673Q381 688 359 698V700H500V698Q472 681 457 659Q442 637 427 604L288 291V110Q288 61 301 38.5Q314 16 350 2V0H145V2Q181 16 194 38.5Q207 61 207 110V291L68 604Q53 637 40.5 658Q28 679 0 698V700H178V698Q163 690 153.5 680Q144 670 144 651Q144 641 147.5 628Q151 615 158 598ZM333 741Q310 741 296 757Q282 773 282 793Q282 812 296 828Q310 844 333 844Q353 844 368.5 828Q384 812 384 793Q384 773 368.5 757Q353 741 333 741ZM209 741Q188 741 173 757Q158 773 158 793Q158 812 173 828Q188 844 209 844Q231 844 245.5 828Q260 812 260 793Q260 773 245.5 757Q231 741 209 741Z" glyph-name="Ydieresis" horiz-adv-x="500" unicode="&#376;" /><glyph d="M275 324 390 582Q397 597 400.5 611Q404 625 404 636Q404 658 392.5 673Q381 688 359 698V700H500V698Q472 681 457 659Q442 637 427 604L288 291V110Q288 61 301 38.5Q314 16 350 2V0H145V2Q181 16 194 38.5Q207 61 207 110V291L68 604Q53 637 40.5 658Q28 679 0 698V700H178V698Q163 690 153.5 680Q144 670 144 651Q144 641 147.5 628Q151 615 158 598ZM293 871Q296 834 305 802Q314 770 336 734H333Q282 756 244.5 791Q207 826 194 871Z" glyph-name="Ygrave" horiz-adv-x="500" unicode="&#7922;" /><glyph d="M411 0H14V2L330 679H227Q143 679 103.5 632.5Q64 586 31 516H29L50 707Q58 703 71 701.5Q84 700 96 700H430V698L117 21H224Q307 21 347 61.5Q387 102 432 202H434Z" glyph-name="Z" horiz-adv-x="461" unicode="Z" /><glyph d="M411 0H14V2L330 679H227Q143 679 103.5 632.5Q64 586 31 516H29L50 707Q58 703 71 701.5Q84 700 96 700H430V698L117 21H224Q307 21 347 61.5Q387 102 432 202H434ZM226 871H325Q312 826 274.5 791Q237 756 186 734H183Q205 770 214 802Q223 834 226 871Z" glyph-name="Zacute" horiz-adv-x="461" unicode="&#377;" /><glyph d="M411 0H14V2L330 679H227Q143 679 103.5 632.5Q64 586 31 516H29L50 707Q58 703 71 701.5Q84 700 96 700H430V698L117 21H224Q307 21 347 61.5Q387 102 432 202H434ZM132 883Q163 879 196 866Q229 853 247 834Q263 853 296 866Q329 879 360 883H367Q324 850 295.5 815Q267 780 249 729H244Q226 780 197 815Q168 850 125 883Z" glyph-name="Zcaron" horiz-adv-x="461" unicode="&#381;" /><glyph d="M411 0H14V2L330 679H227Q143 679 103.5 632.5Q64 586 31 516H29L50 707Q58 703 71 701.5Q84 700 96 700H430V698L117 21H224Q307 21 347 61.5Q387 102 432 202H434ZM189 804Q189 827 206 844Q223 861 246 861Q270 861 287 844Q304 827 304 804Q304 781 287 764Q270 747 246 747Q223 747 206 764Q189 781 189 804Z" glyph-name="Zdotaccent" horiz-adv-x="461" unicode="&#379;" /><glyph d="M393 46V43Q385 23 368 7.5Q351 -8 319 -8Q287 -8 266.5 14Q246 36 244 76L243 97Q237 51 206.5 22Q176 -7 133 -7Q90 -7 58 22Q26 51 26 106Q26 178 83 212Q140 246 204 266L242 278V396Q242 432 224 454.5Q206 477 173 477Q145 477 128.5 458Q112 439 112 411Q112 383 124 367Q136 351 159 351Q162 351 165.5 352Q169 353 172 354Q168 334 151.5 323Q135 312 116 312Q87 312 67.5 330.5Q48 349 48 385Q48 436 89.5 466Q131 496 185 496Q254 496 290.5 463.5Q327 431 327 358Q327 274 326 202Q325 130 325 86Q325 57 337 45.5Q349 34 365 34Q375 34 382 37.5Q389 41 393 46ZM242 258 212 248Q169 234 137.5 208Q106 182 106 126Q106 92 122.5 71Q139 50 168 50Q198 50 219 74.5Q240 99 241 156Z" glyph-name="a" horiz-adv-x="385" unicode="a" /><glyph d="M393 46V43Q385 23 368 7.5Q351 -8 319 -8Q287 -8 266.5 14Q246 36 244 76L243 97Q237 51 206.5 22Q176 -7 133 -7Q90 -7 58 22Q26 51 26 106Q26 178 83 212Q140 246 204 266L242 278V396Q242 432 224 454.5Q206 477 173 477Q145 477 128.5 458Q112 439 112 411Q112 383 124 367Q136 351 159 351Q162 351 165.5 352Q169 353 172 354Q168 334 151.5 323Q135 312 116 312Q87 312 67.5 330.5Q48 349 48 385Q48 436 89.5 466Q131 496 185 496Q254 496 290.5 463.5Q327 431 327 358Q327 274 326 202Q325 130 325 86Q325 57 337 45.5Q349 34 365 34Q375 34 382 37.5Q389 41 393 46ZM242 258 212 248Q169 234 137.5 208Q106 182 106 126Q106 92 122.5 71Q139 50 168 50Q198 50 219 74.5Q240 99 241 156ZM172 721H254Q245 666 216.5 623.5Q188 581 143 544H140Q162 583 167 633.5Q172 684 172 721Z" glyph-name="aacute" horiz-adv-x="385" unicode="&#225;" /><glyph d="M393 46V43Q385 23 368 7.5Q351 -8 319 -8Q287 -8 266.5 14Q246 36 244 76L243 97Q237 51 206.5 22Q176 -7 133 -7Q90 -7 58 22Q26 51 26 106Q26 178 83 212Q140 246 204 266L242 278V396Q242 432 224 454.5Q206 477 173 477Q145 477 128.5 458Q112 439 112 411Q112 383 124 367Q136 351 159 351Q162 351 165.5 352Q169 353 172 354Q168 334 151.5 323Q135 312 116 312Q87 312 67.5 330.5Q48 349 48 385Q48 436 89.5 466Q131 496 185 496Q254 496 290.5 463.5Q327 431 327 358Q327 274 326 202Q325 130 325 86Q325 57 337 45.5Q349 34 365 34Q375 34 382 37.5Q389 41 393 46ZM242 258 212 248Q169 234 137.5 208Q106 182 106 126Q106 92 122.5 71Q139 50 168 50Q198 50 219 74.5Q240 99 241 156ZM288 713Q288 634 261.5 592.5Q235 551 195 551Q155 551 128.5 592.5Q102 634 102 713H109Q113 659 139.5 636Q166 613 195 613Q224 613 250.5 636Q277 659 281 713Z" glyph-name="abreve" horiz-adv-x="385" unicode="&#259;" /><glyph d="M393 46V43Q385 23 368 7.5Q351 -8 319 -8Q287 -8 266.5 14Q246 36 244 76L243 97Q237 51 206.5 22Q176 -7 133 -7Q90 -7 58 22Q26 51 26 106Q26 178 83 212Q140 246 204 266L242 278V396Q242 432 224 454.5Q206 477 173 477Q145 477 128.5 458Q112 439 112 411Q112 383 124 367Q136 351 159 351Q162 351 165.5 352Q169 353 172 354Q168 334 151.5 323Q135 312 116 312Q87 312 67.5 330.5Q48 349 48 385Q48 436 89.5 466Q131 496 185 496Q254 496 290.5 463.5Q327 431 327 358Q327 274 326 202Q325 130 325 86Q325 57 337 45.5Q349 34 365 34Q375 34 382 37.5Q389 41 393 46ZM242 258 212 248Q169 234 137.5 208Q106 182 106 126Q106 92 122.5 71Q139 50 168 50Q198 50 219 74.5Q240 99 241 156ZM299 543Q271 556 241 580Q211 604 196 627Q180 604 150 580Q120 556 92 543H86Q121 583 149.5 633.5Q178 684 194 744H198Q214 684 242 633.5Q270 583 305 543Z" glyph-name="acircumflex" horiz-adv-x="385" unicode="&#226;" /><glyph d="M217 721H299Q290 666 261.5 623.5Q233 581 188 544H185Q207 583 212 633.5Q217 684 217 721Z" glyph-name="acute" horiz-adv-x="500" unicode="&#180;" /><glyph d="M222 871H321Q308 826 270.5 791Q233 756 182 734H179Q201 770 210 802Q219 834 222 871Z" glyph-name="acute.cap" horiz-adv-x="500" /><glyph d="M393 46V43Q385 23 368 7.5Q351 -8 319 -8Q287 -8 266.5 14Q246 36 244 76L243 97Q237 51 206.5 22Q176 -7 133 -7Q90 -7 58 22Q26 51 26 106Q26 178 83 212Q140 246 204 266L242 278V396Q242 432 224 454.5Q206 477 173 477Q145 477 128.5 458Q112 439 112 411Q112 383 124 367Q136 351 159 351Q162 351 165.5 352Q169 353 172 354Q168 334 151.5 323Q135 312 116 312Q87 312 67.5 330.5Q48 349 48 385Q48 436 89.5 466Q131 496 185 496Q254 496 290.5 463.5Q327 431 327 358Q327 274 326 202Q325 130 325 86Q325 57 337 45.5Q349 34 365 34Q375 34 382 37.5Q389 41 393 46ZM242 258 212 248Q169 234 137.5 208Q106 182 106 126Q106 92 122.5 71Q139 50 168 50Q198 50 219 74.5Q240 99 241 156ZM257 581Q234 581 220 597Q206 613 206 633Q206 652 220 668Q234 684 257 684Q277 684 292.5 668Q308 652 308 633Q308 613 292.5 597Q277 581 257 581ZM133 581Q112 581 97 597Q82 613 82 633Q82 652 97 668Q112 684 133 684Q155 684 169.5 668Q184 652 184 633Q184 613 169.5 597Q155 581 133 581Z" glyph-name="adieresis" horiz-adv-x="385" unicode="&#228;" /><glyph d="M550 155Q540 76 504 33Q468 -10 405 -10Q356 -10 312.5 21Q269 52 251 112Q247 61 211 27Q175 -7 133 -7Q90 -7 58 22Q26 51 26 106Q26 178 83 212Q140 246 204 266L242 278V395Q242 431 224 454Q206 477 172 477Q144 477 128 458Q112 439 112 411Q112 383 124 367Q136 351 159 351Q162 351 165.5 352Q169 353 172 354Q168 334 151.5 323Q135 312 116 312Q87 312 67.5 330.5Q48 349 48 385Q48 436 89.5 466Q131 496 185 496Q229 496 254.5 476.5Q280 457 292 424Q312 455 339 475Q366 495 403 495Q480 495 516 429.5Q552 364 552 261H318Q318 163 345.5 99Q373 35 434 35Q470 35 498.5 64.5Q527 94 543 156ZM319 284H469Q469 359 459 417Q449 475 403 475Q368 475 345 419Q322 363 319 284ZM242 256 212 246Q169 232 137.5 207Q106 182 106 126Q106 92 122.5 71Q139 50 168 50Q198 50 219 74.5Q240 99 241 156Z" glyph-name="ae" horiz-adv-x="572" unicode="&#230;" /><glyph d="M550 155Q540 76 504 33Q468 -10 405 -10Q356 -10 312.5 21Q269 52 251 112Q247 61 211 27Q175 -7 133 -7Q90 -7 58 22Q26 51 26 106Q26 178 83 212Q140 246 204 266L242 278V395Q242 431 224 454Q206 477 172 477Q144 477 128 458Q112 439 112 411Q112 383 124 367Q136 351 159 351Q162 351 165.5 352Q169 353 172 354Q168 334 151.5 323Q135 312 116 312Q87 312 67.5 330.5Q48 349 48 385Q48 436 89.5 466Q131 496 185 496Q229 496 254.5 476.5Q280 457 292 424Q312 455 339 475Q366 495 403 495Q480 495 516 429.5Q552 364 552 261H318Q318 163 345.5 99Q373 35 434 35Q470 35 498.5 64.5Q527 94 543 156ZM319 284H469Q469 359 459 417Q449 475 403 475Q368 475 345 419Q322 363 319 284ZM242 256 212 246Q169 232 137.5 207Q106 182 106 126Q106 92 122.5 71Q139 50 168 50Q198 50 219 74.5Q240 99 241 156ZM292 721H374Q365 666 336.5 623.5Q308 581 263 544H260Q282 583 287 633.5Q292 684 292 721Z" glyph-name="aeacute" horiz-adv-x="572" unicode="&#509;" /><glyph d="M393 46V43Q385 23 368 7.5Q351 -8 319 -8Q287 -8 266.5 14Q246 36 244 76L243 97Q237 51 206.5 22Q176 -7 133 -7Q90 -7 58 22Q26 51 26 106Q26 178 83 212Q140 246 204 266L242 278V396Q242 432 224 454.5Q206 477 173 477Q145 477 128.5 458Q112 439 112 411Q112 383 124 367Q136 351 159 351Q162 351 165.5 352Q169 353 172 354Q168 334 151.5 323Q135 312 116 312Q87 312 67.5 330.5Q48 349 48 385Q48 436 89.5 466Q131 496 185 496Q254 496 290.5 463.5Q327 431 327 358Q327 274 326 202Q325 130 325 86Q325 57 337 45.5Q349 34 365 34Q375 34 382 37.5Q389 41 393 46ZM242 258 212 248Q169 234 137.5 208Q106 182 106 126Q106 92 122.5 71Q139 50 168 50Q198 50 219 74.5Q240 99 241 156ZM212 721Q212 684 217 633.5Q222 583 244 544H241Q196 581 167.5 623.5Q139 666 130 721Z" glyph-name="agrave" horiz-adv-x="385" unicode="&#224;" /><glyph d="M393 46V43Q385 23 368 7.5Q351 -8 319 -8Q287 -8 266.5 14Q246 36 244 76L243 97Q237 51 206.5 22Q176 -7 133 -7Q90 -7 58 22Q26 51 26 106Q26 178 83 212Q140 246 204 266L242 278V396Q242 432 224 454.5Q206 477 173 477Q145 477 128.5 458Q112 439 112 411Q112 383 124 367Q136 351 159 351Q162 351 165.5 352Q169 353 172 354Q168 334 151.5 323Q135 312 116 312Q87 312 67.5 330.5Q48 349 48 385Q48 436 89.5 466Q131 496 185 496Q254 496 290.5 463.5Q327 431 327 358Q327 274 326 202Q325 130 325 86Q325 57 337 45.5Q349 34 365 34Q375 34 382 37.5Q389 41 393 46ZM242 258 212 248Q169 234 137.5 208Q106 182 106 126Q106 92 122.5 71Q139 50 168 50Q198 50 219 74.5Q240 99 241 156ZM301 579H90V614H301Z" glyph-name="amacron" horiz-adv-x="385" unicode="&#257;" /><glyph d="M201 429 218 399Q249 423 269 466.5Q289 510 289 567Q289 613 272.5 652Q256 691 217 691Q184 691 165 659Q146 627 146 584Q146 538 162.5 502Q179 466 201 429ZM216 29Q242 29 266.5 40Q291 51 312 71L151 348Q125 319 110.5 278.5Q96 238 96 188Q96 116 129.5 72.5Q163 29 216 29ZM353 0 324 50Q296 22 261.5 6Q227 -10 187 -10Q118 -10 65.5 35Q13 80 13 160Q13 229 48.5 277Q84 325 145 358L123 396Q105 426 90 463Q75 500 75 545Q75 619 117.5 664.5Q160 710 216 710Q288 710 323.5 665Q359 620 359 559Q359 492 315 450.5Q271 409 223 390L361 142Q375 173 383 210Q391 247 392 288Q393 325 380 346.5Q367 368 332 384V386H473V384Q442 371 433.5 347.5Q425 324 422 288Q418 242 405.5 199Q393 156 374 120L394 84Q412 53 430.5 34.5Q449 16 477 2V0Z" glyph-name="ampersand" horiz-adv-x="485" unicode="&amp;" /><glyph d="M304 -235Q273 -235 251.5 -214.5Q230 -194 230 -159Q230 -114 262.5 -76Q295 -38 335 -7Q331 -8 327 -8Q323 -8 319 -8Q287 -8 266.5 14Q246 36 244 76L243 97Q237 51 206.5 22Q176 -7 133 -7Q90 -7 58 22Q26 51 26 106Q26 178 83 212Q140 246 204 266L242 278V396Q242 432 224 454.5Q206 477 173 477Q145 477 128.5 458Q112 439 112 411Q112 383 124 367Q136 351 159 351Q162 351 165.5 352Q169 353 172 354Q168 334 151.5 323Q135 312 116 312Q87 312 67.5 330.5Q48 349 48 385Q48 436 89.5 466Q131 496 185 496Q254 496 290.5 463.5Q327 431 327 358Q327 274 326 202Q325 130 325 86Q325 57 337 45.5Q349 34 365 34Q375 34 382 37.5Q389 41 393 46V43Q375 8 329.5 -27.5Q284 -63 284 -135Q284 -164 296.5 -177.5Q309 -191 330 -191Q349 -191 362 -177.5Q375 -164 387 -137L389 -139Q381 -176 361 -205.5Q341 -235 304 -235ZM242 258 212 248Q169 234 137.5 208Q106 182 106 126Q106 92 122.5 71Q139 50 168 50Q198 50 219 74.5Q240 99 241 156Z" glyph-name="aogonek" horiz-adv-x="385" unicode="&#261;" /><glyph d="M45 328V360Q68 382 89 391.5Q110 401 129 401Q170 401 202 378.5Q234 356 272 356Q291 356 313.5 367Q336 378 359 402V371Q336 347 313.5 337.5Q291 328 272 328Q232 328 200 350.5Q168 373 129 373Q110 373 89 361.5Q68 350 45 328ZM45 241V273Q68 296 89 305.5Q110 315 129 315Q170 315 202 292.5Q234 270 272 270Q291 270 313.5 281Q336 292 359 316V284Q336 260 313.5 251Q291 242 272 242Q232 242 200 264.5Q168 287 129 287Q110 287 89 275.5Q68 264 45 241Z" glyph-name="approxequal" horiz-adv-x="404" unicode="&#8776;" /><glyph d="M393 46V43Q385 23 368 7.5Q351 -8 319 -8Q287 -8 266.5 14Q246 36 244 76L243 97Q237 51 206.5 22Q176 -7 133 -7Q90 -7 58 22Q26 51 26 106Q26 178 83 212Q140 246 204 266L242 278V396Q242 432 224 454.5Q206 477 173 477Q145 477 128.5 458Q112 439 112 411Q112 383 124 367Q136 351 159 351Q162 351 165.5 352Q169 353 172 354Q168 334 151.5 323Q135 312 116 312Q87 312 67.5 330.5Q48 349 48 385Q48 436 89.5 466Q131 496 185 496Q254 496 290.5 463.5Q327 431 327 358Q327 274 326 202Q325 130 325 86Q325 57 337 45.5Q349 34 365 34Q375 34 382 37.5Q389 41 393 46ZM242 258 212 248Q169 234 137.5 208Q106 182 106 126Q106 92 122.5 71Q139 50 168 50Q198 50 219 74.5Q240 99 241 156ZM195 708Q227 708 251 684.5Q275 661 275 630Q275 599 251 575.5Q227 552 195 552Q163 552 139 575.5Q115 599 115 630Q115 661 139 684.5Q163 708 195 708ZM195 572Q219 572 236 589Q253 606 253 630Q253 654 236 671Q219 688 195 688Q171 688 154 671Q137 654 137 630Q137 606 154 589Q171 572 195 572Z" glyph-name="aring" horiz-adv-x="385" unicode="&#229;" /><glyph d="M175 805H274Q261 760 223.5 725Q186 690 135 668H132Q154 704 163 736Q172 768 175 805ZM195 663Q227 663 251 641.5Q275 620 275 591Q275 562 251 540.5Q227 519 195 519Q163 519 139 540.5Q115 562 115 591Q115 620 139 641.5Q163 663 195 663ZM195 644Q171 644 154 628.5Q137 613 137 591Q137 569 154 554Q171 539 195 539Q219 539 236 554Q253 569 253 591Q253 613 236 628.5Q219 644 195 644ZM393 46V43Q385 23 368 7.5Q351 -8 319 -8Q287 -8 266.5 14Q246 36 244 76L243 97Q237 51 206.5 22Q176 -7 133 -7Q90 -7 58 22Q26 51 26 106Q26 178 83 212Q140 246 204 266L242 278V396Q242 432 224 454.5Q206 477 173 477Q145 477 128.5 458Q112 439 112 411Q112 383 124 367Q136 351 159 351Q162 351 165.5 352Q169 353 172 354Q168 334 151.5 323Q135 312 116 312Q87 312 67.5 330.5Q48 349 48 385Q48 436 89.5 466Q131 496 185 496Q254 496 290.5 463.5Q327 431 327 358Q327 274 326 202Q325 130 325 86Q325 57 337 45.5Q349 34 365 34Q375 34 382 37.5Q389 41 393 46ZM242 258 212 248Q169 234 137.5 208Q106 182 106 126Q106 92 122.5 71Q139 50 168 50Q198 50 219 74.5Q240 99 241 156Z" glyph-name="aringacute" horiz-adv-x="385" unicode="&#507;" /><glyph d="M171 710H175L305 412H273L173 641L73 412H40Z" glyph-name="asciicircum" horiz-adv-x="345" unicode="^" /><glyph d="M34 246H30Q43 306 68 335Q93 364 125 364Q159 364 190.5 338Q222 312 256 312Q280 312 301 326.5Q322 341 335 369H339Q325 309 300 280Q275 251 244 251Q210 251 178.5 276.5Q147 302 113 302Q88 302 67.5 288Q47 274 34 246Z" glyph-name="asciitilde" horiz-adv-x="369" unicode="~" /><glyph d="M147 749H233Q221 738 210 696Q199 654 197 614Q235 630 270.5 652.5Q306 675 313 691L340 609Q325 617 282.5 614.5Q240 612 201 602Q227 571 260 544Q293 517 310 513L240 463Q244 479 228 519Q212 559 190 593Q168 559 152 519Q136 479 140 463L70 513Q87 517 120 544Q153 571 180 602Q140 612 97.5 614.5Q55 617 40 609L67 691Q74 675 110 652.5Q146 630 183 614Q181 654 170 696Q159 738 147 749Z" glyph-name="asterisk" horiz-adv-x="380" unicode="*" /><glyph d="M496 457 444 163Q435 116 446.5 94Q458 72 486 72Q524 72 556 135.5Q588 199 588 326Q588 475 518.5 560.5Q449 646 346 646Q233 646 156 530Q79 414 79 233Q79 64 157 -35Q235 -134 351 -134Q420 -134 472.5 -112.5Q525 -91 576 -36L580 -41Q534 -104 473 -134Q412 -164 342 -164Q203 -164 111 -57Q19 50 19 234Q19 427 116 549Q213 671 346 671Q461 671 548 581Q635 491 635 326Q635 176 584.5 110.5Q534 45 483 45Q444 45 418.5 69Q393 93 389 142Q373 97 347.5 71Q322 45 288 45Q243 45 211.5 85Q180 125 180 194Q180 299 229.5 378.5Q279 458 349 458Q385 458 405.5 432.5Q426 407 431 376Q441 399 461.5 423.5Q482 448 496 457ZM392 226 404 301Q416 370 403.5 402.5Q391 435 362 435Q313 435 280 359Q247 283 247 194Q247 139 262 109Q277 79 309 79Q340 79 361 119.5Q382 160 392 226Z" glyph-name="at" horiz-adv-x="654" unicode="@" /><glyph d="M496 532 444 238Q435 191 446.5 169Q458 147 486 147Q524 147 556 210.5Q588 274 588 401Q588 550 518.5 635.5Q449 721 346 721Q233 721 156 605Q79 489 79 308Q79 139 157 40Q235 -59 351 -59Q420 -59 472.5 -37.5Q525 -16 576 39L580 34Q534 -29 473 -59Q412 -89 342 -89Q203 -89 111 18Q19 125 19 309Q19 502 116 624Q213 746 346 746Q461 746 548 656Q635 566 635 401Q635 251 584.5 185.5Q534 120 483 120Q444 120 418.5 144Q393 168 389 217Q373 172 347.5 146Q322 120 288 120Q243 120 211.5 160Q180 200 180 269Q180 374 229.5 453.5Q279 533 349 533Q385 533 405.5 507.5Q426 482 431 451Q441 474 461.5 498.5Q482 523 496 532ZM392 301 404 376Q416 445 403.5 477.5Q391 510 362 510Q313 510 280 434Q247 358 247 269Q247 214 262 184Q277 154 309 154Q340 154 361 194.5Q382 235 392 301Z" glyph-name="at.cap" horiz-adv-x="654" /><glyph d="M393 46V43Q385 23 368 7.5Q351 -8 319 -8Q287 -8 266.5 14Q246 36 244 76L243 97Q237 51 206.5 22Q176 -7 133 -7Q90 -7 58 22Q26 51 26 106Q26 178 83 212Q140 246 204 266L242 278V396Q242 432 224 454.5Q206 477 173 477Q145 477 128.5 458Q112 439 112 411Q112 383 124 367Q136 351 159 351Q162 351 165.5 352Q169 353 172 354Q168 334 151.5 323Q135 312 116 312Q87 312 67.5 330.5Q48 349 48 385Q48 436 89.5 466Q131 496 185 496Q254 496 290.5 463.5Q327 431 327 358Q327 274 326 202Q325 130 325 86Q325 57 337 45.5Q349 34 365 34Q375 34 382 37.5Q389 41 393 46ZM242 258 212 248Q169 234 137.5 208Q106 182 106 126Q106 92 122.5 71Q139 50 168 50Q198 50 219 74.5Q240 99 241 156ZM331 703Q321 640 301 605Q281 570 253 570Q222 570 195.5 604Q169 638 145 638Q123 638 109.5 617.5Q96 597 86 566H79Q89 629 109 664Q129 699 157 699Q188 699 214.5 665Q241 631 265 631Q287 631 300.5 651.5Q314 672 324 703Z" glyph-name="atilde" horiz-adv-x="385" unicode="&#227;" /><glyph d="M254 -10Q211 -10 177.5 18Q144 46 132 106Q126 64 96.5 31.5Q67 -1 45 -10Q52 34 54 90.5Q56 147 56 213V640Q56 689 44.5 710.5Q33 732 4 747V749H138V378Q148 437 180.5 466.5Q213 496 260 496Q320 496 367.5 430Q415 364 415 242Q415 128 366.5 59Q318 -10 254 -10ZM325 242Q325 340 302 402.5Q279 465 234 465Q200 465 169 423.5Q138 382 138 298V194Q138 107 168 64.5Q198 22 232 22Q277 22 301 85.5Q325 149 325 242Z" glyph-name="b" horiz-adv-x="436" unicode="b" /><glyph d="M49 749 342 -123H314L20 749Z" glyph-name="backslash" horiz-adv-x="342" unicode="\" /><glyph d="M49 769 342 -103H314L20 769Z" glyph-name="backslash.cap" horiz-adv-x="342" /><glyph d="M80 -123V749H106V-123Z" glyph-name="bar" horiz-adv-x="186" unicode="|" /><glyph d="M80 -103V769H106V-103Z" glyph-name="bar.cap" horiz-adv-x="186" /><glyph d="M10 310V316Q47 317 76 349Q105 381 105 461Q105 493 99 526.5Q93 560 93 599Q93 663 133 706Q173 749 239 749Q249 749 259 748Q269 747 278 745V741Q229 741 200.5 703.5Q172 666 172 598Q172 568 178.5 528Q185 488 185 455Q185 378 139 347.5Q93 317 65 313Q93 309 139 278.5Q185 248 185 171Q185 138 178.5 98Q172 58 172 28Q172 -40 200.5 -77.5Q229 -115 278 -115V-119Q269 -121 259 -122Q249 -123 239 -123Q173 -123 133 -80Q93 -37 93 27Q93 66 99 99.5Q105 133 105 165Q105 245 76 277Q47 309 10 310Z" glyph-name="braceleft" horiz-adv-x="293" unicode="{" /><glyph d="M10 329V336Q47 337 76 369Q105 401 105 481Q105 513 99 546.5Q93 580 93 619Q93 683 133 726Q173 769 239 769Q249 769 259 768Q269 767 278 765V760Q229 760 200.5 723Q172 686 172 618Q172 588 178.5 547.5Q185 507 185 475Q185 398 139 367.5Q93 337 65 333Q93 329 139 298Q185 267 185 191Q185 158 178.5 117.5Q172 77 172 47Q172 -21 200.5 -58Q229 -95 278 -95V-100Q269 -102 259 -102.5Q249 -103 239 -103Q173 -103 133 -60.5Q93 -18 93 46Q93 85 99 119Q105 153 105 185Q105 265 76 296.5Q47 328 10 329Z" glyph-name="braceleft.cap" horiz-adv-x="293" /><glyph d="M283 316V310Q246 309 217 277Q188 245 188 165Q188 133 194 99.5Q200 66 200 27Q200 -37 160 -80Q120 -123 54 -123Q44 -123 34 -122Q24 -121 15 -119V-115Q64 -115 92.5 -77.5Q121 -40 121 28Q121 58 114.5 98Q108 138 108 171Q108 248 154 278.5Q200 309 228 313Q200 317 154 347.5Q108 378 108 455Q108 488 114.5 528Q121 568 121 598Q121 666 92.5 703.5Q64 741 15 741V745Q24 747 34 748Q44 749 54 749Q120 749 160 706Q200 663 200 599Q200 560 194 526.5Q188 493 188 461Q188 381 217 349Q246 317 283 316Z" glyph-name="braceright" horiz-adv-x="293" unicode="}" /><glyph d="M283 336V330Q246 329 217 297Q188 265 188 185Q188 153 194 119.5Q200 86 200 47Q200 -17 160 -60Q120 -103 54 -103Q44 -103 34 -102Q24 -101 15 -99V-95Q64 -95 92.5 -57.5Q121 -20 121 48Q121 78 114.5 118Q108 158 108 191Q108 268 154 298.5Q200 329 228 333Q200 337 154 367.5Q108 398 108 475Q108 508 114.5 548Q121 588 121 618Q121 686 92.5 723.5Q64 761 15 761V765Q24 767 34 768Q44 769 54 769Q120 769 160 726Q200 683 200 619Q200 580 194 546.5Q188 513 188 481Q188 401 217 369Q246 337 283 336Z" glyph-name="braceright.cap" horiz-adv-x="293" /><glyph d="M70 -123V749H246V745L149 714V-87L246 -119V-123Z" glyph-name="bracketleft" horiz-adv-x="261" unicode="[" /><glyph d="M70 -103V769H246V764L149 734V-68L246 -99V-103Z" glyph-name="bracketleft.cap" horiz-adv-x="261" /><glyph d="M191 749V-123H15V-119L112 -87V714L15 745V749Z" glyph-name="bracketright" horiz-adv-x="261" unicode="]" /><glyph d="M191 769V-103H15V-99L112 -67V734L15 765V769Z" glyph-name="bracketright.cap" horiz-adv-x="261" /><glyph d="M343 713Q343 634 316.5 592.5Q290 551 250 551Q210 551 183.5 592.5Q157 634 157 713H164Q168 659 194.5 636Q221 613 250 613Q279 613 305.5 636Q332 659 336 713Z" glyph-name="breve" horiz-adv-x="500" unicode="&#728;" /><glyph d="M357 865Q350 793 323 763.5Q296 734 250 734Q204 734 176.5 763.5Q149 793 142 865H148Q153 831 180.5 811.5Q208 792 250 792Q291 792 318.5 811.5Q346 831 351 865Z" glyph-name="breve.cap" horiz-adv-x="500" /><glyph d="M30 269Q30 315 63 348Q96 381 142 381Q188 381 221 348Q254 315 254 269Q254 223 221 190Q188 157 142 157Q96 157 63 190Q30 223 30 269Z" glyph-name="bullet" horiz-adv-x="284" unicode="&#8226;" /><glyph d="M30 345Q30 391 63 424Q96 457 142 457Q188 457 221 424Q254 391 254 345Q254 299 221 266Q188 233 142 233Q96 233 63 266Q30 299 30 345Z" glyph-name="bullet.cap" horiz-adv-x="284" /><glyph d="M209 477Q168 477 137.5 420.5Q107 364 107 260Q107 162 132 99.5Q157 37 215 37Q255 37 283 65.5Q311 94 322 157L329 156Q322 76 285.5 33Q249 -10 188 -10Q121 -10 70.5 55.5Q20 121 20 240Q20 351 78 423.5Q136 496 206 496Q260 496 293.5 468.5Q327 441 327 395Q327 363 307 344Q287 325 259 325Q240 325 223.5 334Q207 343 203 362H217Q236 362 248.5 378Q261 394 261 419Q261 447 247.5 462Q234 477 209 477Z" glyph-name="c" horiz-adv-x="347" unicode="c" /><glyph d="M209 477Q168 477 137.5 420.5Q107 364 107 260Q107 162 132 99.5Q157 37 215 37Q255 37 283 65.5Q311 94 322 157L329 156Q322 76 285.5 33Q249 -10 188 -10Q121 -10 70.5 55.5Q20 121 20 240Q20 351 78 423.5Q136 496 206 496Q260 496 293.5 468.5Q327 441 327 395Q327 363 307 344Q287 325 259 325Q240 325 223.5 334Q207 343 203 362H217Q236 362 248.5 378Q261 394 261 419Q261 447 247.5 462Q234 477 209 477ZM184 721H266Q257 666 228.5 623.5Q200 581 155 544H152Q174 583 179 633.5Q184 684 184 721Z" glyph-name="cacute" horiz-adv-x="347" unicode="&#263;" /><glyph d="M147 744Q175 731 205 707Q235 683 251 660Q266 683 296 707Q326 731 354 744H360Q325 704 297 653.5Q269 603 253 543H249Q233 603 204.5 653.5Q176 704 141 744Z" glyph-name="caron" horiz-adv-x="500" unicode="&#711;" /><glyph d="M299 749Q289 701 257.5 640Q226 579 200 545H197Q208 586 213.5 639.5Q219 693 215 749Z" glyph-name="caron.Slovak" horiz-adv-x="500" /><glyph d="M125 883Q156 879 189 866Q222 853 240 834Q256 853 289 866Q322 879 353 883H360Q317 850 288.5 815Q260 780 242 729H237Q219 780 190 815Q161 850 118 883Z" glyph-name="caron.cap" horiz-adv-x="500" /><glyph d="M209 477Q168 477 137.5 420.5Q107 364 107 260Q107 162 132 99.5Q157 37 215 37Q255 37 283 65.5Q311 94 322 157L329 156Q322 76 285.5 33Q249 -10 188 -10Q121 -10 70.5 55.5Q20 121 20 240Q20 351 78 423.5Q136 496 206 496Q260 496 293.5 468.5Q327 441 327 395Q327 363 307 344Q287 325 259 325Q240 325 223.5 334Q207 343 203 362H217Q236 362 248.5 378Q261 394 261 419Q261 447 247.5 462Q234 477 209 477ZM104 744Q132 731 162 707Q192 683 208 660Q223 683 253 707Q283 731 311 744H317Q282 704 254 653.5Q226 603 210 543H206Q190 603 161.5 653.5Q133 704 98 744Z" glyph-name="ccaron" horiz-adv-x="347" unicode="&#269;" /><glyph d="M175 -223Q147 -223 127.5 -207Q108 -191 100 -169L105 -166Q116 -184 129 -190.5Q142 -197 154 -197Q174 -197 186 -182.5Q198 -168 198 -139Q198 -111 183.5 -95Q169 -79 142 -78L170 -9Q109 -1 64.5 64.5Q20 130 20 240Q20 351 78 423.5Q136 496 206 496Q260 496 293.5 468.5Q327 441 327 395Q327 363 307 344Q287 325 259 325Q240 325 223.5 334Q207 343 203 362H217Q236 362 248.5 378Q261 394 261 419Q261 447 247.5 462Q234 477 209 477Q168 477 137.5 420.5Q107 364 107 260Q107 162 132 99.5Q157 37 215 37Q255 37 283 65.5Q311 94 322 157L329 156Q322 76 285.5 33Q249 -10 188 -10L165 -65Q199 -66 227.5 -84.5Q256 -103 256 -141Q256 -180 232 -201.5Q208 -223 175 -223Z" glyph-name="ccedilla" horiz-adv-x="347" unicode="&#231;" /><glyph d="M209 477Q168 477 137.5 420.5Q107 364 107 260Q107 162 132 99.5Q157 37 215 37Q255 37 283 65.5Q311 94 322 157L329 156Q322 76 285.5 33Q249 -10 188 -10Q121 -10 70.5 55.5Q20 121 20 240Q20 351 78 423.5Q136 496 206 496Q260 496 293.5 468.5Q327 441 327 395Q327 363 307 344Q287 325 259 325Q240 325 223.5 334Q207 343 203 362H217Q236 362 248.5 378Q261 394 261 419Q261 447 247.5 462Q234 477 209 477ZM311 543Q283 556 253 580Q223 604 208 627Q192 604 162 580Q132 556 104 543H98Q133 583 161.5 633.5Q190 684 206 744H210Q226 684 254 633.5Q282 583 317 543Z" glyph-name="ccircumflex" horiz-adv-x="347" unicode="&#265;" /><glyph d="M209 477Q168 477 137.5 420.5Q107 364 107 260Q107 162 132 99.5Q157 37 215 37Q255 37 283 65.5Q311 94 322 157L329 156Q322 76 285.5 33Q249 -10 188 -10Q121 -10 70.5 55.5Q20 121 20 240Q20 351 78 423.5Q136 496 206 496Q260 496 293.5 468.5Q327 441 327 395Q327 363 307 344Q287 325 259 325Q240 325 223.5 334Q207 343 203 362H217Q236 362 248.5 378Q261 394 261 419Q261 447 247.5 462Q234 477 209 477ZM150 643Q150 666 167 683Q184 700 207 700Q231 700 248 683Q265 666 265 643Q265 620 248 603Q231 586 207 586Q184 586 167 603Q150 620 150 643Z" glyph-name="cdotaccent" horiz-adv-x="347" unicode="&#267;" /><glyph d="M154 -169 159 -166Q170 -184 183 -190.5Q196 -197 208 -197Q228 -197 240 -182.5Q252 -168 252 -139Q252 -111 237.5 -95Q223 -79 196 -78L232 10H250L219 -65Q253 -66 281.5 -84.5Q310 -103 310 -141Q310 -180 286 -201.5Q262 -223 229 -223Q201 -223 181.5 -207Q162 -191 154 -169Z" glyph-name="cedilla" horiz-adv-x="500" unicode="&#184;" /><glyph d="M106 257Q106 180 122.5 123Q139 66 178 47L199 474Q158 462 132 406Q106 350 106 257ZM187 -114H170L175 -10Q110 -5 65 58.5Q20 122 20 226Q20 342 76 415Q132 488 200 495L205 596H222L217 496Q271 495 302 468Q333 441 333 401Q333 372 316 355Q299 338 274 338Q258 338 243.5 346.5Q229 355 225 372Q228 371 231.5 371Q235 371 237 371Q253 371 264 385.5Q275 400 275 422Q275 448 260 462.5Q245 477 222 477H216L195 41Q200 40 205.5 39Q211 38 217 38Q251 38 281.5 66.5Q312 95 323 158L330 157Q323 79 287.5 35.5Q252 -8 192 -10Z" glyph-name="cent" horiz-adv-x="352" unicode="&#162;" /><glyph d="M354 543Q326 556 296 580Q266 604 251 627Q235 604 205 580Q175 556 147 543H141Q176 583 204.5 633.5Q233 684 249 744H253Q269 684 297 633.5Q325 583 360 543Z" glyph-name="circumflex" horiz-adv-x="500" unicode="&#710;" /><glyph d="M353 729Q322 733 289 746Q256 759 240 778Q222 759 189 746Q156 733 125 729H118Q161 762 190 797Q219 832 237 883H242Q260 832 288.5 797Q317 762 360 729Z" glyph-name="circumflex.cap" horiz-adv-x="500" /><glyph d="M158 55Q158 29 139.5 11Q121 -7 96 -7Q71 -7 53 11Q35 29 35 55Q35 81 53 99Q71 117 96 117Q121 117 139.5 99Q158 81 158 55ZM158 373Q158 347 139.5 329Q121 311 96 311Q71 311 53 329Q35 347 35 373Q35 399 53 417Q71 435 96 435Q121 435 139.5 417Q158 399 158 373Z" glyph-name="colon" horiz-adv-x="193" unicode=":" /><glyph d="M120 27Q114 17 102 10.5Q90 4 76 4Q55 4 40.5 18.5Q26 33 26 55Q26 80 42.5 96.5Q59 113 87 113Q120 113 139 88Q158 63 158 26Q158 -34 119.5 -70Q81 -106 15 -107V-95Q75 -87 101 -50Q127 -13 120 27Z" glyph-name="comma" horiz-adv-x="193" unicode="," /><glyph d="M308 -126Q308 -164 278 -192Q248 -220 201 -222V-209Q239 -206 255.5 -186.5Q272 -167 275 -140Q268 -147 258.5 -150Q249 -153 239 -153Q219 -153 205.5 -139.5Q192 -126 192 -108Q192 -86 207 -72Q222 -58 245 -58Q273 -58 290.5 -75.5Q308 -93 308 -126Z" glyph-name="commaaccent" horiz-adv-x="500" unicode="&#63171;" /><glyph d="M193 636Q193 674 223 702Q253 730 300 732V719Q262 716 245.5 696.5Q229 677 226 650Q233 657 242.5 660Q252 663 262 663Q282 663 295.5 649.5Q309 636 309 618Q309 596 294 582Q279 568 256 568Q228 568 210.5 585.5Q193 603 193 636Z" glyph-name="commaturn" horiz-adv-x="500" /><glyph d="M577 350Q577 194 496 92Q415 -10 302 -10Q189 -10 107.5 92Q26 194 26 350Q26 506 107.5 608Q189 710 302 710Q415 710 496 608Q577 506 577 350ZM558 350Q558 496 483.5 593Q409 690 302 690Q195 690 120.5 593Q46 496 46 350Q46 204 120.5 107Q195 10 302 10Q409 10 483.5 107Q558 204 558 350ZM325 552Q285 552 265.5 496Q246 440 246 357Q246 270 270.5 220.5Q295 171 335 171Q362 171 384 190Q406 209 420 260L423 259Q416 201 385 166Q354 131 308 131Q245 131 204.5 190Q164 249 164 345Q164 441 209.5 503.5Q255 566 319 566Q341 566 355.5 557Q370 548 383 548Q393 548 400.5 553.5Q408 559 412 566L417 419H415Q402 472 378.5 512Q355 552 325 552Z" glyph-name="copyright" horiz-adv-x="603" unicode="&#169;" /><glyph d="M202 21Q236 21 267 63Q298 105 298 189V291Q298 377 268 419Q238 461 204 461Q159 461 135 399Q111 337 111 243Q111 145 134 83Q157 21 202 21ZM298 377V640Q298 689 286 710.5Q274 732 246 747V749H380V109Q380 60 388.5 38.5Q397 17 426 2V0H298V108Q288 50 255.5 20Q223 -10 176 -10Q116 -10 68.5 55.5Q21 121 21 243Q21 359 69.5 427.5Q118 496 178 496Q225 496 256.5 466.5Q288 437 298 377Z" glyph-name="d" horiz-adv-x="440" unicode="d" /><glyph d="M195 556 159 228H155L119 556Q118 569 112 578Q106 587 95 587Q91 567 80.5 554.5Q70 542 54 542Q41 542 30.5 550Q20 558 20 574Q20 589 28.5 600Q37 611 47 614Q48 601 53 597.5Q58 594 64 594Q71 594 78 598Q85 602 95 602Q108 602 126.5 592.5Q145 583 153 567Q151 611 141 651Q131 691 114 724Q121 733 132 742Q143 751 157 751Q171 751 182 742Q193 733 200 724Q183 691 173 651Q163 611 161 567Q169 583 187.5 592.5Q206 602 219 602Q229 602 236 598Q243 594 250 594Q256 594 261 597.5Q266 601 267 614Q277 611 285.5 600Q294 589 294 574Q294 558 283.5 550Q273 542 260 542Q244 542 233.5 554.5Q223 567 219 587Q208 587 202 578Q196 569 195 556Z" glyph-name="dagger" horiz-adv-x="314" unicode="&#8224;" /><glyph d="M177 482H168Q164 547 139.5 593Q115 639 101 640Q95 618 84 606Q73 594 54 594Q39 594 29.5 604Q20 614 20 631Q20 646 29.5 657.5Q39 669 52 672Q54 658 60.5 654.5Q67 651 75 651Q85 651 94 654.5Q103 658 115 658Q129 658 143 649.5Q157 641 165 628Q164 663 154 692.5Q144 722 126 747Q132 760 144.5 769Q157 778 173 778Q189 778 201 769Q213 760 220 747Q202 722 192 692.5Q182 663 180 628Q188 641 202.5 649.5Q217 658 231 658Q242 658 251.5 654.5Q261 651 271 651Q278 651 285 654.5Q292 658 293 672Q306 669 316 657.5Q326 646 326 631Q326 614 316 604Q306 594 291 594Q272 594 261.5 606Q251 618 244 640Q230 639 205.5 593Q181 547 177 482ZM177 462Q181 397 205.5 351Q230 305 244 304Q251 326 261.5 338Q272 350 291 350Q306 350 316 340Q326 330 326 313Q326 298 316 286.5Q306 275 293 272Q292 286 285 289.5Q278 293 271 293Q261 293 251.5 289.5Q242 286 231 286Q217 286 202.5 294.5Q188 303 180 316Q182 281 192 251.5Q202 222 220 197Q213 184 201 175Q189 166 173 166Q157 166 144.5 175Q132 184 126 197Q144 222 154 251.5Q164 281 165 316Q157 303 143 294.5Q129 286 115 286Q103 286 94 289.5Q85 293 75 293Q67 293 60.5 289.5Q54 286 52 272Q39 275 29.5 286.5Q20 298 20 313Q20 330 29.5 340Q39 350 54 350Q73 350 84 338Q95 326 101 304Q115 305 139.5 351Q164 397 168 462Z" glyph-name="daggerdbl" horiz-adv-x="346" unicode="&#8225;" /><glyph d="M202 21Q236 21 267 63Q298 105 298 189V291Q298 377 268 419Q238 461 204 461Q159 461 135 399Q111 337 111 243Q111 145 134 83Q157 21 202 21ZM298 377V640Q298 689 286 710.5Q274 732 246 747V749H380V109Q380 60 388.5 38.5Q397 17 426 2V0H298V108Q288 50 255.5 20Q223 -10 176 -10Q116 -10 68.5 55.5Q21 121 21 243Q21 359 69.5 427.5Q118 496 178 496Q225 496 256.5 466.5Q288 437 298 377ZM512 749Q502 701 470.5 640Q439 579 413 545H410Q421 586 426.5 639.5Q432 693 428 749Z" glyph-name="dcaron" horiz-adv-x="440" unicode="&#271;" /><glyph d="M202 21Q236 21 267 63Q298 105 298 189V291Q298 377 268 419Q238 461 204 461Q159 461 135 399Q111 337 111 243Q111 145 134 83Q157 21 202 21ZM298 108Q288 50 255.5 20Q223 -10 176 -10Q116 -10 68.5 55.5Q21 121 21 243Q21 359 69.5 427.5Q118 496 178 496Q225 496 256.5 466.5Q288 437 298 377V575H193V599H298V640Q298 689 286 710.5Q274 732 246 747V749H380V599H420V575H380V109Q380 60 388.5 38.5Q397 17 426 2V0H298Z" glyph-name="dcroat" horiz-adv-x="440" unicode="&#273;" /><glyph d="M198 620Q198 583 172 557Q146 531 109 531Q72 531 46 557Q20 583 20 620Q20 657 46 683Q72 709 109 709Q146 709 172 683Q198 657 198 620ZM173 620Q173 647 155 665.5Q137 684 109 684Q82 684 64 665.5Q46 647 46 620Q46 593 64 574.5Q82 556 109 556Q137 556 155 574.5Q173 593 173 620Z" glyph-name="degree" horiz-adv-x="218" unicode="&#176;" /><glyph d="M312 581Q289 581 275 597Q261 613 261 633Q261 652 275 668Q289 684 312 684Q332 684 347.5 668Q363 652 363 633Q363 613 347.5 597Q332 581 312 581ZM188 581Q167 581 152 597Q137 613 137 633Q137 652 152 668Q167 684 188 684Q210 684 224.5 668Q239 652 239 633Q239 613 224.5 597Q210 581 188 581Z" glyph-name="dieresis" horiz-adv-x="500" unicode="&#168;" /><glyph d="M312 741Q289 741 275 757Q261 773 261 793Q261 812 275 828Q289 844 312 844Q332 844 347.5 828Q363 812 363 793Q363 773 347.5 757Q332 741 312 741ZM188 741Q167 741 152 757Q137 773 137 793Q137 812 152 828Q167 844 188 844Q210 844 224.5 828Q239 812 239 793Q239 773 224.5 757Q210 741 188 741Z" glyph-name="dieresis.cap" horiz-adv-x="500" /><glyph d="M167 457Q167 470 176.5 479.5Q186 489 199 489Q212 489 222 479.5Q232 470 232 457Q232 444 222 434Q212 424 199 424Q186 424 176.5 434Q167 444 167 457ZM43 309V335H356V309ZM167 187Q167 201 176.5 210.5Q186 220 199 220Q212 220 222 210.5Q232 201 232 187Q232 174 222 164.5Q212 155 199 155Q186 155 176.5 164.5Q167 174 167 187Z" glyph-name="divide" horiz-adv-x="399" unicode="&#247;" /><glyph d="M200 422 244 401V691Q240 692 235 692Q230 692 225 692Q218 692 212 691.5Q206 691 200 690ZM100 562Q100 506 123 477.5Q146 449 185 429V686Q145 673 122.5 639Q100 605 100 562ZM212 8Q220 8 228.5 8.5Q237 9 244 10V304L200 324V8ZM360 160Q360 218 334.5 246.5Q309 275 259 297V13Q309 26 334.5 64.5Q360 103 360 160ZM212 -10H200V-114H185V-9Q106 -3 58.5 36Q11 75 11 128Q11 165 35 186Q59 207 84 207Q100 207 112 200Q124 193 132 183Q113 184 99.5 169.5Q86 155 86 124Q86 81 112 49Q138 17 185 10V331Q118 362 73.5 403.5Q29 445 29 523Q29 596 73 645.5Q117 695 185 707V810H200V709Q206 710 212 710Q218 710 225 710Q229 710 234.5 710Q240 710 244 709V810H259V708Q325 701 367 668.5Q409 636 409 587Q409 551 388.5 535.5Q368 520 346 520Q333 520 319 524.5Q305 529 300 539Q314 538 327.5 554Q341 570 341 598Q341 634 320 658Q299 682 259 689V393L272 387Q337 356 383 317.5Q429 279 429 193Q429 109 378.5 58Q328 7 259 -6V-114H244V-8Q236 -9 228 -9.5Q220 -10 212 -10Z" glyph-name="dollar" horiz-adv-x="448" unicode="$" /><glyph d="M182 380 226 358V616Q221 617 215.5 617Q210 617 205 617Q199 617 193 616.5Q187 616 182 615ZM96 503Q96 454 115.5 429Q135 404 167 388V611Q133 600 114.5 570Q96 540 96 503ZM193 9Q202 9 210.5 10Q219 11 226 12V267L182 288V9ZM322 143Q322 192 302 216.5Q282 241 241 260V15Q281 27 301.5 60Q322 93 322 143ZM193 -10H182V-114H167V-9Q98 -2 57 33.5Q16 69 16 117Q16 150 37 169Q58 188 83 188Q98 188 108.5 182Q119 176 127 166Q111 167 98 154Q85 141 85 113Q85 74 106 46Q127 18 167 11V295Q109 323 70.5 361Q32 399 32 468Q32 534 70 578Q108 622 167 633V726H182V635Q187 636 193 636Q199 636 205 636Q210 636 215.5 636Q221 636 226 635V726H241V634Q295 626 330.5 596.5Q366 567 366 522Q366 488 347.5 473.5Q329 459 308 459Q297 459 284 463Q271 467 265 477Q279 476 291 491Q303 506 303 533Q303 566 287.5 586Q272 606 241 613V351L246 348Q303 321 343.5 285Q384 249 384 172Q384 99 341.5 53.5Q299 8 241 -5V-114H226V-7Q218 -8 209.5 -9Q201 -10 193 -10Z" glyph-name="dollar.op" horiz-adv-x="404" /><glyph d="M192 643Q192 666 209 683Q226 700 249 700Q273 700 290 683Q307 666 307 643Q307 620 290 603Q273 586 249 586Q226 586 209 603Q192 620 192 643Z" glyph-name="dotaccent" horiz-adv-x="500" unicode="&#729;" /><glyph d="M192 804Q192 827 209 844Q226 861 249 861Q273 861 290 844Q307 827 307 804Q307 781 290 764Q273 747 249 747Q226 747 209 764Q192 781 192 804Z" glyph-name="dotaccent.cap" horiz-adv-x="500" /><glyph d="M192 -117Q192 -94 209 -77Q226 -60 249 -60Q273 -60 290 -77Q307 -94 307 -117Q307 -140 290 -157Q273 -174 249 -174Q226 -174 209 -157Q192 -140 192 -117Z" glyph-name="dotbelow" horiz-adv-x="500" /><glyph d="M144 486V99Q144 50 153 33.5Q162 17 191 2V0H16V2Q45 17 53.5 33.5Q62 50 62 99V377Q62 426 50.5 448Q39 470 10 484V486Z" glyph-name="dotlessi" horiz-adv-x="205" unicode="&#305;" /><glyph d="M192 496Q269 496 305 431Q341 366 341 263H107Q107 165 134.5 100Q162 35 223 35Q259 35 287.5 64.5Q316 94 332 156L339 155Q329 76 293 33Q257 -10 194 -10Q124 -10 72 56.5Q20 123 20 242Q20 353 71.5 424.5Q123 496 192 496ZM108 286H258Q258 361 248 418.5Q238 476 192 476Q157 476 134 420.5Q111 365 108 286Z" glyph-name="e" horiz-adv-x="361" unicode="e" /><glyph d="M192 496Q269 496 305 431Q341 366 341 263H107Q107 165 134.5 100Q162 35 223 35Q259 35 287.5 64.5Q316 94 332 156L339 155Q329 76 293 33Q257 -10 194 -10Q124 -10 72 56.5Q20 123 20 242Q20 353 71.5 424.5Q123 496 192 496ZM108 286H258Q258 361 248 418.5Q238 476 192 476Q157 476 134 420.5Q111 365 108 286ZM175 721H257Q248 666 219.5 623.5Q191 581 146 544H143Q165 583 170 633.5Q175 684 175 721Z" glyph-name="eacute" horiz-adv-x="361" unicode="&#233;" /><glyph d="M192 496Q269 496 305 431Q341 366 341 263H107Q107 165 134.5 100Q162 35 223 35Q259 35 287.5 64.5Q316 94 332 156L339 155Q329 76 293 33Q257 -10 194 -10Q124 -10 72 56.5Q20 123 20 242Q20 353 71.5 424.5Q123 496 192 496ZM108 286H258Q258 361 248 418.5Q238 476 192 476Q157 476 134 420.5Q111 365 108 286ZM291 713Q291 634 264.5 592.5Q238 551 198 551Q158 551 131.5 592.5Q105 634 105 713H112Q116 659 142.5 636Q169 613 198 613Q227 613 253.5 636Q280 659 284 713Z" glyph-name="ebreve" horiz-adv-x="361" unicode="&#277;" /><glyph d="M192 496Q269 496 305 431Q341 366 341 263H107Q107 165 134.5 100Q162 35 223 35Q259 35 287.5 64.5Q316 94 332 156L339 155Q329 76 293 33Q257 -10 194 -10Q124 -10 72 56.5Q20 123 20 242Q20 353 71.5 424.5Q123 496 192 496ZM108 286H258Q258 361 248 418.5Q238 476 192 476Q157 476 134 420.5Q111 365 108 286ZM95 744Q123 731 153 707Q183 683 199 660Q214 683 244 707Q274 731 302 744H308Q273 704 245 653.5Q217 603 201 543H197Q181 603 152.5 653.5Q124 704 89 744Z" glyph-name="ecaron" horiz-adv-x="361" unicode="&#283;" /><glyph d="M192 496Q269 496 305 431Q341 366 341 263H107Q107 165 134.5 100Q162 35 223 35Q259 35 287.5 64.5Q316 94 332 156L339 155Q329 76 293 33Q257 -10 194 -10Q124 -10 72 56.5Q20 123 20 242Q20 353 71.5 424.5Q123 496 192 496ZM108 286H258Q258 361 248 418.5Q238 476 192 476Q157 476 134 420.5Q111 365 108 286ZM302 543Q274 556 244 580Q214 604 199 627Q183 604 153 580Q123 556 95 543H89Q124 583 152.5 633.5Q181 684 197 744H201Q217 684 245 633.5Q273 583 308 543Z" glyph-name="ecircumflex" horiz-adv-x="361" unicode="&#234;" /><glyph d="M192 496Q269 496 305 431Q341 366 341 263H107Q107 165 134.5 100Q162 35 223 35Q259 35 287.5 64.5Q316 94 332 156L339 155Q329 76 293 33Q257 -10 194 -10Q124 -10 72 56.5Q20 123 20 242Q20 353 71.5 424.5Q123 496 192 496ZM108 286H258Q258 361 248 418.5Q238 476 192 476Q157 476 134 420.5Q111 365 108 286ZM260 581Q237 581 223 597Q209 613 209 633Q209 652 223 668Q237 684 260 684Q280 684 295.5 668Q311 652 311 633Q311 613 295.5 597Q280 581 260 581ZM136 581Q115 581 100 597Q85 613 85 633Q85 652 100 668Q115 684 136 684Q158 684 172.5 668Q187 652 187 633Q187 613 172.5 597Q158 581 136 581Z" glyph-name="edieresis" horiz-adv-x="361" unicode="&#235;" /><glyph d="M192 496Q269 496 305 431Q341 366 341 263H107Q107 165 134.5 100Q162 35 223 35Q259 35 287.5 64.5Q316 94 332 156L339 155Q329 76 293 33Q257 -10 194 -10Q124 -10 72 56.5Q20 123 20 242Q20 353 71.5 424.5Q123 496 192 496ZM108 286H258Q258 361 248 418.5Q238 476 192 476Q157 476 134 420.5Q111 365 108 286ZM141 643Q141 666 158 683Q175 700 198 700Q222 700 239 683Q256 666 256 643Q256 620 239 603Q222 586 198 586Q175 586 158 603Q141 620 141 643Z" glyph-name="edotaccent" horiz-adv-x="361" unicode="&#279;" /><glyph d="M192 496Q269 496 305 431Q341 366 341 263H107Q107 165 134.5 100Q162 35 223 35Q259 35 287.5 64.5Q316 94 332 156L339 155Q329 76 293 33Q257 -10 194 -10Q124 -10 72 56.5Q20 123 20 242Q20 353 71.5 424.5Q123 496 192 496ZM108 286H258Q258 361 248 418.5Q238 476 192 476Q157 476 134 420.5Q111 365 108 286ZM215 721Q215 684 220 633.5Q225 583 247 544H244Q199 581 170.5 623.5Q142 666 133 721Z" glyph-name="egrave" horiz-adv-x="361" unicode="&#232;" /><glyph d="M250 387Q331 348 369 296.5Q407 245 407 178Q407 99 355.5 44.5Q304 -10 214 -10Q131 -10 73.5 38Q16 86 16 173Q16 239 58 283.5Q100 328 161 343Q113 368 79 417Q45 466 45 527Q45 611 93 660.5Q141 710 213 710Q282 710 332 665.5Q382 621 382 548Q382 473 336 436.5Q290 400 250 387ZM118 561Q118 504 141 471Q164 438 207 413L239 394Q265 414 285 449.5Q305 485 305 548Q305 605 281.5 648.5Q258 692 210 692Q165 692 141.5 651Q118 610 118 561ZM174 338Q134 314 114 270.5Q94 227 94 174Q94 102 127.5 56Q161 10 218 10Q269 10 301.5 49.5Q334 89 334 155Q334 205 307.5 241Q281 277 221 311Z" glyph-name="eight" horiz-adv-x="423" unicode="8" /><glyph d="M246 352Q318 323 357.5 277Q397 231 397 165Q397 94 346.5 42Q296 -10 212 -10Q131 -10 75.5 35Q20 80 20 158Q20 216 59.5 255.5Q99 295 150 311Q112 332 81 372.5Q50 413 50 471Q50 541 96 588.5Q142 636 209 636Q275 636 321 594Q367 552 367 488Q367 421 325 392.5Q283 364 246 352ZM116 495Q116 445 140.5 419.5Q165 394 197 378L238 357Q263 376 280.5 406Q298 436 298 489Q298 549 274.5 583Q251 617 209 617Q172 617 144 584Q116 551 116 495ZM239 265 159 306Q126 284 110.5 245.5Q95 207 95 163Q95 93 127.5 51.5Q160 10 212 10Q259 10 293 47.5Q327 85 327 146Q327 190 304.5 216.5Q282 243 239 265Z" glyph-name="eight.op" horiz-adv-x="417" /><glyph d="M158 55Q158 29 139.5 11Q121 -7 96 -7Q71 -7 53 11Q35 29 35 55Q35 81 53 99Q71 117 96 117Q121 117 139.5 99Q158 81 158 55ZM341 55Q341 29 322.5 11Q304 -7 279 -7Q254 -7 236 11Q218 29 218 55Q218 81 236 99Q254 117 279 117Q304 117 322.5 99Q341 81 341 55ZM524 55Q524 29 505.5 11Q487 -7 462 -7Q437 -7 419 11Q401 29 401 55Q401 81 419 99Q437 117 462 117Q487 117 505.5 99Q524 81 524 55Z" glyph-name="ellipsis" horiz-adv-x="584" unicode="&#8230;" /><glyph d="M192 496Q269 496 305 431Q341 366 341 263H107Q107 165 134.5 100Q162 35 223 35Q259 35 287.5 64.5Q316 94 332 156L339 155Q329 76 293 33Q257 -10 194 -10Q124 -10 72 56.5Q20 123 20 242Q20 353 71.5 424.5Q123 496 192 496ZM108 286H258Q258 361 248 418.5Q238 476 192 476Q157 476 134 420.5Q111 365 108 286ZM304 579H93V614H304Z" glyph-name="emacron" horiz-adv-x="361" unicode="&#275;" /><glyph d="M30 262V288H540V262Z" glyph-name="emdash" horiz-adv-x="570" unicode="&#8212;" /><glyph d="M30 338V363H540V338Z" glyph-name="emdash.cap" horiz-adv-x="570" /><glyph d="M30 262V288H345V262Z" glyph-name="endash" horiz-adv-x="374" unicode="&#8211;" /><glyph d="M30 338V363H345V338Z" glyph-name="endash.cap" horiz-adv-x="374" /><glyph d="M239 -235Q190 -235 156 -214Q122 -193 122 -147Q122 -119 141.5 -98.5Q161 -78 190 -78Q205 -78 218.5 -85.5Q232 -93 238 -104Q225 -108 208.5 -120Q192 -132 192 -162Q192 -187 204.5 -202.5Q217 -218 239 -218Q274 -218 282.5 -176.5Q291 -135 291 -89V363Q291 396 278.5 420.5Q266 445 229 445Q198 445 171 414Q144 383 144 306V99Q144 50 153 33.5Q162 17 191 2V0H16V2Q45 17 53.5 33.5Q62 50 62 99V377Q62 426 50.5 448Q39 470 10 484V486H144V388Q158 439 190 467.5Q222 496 266 496Q312 496 342.5 465.5Q373 435 373 372V-66Q373 -153 336 -194Q299 -235 239 -235Z" glyph-name="eng" horiz-adv-x="428" unicode="&#331;" /><glyph d="M202 -235Q171 -235 149.5 -214.5Q128 -194 128 -159Q128 -113 160.5 -74.5Q193 -36 233 -5Q224 -7 214 -8.5Q204 -10 194 -10Q124 -10 72 56.5Q20 123 20 242Q20 353 71.5 424.5Q123 496 192 496Q269 496 305 431Q341 366 341 263H107Q107 165 134.5 100Q162 35 223 35Q259 35 287.5 64.5Q316 94 332 156L339 155Q332 102 314 67Q296 32 264 7Q222 -26 202 -63Q182 -100 182 -135Q182 -164 194.5 -177.5Q207 -191 228 -191Q247 -191 260 -177.5Q273 -164 285 -137L287 -139Q279 -176 259 -205.5Q239 -235 202 -235ZM108 286H258Q258 361 248 418.5Q238 476 192 476Q157 476 134 420.5Q111 365 108 286Z" glyph-name="eogonek" horiz-adv-x="361" unicode="&#281;" /><glyph d="M45 363V389H359V363ZM45 257V283H359V257Z" glyph-name="equal" horiz-adv-x="404" unicode="=" /><glyph d="M196 -10Q119 -10 69.5 62Q20 134 20 243Q20 351 69.5 423Q119 495 196 495Q218 495 238.5 488Q259 481 270 471Q268 507 256 546Q244 585 218 622L112 573L103 593L204 640Q179 670 142 698Q105 726 53 749L56 759Q110 742 155.5 715.5Q201 689 236 654L319 693L328 673L252 638Q312 570 341.5 474.5Q371 379 371 261Q371 139 321.5 64.5Q272 -10 196 -10ZM196 10Q242 10 262 78.5Q282 147 282 243Q282 339 262 407Q242 475 196 475Q150 475 129.5 407Q109 339 109 243Q109 147 129.5 78.5Q150 10 196 10Z" glyph-name="eth" horiz-adv-x="391" unicode="&#240;" /><glyph d="M46 700H165L108 201H103ZM167 55Q167 29 148.5 11Q130 -7 105 -7Q80 -7 62 11Q44 29 44 55Q44 81 62 99Q80 117 105 117Q130 117 148.5 99Q167 81 167 55Z" glyph-name="exclam" horiz-adv-x="211" unicode="!" /><glyph d="M105 558Q130 558 148.5 540Q167 522 167 496Q167 470 148.5 452Q130 434 105 434Q80 434 62 452Q44 470 44 496Q44 522 62 540Q80 558 105 558ZM165 -149H46L103 350H108Z" glyph-name="exclamdown" horiz-adv-x="211" unicode="&#161;" /><glyph d="M105 707Q130 707 148.5 689Q167 671 167 645Q167 619 148.5 601Q130 583 105 583Q80 583 62 601Q44 619 44 645Q44 671 62 689Q80 707 105 707ZM165 0H46L103 499H108Z" glyph-name="exclamdown.cap" horiz-adv-x="211" /><glyph d="M62 94V460H1V466L62 488V569Q62 660 106.5 706Q151 752 215 752Q256 752 288.5 732.5Q321 713 321 670Q321 640 304 620.5Q287 601 256 601Q241 601 227.5 608Q214 615 207 627Q222 630 237 643Q252 656 252 687Q252 710 242 723Q232 736 211 736Q174 736 159 694Q144 652 144 595V486H229L224 460H144V93Q144 42 157 29.5Q170 17 201 2V0H16V2Q45 17 53.5 32.5Q62 48 62 94Z" glyph-name="f" horiz-adv-x="235" unicode="f" /><glyph d="M370 755V378Q380 437 412.5 466.5Q445 496 492 496Q552 496 599.5 430Q647 364 647 242Q647 128 598.5 59Q550 -10 486 -10Q443 -10 409.5 18Q376 46 364 106Q358 64 333 35.5Q308 7 277 -10Q284 34 286 90.5Q288 147 288 213V671Q288 690 272 713Q256 736 220 736Q180 736 162.5 703.5Q145 671 145 622V485H251L246 459H145V99Q145 50 153.5 33.5Q162 17 191 2V0H16V2Q45 17 53.5 33.5Q62 50 62 100V459H1V465L62 487V583Q62 666 104 709Q146 752 213 752Q247 752 269.5 740Q292 728 306 709Q325 716 338 726Q351 736 368 755ZM466 465Q432 465 401 423.5Q370 382 370 298V194Q370 107 400 64.5Q430 22 464 22Q509 22 533 85.5Q557 149 557 242Q557 340 534 402.5Q511 465 466 465Z" glyph-name="f_b" horiz-adv-x="668" /><glyph d="M712 -10Q669 -10 635.5 18Q602 46 590 106Q584 64 556 33.5Q528 3 503 -10Q510 34 512 90.5Q514 147 514 213V671Q514 690 498 713Q482 736 446 736Q406 736 388 703.5Q370 671 370 622V485H477L472 459H370V99Q370 50 379 33.5Q388 17 417 2V0H242V2Q271 17 279.5 33.5Q288 50 288 100V459H145V99Q145 50 153.5 33.5Q162 17 191 2V0H16V2Q45 17 53.5 33.5Q62 50 62 100V459H1V465L62 487V549Q62 640 112 686Q162 732 226 732Q252 732 278.5 724Q305 716 322 700Q342 725 372 738.5Q402 752 439 752Q473 752 495.5 740Q518 728 532 709Q551 716 564 726Q577 736 594 755H596V378Q606 437 638.5 466.5Q671 496 718 496Q778 496 825.5 430Q873 364 873 242Q873 128 824.5 59Q776 -10 712 -10ZM145 485H288V582Q273 582 259.5 589Q246 596 239 608Q254 612 268.5 624Q283 636 283 664Q283 690 267.5 703Q252 716 226 716Q185 716 165 684Q145 652 145 590ZM692 465Q658 465 627 423.5Q596 382 596 298V194Q596 107 626 64.5Q656 22 690 22Q735 22 759 85.5Q783 149 783 242Q783 340 760 402.5Q737 465 692 465Z" glyph-name="f_f_b" horiz-adv-x="894" /><glyph d="M145 485H288V582Q273 582 259.5 589Q246 596 239 608Q254 612 268.5 624Q283 636 283 664Q283 690 267.5 703Q252 716 226 716Q185 716 165 684Q145 652 145 590ZM191 2V0H16V2Q45 17 53.5 33.5Q62 50 62 100V459H1V465L62 487V549Q62 640 112 686Q162 732 226 732Q252 732 278.5 724Q305 716 322 700Q342 725 372 738.5Q402 752 439 752Q473 752 495.5 740Q518 728 532 709Q551 716 564 726Q577 736 594 755H596V388Q610 439 642 467.5Q674 496 717 496Q764 496 794.5 465.5Q825 435 825 372V99Q825 50 834 33.5Q843 17 871 2V0H697V2Q726 17 734.5 33.5Q743 50 743 99V363Q743 396 730.5 420.5Q718 445 681 445Q650 445 623 414Q596 383 596 306V99Q596 50 605 33.5Q614 17 642 2V0H468V2Q497 17 505.5 33.5Q514 50 514 99V671Q514 690 498 713Q482 736 446 736Q406 736 388 703.5Q370 671 370 622V485H477L472 459H370V99Q370 50 379 33.5Q388 17 417 2V0H242V2Q271 17 279.5 33.5Q288 50 288 100V459H145V99Q145 50 153.5 33.5Q162 17 191 2Z" glyph-name="f_f_h" horiz-adv-x="882" /><glyph d="M642 1V-1H467V1Q496 16 504.5 32.5Q513 49 513 98V406Q513 436 500 447.5Q487 459 462 459H370V93Q370 42 383 29.5Q396 17 427 2V0H242V2Q271 17 279.5 32.5Q288 48 288 94V459H145V99Q145 50 153.5 33.5Q162 17 191 2V0H16V2Q45 17 53.5 33.5Q62 50 62 100V459H1V465L62 487V549Q62 640 112 686Q162 732 226 732Q253 732 280.5 724Q308 716 324 697Q343 722 370 736.5Q397 751 429 751Q475 751 505 724.5Q535 698 535 656Q535 625 519.5 602.5Q504 580 476 580Q460 580 447.5 588.5Q435 597 428 610Q445 611 461.5 628Q478 645 478 675Q478 703 465 719Q452 735 429 735Q398 735 384 706Q370 677 370 631V485H595V98Q595 49 604 32.5Q613 16 642 1ZM145 485H287V582Q273 583 259.5 589.5Q246 596 239 608Q254 612 268.5 624Q283 636 283 664Q283 690 267.5 703Q252 716 226 716Q185 716 165 684Q145 652 145 590ZM614 580Q591 580 577 596Q563 612 563 632Q563 651 577 667Q591 683 614 683Q634 683 649.5 667Q665 651 665 632Q665 612 649.5 596Q634 580 614 580Z" glyph-name="f_f_idieresis" horiz-adv-x="656" /><glyph d="M145 486H288V536Q288 548 289 560Q290 572 291 582H289Q274 582 260 589Q246 596 239 608Q254 612 268.5 624Q283 636 283 664Q283 690 267.5 703Q252 716 226 716Q185 716 165 684Q145 652 145 590ZM462 -235Q413 -235 379 -214Q345 -193 345 -147Q345 -119 364.5 -98.5Q384 -78 413 -78Q428 -78 441.5 -85.5Q455 -93 461 -104Q448 -108 431.5 -120Q415 -132 415 -162Q415 -187 427.5 -202.5Q440 -218 462 -218Q497 -218 505.5 -176.5Q514 -135 514 -89V407Q514 437 500.5 448.5Q487 460 462 460H370V99Q370 50 379 33.5Q388 17 417 2V0H242V2Q271 17 280 33.5Q289 50 288 100V460H145V99Q145 50 153.5 33.5Q162 17 191 2V0H16V2Q45 17 53.5 33.5Q62 50 62 100V459H1V465L62 487V549Q62 640 112 686Q162 732 226 732Q256 732 286 721.5Q316 711 331 689Q355 720 389.5 736Q424 752 464 752Q521 752 558.5 728Q596 704 596 661Q596 636 579.5 617.5Q563 599 532 599Q516 599 503 606Q490 613 483 624Q499 627 510.5 639.5Q522 652 522 677Q522 705 507 720.5Q492 736 464 736Q415 736 392.5 690Q370 644 370 583V486H596V-66Q596 -153 559 -194Q522 -235 462 -235Z" glyph-name="f_f_j" horiz-adv-x="651" /><glyph d="M145 485H288V582Q273 582 259.5 589Q246 596 239 608Q254 612 268.5 624Q283 636 283 664Q283 690 267.5 703Q252 716 226 716Q185 716 165 684Q145 652 145 590ZM191 2V0H16V2Q45 17 53.5 33.5Q62 50 62 100V459H1V465L62 487V549Q62 640 112 686Q162 732 226 732Q252 732 278.5 724Q305 716 322 700Q342 725 372 738.5Q402 752 439 752Q473 752 495.5 740Q518 728 532 709Q551 716 564 726Q577 736 594 755H596V280H626Q642 280 656.5 286.5Q671 293 687 316L745 407Q749 414 751.5 422Q754 430 754 437Q754 451 746.5 464Q739 477 724 484V486H877V484Q847 474 820 453.5Q793 433 771 400L694 284L801 90Q821 53 844.5 32.5Q868 12 893 2V0H751Q748 20 739.5 37.5Q731 55 722 72L634 237Q627 249 621 253.5Q615 258 606 258H596V99Q596 50 605 33.5Q614 17 642 2V0H468V2Q497 17 505.5 33.5Q514 50 514 99V671Q514 690 498 713Q482 736 446 736Q406 736 388 703.5Q370 671 370 622V485H477L472 459H370V99Q370 50 379 33.5Q388 17 417 2V0H242V2Q271 17 279.5 33.5Q288 50 288 100V459H145V99Q145 50 153.5 33.5Q162 17 191 2Z" glyph-name="f_f_k" horiz-adv-x="878" /><glyph d="M370 755V388Q384 439 416 467.5Q448 496 491 496Q538 496 568.5 465.5Q599 435 599 372V99Q599 50 608 33.5Q617 17 645 2V0H471V2Q500 17 508.5 33.5Q517 50 517 99V363Q517 396 504.5 420.5Q492 445 455 445Q424 445 397 414Q370 383 370 306V99Q370 50 379 33.5Q388 17 416 2V0H242V2Q271 17 279.5 33.5Q288 50 288 99V671Q288 690 272 713Q256 736 220 736Q180 736 162.5 703.5Q145 671 145 622V485H251L246 459H145V99Q145 50 153.5 33.5Q162 17 191 2V0H16V2Q45 17 53.5 33.5Q62 50 62 100V459H1V465L62 487V583Q62 666 104 709Q146 752 213 752Q247 752 269.5 740Q292 728 306 709Q325 716 338 726Q351 736 368 755Z" glyph-name="f_h" horiz-adv-x="656" /><glyph d="M389 581Q366 581 352 597Q338 613 338 633Q338 652 352 668Q366 684 389 684Q409 684 424.5 668Q440 652 440 633Q440 613 424.5 597Q409 581 389 581ZM145 632V486H370V99Q370 50 379 33.5Q388 17 417 2V0H242V2Q271 17 279.5 33.5Q288 50 288 99V407Q288 437 275 448.5Q262 460 237 460H145V99Q145 50 153.5 33.5Q162 17 191 2V0H16V2Q45 17 53.5 33.5Q62 50 62 100V459H1V465L62 487V569Q62 651 102.5 701.5Q143 752 204 752Q250 752 280 725.5Q310 699 310 657Q310 626 294.5 603.5Q279 581 251 581Q235 581 222.5 589.5Q210 598 203 611Q220 612 236.5 629Q253 646 253 676Q253 704 240 720Q227 736 204 736Q173 736 159 707Q145 678 145 632Z" glyph-name="f_idieresis" horiz-adv-x="431" /><glyph d="M236 -235Q187 -235 153 -214Q119 -193 119 -147Q119 -119 138.5 -98.5Q158 -78 187 -78Q202 -78 215.5 -85.5Q229 -93 235 -104Q222 -108 205.5 -120Q189 -132 189 -162Q189 -187 201.5 -202.5Q214 -218 236 -218Q271 -218 279.5 -176.5Q288 -135 288 -89V407Q288 437 275 448.5Q262 460 237 460H145V99Q145 50 153.5 33.5Q162 17 191 2V0H16V2Q45 17 53.5 33.5Q62 50 62 100V459H1V465L62 487V536Q62 643 113 697.5Q164 752 238 752Q295 752 332.5 728Q370 704 370 661Q370 636 353.5 617.5Q337 599 306 599Q290 599 277 606Q264 613 257 624Q273 627 285 639.5Q297 652 297 677Q297 705 281.5 720.5Q266 736 238 736Q189 736 167 690Q145 644 145 583V486H370V-66Q370 -153 333 -194Q296 -235 236 -235Z" glyph-name="f_j" horiz-adv-x="425" /><glyph d="M370 755V280H400Q416 280 430.5 286.5Q445 293 461 316L519 407Q523 414 525.5 422Q528 430 528 437Q528 451 520.5 464Q513 477 498 484V486H651V484Q621 474 594 453.5Q567 433 545 400L468 284L575 90Q595 53 618.5 32.5Q642 12 667 2V0H525Q522 20 513.5 37.5Q505 55 496 72L408 237Q401 249 395 253.5Q389 258 380 258H370V99Q370 50 379 33.5Q388 17 416 2V0H242V2Q271 17 279.5 33.5Q288 50 288 99V671Q288 690 272 713Q256 736 220 736Q180 736 162.5 703.5Q145 671 145 622V485H251L246 459H145V99Q145 50 153.5 33.5Q162 17 191 2V0H16V2Q45 17 53.5 33.5Q62 50 62 100V459H1V465L62 487V583Q62 666 104 709Q146 752 213 752Q247 752 269.5 740Q292 728 306 709Q325 716 338 726Q351 736 368 755Z" glyph-name="f_k" horiz-adv-x="652" /><glyph d="M145 485H288V582Q274 582 260 589Q246 596 239 608Q254 612 268.5 624Q283 636 283 664Q283 690 267.5 703Q252 716 226 716Q185 716 165 684Q145 652 145 590ZM191 2V0H16V2Q45 17 53.5 33.5Q62 50 62 100V459H1V465L62 487V549Q62 640 112 686Q162 732 226 732Q253 732 280.5 724Q308 716 325 697Q345 725 375.5 738.5Q406 752 441 752Q482 752 514.5 732.5Q547 713 547 670Q547 640 530 620.5Q513 601 482 601Q467 601 453.5 608Q440 615 433 627Q447 633 462 644.5Q477 656 477 687Q477 710 467.5 723Q458 736 437 736Q400 736 385 694Q370 652 370 595V485H455L450 459H370V93Q370 42 383 29.5Q396 17 427 2V0H242V2Q271 17 279.5 32.5Q288 48 288 94V459H145V99Q145 50 153.5 33.5Q162 17 191 2Z" glyph-name="ff" horiz-adv-x="461" unicode="&#64256;" /><glyph d="M145 486H288V536Q288 548 289 560Q290 572 291 582H289Q274 582 260 589Q246 596 239 608Q254 612 268.5 624Q283 636 283 664Q283 690 267.5 703Q252 716 226 716Q185 716 165 684Q145 652 145 590ZM191 2V0H16V2Q45 17 53.5 33.5Q62 50 62 100V459H1V465L62 487V549Q62 640 112 686Q162 732 226 732Q256 732 286 721.5Q316 711 331 689Q355 720 389.5 736Q424 752 464 752Q521 752 558.5 728Q596 704 596 661Q596 636 579.5 617.5Q563 599 532 599Q516 599 503 606Q490 613 483 624Q499 627 510.5 639.5Q522 652 522 677Q522 705 507 720.5Q492 736 464 736Q415 736 392.5 690Q370 644 370 583V486H596V99Q596 50 605 33.5Q614 17 642 2V0H468V2Q497 17 505.5 33.5Q514 50 514 99V407Q514 437 500.5 448.5Q487 460 462 460H370V99Q370 50 379 33.5Q388 17 417 2V0H242V2Q271 17 280 33.5Q289 50 288 100V460H145V99Q145 50 153.5 33.5Q162 17 191 2Z" glyph-name="ffi" horiz-adv-x="657" unicode="&#64259;" /><glyph d="M145 485H288V582Q273 582 259.5 589Q246 596 239 608Q254 612 268.5 624Q283 636 283 664Q283 690 267.5 703Q252 716 226 716Q185 716 165 684Q145 652 145 590ZM191 2V0H16V2Q45 17 53.5 33.5Q62 50 62 100V459H1V465L62 487V549Q62 640 112 686Q162 732 226 732Q252 732 278.5 724Q305 716 322 700Q342 725 372 738.5Q402 752 439 752Q473 752 495.5 740Q518 728 532 709Q551 716 564 726Q577 736 594 755H596V99Q596 50 605 33.5Q614 17 642 2V0H468V2Q497 17 505.5 33.5Q514 50 514 99V671Q514 690 498 713Q482 736 446 736Q406 736 388 703.5Q370 671 370 622V485H477L472 459H370V99Q370 50 379 33.5Q388 17 417 2V0H242V2Q271 17 279.5 33.5Q288 50 288 100V459H145V99Q145 50 153.5 33.5Q162 17 191 2Z" glyph-name="ffl" horiz-adv-x="657" unicode="&#64260;" /><glyph d="M145 583V486H370V99Q370 50 379 33.5Q388 17 417 2V0H242V2Q271 17 279.5 33.5Q288 50 288 99V407Q288 437 275 448.5Q262 460 237 460H145V99Q145 50 153.5 33.5Q162 17 191 2V0H16V2Q45 17 53.5 33.5Q62 50 62 100V459H1V465L62 487V536Q62 643 113 697.5Q164 752 238 752Q295 752 332.5 728Q370 704 370 661Q370 636 353.5 617.5Q337 599 306 599Q290 599 277 606Q264 613 257 624Q273 627 285 639.5Q297 652 297 677Q297 705 281.5 720.5Q266 736 238 736Q189 736 167 690Q145 644 145 583Z" glyph-name="fi" horiz-adv-x="431" unicode="&#64257;" /><glyph d="M177 8Q249 8 278.5 72.5Q308 137 308 226Q308 310 276.5 359.5Q245 409 191 409Q151 409 117.5 382.5Q84 356 67 331H66L94 705Q134 697 176.5 692Q219 687 252 687Q295 687 322 693.5Q349 700 371 735H374Q374 684 349 642Q324 600 252 600Q212 600 173 608Q134 616 113 622L94 387Q113 411 147 427.5Q181 444 221 444Q301 444 348 382Q395 320 395 231Q395 131 337 60.5Q279 -10 181 -10Q119 -10 65 25.5Q11 61 11 134Q11 177 37.5 204.5Q64 232 98 232Q125 232 141 219.5Q157 207 166 180H164Q158 183 151 184Q144 185 136 185Q114 185 100 166.5Q86 148 86 113Q86 64 112.5 36Q139 8 177 8Z" glyph-name="five" horiz-adv-x="414" unicode="5" /><glyph d="M178 10Q238 10 267 66.5Q296 123 296 203Q296 278 264.5 323.5Q233 369 177 369Q141 369 112.5 344Q84 319 68 296H67L96 635Q136 627 174.5 622Q213 617 246 617Q289 617 316 624Q343 631 365 665H366Q366 614 342.5 572Q319 530 247 530Q207 530 170 537.5Q133 545 111 552L95 351Q113 371 142.5 387Q172 403 215 403Q289 403 335 349.5Q381 296 381 207Q381 112 319 51Q257 -10 177 -10Q114 -10 63.5 28Q13 66 13 132Q13 177 38.5 202Q64 227 94 227Q121 227 136 215Q151 203 157 179H156Q152 182 147 183.5Q142 185 135 185Q119 184 103 166.5Q87 149 87 115Q87 69 112 39.5Q137 10 178 10Z" glyph-name="five.op" horiz-adv-x="401" /><glyph d="M370 755V99Q370 50 379 33.5Q388 17 417 2V0H242V2Q271 17 279.5 33.5Q288 50 288 99V671Q288 690 272 713Q256 736 220 736Q180 736 162.5 703.5Q145 671 145 622V485H251L246 459H145V99Q145 50 153.5 33.5Q162 17 191 2V0H16V2Q45 17 53.5 33.5Q62 50 62 100V459H1V465L62 487V583Q62 666 104 709Q146 752 213 752Q247 752 269.5 740Q292 728 306 709Q325 716 338 726Q351 736 368 755Z" glyph-name="fl" horiz-adv-x="431" unicode="&#64258;" /><glyph d="M178 -12Q169 -96 130.5 -142.5Q92 -189 35 -189Q-10 -189 -42 -169Q-74 -149 -74 -107Q-74 -82 -58.5 -65.5Q-43 -49 -15 -49Q-1 -49 13 -54.5Q27 -60 35 -67Q17 -66 5.5 -80Q-6 -94 -6 -123Q-6 -148 2.5 -160.5Q11 -173 32 -173Q65 -173 78.5 -135Q92 -97 97 -47L139 343H56L59 361H141L160 533Q169 617 207.5 663.5Q246 710 303 710Q351 710 383 688.5Q415 667 415 625Q415 600 399.5 583.5Q384 567 356 567Q342 567 328 572.5Q314 578 306 585Q324 584 335.5 598Q347 612 347 641Q347 666 337 680Q327 694 306 694Q273 694 259.5 656Q246 618 241 569L218 361H318L315 343H216Z" glyph-name="florin" horiz-adv-x="413" unicode="&#402;" /><glyph d="M178 -12Q169 -96 130.5 -142.5Q92 -189 35 -189Q-10 -189 -42 -169Q-74 -149 -74 -107Q-74 -82 -58.5 -65.5Q-43 -49 -15 -49Q-1 -49 13 -54.5Q27 -60 35 -67Q17 -66 5.5 -80Q-6 -94 -6 -123Q-6 -148 2.5 -160.5Q11 -173 32 -173Q65 -173 78.5 -135Q92 -97 97 -47L133 284H56L59 302H135L152 458Q161 542 199.5 588.5Q238 635 295 635Q343 635 375 613.5Q407 592 407 550Q407 525 391.5 508.5Q376 492 348 492Q334 492 320 497.5Q306 503 298 510Q316 509 327.5 523Q339 537 339 566Q339 591 329 605Q319 619 298 619Q265 619 251.5 581Q238 543 233 494L212 302H318L315 284H210Z" glyph-name="florin.op" horiz-adv-x="413" /><glyph d="M247 218V591L47 218ZM247 118V191H4V193L289 710H331V218H346Q388 218 403 233Q418 248 434 294H436V114H434Q418 160 403 175.5Q388 191 346 191H331V118Q331 69 341.5 42.5Q352 16 388 2V0H190V2Q226 16 236.5 42.5Q247 69 247 118Z" glyph-name="four" horiz-adv-x="452" unicode="4" /><glyph d="M222 203V505L49 203ZM222 128V176H4V178L265 626H301V203H315Q354 203 368 218.5Q382 234 398 280H400V99H398Q382 145 368 160.5Q354 176 315 176H301V128Q301 79 311.5 47.5Q322 16 358 2V0H165V2Q201 16 211.5 47.5Q222 79 222 128Z" glyph-name="four.op" horiz-adv-x="416" /><glyph d="M0 -123 294 749H322L29 -123Z" glyph-name="fraction" horiz-adv-x="342" unicode="&#8260;" /><glyph d="M200 479Q165 479 148.5 435Q132 391 132 333Q132 275 148.5 231Q165 187 200 187Q234 187 251 231Q268 275 268 333Q268 391 251 435Q234 479 200 479ZM406 -52Q406 -135 342 -185Q278 -235 191 -235Q128 -235 67 -205Q6 -175 6 -106Q6 -60 40 -32Q74 -4 124 4Q91 8 61 30Q31 52 31 97Q31 134 59 158.5Q87 183 115 193Q80 214 61.5 251.5Q43 289 43 333Q43 400 84 448Q125 496 200 496Q226 496 248.5 489.5Q271 483 289 471Q295 512 316.5 537.5Q338 563 366 563Q395 563 408 546.5Q421 530 421 511Q421 492 407.5 477Q394 462 377 454L376 456Q377 460 378 464.5Q379 469 379 473Q379 486 371 495.5Q363 505 347 505Q331 505 319 493Q307 481 302 462Q329 440 343 406.5Q357 373 357 333Q357 267 316 218.5Q275 170 200 170Q179 170 161 174.5Q143 179 127 186Q111 179 97.5 165Q84 151 84 131Q84 106 102.5 94.5Q121 83 146 83H260Q329 83 367.5 47Q406 11 406 -52ZM206 -216Q263 -216 301.5 -181.5Q340 -147 340 -93Q340 -42 312 -19.5Q284 3 221 3H180Q136 3 109 -23Q82 -49 82 -100Q82 -153 116 -184.5Q150 -216 206 -216Z" glyph-name="g" horiz-adv-x="408" unicode="g" /><glyph d="M200 479Q165 479 148.5 435Q132 391 132 333Q132 275 148.5 231Q165 187 200 187Q234 187 251 231Q268 275 268 333Q268 391 251 435Q234 479 200 479ZM406 -52Q406 -135 342 -185Q278 -235 191 -235Q128 -235 67 -205Q6 -175 6 -106Q6 -60 40 -32Q74 -4 124 4Q91 8 61 30Q31 52 31 97Q31 134 59 158.5Q87 183 115 193Q80 214 61.5 251.5Q43 289 43 333Q43 400 84 448Q125 496 200 496Q226 496 248.5 489.5Q271 483 289 471Q295 512 316.5 537.5Q338 563 366 563Q395 563 408 546.5Q421 530 421 511Q421 492 407.5 477Q394 462 377 454L376 456Q377 460 378 464.5Q379 469 379 473Q379 486 371 495.5Q363 505 347 505Q331 505 319 493Q307 481 302 462Q329 440 343 406.5Q357 373 357 333Q357 267 316 218.5Q275 170 200 170Q179 170 161 174.5Q143 179 127 186Q111 179 97.5 165Q84 151 84 131Q84 106 102.5 94.5Q121 83 146 83H260Q329 83 367.5 47Q406 11 406 -52ZM206 -216Q263 -216 301.5 -181.5Q340 -147 340 -93Q340 -42 312 -19.5Q284 3 221 3H180Q136 3 109 -23Q82 -49 82 -100Q82 -153 116 -184.5Q150 -216 206 -216ZM292 713Q292 634 265.5 592.5Q239 551 199 551Q159 551 132.5 592.5Q106 634 106 713H113Q117 659 143.5 636Q170 613 199 613Q228 613 254.5 636Q281 659 285 713Z" glyph-name="gbreve" horiz-adv-x="408" unicode="&#287;" /><glyph d="M200 479Q165 479 148.5 435Q132 391 132 333Q132 275 148.5 231Q165 187 200 187Q234 187 251 231Q268 275 268 333Q268 391 251 435Q234 479 200 479ZM406 -52Q406 -135 342 -185Q278 -235 191 -235Q128 -235 67 -205Q6 -175 6 -106Q6 -60 40 -32Q74 -4 124 4Q91 8 61 30Q31 52 31 97Q31 134 59 158.5Q87 183 115 193Q80 214 61.5 251.5Q43 289 43 333Q43 400 84 448Q125 496 200 496Q226 496 248.5 489.5Q271 483 289 471Q295 512 316.5 537.5Q338 563 366 563Q395 563 408 546.5Q421 530 421 511Q421 492 407.5 477Q394 462 377 454L376 456Q377 460 378 464.5Q379 469 379 473Q379 486 371 495.5Q363 505 347 505Q331 505 319 493Q307 481 302 462Q329 440 343 406.5Q357 373 357 333Q357 267 316 218.5Q275 170 200 170Q179 170 161 174.5Q143 179 127 186Q111 179 97.5 165Q84 151 84 131Q84 106 102.5 94.5Q121 83 146 83H260Q329 83 367.5 47Q406 11 406 -52ZM206 -216Q263 -216 301.5 -181.5Q340 -147 340 -93Q340 -42 312 -19.5Q284 3 221 3H180Q136 3 109 -23Q82 -49 82 -100Q82 -153 116 -184.5Q150 -216 206 -216ZM303 543Q275 556 245 580Q215 604 200 627Q184 604 154 580Q124 556 96 543H90Q125 583 153.5 633.5Q182 684 198 744H202Q218 684 246 633.5Q274 583 309 543Z" glyph-name="gcircumflex" horiz-adv-x="408" unicode="&#285;" /><glyph d="M200 479Q165 479 148.5 435Q132 391 132 333Q132 275 148.5 231Q165 187 200 187Q234 187 251 231Q268 275 268 333Q268 391 251 435Q234 479 200 479ZM406 -52Q406 -135 342 -185Q278 -235 191 -235Q128 -235 67 -205Q6 -175 6 -106Q6 -60 40 -32Q74 -4 124 4Q91 8 61 30Q31 52 31 97Q31 134 59 158.5Q87 183 115 193Q80 214 61.5 251.5Q43 289 43 333Q43 400 84 448Q125 496 200 496Q226 496 248.5 489.5Q271 483 289 471Q295 512 316.5 537.5Q338 563 366 563Q395 563 408 546.5Q421 530 421 511Q421 492 407.5 477Q394 462 377 454L376 456Q377 460 378 464.5Q379 469 379 473Q379 486 371 495.5Q363 505 347 505Q331 505 319 493Q307 481 302 462Q329 440 343 406.5Q357 373 357 333Q357 267 316 218.5Q275 170 200 170Q179 170 161 174.5Q143 179 127 186Q111 179 97.5 165Q84 151 84 131Q84 106 102.5 94.5Q121 83 146 83H260Q329 83 367.5 47Q406 11 406 -52ZM206 -216Q263 -216 301.5 -181.5Q340 -147 340 -93Q340 -42 312 -19.5Q284 3 221 3H180Q136 3 109 -23Q82 -49 82 -100Q82 -153 116 -184.5Q150 -216 206 -216ZM141 636Q141 674 171 702Q201 730 248 732V719Q210 716 193.5 696.5Q177 677 174 650Q181 657 190.5 660Q200 663 210 663Q230 663 243.5 649.5Q257 636 257 618Q257 596 242 582Q227 568 204 568Q176 568 158.5 585.5Q141 603 141 636Z" glyph-name="gcommaaccent" horiz-adv-x="408" unicode="&#291;" /><glyph d="M200 479Q165 479 148.5 435Q132 391 132 333Q132 275 148.5 231Q165 187 200 187Q234 187 251 231Q268 275 268 333Q268 391 251 435Q234 479 200 479ZM406 -52Q406 -135 342 -185Q278 -235 191 -235Q128 -235 67 -205Q6 -175 6 -106Q6 -60 40 -32Q74 -4 124 4Q91 8 61 30Q31 52 31 97Q31 134 59 158.5Q87 183 115 193Q80 214 61.5 251.5Q43 289 43 333Q43 400 84 448Q125 496 200 496Q226 496 248.5 489.5Q271 483 289 471Q295 512 316.5 537.5Q338 563 366 563Q395 563 408 546.5Q421 530 421 511Q421 492 407.5 477Q394 462 377 454L376 456Q377 460 378 464.5Q379 469 379 473Q379 486 371 495.5Q363 505 347 505Q331 505 319 493Q307 481 302 462Q329 440 343 406.5Q357 373 357 333Q357 267 316 218.5Q275 170 200 170Q179 170 161 174.5Q143 179 127 186Q111 179 97.5 165Q84 151 84 131Q84 106 102.5 94.5Q121 83 146 83H260Q329 83 367.5 47Q406 11 406 -52ZM206 -216Q263 -216 301.5 -181.5Q340 -147 340 -93Q340 -42 312 -19.5Q284 3 221 3H180Q136 3 109 -23Q82 -49 82 -100Q82 -153 116 -184.5Q150 -216 206 -216ZM142 643Q142 666 159 683Q176 700 199 700Q223 700 240 683Q257 666 257 643Q257 620 240 603Q223 586 199 586Q176 586 159 603Q142 620 142 643Z" glyph-name="gdotaccent" horiz-adv-x="408" unicode="&#289;" /><glyph d="M144 563V0H16V2Q45 17 53.5 32.5Q62 48 62 94V460H1V466L62 488V523Q62 655 124.5 703.5Q187 752 243 752Q298 752 344 722Q390 692 390 632Q390 578 357 547Q324 516 296 488Q272 463 262.5 446.5Q253 430 253 406Q253 376 274.5 354.5Q296 333 345 293Q391 256 416.5 223Q442 190 442 138Q442 71 405 30.5Q368 -10 314 -10Q281 -10 265.5 3Q250 16 232 16Q221 16 213 8Q205 0 198 -10L190 180H192Q223 94 253 52Q283 10 320 10Q350 10 367.5 35Q385 60 385 90Q385 133 364.5 157Q344 181 302 215Q258 252 230.5 280.5Q203 309 203 364Q203 404 225 434.5Q247 465 285 506Q308 531 317 562Q326 593 326 628Q326 677 303.5 706.5Q281 736 243 736Q193 736 168.5 691Q144 646 144 563Z" glyph-name="germandbls" horiz-adv-x="454" unicode="&#223;" /><glyph d="M262 721Q262 684 267 633.5Q272 583 294 544H291Q246 581 217.5 623.5Q189 666 180 721Z" glyph-name="grave" horiz-adv-x="500" unicode="`" /><glyph d="M278 871Q281 834 290 802Q299 770 321 734H318Q267 756 229.5 791Q192 826 179 871Z" glyph-name="grave.cap" horiz-adv-x="500" /><glyph d="M255 329V311L27 179V209L222 320L27 431V461Z" glyph-name="greater" horiz-adv-x="271" unicode="&gt;" /><glyph d="M257 355V336L29 236V264L217 345L29 427V455ZM257 199V174H29V199Z" glyph-name="greaterequal" horiz-adv-x="271" unicode="&#8805;" /><glyph d="M15 243V245Q65 279 110.5 324.5Q156 370 186 423H193Q176 368 155 323Q134 278 110 244Q134 210 155 165Q176 120 193 65H186Q156 118 110.5 163.5Q65 209 15 243ZM141 243V245Q191 279 236.5 324.5Q282 370 312 423H319Q302 368 281 323Q260 278 236 244Q260 210 281 165Q302 120 319 65H312Q282 118 236.5 163.5Q191 209 141 243Z" glyph-name="guillemotleft" horiz-adv-x="334" unicode="&#171;" /><glyph d="M15 343V345Q65 379 110.5 424.5Q156 470 186 523H193Q176 468 155 423Q134 378 110 344Q134 310 155 265Q176 220 193 165H186Q156 218 110.5 263.5Q65 309 15 343ZM141 343V345Q191 379 236.5 424.5Q282 470 312 523H319Q302 468 281 423Q260 378 236 344Q260 310 281 265Q302 220 319 165H312Q282 218 236.5 263.5Q191 309 141 343Z" glyph-name="guillemotleft.cap" horiz-adv-x="334" /><glyph d="M193 245V243Q143 209 97.5 163.5Q52 118 22 65H15Q32 120 53 165Q74 210 98 244Q74 278 53 323Q32 368 15 423H22Q52 370 97.5 324.5Q143 279 193 245ZM319 245V243Q269 209 223.5 163.5Q178 118 148 65H141Q158 120 179 165Q200 210 224 244Q200 278 179 323Q158 368 141 423H148Q178 370 223.5 324.5Q269 279 319 245Z" glyph-name="guillemotright" horiz-adv-x="334" unicode="&#187;" /><glyph d="M193 345V343Q143 309 97.5 263.5Q52 218 22 165H15Q32 220 53 265Q74 310 98 344Q74 378 53 423Q32 468 15 523H22Q52 470 97.5 424.5Q143 379 193 345ZM319 345V343Q269 309 223.5 263.5Q178 218 148 165H141Q158 220 179 265Q200 310 224 344Q200 378 179 423Q158 468 141 523H148Q178 470 223.5 424.5Q269 379 319 345Z" glyph-name="guillemotright.cap" horiz-adv-x="334" /><glyph d="M15 243V245Q65 279 110.5 324.5Q156 370 186 423H193Q176 368 155 323Q134 278 110 244Q134 210 155 165Q176 120 193 65H186Q156 118 110.5 163.5Q65 209 15 243Z" glyph-name="guilsinglleft" horiz-adv-x="208" unicode="&#8249;" /><glyph d="M15 343V345Q65 379 110.5 424.5Q156 470 186 523H193Q176 468 155 423Q134 378 110 344Q134 310 155 265Q176 220 193 165H186Q156 218 110.5 263.5Q65 309 15 343Z" glyph-name="guilsinglleft.cap" horiz-adv-x="208" /><glyph d="M193 245V243Q143 209 97.5 163.5Q52 118 22 65H15Q32 120 53 165Q74 210 98 244Q74 278 53 323Q32 368 15 423H22Q52 370 97.5 324.5Q143 279 193 245Z" glyph-name="guilsinglright" horiz-adv-x="208" unicode="&#8250;" /><glyph d="M193 345V343Q143 309 97.5 263.5Q52 218 22 165H15Q32 220 53 265Q74 310 98 344Q74 378 53 423Q32 468 15 523H22Q52 470 97.5 424.5Q143 379 193 345Z" glyph-name="guilsinglright.cap" horiz-adv-x="208" /><glyph d="M6 749H140V388Q154 439 186 467.5Q218 496 261 496Q308 496 338.5 465.5Q369 435 369 372V99Q369 50 378 33.5Q387 17 415 2V0H241V2Q270 17 278.5 33.5Q287 50 287 99V363Q287 396 274.5 420.5Q262 445 225 445Q194 445 167 414Q140 383 140 306V99Q140 50 149 33.5Q158 17 186 2V0H12V2Q41 17 49.5 33.5Q58 50 58 99V640Q58 689 46.5 710.5Q35 732 6 747Z" glyph-name="h" horiz-adv-x="426" unicode="h" /><glyph d="M186 2V0H12V2Q41 17 49.5 33.5Q58 50 58 99V575H18V599H58V640Q58 689 46.5 710.5Q35 732 6 747V749H140V599H245V575H140V388Q154 439 186 467.5Q218 496 261 496Q308 496 338.5 465.5Q369 435 369 372V99Q369 50 378 33.5Q387 17 415 2V0H241V2Q270 17 278.5 33.5Q287 50 287 99V363Q287 396 274.5 420.5Q262 445 225 445Q194 445 167 414Q140 383 140 306V99Q140 50 149 33.5Q158 17 186 2Z" glyph-name="hbar" horiz-adv-x="426" unicode="&#295;" /><glyph d="M6 749H140V388Q154 439 186 467.5Q218 496 261 496Q308 496 338.5 465.5Q369 435 369 372V99Q369 50 378 33.5Q387 17 415 2V0H241V2Q270 17 278.5 33.5Q287 50 287 99V363Q287 396 274.5 420.5Q262 445 225 445Q194 445 167 414Q140 383 140 306V99Q140 50 149 33.5Q158 17 186 2V0H12V2Q41 17 49.5 33.5Q58 50 58 99V640Q58 689 46.5 710.5Q35 732 6 747ZM324 769Q293 773 260 786Q227 799 211 818Q193 799 160 786Q127 773 96 769H89Q132 802 161 837Q190 872 208 923H213Q231 872 259.5 837Q288 802 331 769Z" glyph-name="hcircumflex" horiz-adv-x="426" unicode="&#293;" /><glyph d="M279 721H353Q344 666 319.5 623.5Q295 581 250 544H247Q269 583 274 633.5Q279 684 279 721ZM179 721H253Q244 666 219.5 623.5Q195 581 150 544H147Q169 583 174 633.5Q179 684 179 721Z" glyph-name="hungarumlaut" horiz-adv-x="500" unicode="&#733;" /><glyph d="M278 871H359Q346 826 317.5 794Q289 762 250 734H247Q261 768 269.5 801Q278 834 278 871ZM178 871H259Q246 826 217.5 794Q189 762 150 734H147Q161 768 169.5 801Q178 834 178 871Z" glyph-name="hungarumlaut.cap" horiz-adv-x="500" /><glyph d="M30 263V290H174V263Z" glyph-name="hyphen" horiz-adv-x="203" unicode="-" /><glyph d="M30 338V366H174V338Z" glyph-name="hyphen.cap" horiz-adv-x="203" /><glyph d="M45 643Q45 666 62 683Q79 700 102 700Q126 700 143 683Q160 666 160 643Q160 620 143 603Q126 586 102 586Q79 586 62 603Q45 620 45 643ZM144 486V99Q144 50 153 33.5Q162 17 191 2V0H16V2Q45 17 53.5 33.5Q62 50 62 99V377Q62 426 50.5 448Q39 470 10 484V486Z" glyph-name="i" horiz-adv-x="205" unicode="i" /><glyph d="M144 486V99Q144 50 153 33.5Q162 17 191 2V0H16V2Q45 17 53.5 33.5Q62 50 62 99V377Q62 426 50.5 448Q39 470 10 484V486ZM78 721H160Q151 666 122.5 623.5Q94 581 49 544H46Q68 583 73 633.5Q78 684 78 721Z" glyph-name="iacute" horiz-adv-x="205" unicode="&#237;" /><glyph d="M144 486V99Q144 50 153 33.5Q162 17 191 2V0H16V2Q45 17 53.5 33.5Q62 50 62 99V377Q62 426 50.5 448Q39 470 10 484V486ZM194 713Q194 634 167.5 592.5Q141 551 101 551Q61 551 34.5 592.5Q8 634 8 713H15Q19 659 45.5 636Q72 613 101 613Q130 613 156.5 636Q183 659 187 713Z" glyph-name="ibreve" horiz-adv-x="205" unicode="&#301;" /><glyph d="M144 486V99Q144 50 153 33.5Q162 17 191 2V0H16V2Q45 17 53.5 33.5Q62 50 62 99V377Q62 426 50.5 448Q39 470 10 484V486ZM205 543Q177 556 147 580Q117 604 102 627Q86 604 56 580Q26 556 -2 543H-8Q27 583 55.5 633.5Q84 684 100 744H104Q120 684 148 633.5Q176 583 211 543Z" glyph-name="icircumflex" horiz-adv-x="205" unicode="&#238;" /><glyph d="M144 486V99Q144 50 153 33.5Q162 17 191 2V0H16V2Q45 17 53.5 33.5Q62 50 62 99V377Q62 426 50.5 448Q39 470 10 484V486ZM163 581Q140 581 126 597Q112 613 112 633Q112 652 126 668Q140 684 163 684Q183 684 198.5 668Q214 652 214 633Q214 613 198.5 597Q183 581 163 581ZM39 581Q18 581 3 597Q-12 613 -12 633Q-12 652 3 668Q18 684 39 684Q61 684 75.5 668Q90 652 90 633Q90 613 75.5 597Q61 581 39 581Z" glyph-name="idieresis" horiz-adv-x="205" unicode="&#239;" /><glyph d="M44 643Q44 666 61 683Q78 700 101 700Q125 700 142 683Q159 666 159 643Q159 620 142 603Q125 586 101 586Q78 586 61 603Q44 620 44 643ZM144 486V99Q144 50 153 33.5Q162 17 191 2V0H16V2Q45 17 53.5 33.5Q62 50 62 99V377Q62 426 50.5 448Q39 470 10 484V486Z" glyph-name="idotaccent" horiz-adv-x="205" /><glyph d="M144 486V99Q144 50 153 33.5Q162 17 191 2V0H16V2Q45 17 53.5 33.5Q62 50 62 99V377Q62 426 50.5 448Q39 470 10 484V486ZM118 721Q118 684 123 633.5Q128 583 150 544H147Q102 581 73.5 623.5Q45 666 36 721Z" glyph-name="igrave" horiz-adv-x="205" unicode="&#236;" /><glyph d="M187 579H6V614H187ZM144 486V99Q144 50 153 33.5Q162 17 191 2V0H16V2Q45 17 53.5 33.5Q62 50 62 99V377Q62 426 50.5 448Q39 470 10 484V486Z" glyph-name="imacron" horiz-adv-x="205" unicode="&#299;" /><glyph d="M45 643Q45 666 62 683Q79 700 102 700Q126 700 143 683Q160 666 160 643Q160 620 143 603Q126 586 102 586Q79 586 62 603Q45 620 45 643ZM175 -139Q167 -176 147 -205.5Q127 -235 90 -235Q59 -235 37.5 -214.5Q16 -194 16 -159Q16 -111 50.5 -71.5Q85 -32 127 0H16V2Q45 17 53.5 33.5Q62 50 62 99V377Q62 426 50.5 448Q39 470 10 484V486H144V99Q144 50 153 33.5Q162 17 191 2V0H143Q108 -33 89 -67.5Q70 -102 70 -135Q70 -164 82.5 -177.5Q95 -191 116 -191Q135 -191 148 -177.5Q161 -164 173 -137Z" glyph-name="iogonek" horiz-adv-x="205" unicode="&#303;" /><glyph d="M144 486V99Q144 50 153 33.5Q162 17 191 2V0H16V2Q45 17 53.5 33.5Q62 50 62 99V377Q62 426 50.5 448Q39 470 10 484V486ZM227 703Q217 640 197 605Q177 570 149 570Q118 570 91.5 604Q65 638 41 638Q19 638 5.5 617.5Q-8 597 -18 566H-25Q-15 629 5 664Q25 699 53 699Q84 699 110.5 665Q137 631 161 631Q183 631 196.5 651.5Q210 672 220 703Z" glyph-name="itilde" horiz-adv-x="205" unicode="&#297;" /><glyph d="M45 643Q45 666 62 683Q79 700 102 700Q126 700 143 683Q160 666 160 643Q160 620 143 603Q126 586 102 586Q79 586 62 603Q45 620 45 643ZM10 -235Q-39 -235 -73 -214Q-107 -193 -107 -147Q-107 -119 -87.5 -98.5Q-68 -78 -39 -78Q-24 -78 -10.5 -85.5Q3 -93 9 -104Q-4 -108 -20.5 -120Q-37 -132 -37 -162Q-37 -187 -24.5 -202.5Q-12 -218 10 -218Q45 -218 53.5 -176.5Q62 -135 62 -89V377Q62 426 50.5 448Q39 470 10 484V486H144V-66Q144 -153 107 -194Q70 -235 10 -235Z" glyph-name="j" horiz-adv-x="199" unicode="j" /><glyph d="M144 -66Q144 -153 107 -194Q70 -235 10 -235Q-39 -235 -73 -214Q-107 -193 -107 -147Q-107 -119 -87.5 -98.5Q-68 -78 -39 -78Q-24 -78 -10.5 -85.5Q3 -93 9 -104Q-4 -108 -20.5 -120Q-37 -132 -37 -162Q-37 -187 -24.5 -202.5Q-12 -218 10 -218Q45 -218 53.5 -176.5Q62 -135 62 -89V377Q62 426 50.5 448Q39 470 10 484V486H144ZM204 543Q176 556 146 580Q116 604 101 627Q85 604 55 580Q25 556 -3 543H-9Q26 583 54.5 633.5Q83 684 99 744H103Q119 684 147 633.5Q175 583 210 543Z" glyph-name="jcircumflex" horiz-adv-x="199" unicode="&#309;" /><glyph d="M140 280H170Q186 280 200.5 286.5Q215 293 231 316L289 407Q293 414 295.5 422Q298 430 298 437Q298 451 290.5 464Q283 477 268 484V486H421V484Q391 474 364 453.5Q337 433 315 400L238 284L345 90Q365 53 388.5 32.5Q412 12 437 2V0H295Q292 20 283.5 37.5Q275 55 266 72L178 237Q171 249 165 253.5Q159 258 150 258H140V99Q140 50 149 33.5Q158 17 186 2V0H12V2Q41 17 49.5 33.5Q58 50 58 99V640Q58 689 46.5 710.5Q35 732 6 747V749H140Z" glyph-name="k" horiz-adv-x="422" unicode="k" /><glyph d="M140 280H170Q186 280 200.5 286.5Q215 293 231 316L289 407Q293 414 295.5 422Q298 430 298 437Q298 451 290.5 464Q283 477 268 484V486H421V484Q391 474 364 453.5Q337 433 315 400L238 284L345 90Q365 53 388.5 32.5Q412 12 437 2V0H295Q292 20 283.5 37.5Q275 55 266 72L178 237Q171 249 165 253.5Q159 258 150 258H140V99Q140 50 149 33.5Q158 17 186 2V0H12V2Q41 17 49.5 33.5Q58 50 58 99V640Q58 689 46.5 710.5Q35 732 6 747V749H140ZM266 -126Q266 -164 236 -192Q206 -220 159 -222V-209Q197 -206 213.5 -186.5Q230 -167 233 -140Q226 -147 216.5 -150Q207 -153 197 -153Q177 -153 163.5 -139.5Q150 -126 150 -108Q150 -86 165 -72Q180 -58 203 -58Q231 -58 248.5 -75.5Q266 -93 266 -126Z" glyph-name="kcommaaccent" horiz-adv-x="422" unicode="&#311;" /><glyph d="M144 280H174Q190 280 204.5 286.5Q219 293 235 316L293 407Q297 414 299.5 422Q302 430 302 437Q302 451 294.5 464Q287 477 272 484V486H425V484Q395 474 368 453.5Q341 433 319 400L242 284L349 90Q369 53 392.5 32.5Q416 12 441 2V0H299Q296 20 287.5 37.5Q279 55 270 72L182 237Q175 249 169 253.5Q163 258 154 258H144V99Q144 50 153 33.5Q162 17 190 2V0H16V2Q45 17 53.5 33.5Q62 50 62 99V377Q62 426 50.5 447.5Q39 469 10 484V486H144Z" glyph-name="kgreenlandic" horiz-adv-x="426" unicode="&#312;" /><glyph d="M140 749V99Q140 50 149 33.5Q158 17 186 2V0H12V2Q41 17 49.5 33.5Q58 50 58 99V640Q58 689 46.5 710.5Q35 732 6 747V749Z" glyph-name="l" horiz-adv-x="201" unicode="l" /><glyph d="M140 749V99Q140 50 149 33.5Q158 17 186 2V0H12V2Q41 17 49.5 33.5Q58 50 58 99V640Q58 689 46.5 710.5Q35 732 6 747V749ZM86 901H185Q172 856 134.5 821Q97 786 46 764H43Q65 800 74 832Q83 864 86 901Z" glyph-name="lacute" horiz-adv-x="201" unicode="&#314;" /><glyph d="M140 749V99Q140 50 149 33.5Q158 17 186 2V0H12V2Q41 17 49.5 33.5Q58 50 58 99V640Q58 689 46.5 710.5Q35 732 6 747V749ZM272 749Q262 701 230.5 640Q199 579 173 545H170Q181 586 186.5 639.5Q192 693 188 749Z" glyph-name="lcaron" horiz-adv-x="201" unicode="&#318;" /><glyph d="M140 749V99Q140 50 149 33.5Q158 17 186 2V0H12V2Q41 17 49.5 33.5Q58 50 58 99V640Q58 689 46.5 710.5Q35 732 6 747V749ZM154 -126Q154 -164 124 -192Q94 -220 47 -222V-209Q85 -206 101.5 -186.5Q118 -167 121 -140Q114 -147 104.5 -150Q95 -153 85 -153Q65 -153 51.5 -139.5Q38 -126 38 -108Q38 -86 53 -72Q68 -58 91 -58Q119 -58 136.5 -75.5Q154 -93 154 -126Z" glyph-name="lcommaaccent" horiz-adv-x="201" unicode="&#316;" /><glyph d="M140 749V99Q140 50 149 33.5Q158 17 186 2V0H12V2Q41 17 49.5 33.5Q58 50 58 99V640Q58 689 46.5 710.5Q35 732 6 747V749ZM184 374Q184 397 201 414Q218 431 241 431Q265 431 282 414Q299 397 299 374Q299 351 282 334Q265 317 241 317Q218 317 201 334Q184 351 184 374Z" glyph-name="ldot" horiz-adv-x="293" unicode="&#320;" /><glyph d="M16 311V329L244 461V431L49 320L244 209V179Z" glyph-name="less" horiz-adv-x="271" unicode="&lt;" /><glyph d="M14 336V355L243 455V427L55 345L243 264V236ZM14 174V199H243V174Z" glyph-name="lessequal" horiz-adv-x="271" unicode="&#8804;" /><glyph d="M197 0H23V2Q52 17 60.5 33.5Q69 50 69 99V371L5 326V355L69 400V640Q69 689 57.5 710.5Q46 732 17 747V749H151V450L216 497V468L151 421V99Q151 50 160 33.5Q169 17 197 2Z" glyph-name="lslash" horiz-adv-x="221" unicode="&#322;" /><glyph d="M362 390Q376 441 407 468.5Q438 496 479 496Q526 496 554 465.5Q582 435 582 372V99Q582 50 590.5 33.5Q599 17 628 2V0H454V2Q482 17 491 33.5Q500 50 500 99V363Q500 396 489.5 420.5Q479 445 442 445Q413 445 388 414Q363 383 363 306V99Q363 50 371.5 33.5Q380 17 409 2V0H235V2Q264 17 272.5 33.5Q281 50 281 99V363Q281 396 271 420.5Q261 445 224 445Q195 445 169.5 414Q144 383 144 306V99Q144 50 153 33.5Q162 17 191 2V0H16V2Q45 17 53.5 33.5Q62 50 62 99V377Q62 426 50.5 448Q39 470 10 484V486H144V388Q158 439 188.5 467.5Q219 496 260 496Q303 496 330.5 469Q358 442 362 390Z" glyph-name="m" horiz-adv-x="639" unicode="m" /><glyph d="M355 579H144V614H355Z" glyph-name="macron" horiz-adv-x="500" unicode="&#175;" /><glyph d="M355 754H144V789H355Z" glyph-name="macron.cap" horiz-adv-x="500" /><glyph d="M43 309V335H356V309Z" glyph-name="minus" horiz-adv-x="399" unicode="&#8722;" /><glyph d="M141 320 35 427 53 445 159 338 265 445 283 427 177 320 283 213 265 196 159 303 53 196 35 213Z" glyph-name="multiply" horiz-adv-x="318" unicode="&#215;" /><glyph d="M10 486H144V388Q158 439 190 467.5Q222 496 266 496Q312 496 342.5 465.5Q373 435 373 372V99Q373 50 382 33.5Q391 17 420 2V0H245V2Q274 17 282.5 33.5Q291 50 291 99V363Q291 396 278.5 420.5Q266 445 229 445Q198 445 171 414Q144 383 144 306V99Q144 50 153 33.5Q162 17 191 2V0H16V2Q45 17 53.5 33.5Q62 50 62 99V377Q62 426 50.5 448Q39 470 10 484Z" glyph-name="n" horiz-adv-x="431" unicode="n" /><glyph d="M10 486H144V388Q158 439 190 467.5Q222 496 266 496Q312 496 342.5 465.5Q373 435 373 372V99Q373 50 382 33.5Q391 17 420 2V0H245V2Q274 17 282.5 33.5Q291 50 291 99V363Q291 396 278.5 420.5Q266 445 229 445Q198 445 171 414Q144 383 144 306V99Q144 50 153 33.5Q162 17 191 2V0H16V2Q45 17 53.5 33.5Q62 50 62 99V377Q62 426 50.5 448Q39 470 10 484ZM202 721H284Q275 666 246.5 623.5Q218 581 173 544H170Q192 583 197 633.5Q202 684 202 721Z" glyph-name="nacute" horiz-adv-x="431" unicode="&#324;" /><glyph d="M10 486H144V388Q158 439 190 467.5Q222 496 266 496Q312 496 342.5 465.5Q373 435 373 372V99Q373 50 382 33.5Q391 17 420 2V0H245V2Q274 17 282.5 33.5Q291 50 291 99V363Q291 396 278.5 420.5Q266 445 229 445Q198 445 171 414Q144 383 144 306V99Q144 50 153 33.5Q162 17 191 2V0H16V2Q45 17 53.5 33.5Q62 50 62 99V377Q62 426 50.5 448Q39 470 10 484ZM122 744Q150 731 180 707Q210 683 226 660Q241 683 271 707Q301 731 329 744H335Q300 704 272 653.5Q244 603 228 543H224Q208 603 179.5 653.5Q151 704 116 744Z" glyph-name="ncaron" horiz-adv-x="431" unicode="&#328;" /><glyph d="M10 486H144V388Q158 439 190 467.5Q222 496 266 496Q312 496 342.5 465.5Q373 435 373 372V99Q373 50 382 33.5Q391 17 420 2V0H245V2Q274 17 282.5 33.5Q291 50 291 99V363Q291 396 278.5 420.5Q266 445 229 445Q198 445 171 414Q144 383 144 306V99Q144 50 153 33.5Q162 17 191 2V0H16V2Q45 17 53.5 33.5Q62 50 62 99V377Q62 426 50.5 448Q39 470 10 484ZM283 -126Q283 -164 253 -192Q223 -220 176 -222V-209Q214 -206 230.5 -186.5Q247 -167 250 -140Q243 -147 233.5 -150Q224 -153 214 -153Q194 -153 180.5 -139.5Q167 -126 167 -108Q167 -86 182 -72Q197 -58 220 -58Q248 -58 265.5 -75.5Q283 -93 283 -126Z" glyph-name="ncommaaccent" horiz-adv-x="431" unicode="&#326;" /><glyph d="M119 483Q119 406 145 349.5Q171 293 225 293Q276 293 304.5 351.5Q333 410 333 483Q333 556 306.5 622.5Q280 689 221 689Q170 689 144.5 626Q119 563 119 483ZM184 -10Q119 -10 80 27Q41 64 41 121Q41 157 63 181.5Q85 206 119 206Q141 206 163 194.5Q185 183 193 157H191Q184 161 176.5 162.5Q169 164 162 164Q141 164 124.5 147.5Q108 131 108 91Q108 57 127.5 33Q147 9 185 9Q266 9 308.5 116Q351 223 351 348Q351 360 350.5 372.5Q350 385 350 394Q334 338 298.5 302.5Q263 267 203 267Q143 267 86.5 318.5Q30 370 30 484Q30 579 81.5 644.5Q133 710 220 710Q330 710 382 602Q434 494 434 372Q434 232 365.5 111Q297 -10 184 -10Z" glyph-name="nine" horiz-adv-x="465" unicode="9" /><glyph d="M114 409Q114 332 140.5 275.5Q167 219 224 219Q275 219 304 277.5Q333 336 333 409Q333 482 306.5 548.5Q280 615 220 615Q166 615 140 552Q114 489 114 409ZM168 -84Q108 -84 69.5 -53.5Q31 -23 31 33Q31 70 53.5 94Q76 118 110 118Q132 118 154.5 106.5Q177 95 185 69H183Q176 73 168.5 74.5Q161 76 154 76Q132 76 115.5 60Q99 44 99 7Q99 -25 117 -45Q135 -65 167 -65Q251 -65 297 45Q343 155 343 274Q343 286 342.5 298.5Q342 311 341 320Q325 264 293 228.5Q261 193 201 193Q141 193 85.5 244.5Q30 296 30 410Q30 505 81 570.5Q132 636 219 636Q328 636 376.5 533Q425 430 425 308Q425 171 354.5 43.5Q284 -84 168 -84Z" glyph-name="nine.op" horiz-adv-x="456" /><glyph glyph-name="nonmarkingreturn" horiz-adv-x="500" unicode="" /><glyph d="M359 258H166L103 180H72L135 258H45V283H155L220 363H45V388H240L301 464H332L271 388H359V363H251L186 283H359Z" glyph-name="notequal" horiz-adv-x="404" unicode="&#8800;" /><glyph d="M10 486H144V388Q158 439 190 467.5Q222 496 266 496Q312 496 342.5 465.5Q373 435 373 372V99Q373 50 382 33.5Q391 17 420 2V0H245V2Q274 17 282.5 33.5Q291 50 291 99V363Q291 396 278.5 420.5Q266 445 229 445Q198 445 171 414Q144 383 144 306V99Q144 50 153 33.5Q162 17 191 2V0H16V2Q45 17 53.5 33.5Q62 50 62 99V377Q62 426 50.5 448Q39 470 10 484ZM351 703Q341 640 321 605Q301 570 273 570Q242 570 215.5 604Q189 638 165 638Q143 638 129.5 617.5Q116 597 106 566H99Q109 629 129 664Q149 699 177 699Q208 699 234.5 665Q261 631 285 631Q307 631 320.5 651.5Q334 672 344 703Z" glyph-name="ntilde" horiz-adv-x="431" unicode="&#241;" /><glyph d="M292 243 322 457H192L162 243ZM257 0 289 223H159L127 0H109L141 223H19L22 243H144L174 457H38L41 476H177L209 700H227L195 476H325L357 700H377L345 476H465L462 457H342L312 243H447L443 223H309L277 0Z" glyph-name="numbersign" horiz-adv-x="484" unicode="#" /><glyph d="M196 -10Q119 -10 69.5 62.5Q20 135 20 244Q20 352 69.5 424Q119 496 196 496Q272 496 321.5 424Q371 352 371 244Q371 135 321.5 62.5Q272 -10 196 -10ZM196 10Q242 10 262 79Q282 148 282 244Q282 340 262 408Q242 476 196 476Q150 476 129.5 408Q109 340 109 244Q109 148 129.5 79Q150 10 196 10Z" glyph-name="o" horiz-adv-x="391" unicode="o" /><glyph d="M196 -10Q119 -10 69.5 62.5Q20 135 20 244Q20 352 69.5 424Q119 496 196 496Q272 496 321.5 424Q371 352 371 244Q371 135 321.5 62.5Q272 -10 196 -10ZM196 10Q242 10 262 79Q282 148 282 244Q282 340 262 408Q242 476 196 476Q150 476 129.5 408Q109 340 109 244Q109 148 129.5 79Q150 10 196 10ZM172 721H254Q245 666 216.5 623.5Q188 581 143 544H140Q162 583 167 633.5Q172 684 172 721Z" glyph-name="oacute" horiz-adv-x="391" unicode="&#243;" /><glyph d="M196 -10Q119 -10 69.5 62.5Q20 135 20 244Q20 352 69.5 424Q119 496 196 496Q272 496 321.5 424Q371 352 371 244Q371 135 321.5 62.5Q272 -10 196 -10ZM196 10Q242 10 262 79Q282 148 282 244Q282 340 262 408Q242 476 196 476Q150 476 129.5 408Q109 340 109 244Q109 148 129.5 79Q150 10 196 10ZM288 713Q288 634 261.5 592.5Q235 551 195 551Q155 551 128.5 592.5Q102 634 102 713H109Q113 659 139.5 636Q166 613 195 613Q224 613 250.5 636Q277 659 281 713Z" glyph-name="obreve" horiz-adv-x="391" unicode="&#335;" /><glyph d="M196 -10Q119 -10 69.5 62.5Q20 135 20 244Q20 352 69.5 424Q119 496 196 496Q272 496 321.5 424Q371 352 371 244Q371 135 321.5 62.5Q272 -10 196 -10ZM196 10Q242 10 262 79Q282 148 282 244Q282 340 262 408Q242 476 196 476Q150 476 129.5 408Q109 340 109 244Q109 148 129.5 79Q150 10 196 10ZM299 543Q271 556 241 580Q211 604 196 627Q180 604 150 580Q120 556 92 543H86Q121 583 149.5 633.5Q178 684 194 744H198Q214 684 242 633.5Q270 583 305 543Z" glyph-name="ocircumflex" horiz-adv-x="391" unicode="&#244;" /><glyph d="M196 -10Q119 -10 69.5 62.5Q20 135 20 244Q20 352 69.5 424Q119 496 196 496Q272 496 321.5 424Q371 352 371 244Q371 135 321.5 62.5Q272 -10 196 -10ZM196 10Q242 10 262 79Q282 148 282 244Q282 340 262 408Q242 476 196 476Q150 476 129.5 408Q109 340 109 244Q109 148 129.5 79Q150 10 196 10ZM257 581Q234 581 220 597Q206 613 206 633Q206 652 220 668Q234 684 257 684Q277 684 292.5 668Q308 652 308 633Q308 613 292.5 597Q277 581 257 581ZM133 581Q112 581 97 597Q82 613 82 633Q82 652 97 668Q112 684 133 684Q155 684 169.5 668Q184 652 184 633Q184 613 169.5 597Q155 581 133 581Z" glyph-name="odieresis" horiz-adv-x="391" unicode="&#246;" /><glyph d="M596 155Q586 76 550 33Q514 -10 451 -10Q414 -10 380.5 11Q347 32 323 74Q300 34 267.5 12Q235 -10 196 -10Q119 -10 69.5 62.5Q20 135 20 244Q20 352 69.5 424Q119 496 196 496Q235 496 268.5 474Q302 452 325 410Q348 452 380.5 474Q413 496 449 496Q526 496 562 431Q598 366 598 263H364Q364 165 391.5 100Q419 35 480 35Q516 35 544.5 64.5Q573 94 589 156ZM365 286H515Q515 361 505 418.5Q495 476 449 476Q414 476 391 420.5Q368 365 365 286ZM282 244Q282 340 262 408Q242 476 196 476Q150 476 129.5 408Q109 340 109 244Q109 148 129.5 79Q150 10 196 10Q242 10 262 79Q282 148 282 244Z" glyph-name="oe" horiz-adv-x="618" unicode="&#339;" /><glyph d="M171 -159Q171 -104 216.5 -59Q262 -14 310 20L313 13Q271 -23 248 -61Q225 -99 225 -135Q225 -164 237.5 -177.5Q250 -191 271 -191Q290 -191 303 -177.5Q316 -164 328 -137L330 -139Q322 -176 302 -205.5Q282 -235 245 -235Q214 -235 192.5 -214.5Q171 -194 171 -159Z" glyph-name="ogonek" horiz-adv-x="500" unicode="&#731;" /><glyph d="M196 -10Q119 -10 69.5 62.5Q20 135 20 244Q20 352 69.5 424Q119 496 196 496Q272 496 321.5 424Q371 352 371 244Q371 135 321.5 62.5Q272 -10 196 -10ZM196 10Q242 10 262 79Q282 148 282 244Q282 340 262 408Q242 476 196 476Q150 476 129.5 408Q109 340 109 244Q109 148 129.5 79Q150 10 196 10ZM212 721Q212 684 217 633.5Q222 583 244 544H241Q196 581 167.5 623.5Q139 666 130 721Z" glyph-name="ograve" horiz-adv-x="391" unicode="&#242;" /><glyph d="M196 -10Q119 -10 69.5 62.5Q20 135 20 244Q20 352 69.5 424Q119 496 196 496Q272 496 321.5 424Q371 352 371 244Q371 135 321.5 62.5Q272 -10 196 -10ZM196 10Q242 10 262 79Q282 148 282 244Q282 340 262 408Q242 476 196 476Q150 476 129.5 408Q109 340 109 244Q109 148 129.5 79Q150 10 196 10ZM261 721H335Q326 666 301.5 623.5Q277 581 232 544H229Q251 583 256 633.5Q261 684 261 721ZM161 721H235Q226 666 201.5 623.5Q177 581 132 544H129Q151 583 156 633.5Q161 684 161 721Z" glyph-name="ohungarumlaut" horiz-adv-x="391" unicode="&#337;" /><glyph d="M196 -10Q119 -10 69.5 62.5Q20 135 20 244Q20 352 69.5 424Q119 496 196 496Q272 496 321.5 424Q371 352 371 244Q371 135 321.5 62.5Q272 -10 196 -10ZM196 10Q242 10 262 79Q282 148 282 244Q282 340 262 408Q242 476 196 476Q150 476 129.5 408Q109 340 109 244Q109 148 129.5 79Q150 10 196 10ZM301 579H90V614H301Z" glyph-name="omacron" horiz-adv-x="391" unicode="&#333;" /><glyph d="M273 0H17V4Q71 25 87.5 36.5Q104 48 104 84V612Q104 647 86 659Q68 671 8 696V700H187V84Q187 48 204 36.5Q221 25 273 4Z" glyph-name="one" horiz-adv-x="281" unicode="1" /><glyph d="M273 0H17V4Q71 25 87.5 36.5Q104 48 104 84V538Q104 573 86 585Q68 597 8 622V626H187V84Q187 48 204 36.5Q221 25 273 4Z" glyph-name="one.op" horiz-adv-x="281" /><glyph d="M158 657Q158 675 147 682Q136 689 105 694V700H221V453Q221 435 231 428Q241 421 273 416V410H107V416Q138 421 148 428Q158 435 158 453ZM20 358H345V342H20ZM182 279Q158 279 145.5 264.5Q133 250 133 233Q133 214 142.5 203Q152 192 166 192Q173 192 176.5 193Q180 194 184 197H185Q180 181 168.5 173.5Q157 166 141 166Q119 166 104 180.5Q89 195 89 220Q89 253 115 273.5Q141 294 182 294Q227 294 259.5 274.5Q292 255 292 212Q292 169 256 134Q220 99 144 49H210Q245 50 261.5 55.5Q278 61 294 86H298L286 0H79V1Q171 88 200.5 132.5Q230 177 230 222Q230 243 219 261Q208 279 182 279Z" glyph-name="onehalf" horiz-adv-x="365" unicode="&#189;" /><glyph d="M158 657Q158 675 147 682Q136 689 105 694V700H221V453Q221 435 231 428Q241 421 273 416V410H107V416Q138 421 148 428Q158 435 158 453ZM20 358H345V342H20ZM183 92V245L78 92ZM183 51V76H49V77L198 293H245V92H269Q288 92 294 97.5Q300 103 308 120H311V48H308Q300 65 294 70.5Q288 76 269 76H245V51Q245 31 249.5 21.5Q254 12 268 4V0H160V4Q174 12 178.5 21.5Q183 31 183 51Z" glyph-name="onequarter" horiz-adv-x="365" unicode="&#188;" /><glyph d="M67 657Q67 675 56 682Q45 689 13 694V700H129V453Q129 435 139 428Q149 421 181 416V410H15V416Q47 421 57 428Q67 435 67 453Z" glyph-name="onesuperior" horiz-adv-x="193" unicode="&#185;" /><glyph d="M176 559 153 553Q129 544 113 527.5Q97 511 97 477Q97 455 106.5 441.5Q116 428 132 428Q148 428 162 443Q176 458 176 490ZM282 427V425Q276 412 263.5 401.5Q251 391 230 391Q209 391 195 403.5Q181 416 179 440L178 452Q173 425 150.5 407.5Q128 390 100 390Q72 390 50.5 408.5Q29 427 29 463Q29 510 64.5 531Q100 552 142 564L176 573V641Q176 668 163.5 681.5Q151 695 133 695Q118 695 108 685.5Q98 676 98 657Q98 640 105.5 630.5Q113 621 124 621Q125 621 127.5 621.5Q130 622 131 623Q128 609 116 601Q104 593 89 593Q69 593 56 605.5Q43 618 43 640Q43 672 70.5 691Q98 710 136 710Q184 710 213.5 688.5Q243 667 243 616Q243 572 242.5 532Q242 492 242 457Q242 440 248.5 431.5Q255 423 268 423Q272 423 276 424Q280 425 282 427ZM41 313V333H260V313Z" glyph-name="ordfeminine" horiz-adv-x="296" unicode="&#170;" /><glyph d="M152 388Q96 388 58 433.5Q20 479 20 549Q20 619 58 664.5Q96 710 152 710Q209 710 246.5 664.5Q284 619 284 549Q284 479 246.5 433.5Q209 388 152 388ZM152 405Q178 405 193.5 444.5Q209 484 209 549Q209 615 193.5 654Q178 693 152 693Q127 693 112 654Q97 615 97 549Q97 484 112 444.5Q127 405 152 405ZM33 313V333H269V313Z" glyph-name="ordmasculine" horiz-adv-x="304" unicode="&#186;" /><glyph d="M109 244Q109 213 111 184Q113 155 117 130L267 392Q257 431 239.5 453.5Q222 476 196 476Q150 476 129.5 408Q109 340 109 244ZM196 10Q242 10 262 79Q282 148 282 244Q282 275 280 305Q278 335 274 360L124 97Q134 57 152 33.5Q170 10 196 10ZM196 -10Q165 -10 138.5 2.5Q112 15 90 37L55 -24L36 -13L75 55Q49 89 34.5 138Q20 187 20 244Q20 352 69.5 424Q119 496 196 496Q226 496 252.5 484.5Q279 473 300 451L332 507L351 496L315 433Q341 399 356 350Q371 301 371 244Q371 135 321.5 62.5Q272 -10 196 -10Z" glyph-name="oslash" horiz-adv-x="391" unicode="&#248;" /><glyph d="M109 244Q109 213 111 184Q113 155 117 130L267 392Q257 431 239.5 453.5Q222 476 196 476Q150 476 129.5 408Q109 340 109 244ZM196 10Q242 10 262 79Q282 148 282 244Q282 275 280 305Q278 335 274 360L124 97Q134 57 152 33.5Q170 10 196 10ZM196 -10Q165 -10 138.5 2.5Q112 15 90 37L55 -24L36 -13L75 55Q49 89 34.5 138Q20 187 20 244Q20 352 69.5 424Q119 496 196 496Q226 496 252.5 484.5Q279 473 300 451L332 507L351 496L315 433Q341 399 356 350Q371 301 371 244Q371 135 321.5 62.5Q272 -10 196 -10ZM172 721H254Q245 666 216.5 623.5Q188 581 143 544H140Q162 583 167 633.5Q172 684 172 721Z" glyph-name="oslashacute" horiz-adv-x="391" unicode="&#511;" /><glyph d="M196 -10Q119 -10 69.5 62.5Q20 135 20 244Q20 352 69.5 424Q119 496 196 496Q272 496 321.5 424Q371 352 371 244Q371 135 321.5 62.5Q272 -10 196 -10ZM196 10Q242 10 262 79Q282 148 282 244Q282 340 262 408Q242 476 196 476Q150 476 129.5 408Q109 340 109 244Q109 148 129.5 79Q150 10 196 10ZM321 703Q311 640 291 605Q271 570 243 570Q212 570 185.5 604Q159 638 135 638Q113 638 99.5 617.5Q86 597 76 566H69Q79 629 99 664Q119 699 147 699Q178 699 204.5 665Q231 631 255 631Q277 631 290.5 651.5Q304 672 314 703Z" glyph-name="otilde" horiz-adv-x="391" unicode="&#245;" /><glyph d="M237 465Q203 465 172 423.5Q141 382 141 298V196Q141 109 171 67Q201 25 235 25Q281 25 305 86.5Q329 148 329 242Q329 340 306 402.5Q283 465 237 465ZM141 110V-127Q141 -176 152.5 -193Q164 -210 198 -223V-225H13V-223Q42 -209 50.5 -192.5Q59 -176 59 -127V377Q59 426 47.5 448Q36 470 7 484V486H141V378Q151 437 183.5 466.5Q216 496 263 496Q323 496 371 430Q419 364 419 242Q419 126 370.5 58Q322 -10 262 -10Q215 -10 183 20Q151 50 141 110Z" glyph-name="p" horiz-adv-x="439" unicode="p" /><glyph d="M338 594V-72Q338 -138 304 -186.5Q270 -235 208 -235Q158 -235 121 -209.5Q84 -184 84 -133Q84 -102 105 -84Q126 -66 148 -66Q165 -66 179 -75Q193 -84 199 -103H198Q194 -99 187.5 -97Q181 -95 174 -95Q160 -95 151 -109Q142 -123 142 -141Q142 -176 161 -196Q180 -216 214 -216Q261 -216 288.5 -173.5Q316 -131 316 -70V677H277V129H254V294Q177 294 101.5 344.5Q26 395 26 497Q26 599 101.5 649.5Q177 700 254 700H398V698Q363 679 350.5 661Q338 643 338 594Z" glyph-name="paragraph" horiz-adv-x="403" unicode="&#182;" /><glyph d="M41 313Q41 466 100 576Q159 686 241 749H255Q193 682 163 565.5Q133 449 133 313Q133 177 163 60.5Q193 -56 255 -123H241Q159 -60 100 50Q41 160 41 313Z" glyph-name="parenleft" horiz-adv-x="264" unicode="(" /><glyph d="M41 333Q41 485 100 595.5Q159 706 241 769H255Q193 702 163 585Q133 468 133 333Q133 197 163 80.5Q193 -36 255 -103H241Q159 -40 100 70Q41 180 41 333Z" glyph-name="parenleft.cap" horiz-adv-x="264" /><glyph d="M23 749Q105 686 164 576Q223 466 223 313Q223 160 164 50Q105 -60 23 -123H9Q71 -56 101 60.5Q131 177 131 313Q131 449 101 565.5Q71 682 9 749Z" glyph-name="parenright" horiz-adv-x="264" unicode=")" /><glyph d="M23 769Q105 706 164 596Q223 486 223 333Q223 180 164 70Q105 -40 23 -103H9Q71 -36 101 80.5Q131 197 131 333Q131 469 101 585.5Q71 702 9 769Z" glyph-name="parenright.cap" horiz-adv-x="264" /><glyph d="M83 0H48L384 670Q366 654 343 640.5Q320 627 292 627Q278 627 263.5 629.5Q249 632 236 636Q243 620 247 602Q251 584 251 565Q251 508 217.5 464Q184 420 135 420Q86 420 53 464Q20 508 20 565Q20 622 53 666Q86 710 135 710Q190 710 215.5 678Q241 646 292 646Q331 646 356 666Q381 686 415 719L427 710ZM135 437Q164 437 176.5 475.5Q189 514 189 565Q189 616 176.5 654.5Q164 693 135 693Q107 693 94 654.5Q81 616 81 565Q81 514 94 475.5Q107 437 135 437ZM350 -5Q301 -5 268 39Q235 83 235 140Q235 197 268 241Q301 285 350 285Q399 285 432.5 241Q466 197 466 140Q466 83 432.5 39Q399 -5 350 -5ZM350 12Q379 12 391.5 50.5Q404 89 404 140Q404 191 391.5 229.5Q379 268 350 268Q322 268 309 229.5Q296 191 296 140Q296 89 309 50.5Q322 12 350 12Z" glyph-name="percent" horiz-adv-x="486" unicode="%" /><glyph d="M83 0H48L384 596Q366 580 343 566.5Q320 553 292 553Q277 553 262 557Q247 561 234 566Q242 550 246.5 530.5Q251 511 251 491Q251 434 217.5 390Q184 346 135 346Q86 346 53 390Q20 434 20 491Q20 548 53 592Q86 636 135 636Q190 636 215.5 604Q241 572 292 572Q331 572 356 592Q381 612 415 645L427 636ZM135 363Q164 363 176.5 401.5Q189 440 189 491Q189 542 176.5 580.5Q164 619 135 619Q107 619 94 580.5Q81 542 81 491Q81 440 94 401.5Q107 363 135 363ZM350 -5Q301 -5 268 39Q235 83 235 140Q235 197 268 241Q301 285 350 285Q399 285 432.5 241Q466 197 466 140Q466 83 432.5 39Q399 -5 350 -5ZM350 12Q379 12 391.5 50.5Q404 89 404 140Q404 191 391.5 229.5Q379 268 350 268Q322 268 309 229.5Q296 191 296 140Q296 89 309 50.5Q322 12 350 12Z" glyph-name="percent.op" horiz-adv-x="486" /><glyph d="M158 55Q158 29 139.5 11Q121 -7 96 -7Q71 -7 53 11Q35 29 35 55Q35 81 53 99Q71 117 96 117Q121 117 139.5 99Q158 81 158 55Z" glyph-name="period" horiz-adv-x="193" unicode="." /><glyph d="M157 267Q157 241 138.5 223Q120 205 95 205Q70 205 52 223Q34 241 34 267Q34 293 52 311Q70 329 95 329Q120 329 138.5 311Q157 293 157 267Z" glyph-name="periodcentered" horiz-adv-x="191" unicode="&#183;" /><glyph d="M158 342Q158 316 139.5 298Q121 280 96 280Q71 280 53 298Q35 316 35 342Q35 368 53 386Q71 404 96 404Q121 404 139.5 386Q158 368 158 342Z" glyph-name="periodcentered.cap" horiz-adv-x="191" /><glyph d="M83 0H48L384 670Q366 654 343 640.5Q320 627 292 627Q278 627 263.5 629.5Q249 632 236 636Q243 620 247 602Q251 584 251 565Q251 508 217.5 464Q184 420 135 420Q86 420 53 464Q20 508 20 565Q20 622 53 666Q86 710 135 710Q190 710 215.5 678Q241 646 292 646Q331 646 356 666Q381 686 415 719L427 710ZM135 437Q164 437 176.5 475.5Q189 514 189 565Q189 616 176.5 654.5Q164 693 135 693Q107 693 94 654.5Q81 616 81 565Q81 514 94 475.5Q107 437 135 437ZM350 -5Q301 -5 268 39Q235 83 235 140Q235 197 268 241Q301 285 350 285Q399 285 432.5 241Q466 197 466 140Q466 83 432.5 39Q399 -5 350 -5ZM726 140Q726 83 692.5 39Q659 -5 610 -5Q561 -5 528 39Q495 83 495 140Q495 197 528 241Q561 285 610 285Q659 285 692.5 241Q726 197 726 140ZM350 12Q379 12 391.5 50.5Q404 89 404 140Q404 191 391.5 229.5Q379 268 350 268Q322 268 309 229.5Q296 191 296 140Q296 89 309 50.5Q322 12 350 12ZM610 12Q639 12 651.5 50.5Q664 89 664 140Q664 191 651.5 229.5Q639 268 610 268Q582 268 569 229.5Q556 191 556 140Q556 89 569 50.5Q582 12 610 12Z" glyph-name="perthousand" horiz-adv-x="746" unicode="&#8240;" /><glyph d="M83 0H48L384 596Q366 580 343 566.5Q320 553 292 553Q277 553 262 557Q247 561 234 566Q242 550 246.5 530.5Q251 511 251 491Q251 434 217.5 390Q184 346 135 346Q86 346 53 390Q20 434 20 491Q20 548 53 592Q86 636 135 636Q190 636 215.5 604Q241 572 292 572Q331 572 356 592Q381 612 415 645L427 636ZM135 363Q164 363 176.5 401.5Q189 440 189 491Q189 542 176.5 580.5Q164 619 135 619Q107 619 94 580.5Q81 542 81 491Q81 440 94 401.5Q107 363 135 363ZM610 -5Q561 -5 528 39Q495 83 495 140Q495 197 528 241Q561 285 610 285Q659 285 692.5 241Q726 197 726 140Q726 83 692.5 39Q659 -5 610 -5ZM350 -5Q301 -5 268 39Q235 83 235 140Q235 197 268 241Q301 285 350 285Q399 285 432.5 241Q466 197 466 140Q466 83 432.5 39Q399 -5 350 -5ZM610 12Q639 12 651.5 50.5Q664 89 664 140Q664 191 651.5 229.5Q639 268 610 268Q582 268 569 229.5Q556 191 556 140Q556 89 569 50.5Q582 12 610 12ZM350 12Q379 12 391.5 50.5Q404 89 404 140Q404 191 391.5 229.5Q379 268 350 268Q322 268 309 229.5Q296 191 296 140Q296 89 309 50.5Q322 12 350 12Z" glyph-name="perthousand.op" horiz-adv-x="746" /><glyph d="M356 309H212V166H186V309H43V335H186V478H212V335H356Z" glyph-name="plus" horiz-adv-x="399" unicode="+" /><glyph d="M356 353H212V244H186V353H43V378H186V486H212V378H356ZM43 168V193H356V168Z" glyph-name="plusminus" horiz-adv-x="399" unicode="&#177;" /><glyph d="M577 350Q577 194 496 92Q415 -10 302 -10Q189 -10 107.5 92Q26 194 26 350Q26 506 107.5 608Q189 710 302 710Q415 710 496 608Q577 506 577 350ZM558 350Q558 496 483.5 593Q409 690 302 690Q195 690 120.5 593Q46 496 46 350Q46 204 120.5 107Q195 10 302 10Q409 10 483.5 107Q558 204 558 350ZM272 317V220Q272 192 279 176Q286 160 312 150V148H171V150Q190 159 195.5 176Q201 193 201 222V483Q201 512 195.5 529Q190 546 171 556V557H311Q371 557 412 526.5Q453 496 453 437Q453 378 412 347.5Q371 317 311 317ZM272 332H294Q338 332 359 361.5Q380 391 380 437Q380 483 359 512.5Q338 542 294 542H272Z" glyph-name="published" horiz-adv-x="603" /><glyph d="M380 272V-128Q380 -177 388.5 -193Q397 -209 426 -223V-225H242V-223Q276 -210 287 -193Q298 -176 298 -127V108Q288 50 255.5 20Q223 -10 176 -10Q116 -10 68.5 55.5Q21 121 21 243Q21 358 69.5 427Q118 496 182 496Q225 496 258.5 468Q292 440 304 380Q310 422 336.5 451Q363 480 389 495H391Q384 452 382 395Q380 338 380 272ZM298 189V293Q298 379 268 421.5Q238 464 204 464Q159 464 135 400Q111 336 111 243Q111 145 134 83Q157 21 202 21Q236 21 267 63Q298 105 298 189Z" glyph-name="q" horiz-adv-x="432" unicode="q" /><glyph d="M193 689Q145 689 119.5 658Q94 627 94 579Q94 542 111.5 520Q129 498 153 498Q160 498 171 501Q182 504 189 511H190Q180 480 160.5 463.5Q141 447 114 447Q76 447 48 475.5Q20 504 20 553Q20 618 68 664Q116 710 195 710Q279 710 330.5 654.5Q382 599 382 521Q382 425 325.5 363Q269 301 194 276V198H174V371Q233 386 269.5 430.5Q306 475 306 551Q306 606 277 647.5Q248 689 193 689ZM183 117Q208 117 226.5 99Q245 81 245 55Q245 29 226.5 11Q208 -7 183 -7Q158 -7 140 11Q122 29 122 55Q122 81 140 99Q158 117 183 117Z" glyph-name="question" horiz-adv-x="403" unicode="?" /><glyph d="M220 434Q195 434 176.5 452Q158 470 158 496Q158 522 176.5 540Q195 558 220 558Q245 558 263 540Q281 522 281 496Q281 470 263 452Q245 434 220 434ZM210 -138Q258 -138 283.5 -107Q309 -76 309 -28Q309 9 291.5 31Q274 53 250 53Q243 53 232 50Q221 47 214 40H213Q223 71 242.5 87.5Q262 104 289 104Q327 104 355 75.5Q383 47 383 -2Q383 -67 335 -113Q287 -159 208 -159Q124 -159 72.5 -103.5Q21 -48 21 30Q21 126 77.5 188Q134 250 209 275V353H229V180Q170 165 133.5 120.5Q97 76 97 0Q97 -55 126 -96.5Q155 -138 210 -138Z" glyph-name="questiondown" horiz-adv-x="403" unicode="&#191;" /><glyph d="M220 584Q195 584 176.5 602Q158 620 158 646Q158 672 176.5 690Q195 708 220 708Q245 708 263 690Q281 672 281 646Q281 620 263 602Q245 584 220 584ZM210 12Q258 12 283.5 43Q309 74 309 122Q309 159 291.5 181Q274 203 250 203Q243 203 232 200Q221 197 214 190H213Q223 221 242.5 237.5Q262 254 289 254Q327 254 355 225.5Q383 197 383 148Q383 83 335 37Q287 -9 208 -9Q124 -9 72.5 46.5Q21 102 21 180Q21 276 77.5 338Q134 400 209 425V503H229V330Q170 315 133.5 270.5Q97 226 97 150Q97 95 126 53.5Q155 12 210 12Z" glyph-name="questiondown.cap" horiz-adv-x="403" /><glyph d="M83 434H81Q81 434 66.5 528Q52 622 30 677Q37 690 51 700Q65 710 82 710Q98 710 112.5 700Q127 690 134 677Q112 622 97.5 528Q83 434 83 434ZM207 434H205Q205 434 190.5 528Q176 622 154 677Q161 690 175 700Q189 710 206 710Q222 710 236.5 700Q251 690 258 677Q236 622 221.5 528Q207 434 207 434Z" glyph-name="quotedbl" horiz-adv-x="287" unicode="&quot;" /><glyph d="M117 12Q111 1 99 -5.5Q87 -12 73 -12Q51 -12 36.5 3Q22 18 22 38Q22 63 38.5 79.5Q55 96 83 96Q117 96 136 71.5Q155 47 155 11Q155 -49 115 -85.5Q75 -122 15 -123V-111Q75 -103 99.5 -65.5Q124 -28 117 12ZM279 12Q273 1 261 -5.5Q249 -12 235 -12Q213 -12 198.5 3Q184 18 184 38Q184 63 200.5 79.5Q217 96 245 96Q279 96 298 71.5Q317 47 317 11Q317 -49 277 -85.5Q237 -122 177 -123V-111Q237 -103 261.5 -65.5Q286 -28 279 12Z" glyph-name="quotedblbase" horiz-adv-x="335" unicode="&#8222;" /><glyph d="M56 589Q62 600 74 606.5Q86 613 100 613Q122 613 136.5 598Q151 583 151 563Q151 538 134.5 521.5Q118 505 90 505Q56 505 37 529.5Q18 554 18 590Q18 650 58 686.5Q98 723 158 724V712Q98 704 73.5 666.5Q49 629 56 589ZM218 589Q224 600 236 606.5Q248 613 262 613Q284 613 298.5 598Q313 583 313 563Q313 538 296.5 521.5Q280 505 252 505Q218 505 199 529.5Q180 554 180 590Q180 650 220 686.5Q260 723 320 724V712Q260 704 235.5 666.5Q211 629 218 589Z" glyph-name="quotedblleft" horiz-adv-x="335" unicode="&#8220;" /><glyph d="M117 629Q111 618 99 611.5Q87 605 73 605Q51 605 36.5 620Q22 635 22 655Q22 680 38.5 696.5Q55 713 83 713Q117 713 136 688.5Q155 664 155 628Q155 568 115 531.5Q75 495 15 494V506Q75 514 99.5 551.5Q124 589 117 629ZM279 629Q273 618 261 611.5Q249 605 235 605Q213 605 198.5 620Q184 635 184 655Q184 680 200.5 696.5Q217 713 245 713Q279 713 298 688.5Q317 664 317 628Q317 568 277 531.5Q237 495 177 494V506Q237 514 261.5 551.5Q286 589 279 629Z" glyph-name="quotedblright" horiz-adv-x="335" unicode="&#8221;" /><glyph d="M56 589Q62 600 74 606.5Q86 613 100 613Q122 613 136.5 598Q151 583 151 563Q151 538 134.5 521.5Q118 505 90 505Q56 505 37 529.5Q18 554 18 590Q18 650 58 686.5Q98 723 158 724V712Q98 704 73.5 666.5Q49 629 56 589Z" glyph-name="quoteleft" horiz-adv-x="173" unicode="&#8216;" /><glyph d="M117 629Q111 618 99 611.5Q87 605 73 605Q51 605 36.5 620Q22 635 22 655Q22 680 38.5 696.5Q55 713 83 713Q117 713 136 688.5Q155 664 155 628Q155 568 115 531.5Q75 495 15 494V506Q75 514 99.5 551.5Q124 589 117 629Z" glyph-name="quoteright" horiz-adv-x="158" unicode="&#8217;" /><glyph d="M117 12Q111 1 99 -5.5Q87 -12 73 -12Q51 -12 36.5 3Q22 18 22 38Q22 63 38.5 79.5Q55 96 83 96Q117 96 136 71.5Q155 47 155 11Q155 -49 115 -85.5Q75 -122 15 -123V-111Q75 -103 99.5 -65.5Q124 -28 117 12Z" glyph-name="quotesinglbase" horiz-adv-x="173" unicode="&#8218;" /><glyph d="M83 434H81Q81 434 66.5 528Q52 622 30 677Q37 690 51 700Q65 710 82 710Q98 710 112.5 700Q127 690 134 677Q112 622 97.5 528Q83 434 83 434Z" glyph-name="quotesingle" horiz-adv-x="164" unicode="'" /><glyph d="M238 358Q247 359 256 369Q265 379 265 395Q265 413 254.5 424Q244 435 222 435Q192 435 168 390.5Q144 346 144 276V94Q144 45 157 31Q170 17 201 2V0H16V2Q45 17 53.5 33.5Q62 50 62 99V377Q62 426 50.5 448Q39 470 10 484V486H144V361Q157 412 184 453.5Q211 495 251 495Q285 495 307 474.5Q329 454 329 420Q329 389 312.5 368Q296 347 269 347Q256 347 248.5 350.5Q241 354 238 358Z" glyph-name="r" horiz-adv-x="338" unicode="r" /><glyph d="M238 358Q247 359 256 369Q265 379 265 395Q265 413 254.5 424Q244 435 222 435Q192 435 168 390.5Q144 346 144 276V94Q144 45 157 31Q170 17 201 2V0H16V2Q45 17 53.5 33.5Q62 50 62 99V377Q62 426 50.5 448Q39 470 10 484V486H144V361Q157 412 184 453.5Q211 495 251 495Q285 495 307 474.5Q329 454 329 420Q329 389 312.5 368Q296 347 269 347Q256 347 248.5 350.5Q241 354 238 358ZM159 721H241Q232 666 203.5 623.5Q175 581 130 544H127Q149 583 154 633.5Q159 684 159 721Z" glyph-name="racute" horiz-adv-x="338" unicode="&#341;" /><glyph d="M238 358Q247 359 256 369Q265 379 265 395Q265 413 254.5 424Q244 435 222 435Q192 435 168 390.5Q144 346 144 276V94Q144 45 157 31Q170 17 201 2V0H16V2Q45 17 53.5 33.5Q62 50 62 99V377Q62 426 50.5 448Q39 470 10 484V486H144V361Q157 412 184 453.5Q211 495 251 495Q285 495 307 474.5Q329 454 329 420Q329 389 312.5 368Q296 347 269 347Q256 347 248.5 350.5Q241 354 238 358ZM79 744Q107 731 137 707Q167 683 183 660Q198 683 228 707Q258 731 286 744H292Q257 704 229 653.5Q201 603 185 543H181Q165 603 136.5 653.5Q108 704 73 744Z" glyph-name="rcaron" horiz-adv-x="338" unicode="&#345;" /><glyph d="M238 358Q247 359 256 369Q265 379 265 395Q265 413 254.5 424Q244 435 222 435Q192 435 168 390.5Q144 346 144 276V94Q144 45 157 31Q170 17 201 2V0H16V2Q45 17 53.5 33.5Q62 50 62 99V377Q62 426 50.5 448Q39 470 10 484V486H144V361Q157 412 184 453.5Q211 495 251 495Q285 495 307 474.5Q329 454 329 420Q329 389 312.5 368Q296 347 269 347Q256 347 248.5 350.5Q241 354 238 358ZM164 -126Q164 -164 134 -192Q104 -220 57 -222V-209Q95 -206 111.5 -186.5Q128 -167 131 -140Q124 -147 114.5 -150Q105 -153 95 -153Q75 -153 61.5 -139.5Q48 -126 48 -108Q48 -86 63 -72Q78 -58 101 -58Q129 -58 146.5 -75.5Q164 -93 164 -126Z" glyph-name="rcommaaccent" horiz-adv-x="338" unicode="&#343;" /><glyph d="M382 514Q382 430 330 374.5Q278 319 206 319Q133 319 81 374.5Q29 430 29 514Q29 599 81 654.5Q133 710 206 710Q278 710 330 654.5Q382 599 382 514ZM366 514Q366 593 319.5 644Q273 695 206 695Q139 695 92 644Q45 593 45 514Q45 436 92 385Q139 334 206 334Q273 334 319.5 385Q366 436 366 514ZM177 616V519H193Q216 519 228.5 529.5Q241 540 241 566Q241 591 229.5 603.5Q218 616 193 616ZM114 627H207Q242 627 265 613Q288 599 288 567Q288 538 266.5 525Q245 512 217 512Q242 511 256.5 500Q271 489 275 470L280 444Q284 426 290.5 419.5Q297 413 313 408V404H249Q244 410 240.5 419Q237 428 235 439L228 474Q225 489 215.5 499Q206 509 187 509H177V444Q177 428 180.5 421Q184 414 195 408V404H114V408Q125 414 129 421Q133 428 133 444V587Q133 603 129 610Q125 617 114 623Z" glyph-name="registered" horiz-adv-x="411" unicode="&#174;" /><glyph d="M250 708Q282 708 306 684.5Q330 661 330 630Q330 599 306 575.5Q282 552 250 552Q218 552 194 575.5Q170 599 170 630Q170 661 194 684.5Q218 708 250 708ZM250 572Q274 572 291 589Q308 606 308 630Q308 654 291 671Q274 688 250 688Q226 688 209 671Q192 654 192 630Q192 606 209 589Q226 572 250 572Z" glyph-name="ring" horiz-adv-x="500" unicode="&#730;" /><glyph d="M250 878Q282 878 306 854.5Q330 831 330 800Q330 769 306 745.5Q282 722 250 722Q218 722 194 745.5Q170 769 170 800Q170 831 194 854.5Q218 878 250 878ZM250 742Q274 742 291 759Q308 776 308 800Q308 824 291 841Q274 858 250 858Q226 858 209 841Q192 824 192 800Q192 776 209 759Q226 742 250 742Z" glyph-name="ring.cap" horiz-adv-x="500" /><glyph d="M159 476Q131 476 113.5 455Q96 434 96 402Q96 368 113.5 344Q131 320 184 295Q246 265 277.5 227Q309 189 309 136Q309 63 265 26.5Q221 -10 170 -10Q132 -10 112 2Q92 14 74 14Q64 14 53.5 7Q43 0 37 -10L28 180H31Q53 102 92 56Q131 10 171 10Q205 10 223.5 34Q242 58 242 95Q242 141 218 163Q194 185 149 209Q91 240 61.5 272Q32 304 32 359Q32 424 71.5 460Q111 496 159 496Q194 496 212.5 484Q231 472 250 472Q260 472 268.5 478.5Q277 485 287 496V332H284Q265 395 232 435.5Q199 476 159 476Z" glyph-name="s" horiz-adv-x="337" unicode="s" /><glyph d="M159 476Q131 476 113.5 455Q96 434 96 402Q96 368 113.5 344Q131 320 184 295Q246 265 277.5 227Q309 189 309 136Q309 63 265 26.5Q221 -10 170 -10Q132 -10 112 2Q92 14 74 14Q64 14 53.5 7Q43 0 37 -10L28 180H31Q53 102 92 56Q131 10 171 10Q205 10 223.5 34Q242 58 242 95Q242 141 218 163Q194 185 149 209Q91 240 61.5 272Q32 304 32 359Q32 424 71.5 460Q111 496 159 496Q194 496 212.5 484Q231 472 250 472Q260 472 268.5 478.5Q277 485 287 496V332H284Q265 395 232 435.5Q199 476 159 476ZM145 721H227Q218 666 189.5 623.5Q161 581 116 544H113Q135 583 140 633.5Q145 684 145 721Z" glyph-name="sacute" horiz-adv-x="337" unicode="&#347;" /><glyph d="M159 476Q131 476 113.5 455Q96 434 96 402Q96 368 113.5 344Q131 320 184 295Q246 265 277.5 227Q309 189 309 136Q309 63 265 26.5Q221 -10 170 -10Q132 -10 112 2Q92 14 74 14Q64 14 53.5 7Q43 0 37 -10L28 180H31Q53 102 92 56Q131 10 171 10Q205 10 223.5 34Q242 58 242 95Q242 141 218 163Q194 185 149 209Q91 240 61.5 272Q32 304 32 359Q32 424 71.5 460Q111 496 159 496Q194 496 212.5 484Q231 472 250 472Q260 472 268.5 478.5Q277 485 287 496V332H284Q265 395 232 435.5Q199 476 159 476ZM65 744Q93 731 123 707Q153 683 169 660Q184 683 214 707Q244 731 272 744H278Q243 704 215 653.5Q187 603 171 543H167Q151 603 122.5 653.5Q94 704 59 744Z" glyph-name="scaron" horiz-adv-x="337" unicode="&#353;" /><glyph d="M156 -223Q128 -223 108.5 -207Q89 -191 81 -169L86 -166Q97 -184 110 -190.5Q123 -197 135 -197Q155 -197 167 -182.5Q179 -168 179 -139Q179 -111 164.5 -95Q150 -79 123 -78L151 -9Q123 -5 106.5 4.5Q90 14 74 14Q64 14 53.5 7Q43 0 37 -10L28 180H31Q53 102 92 56Q131 10 171 10Q205 10 223.5 34Q242 58 242 95Q242 141 218 163Q194 185 149 209Q91 240 61.5 272Q32 304 32 359Q32 424 71.5 460Q111 496 159 496Q194 496 212.5 484Q231 472 250 472Q260 472 268.5 478.5Q277 485 287 496V332H284Q265 395 232 435.5Q199 476 159 476Q131 476 113.5 455Q96 434 96 402Q96 368 113.5 344Q131 320 184 295Q246 265 277.5 227Q309 189 309 136Q309 63 265 26.5Q221 -10 170 -10H169L146 -65Q180 -66 208.5 -84.5Q237 -103 237 -141Q237 -180 213 -201.5Q189 -223 156 -223Z" glyph-name="scedilla" horiz-adv-x="337" unicode="&#351;" /><glyph d="M159 476Q131 476 113.5 455Q96 434 96 402Q96 368 113.5 344Q131 320 184 295Q246 265 277.5 227Q309 189 309 136Q309 63 265 26.5Q221 -10 170 -10Q132 -10 112 2Q92 14 74 14Q64 14 53.5 7Q43 0 37 -10L28 180H31Q53 102 92 56Q131 10 171 10Q205 10 223.5 34Q242 58 242 95Q242 141 218 163Q194 185 149 209Q91 240 61.5 272Q32 304 32 359Q32 424 71.5 460Q111 496 159 496Q194 496 212.5 484Q231 472 250 472Q260 472 268.5 478.5Q277 485 287 496V332H284Q265 395 232 435.5Q199 476 159 476ZM272 543Q244 556 214 580Q184 604 169 627Q153 604 123 580Q93 556 65 543H59Q94 583 122.5 633.5Q151 684 167 744H171Q187 684 215 633.5Q243 583 278 543Z" glyph-name="scircumflex" horiz-adv-x="337" unicode="&#349;" /><glyph d="M159 476Q131 476 113.5 455Q96 434 96 402Q96 368 113.5 344Q131 320 184 295Q246 265 277.5 227Q309 189 309 136Q309 63 265 26.5Q221 -10 170 -10Q132 -10 112 2Q92 14 74 14Q64 14 53.5 7Q43 0 37 -10L28 180H31Q53 102 92 56Q131 10 171 10Q205 10 223.5 34Q242 58 242 95Q242 141 218 163Q194 185 149 209Q91 240 61.5 272Q32 304 32 359Q32 424 71.5 460Q111 496 159 496Q194 496 212.5 484Q231 472 250 472Q260 472 268.5 478.5Q277 485 287 496V332H284Q265 395 232 435.5Q199 476 159 476ZM226 -126Q226 -164 196 -192Q166 -220 119 -222V-209Q157 -206 173.5 -186.5Q190 -167 193 -140Q186 -147 176.5 -150Q167 -153 157 -153Q137 -153 123.5 -139.5Q110 -126 110 -108Q110 -86 125 -72Q140 -58 163 -58Q191 -58 208.5 -75.5Q226 -93 226 -126Z" glyph-name="scommaaccent" horiz-adv-x="337" unicode="&#537;" /><glyph d="M128 253 276 109Q290 95 303.5 79Q317 63 327 47Q336 60 342.5 81.5Q349 103 349 133Q349 158 339.5 181Q330 204 302 230L154 374Q140 388 126.5 404Q113 420 103 436Q94 423 87.5 401.5Q81 380 81 350Q81 325 90.5 302Q100 279 128 253ZM201 -227Q140 -227 99 -199Q58 -171 58 -121Q58 -87 77 -69Q96 -51 123 -51Q138 -51 151.5 -57Q165 -63 172 -71Q156 -77 142.5 -90Q129 -103 129 -137Q129 -171 149 -191Q169 -211 203 -211Q243 -211 267.5 -178Q292 -145 292 -92Q292 -40 272.5 -9Q253 22 220 53L92 176Q58 209 44 238.5Q30 268 30 308Q30 351 52 387Q74 423 98 445Q85 467 77.5 491.5Q70 516 70 543Q70 612 117 661Q164 710 229 710Q290 710 331 682Q372 654 372 604Q372 570 353 552Q334 534 307 534Q292 534 278.5 540Q265 546 258 554Q274 560 287.5 573Q301 586 301 620Q301 654 281 674Q261 694 227 694Q187 694 162.5 661Q138 628 138 575Q138 523 157.5 492Q177 461 210 430L338 307Q372 274 386 244.5Q400 215 400 175Q400 132 378 96Q356 60 332 38Q345 16 352.5 -8.5Q360 -33 360 -60Q360 -129 313 -178Q266 -227 201 -227Z" glyph-name="section" horiz-adv-x="430" unicode="&#167;" /><glyph d="M158 373Q158 347 139.5 329Q121 311 96 311Q71 311 53 329Q35 347 35 373Q35 399 53 417Q71 435 96 435Q121 435 139.5 417Q158 399 158 373ZM120 27Q114 17 102 10.5Q90 4 76 4Q55 4 40.5 18.5Q26 33 26 55Q26 80 42.5 96.5Q59 113 87 113Q120 113 139 88Q158 63 158 26Q158 -34 119.5 -70Q81 -106 15 -107V-95Q75 -87 101 -50Q127 -13 120 27Z" glyph-name="semicolon" horiz-adv-x="193" unicode=";" /><glyph d="M109 700H398V698L326 564Q256 431 234 300.5Q212 170 211 5L120 -4Q135 171 185.5 307Q236 443 308 574L338 626H161Q109 626 76 609Q43 592 18 535H16L37 710Q50 704 71 702Q92 700 109 700Z" glyph-name="seven" horiz-adv-x="404" unicode="7" /><glyph d="M33 636Q46 630 67 628Q88 626 105 626H388V624L316 490Q246 357 233.5 227Q221 97 220 -69L129 -78Q139 97 182.5 233Q226 369 298 500L328 552H157Q105 552 72 535Q39 518 14 461H12Z" glyph-name="seven.op" horiz-adv-x="399" /><glyph d="M281 710Q346 710 385 673Q424 636 424 579Q424 543 402 518.5Q380 494 346 494Q324 494 302 505.5Q280 517 272 543H274Q281 539 288.5 537.5Q296 536 303 536Q324 536 340.5 552.5Q357 569 357 609Q357 643 337.5 667Q318 691 280 691Q199 691 156.5 584Q114 477 114 352Q114 340 114.5 327.5Q115 315 115 306Q131 362 166.5 397.5Q202 433 262 433Q322 433 378.5 381.5Q435 330 435 216Q435 121 383.5 55.5Q332 -10 245 -10Q135 -10 83 98Q31 206 31 328Q31 468 99.5 589Q168 710 281 710ZM346 217Q346 294 320 350.5Q294 407 240 407Q189 407 160.5 348.5Q132 290 132 217Q132 144 158.5 77.5Q185 11 244 11Q295 11 320.5 74Q346 137 346 217Z" glyph-name="six" horiz-adv-x="465" unicode="6" /><glyph d="M288 710Q348 710 386.5 679.5Q425 649 425 593Q425 556 402.5 532Q380 508 346 508Q324 508 301.5 519.5Q279 531 271 557H273Q280 553 287.5 551.5Q295 550 302 550Q324 550 340.5 566Q357 582 357 619Q357 651 339 671Q321 691 289 691Q205 691 159 581Q113 471 113 352Q113 340 113.5 327.5Q114 315 115 306Q131 362 163 397.5Q195 433 255 433Q315 433 370.5 381.5Q426 330 426 216Q426 121 375 55.5Q324 -10 237 -10Q128 -10 79.5 93Q31 196 31 318Q31 455 101.5 582.5Q172 710 288 710ZM342 217Q342 294 315.5 350.5Q289 407 232 407Q181 407 152 348.5Q123 290 123 217Q123 144 149.5 77.5Q176 11 236 11Q290 11 316 74Q342 137 342 217Z" glyph-name="six.op" horiz-adv-x="456" /><glyph d="M0 -123 294 749H322L29 -123Z" glyph-name="slash" horiz-adv-x="342" unicode="/" /><glyph d="M0 -103 294 769H322L29 -103Z" glyph-name="slash.cap" horiz-adv-x="342" /><glyph glyph-name="space" horiz-adv-x="130" unicode=" " /><glyph d="M338 -14Q279 -14 239 13Q199 40 164 65Q147 30 122.5 10.5Q98 -9 68 -9Q40 -9 22 6Q4 21 4 49Q4 79 26 96.5Q48 114 80 114Q94 114 107.5 111.5Q121 109 134 105Q136 122 137.5 141.5Q139 161 139 182Q139 230 135 269Q131 308 126 342H58V360H124Q118 396 113.5 429.5Q109 463 109 498Q109 588 159.5 649Q210 710 305 710Q371 710 407 679Q443 648 443 599Q443 560 419.5 539.5Q396 519 368 519Q343 519 325.5 529.5Q308 540 301 552Q329 551 349 568.5Q369 586 369 630Q369 660 351 677.5Q333 695 305 695Q251 695 227 642.5Q203 590 203 515V360H347V342H203V281Q203 224 195.5 175.5Q188 127 175 90Q204 79 237.5 68.5Q271 58 314 58Q355 58 381.5 78Q408 98 408 138Q408 148 405 157.5Q402 167 395 176Q423 168 439.5 144Q456 120 456 89Q456 40 423 13Q390 -14 338 -14ZM63 11Q89 11 105.5 31.5Q122 52 130 86Q118 91 105.5 94.5Q93 98 80 98Q55 98 39.5 85Q24 72 24 49Q24 30 35 20.5Q46 11 63 11Z" glyph-name="sterling" horiz-adv-x="470" unicode="&#163;" /><glyph d="M329 -14Q272 -14 234 11.5Q196 37 162 61Q146 27 121.5 8.5Q97 -10 67 -10Q40 -10 22.5 5Q5 20 5 47Q5 76 26.5 93Q48 110 79 110Q92 110 105 108Q118 106 131 102Q133 118 134.5 137Q136 156 136 175Q136 224 131.5 259.5Q127 295 122 323H58V340H119Q114 367 110 392Q106 417 106 446Q106 527 154.5 581.5Q203 636 290 636Q358 636 393.5 604.5Q429 573 429 524Q429 486 406.5 466Q384 446 356 446Q333 446 315.5 456Q298 466 292 478Q320 477 338.5 494Q357 511 357 554Q357 583 340 600.5Q323 618 296 618Q245 618 221 573Q197 528 197 454V340H317V323H197V251Q197 202 191 160.5Q185 119 173 86Q201 76 232.5 66Q264 56 305 56Q345 56 371 75Q397 94 397 133Q397 143 394 152Q391 161 384 170Q411 162 427 139Q443 116 443 86Q443 39 411.5 12.5Q380 -14 329 -14ZM62 10Q88 10 104 30Q120 50 127 83Q116 88 104 91.5Q92 95 79 95Q55 95 39.5 82Q24 69 24 47Q24 28 35 19Q46 10 62 10Z" glyph-name="sterling.op" horiz-adv-x="454" /><glyph d="M246 157H255Q253 78 228.5 34Q204 -10 149 -10Q102 -10 77 22Q52 54 52 124V460H1V466Q55 481 86 532Q117 583 126 657H134V486H242L237 460H134V128Q134 80 145 59.5Q156 39 180 39Q208 39 225 68.5Q242 98 246 157Z" glyph-name="t" horiz-adv-x="271" unicode="t" /><glyph d="M265 157Q263 78 238.5 34Q214 -10 159 -10Q112 -10 87 22Q62 54 62 124V313H15V336H62V460H11V466Q65 481 96 532Q127 583 136 657H144V486H252L247 460H144V336H248V313H144V128Q144 80 155 59.5Q166 39 190 39Q218 39 235 68.5Q252 98 256 157Z" glyph-name="tbar" horiz-adv-x="285" unicode="&#359;" /><glyph d="M246 157H255Q253 78 228.5 34Q204 -10 149 -10Q102 -10 77 22Q52 54 52 124V460H1V466Q55 481 86 532Q117 583 126 657H134V486H242L237 460H134V128Q134 80 145 59.5Q156 39 180 39Q208 39 225 68.5Q242 98 246 157ZM279 749Q269 701 237.5 640Q206 579 180 545H177Q188 586 193.5 639.5Q199 693 195 749Z" glyph-name="tcaron" horiz-adv-x="271" unicode="&#357;" /><glyph d="M145 -223Q117 -223 97.5 -207Q78 -191 70 -169L75 -166Q86 -184 99 -190.5Q112 -197 124 -197Q144 -197 156 -182.5Q168 -168 168 -139Q168 -111 153.5 -95Q139 -79 112 -78L140 -10Q97 -7 74.5 25.5Q52 58 52 124V460H1V466Q55 481 86 532Q117 583 126 657H134V486H242L237 460H134V128Q134 80 145 59.5Q156 39 180 39Q208 39 225 68.5Q242 98 246 157H255Q253 81 230.5 37.5Q208 -6 158 -10L135 -65Q169 -66 197.5 -84.5Q226 -103 226 -141Q226 -180 202 -201.5Q178 -223 145 -223Z" glyph-name="tcommaaccent" horiz-adv-x="271" unicode="&#355;" /><glyph glyph-name="thinspace" horiz-adv-x="40" unicode="&#8201;" /><glyph d="M237 465Q203 465 172 423.5Q141 382 141 298V196Q141 109 171 67Q201 25 235 25Q281 25 305 86.5Q329 148 329 242Q329 340 306 402.5Q283 465 237 465ZM7 749H141V378Q151 437 183.5 466.5Q216 496 263 496Q323 496 371 430Q419 364 419 242Q419 126 370.5 58Q322 -10 262 -10Q215 -10 183 20Q151 50 141 110V-127Q141 -176 152.5 -193Q164 -210 198 -223V-225H13V-223Q42 -209 50.5 -192.5Q59 -176 59 -127V640Q59 689 47.5 711Q36 733 7 747Z" glyph-name="thorn" horiz-adv-x="439" unicode="&#254;" /><glyph d="M173 9Q225 9 259 56.5Q293 104 293 191Q293 284 249.5 328.5Q206 373 137 373V381Q207 385 237 431.5Q267 478 267 548Q267 610 246.5 650.5Q226 691 179 691Q142 691 119.5 665Q97 639 97 599Q97 571 110.5 554Q124 537 152 537Q160 537 167 538Q174 539 179 541H181Q171 513 152 502Q133 491 109 491Q78 491 54.5 515Q31 539 31 579Q31 630 73 670Q115 710 181 710Q265 710 309.5 663.5Q354 617 354 549Q354 477 311 435Q268 393 202 382Q268 376 325 325.5Q382 275 382 191Q382 97 321.5 43.5Q261 -10 176 -10Q109 -10 58 25Q7 60 7 126Q7 170 33.5 194.5Q60 219 94 219Q121 219 137.5 206Q154 193 161 167H159Q154 170 147 171Q140 172 132 172Q110 172 96.5 153Q83 134 83 105Q83 60 107 34.5Q131 9 173 9Z" glyph-name="three" horiz-adv-x="400" unicode="3" /><glyph d="M185 9Q241 9 266 55.5Q291 102 291 173Q291 251 254.5 291.5Q218 332 151 332V342Q221 345 244.5 386.5Q268 428 268 491Q268 546 247.5 581.5Q227 617 185 617Q152 617 131.5 595.5Q111 574 111 534Q111 510 124 492.5Q137 475 160 475Q166 475 172 476Q178 477 183 479H184Q175 453 156 443Q137 433 118 433Q89 433 68 453.5Q47 474 47 511Q47 562 87.5 599Q128 636 186 636Q262 636 305 594.5Q348 553 348 492Q348 427 309 389Q270 351 210 341Q277 337 325.5 291.5Q374 246 374 173Q374 84 319 37Q264 -10 183 -10Q120 -10 67 23Q14 56 14 125Q14 168 41 192.5Q68 217 103 217Q125 217 141.5 205Q158 193 166 168H163Q158 171 151.5 172Q145 173 136 173Q117 173 104.5 155.5Q92 138 92 110Q92 63 119 36Q146 9 185 9Z" glyph-name="three.op" horiz-adv-x="390" /><glyph d="M182 421Q207 421 221 442Q235 463 235 490Q235 527 218 544Q201 561 167 561V570Q201 571 212.5 589Q224 607 224 637Q224 657 214.5 673.5Q205 690 184 690Q165 690 155 677.5Q145 665 145 652Q145 639 151 630.5Q157 622 167 622Q170 622 172.5 622.5Q175 623 176 624H178Q174 614 163.5 608.5Q153 603 139 603Q121 603 109.5 614Q98 625 98 643Q98 671 122.5 687.5Q147 704 184 704Q230 704 257.5 685.5Q285 667 285 635Q285 604 263 588Q241 572 207 568Q245 566 271.5 545.5Q298 525 298 490Q298 448 264.5 427Q231 406 182 406Q143 406 112.5 423Q82 440 82 474Q82 496 96 508Q110 520 129 520Q145 520 154.5 514Q164 508 167 498H165Q163 499 161.5 499.5Q160 500 156 500Q146 500 140 491Q134 482 134 467Q134 447 147 434Q160 421 182 421ZM20 358H345V342H20ZM183 92V245L78 92ZM183 51V76H49V77L198 293H245V92H269Q288 92 294 97.5Q300 103 308 120H311V48H308Q300 65 294 70.5Q288 76 269 76H245V51Q245 31 249.5 21.5Q254 12 268 4V0H160V4Q174 12 178.5 21.5Q183 31 183 51Z" glyph-name="threequarters" horiz-adv-x="365" unicode="&#190;" /><glyph d="M120 421Q145 421 159 442Q173 463 173 490Q173 527 156 544Q139 561 105 561V570Q139 571 150.5 589Q162 607 162 637Q162 657 152.5 673.5Q143 690 122 690Q103 690 93 677.5Q83 665 83 652Q83 639 89 630.5Q95 622 105 622Q108 622 110.5 622.5Q113 623 114 624H116Q112 614 101.5 608.5Q91 603 77 603Q59 603 47.5 614Q36 625 36 643Q36 671 60.5 687.5Q85 704 122 704Q168 704 195.5 685.5Q223 667 223 635Q223 604 201 588Q179 572 145 568Q183 566 209.5 545.5Q236 525 236 490Q236 448 202.5 427Q169 406 120 406Q81 406 50.5 423Q20 440 20 474Q20 496 34 508Q48 520 67 520Q83 520 92.5 514Q102 508 105 498H104Q101 499 99.5 499.5Q98 500 94 500Q84 500 78.5 491Q73 482 73 467Q73 447 85.5 434Q98 421 120 421Z" glyph-name="threesuperior" horiz-adv-x="262" unicode="&#179;" /><glyph d="M376 703Q366 640 346 605Q326 570 298 570Q267 570 240.5 604Q214 638 190 638Q168 638 154.5 617.5Q141 597 131 566H124Q134 629 154 664Q174 699 202 699Q233 699 259.5 665Q286 631 310 631Q332 631 345.5 651.5Q359 672 369 703Z" glyph-name="tilde" horiz-adv-x="500" unicode="&#732;" /><glyph d="M387 876Q376 812 354.5 777Q333 742 302 742Q276 742 243.5 776.5Q211 811 185 811Q160 811 146 789.5Q132 768 121 737H113Q124 802 145.5 837Q167 872 198 872Q225 872 257 838Q289 804 315 804Q340 804 354 824.5Q368 845 380 876Z" glyph-name="tilde.cap" horiz-adv-x="500" /><glyph d="M49 700H216Q226 700 232 701Q238 702 242 703L256 612H254Q234 640 218 662Q202 684 170 684H162V445Q162 423 168.5 415Q175 407 192 398V396H74V398Q90 407 97 415Q104 423 104 445V684H94Q63 684 46.5 662Q30 640 11 612H9L23 703Q28 702 33.5 701Q39 700 49 700ZM421 498 485 700H574V698Q558 688 553 680.5Q548 673 548 651V444Q548 422 553 415Q558 408 574 398V396H464V398Q479 408 484.5 415Q490 422 490 444V661L404 391H402L317 661V444Q317 422 322 415Q327 408 343 398V396H271V398Q286 408 291.5 415Q297 422 297 444V651Q297 673 291.5 680.5Q286 688 271 698V700H363Z" glyph-name="trademark" horiz-adv-x="617" unicode="&#8482;" /><glyph d="M183 693Q144 693 116.5 658Q89 623 89 568Q89 525 111.5 497Q134 469 176 469Q192 469 200 471Q208 473 215 477H217Q207 452 185.5 436.5Q164 421 131 421Q79 421 47.5 455Q16 489 16 543Q16 613 63.5 661.5Q111 710 183 710Q267 710 321 661Q375 612 375 524Q375 431 308.5 336Q242 241 81 74H207Q280 74 312.5 88.5Q345 103 378 172H382L365 0H-10V2Q166 190 224.5 306.5Q283 423 283 520Q283 592 262.5 642.5Q242 693 183 693Z" glyph-name="two" horiz-adv-x="399" unicode="2" /><glyph d="M182 618Q143 618 120 586Q97 554 97 502Q97 462 116.5 436.5Q136 411 173 411Q187 411 193.5 413Q200 415 206 418H208Q200 396 180 380.5Q160 365 130 365Q82 365 54 397Q26 429 26 479Q26 545 71 590Q116 635 183 635Q259 635 309 587.5Q359 540 359 459Q359 362 278 270Q197 178 87 71H199Q269 71 300.5 85.5Q332 100 363 169H367L350 0H-10V2Q155 169 213.5 264Q272 359 272 470Q272 524 254 571Q236 618 182 618Z" glyph-name="two.op" horiz-adv-x="392" /><glyph d="M120 689Q96 689 83.5 674.5Q71 660 71 643Q71 624 80.5 613Q90 602 104 602Q111 602 114.5 603Q118 604 122 607H123Q118 591 106.5 583.5Q95 576 79 576Q57 576 42 590.5Q27 605 27 630Q27 663 53 683.5Q79 704 120 704Q165 704 197.5 684.5Q230 665 230 622Q230 579 194 544Q158 509 82 459H148Q183 460 199.5 465.5Q216 471 232 496H236L224 410H17V411Q109 498 138.5 542.5Q168 587 168 632Q168 653 157 671Q146 689 120 689Z" glyph-name="twosuperior" horiz-adv-x="265" unicode="&#178;" /><glyph d="M281 180V377Q281 426 269.5 448Q258 470 229 484V486H363V109Q363 60 372 38.5Q381 17 409 2V0H281V97Q267 46 236.5 18Q206 -10 162 -10Q118 -10 87.5 21Q57 52 57 115V377Q57 426 45.5 448Q34 470 5 484V486H139V123Q139 90 152 65.5Q165 41 199 41Q230 41 255.5 72Q281 103 281 180Z" glyph-name="u" horiz-adv-x="426" unicode="u" /><glyph d="M281 180V377Q281 426 269.5 448Q258 470 229 484V486H363V109Q363 60 372 38.5Q381 17 409 2V0H281V97Q267 46 236.5 18Q206 -10 162 -10Q118 -10 87.5 21Q57 52 57 115V377Q57 426 45.5 448Q34 470 5 484V486H139V123Q139 90 152 65.5Q165 41 199 41Q230 41 255.5 72Q281 103 281 180ZM189 721H271Q262 666 233.5 623.5Q205 581 160 544H157Q179 583 184 633.5Q189 684 189 721Z" glyph-name="uacute" horiz-adv-x="426" unicode="&#250;" /><glyph d="M281 180V377Q281 426 269.5 448Q258 470 229 484V486H363V109Q363 60 372 38.5Q381 17 409 2V0H281V97Q267 46 236.5 18Q206 -10 162 -10Q118 -10 87.5 21Q57 52 57 115V377Q57 426 45.5 448Q34 470 5 484V486H139V123Q139 90 152 65.5Q165 41 199 41Q230 41 255.5 72Q281 103 281 180ZM305 713Q305 634 278.5 592.5Q252 551 212 551Q172 551 145.5 592.5Q119 634 119 713H126Q130 659 156.5 636Q183 613 212 613Q241 613 267.5 636Q294 659 298 713Z" glyph-name="ubreve" horiz-adv-x="426" unicode="&#365;" /><glyph d="M281 180V377Q281 426 269.5 448Q258 470 229 484V486H363V109Q363 60 372 38.5Q381 17 409 2V0H281V97Q267 46 236.5 18Q206 -10 162 -10Q118 -10 87.5 21Q57 52 57 115V377Q57 426 45.5 448Q34 470 5 484V486H139V123Q139 90 152 65.5Q165 41 199 41Q230 41 255.5 72Q281 103 281 180ZM316 543Q288 556 258 580Q228 604 213 627Q197 604 167 580Q137 556 109 543H103Q138 583 166.5 633.5Q195 684 211 744H215Q231 684 259 633.5Q287 583 322 543Z" glyph-name="ucircumflex" horiz-adv-x="426" unicode="&#251;" /><glyph d="M281 180V377Q281 426 269.5 448Q258 470 229 484V486H363V109Q363 60 372 38.5Q381 17 409 2V0H281V97Q267 46 236.5 18Q206 -10 162 -10Q118 -10 87.5 21Q57 52 57 115V377Q57 426 45.5 448Q34 470 5 484V486H139V123Q139 90 152 65.5Q165 41 199 41Q230 41 255.5 72Q281 103 281 180ZM274 581Q251 581 237 597Q223 613 223 633Q223 652 237 668Q251 684 274 684Q294 684 309.5 668Q325 652 325 633Q325 613 309.5 597Q294 581 274 581ZM150 581Q129 581 114 597Q99 613 99 633Q99 652 114 668Q129 684 150 684Q172 684 186.5 668Q201 652 201 633Q201 613 186.5 597Q172 581 150 581Z" glyph-name="udieresis" horiz-adv-x="426" unicode="&#252;" /><glyph d="M281 180V377Q281 426 269.5 448Q258 470 229 484V486H363V109Q363 60 372 38.5Q381 17 409 2V0H281V97Q267 46 236.5 18Q206 -10 162 -10Q118 -10 87.5 21Q57 52 57 115V377Q57 426 45.5 448Q34 470 5 484V486H139V123Q139 90 152 65.5Q165 41 199 41Q230 41 255.5 72Q281 103 281 180ZM229 721Q229 684 234 633.5Q239 583 261 544H258Q213 581 184.5 623.5Q156 666 147 721Z" glyph-name="ugrave" horiz-adv-x="426" unicode="&#249;" /><glyph d="M281 180V377Q281 426 269.5 448Q258 470 229 484V486H363V109Q363 60 372 38.5Q381 17 409 2V0H281V97Q267 46 236.5 18Q206 -10 162 -10Q118 -10 87.5 21Q57 52 57 115V377Q57 426 45.5 448Q34 470 5 484V486H139V123Q139 90 152 65.5Q165 41 199 41Q230 41 255.5 72Q281 103 281 180ZM278 721H352Q343 666 318.5 623.5Q294 581 249 544H246Q268 583 273 633.5Q278 684 278 721ZM178 721H252Q243 666 218.5 623.5Q194 581 149 544H146Q168 583 173 633.5Q178 684 178 721Z" glyph-name="uhungarumlaut" horiz-adv-x="426" unicode="&#369;" /><glyph d="M281 180V377Q281 426 269.5 448Q258 470 229 484V486H363V109Q363 60 372 38.5Q381 17 409 2V0H281V97Q267 46 236.5 18Q206 -10 162 -10Q118 -10 87.5 21Q57 52 57 115V377Q57 426 45.5 448Q34 470 5 484V486H139V123Q139 90 152 65.5Q165 41 199 41Q230 41 255.5 72Q281 103 281 180ZM318 579H107V614H318Z" glyph-name="umacron" horiz-adv-x="426" unicode="&#363;" /><glyph d="M30 -96V-69H216V-96Z" glyph-name="underscore" horiz-adv-x="245" unicode="_" /><glyph glyph-name="uni00A0" horiz-adv-x="130" unicode="&#160;" /><glyph d="M75 700H446Q459 700 472 701.5Q485 703 493 707L506 500H504Q467 596 432.5 638.5Q398 681 314 681H302V110Q302 61 315 38.5Q328 16 365 2V0H157V2Q193 16 206 38.5Q219 61 219 110V681H208Q123 681 88.5 638.5Q54 596 17 500H15L29 707Q37 703 49.5 701.5Q62 700 75 700ZM318 -126Q318 -164 288 -192Q258 -220 211 -222V-209Q249 -206 265.5 -186.5Q282 -167 285 -140Q278 -147 268.5 -150Q259 -153 249 -153Q229 -153 215.5 -139.5Q202 -126 202 -108Q202 -86 217 -72Q232 -58 255 -58Q283 -58 300.5 -75.5Q318 -93 318 -126Z" glyph-name="uni021A" horiz-adv-x="521" unicode="&#538;" /><glyph d="M246 157H255Q253 78 228.5 34Q204 -10 149 -10Q102 -10 77 22Q52 54 52 124V460H1V466Q55 481 86 532Q117 583 126 657H134V486H242L237 460H134V128Q134 80 145 59.5Q156 39 180 39Q208 39 225 68.5Q242 98 246 157ZM206 -126Q206 -164 176 -192Q146 -220 99 -222V-209Q137 -206 153.5 -186.5Q170 -167 173 -140Q166 -147 156.5 -150Q147 -153 137 -153Q117 -153 103.5 -139.5Q90 -126 90 -108Q90 -86 105 -72Q120 -58 143 -58Q171 -58 188.5 -75.5Q206 -93 206 -126Z" glyph-name="uni021B" horiz-adv-x="271" unicode="&#539;" /><glyph d="M144 -66Q144 -153 107 -194Q70 -235 10 -235Q-39 -235 -73 -214Q-107 -193 -107 -147Q-107 -119 -87.5 -98.5Q-68 -78 -39 -78Q-24 -78 -10.5 -85.5Q3 -93 9 -104Q-4 -108 -20.5 -120Q-37 -132 -37 -162Q-37 -187 -24.5 -202.5Q-12 -218 10 -218Q45 -218 53.5 -176.5Q62 -135 62 -89V377Q62 426 50.5 448Q39 470 10 484V486H144Z" glyph-name="uni0237" horiz-adv-x="199" unicode="&#567;" /><glyph d="M148 657Q148 675 137 682Q126 689 94 694V700H211V453Q211 435 221 428Q231 421 262 416V410H96V416Q128 421 138 428Q148 435 148 453ZM20 358H345V342H20ZM172 11Q196 11 210.5 32Q225 53 225 80Q225 117 207.5 134Q190 151 157 151V160Q190 161 202 179Q214 197 214 227Q214 247 204 263.5Q194 280 174 280Q154 280 144 267.5Q134 255 134 242Q134 229 140 220.5Q146 212 156 212Q159 212 161.5 212.5Q164 213 165 214H167Q163 204 152.5 198.5Q142 193 129 193Q110 193 99 204Q88 215 88 233Q88 261 112.5 277.5Q137 294 174 294Q220 294 247.5 275.5Q275 257 275 225Q275 194 253 178Q231 162 197 158Q235 156 261.5 135.5Q288 115 288 80Q288 38 254 17Q220 -4 172 -4Q132 -4 101.5 13Q71 30 71 64Q71 86 85 98Q99 110 119 110Q134 110 143.5 104Q153 98 157 88H155Q153 89 151 89.5Q149 90 146 90Q136 90 130 81Q124 72 124 57Q124 37 137 24Q150 11 172 11Z" glyph-name="uni2153" horiz-adv-x="365" unicode="&#8531;" /><glyph d="M171 689Q148 689 135.5 674.5Q123 660 123 643Q123 624 132.5 613Q142 602 156 602Q163 602 166.5 603Q170 604 174 607H175Q170 591 158 583.5Q146 576 130 576Q108 576 93.5 590.5Q79 605 79 630Q79 663 104.5 683.5Q130 704 171 704Q217 704 249 684.5Q281 665 281 622Q281 579 245 544Q209 509 134 459H200Q235 460 251 465.5Q267 471 283 496H287L275 410H69V411Q161 498 190.5 542.5Q220 587 220 632Q220 653 209 671Q198 689 171 689ZM20 358H345V342H20ZM172 11Q196 11 210.5 32Q225 53 225 80Q225 117 207.5 134Q190 151 157 151V160Q190 161 202 179Q214 197 214 227Q214 247 204 263.5Q194 280 174 280Q154 280 144 267.5Q134 255 134 242Q134 229 140 220.5Q146 212 156 212Q159 212 161.5 212.5Q164 213 165 214H167Q163 204 152.5 198.5Q142 193 129 193Q110 193 99 204Q88 215 88 233Q88 261 112.5 277.5Q137 294 174 294Q220 294 247.5 275.5Q275 257 275 225Q275 194 253 178Q231 162 197 158Q235 156 261.5 135.5Q288 115 288 80Q288 38 254 17Q220 -4 172 -4Q132 -4 101.5 13Q71 30 71 64Q71 86 85 98Q99 110 119 110Q134 110 143.5 104Q153 98 157 88H155Q153 89 151 89.5Q149 90 146 90Q136 90 130 81Q124 72 124 57Q124 37 137 24Q150 11 172 11Z" glyph-name="uni2154" horiz-adv-x="365" unicode="&#8532;" /><glyph d="M158 657Q158 675 147 682Q136 689 105 694V700H221V453Q221 435 231 428Q241 421 273 416V410H107V416Q138 421 148 428Q158 435 158 453ZM20 358H345V342H20ZM216 172Q258 157 277.5 135Q297 113 297 82Q297 42 266.5 19Q236 -4 188 -4Q142 -4 109.5 14.5Q77 33 77 69Q77 95 97.5 112Q118 129 147 134Q124 144 107 164Q90 184 90 211Q90 251 118 272.5Q146 294 186 294Q225 294 253 277.5Q281 261 281 231Q281 203 259.5 189Q238 175 216 172ZM138 237Q138 219 149 207.5Q160 196 179 188L212 174Q224 182 232 196Q240 210 240 231Q240 251 226 265Q212 279 186 279Q163 279 150.5 267Q138 255 138 237ZM151 132Q135 123 127.5 107Q120 91 120 72Q120 46 138.5 29Q157 12 188 12Q215 12 231.5 24Q248 36 248 55Q248 79 234.5 91Q221 103 196 113Z" glyph-name="uni215B" horiz-adv-x="365" unicode="&#8539;" /><glyph d="M182 421Q207 421 221 442Q235 463 235 490Q235 527 218 544Q201 561 167 561V570Q201 571 212.5 589Q224 607 224 637Q224 657 214.5 673.5Q205 690 184 690Q165 690 155 677.5Q145 665 145 652Q145 639 151 630.5Q157 622 167 622Q170 622 172.5 622.5Q175 623 176 624H178Q174 614 163.5 608.5Q153 603 139 603Q121 603 109.5 614Q98 625 98 643Q98 671 122.5 687.5Q147 704 184 704Q230 704 257.5 685.5Q285 667 285 635Q285 604 263 588Q241 572 207 568Q245 566 271.5 545.5Q298 525 298 490Q298 448 264.5 427Q231 406 182 406Q143 406 112.5 423Q82 440 82 474Q82 496 96 508Q110 520 129 520Q145 520 154.5 514Q164 508 167 498H165Q163 499 161.5 499.5Q160 500 156 500Q146 500 140 491Q134 482 134 467Q134 447 147 434Q160 421 182 421ZM20 358H345V342H20ZM216 172Q258 157 277.5 135Q297 113 297 82Q297 42 266.5 19Q236 -4 188 -4Q142 -4 109.5 14.5Q77 33 77 69Q77 95 97.5 112Q118 129 147 134Q124 144 107 164Q90 184 90 211Q90 251 118 272.5Q146 294 186 294Q225 294 253 277.5Q281 261 281 231Q281 203 259.5 189Q238 175 216 172ZM138 237Q138 219 149 207.5Q160 196 179 188L212 174Q224 182 232 196Q240 210 240 231Q240 251 226 265Q212 279 186 279Q163 279 150.5 267Q138 255 138 237ZM151 132Q135 123 127.5 107Q120 91 120 72Q120 46 138.5 29Q157 12 188 12Q215 12 231.5 24Q248 36 248 55Q248 79 234.5 91Q221 103 196 113Z" glyph-name="uni215C" horiz-adv-x="365" unicode="&#8540;" /><glyph d="M297 508Q297 459 262 432.5Q227 406 180 406Q142 406 112 423Q82 440 82 474Q82 496 95.5 508Q109 520 128 520Q144 520 153 514.5Q162 509 166 499H164Q163 500 161 500.5Q159 501 156 501Q146 501 140 491.5Q134 482 134 466Q134 448 146 434.5Q158 421 180 421Q209 421 222 446.5Q235 472 235 501Q235 534 219.5 555.5Q204 577 174 577Q157 577 142 568.5Q127 560 117 550H116L133 703Q154 700 178 698Q202 696 219 696Q243 696 259 699Q275 702 286 714V715H287L286 714Q286 683 272 662Q258 641 217 641Q198 641 175.5 645.5Q153 650 141 654L132 574Q141 584 158 592Q175 600 200 600Q243 600 270 574Q297 548 297 508ZM20 358H345V342H20ZM216 172Q258 157 277.5 135Q297 113 297 82Q297 42 266.5 19Q236 -4 188 -4Q142 -4 109.5 14.5Q77 33 77 69Q77 95 97.5 112Q118 129 147 134Q124 144 107 164Q90 184 90 211Q90 251 118 272.5Q146 294 186 294Q225 294 253 277.5Q281 261 281 231Q281 203 259.5 189Q238 175 216 172ZM138 237Q138 219 149 207.5Q160 196 179 188L212 174Q224 182 232 196Q240 210 240 231Q240 251 226 265Q212 279 186 279Q163 279 150.5 267Q138 255 138 237ZM151 132Q135 123 127.5 107Q120 91 120 72Q120 46 138.5 29Q157 12 188 12Q215 12 231.5 24Q248 36 248 55Q248 79 234.5 91Q221 103 196 113Z" glyph-name="uni215D" horiz-adv-x="365" unicode="&#8541;" /><glyph d="M95 604 103 700H308V699L258 621Q228 575 219.5 522Q211 469 216 414L149 407Q156 473 181 524Q206 575 243 624L258 644H153Q131 644 121 636Q111 628 100 604ZM20 358H345V342H20ZM216 172Q258 157 277.5 135Q297 113 297 82Q297 42 266.5 19Q236 -4 188 -4Q142 -4 109.5 14.5Q77 33 77 69Q77 95 97.5 112Q118 129 147 134Q124 144 107 164Q90 184 90 211Q90 251 118 272.5Q146 294 186 294Q225 294 253 277.5Q281 261 281 231Q281 203 259.5 189Q238 175 216 172ZM138 237Q138 219 149 207.5Q160 196 179 188L212 174Q224 182 232 196Q240 210 240 231Q240 251 226 265Q212 279 186 279Q163 279 150.5 267Q138 255 138 237ZM151 132Q135 123 127.5 107Q120 91 120 72Q120 46 138.5 29Q157 12 188 12Q215 12 231.5 24Q248 36 248 55Q248 79 234.5 91Q221 103 196 113Z" glyph-name="uni215E" horiz-adv-x="365" unicode="&#8542;" /><glyph d="M327 -139Q319 -176 299 -205.5Q279 -235 242 -235Q211 -235 189.5 -214.5Q168 -194 168 -159Q168 -111 203 -71Q238 -31 281 1V97Q267 46 236.5 18Q206 -10 162 -10Q118 -10 87.5 21Q57 52 57 115V377Q57 426 45.5 448Q34 470 5 484V486H139V123Q139 90 152 65.5Q165 41 199 41Q230 41 255.5 72Q281 103 281 180V377Q281 426 269.5 448Q258 470 229 484V486H363V109Q363 60 372 38.5Q381 17 409 2V0H296Q261 -33 241.5 -67.5Q222 -102 222 -135Q222 -164 234.5 -177.5Q247 -191 268 -191Q287 -191 300 -177.5Q313 -164 325 -137Z" glyph-name="uogonek" horiz-adv-x="426" unicode="&#371;" /></font>
</defs>
</svg>
